<?xml version="1.0" encoding="utf-8"?>
<!-- Generator: Adobe Illustrator 24.1.3, SVG Export Plug-In . SVG Version: 6.00 Build 0)  -->
<svg version="1.1" id="Ebene_1" xmlns="http://www.w3.org/2000/svg" xmlns:xlink="http://www.w3.org/1999/xlink" x="0px" y="0px"
	 viewBox="0 0 215 440" style="enable-background:new 0 0 215 440;" xml:space="preserve">
<style type="text/css">
	.st0{fill:#507531;stroke:#000000;stroke-width:2.4595;stroke-miterlimit:10;}
</style>
<path class="st0" d="M63,75.3c0.1-1.7,1.9-1.9,2.2-0.3c1.1,5.1,2.5,17.5,3.9,0.4L64.3,436c0,0.9-0.9,1-1.1,0.2
	c-1.1-5.2-2.2-3.2-3.1,0c-0.3,1.1-1.5,0.8-1.5-0.3C58.3,391.5,56.8,170.5,63,75.3z"/>
<path class="st0" d="M146.5,128C97,131.1,31.4,100.2,9.5,65.3C0.6,51.1,2.8,30,14.1,19.4C67.9-30.7,131,47.5,138.9,80.7
	c-47.8-78.8,19.5-67.1,32.9-60.8C191.7,29.1,256.6,64.7,146.5,128z"/>
</svg>
