<?xml version="1.0" encoding="utf-8"?>
<!-- Generator: Adobe Illustrator 24.1.3, SVG Export Plug-In . SVG Version: 6.00 Build 0)  -->
<svg version="1.1" id="Ebene_1" xmlns="http://www.w3.org/2000/svg" xmlns:xlink="http://www.w3.org/1999/xlink" x="0px" y="0px"
	 viewBox="0 0 215 330" style="enable-background:new 0 0 215 330;" xml:space="preserve">
<style type="text/css">
	.st0{fill:#507531;stroke:#000000;stroke-width:2.1193;stroke-miterlimit:10;}
</style>
<path class="st0" d="M153,55.6c-0.1-1.3-1.9-1.4-2.2-0.2c-1.1,3.8-2.5,13-3.9,0.3l5.5,272.4c0,0.6,0.9,0.7,1.1,0.1
	c1.1-3.9,2.2-2.4,3.1,0c0.3,0.8,1.5,0.6,1.5-0.2C158.3,295.1,159.3,126.3,153,55.6z"/>
<path class="st0" d="M69.6,94.7c49.4,2.3,115.1-20.6,137-46.5c8.9-10.6,6.8-26.2-4.6-34.1C148.1-23.1,85,34.9,77.1,59.6
	C124.9,1.1,57.6,9.8,44.2,14.4C24.3,21.3-40.6,47.8,69.6,94.7z"/>
</svg>
