<?xml version="1.0" encoding="utf-8"?>
<!-- Generator: Adobe Illustrator 24.1.3, SVG Export Plug-In . SVG Version: 6.00 Build 0)  -->
<svg version="1.1" id="Ebene_1" xmlns="http://www.w3.org/2000/svg" xmlns:xlink="http://www.w3.org/1999/xlink" x="0px" y="0px"
	 viewBox="0 0 400 330" style="enable-background:new 0 0 400 330;" xml:space="preserve">
<style type="text/css">
	.st0{fill:#FFFFFF;stroke:#000000;stroke-width:1.0773;stroke-miterlimit:10;}
	.st1{fill:none;stroke:#000000;stroke-width:1.0773;stroke-miterlimit:10;}
	.st2{fill:#535347;stroke:#000000;stroke-width:1.0773;stroke-miterlimit:10;}
	.st3{fill:#535249;stroke:#000000;stroke-width:1.0773;stroke-miterlimit:10;}
	.st4{stroke:#000000;stroke-width:1.0773;stroke-miterlimit:10;}
	.st5{fill:#F7F8BF;stroke:#000000;stroke-width:1.0773;stroke-miterlimit:10;}
</style>
<path class="st0" d="M9.3,194.4c6.4,4.9,5.7,10.8,18.6,17.2c2.2,4.2,3.7,10.5,2.4,18.9c-3.9,0.8-9.2-8.4-9.2-8.4s0.1,5.2-1.3,5.3
	C10.4,221.5,8.6,209.3,9.3,194.4z"/>
<path class="st1" d="M20,206.5c0,0-0.2,12.3,1,15.5"/>
<path class="st0" d="M388.5,190c-6.4,4.9-5.7,10.8-18.6,17.2c-2.2,4.2-3.7,10.5-2.4,18.9c3.9,0.8,9.2-8.4,9.2-8.4s-0.1,5.2,1.3,5.3
	C387.5,217.1,389.2,204.9,388.5,190z"/>
<path class="st1" d="M377.8,202.1c0,0,0.2,12.3-1,15.5"/>
<path class="st0" d="M166.6,323.1c-4.5,4.4-52.7,7.3-67.7-2.6c-0.6-4.3,7.8-9.5,11.1-10.4C126.6,314,146.9,311.7,166.6,323.1z"/>
<path class="st0" d="M142,314.6c0,0-10.6,9.2-10.6,12.6"/>
<path class="st0" d="M123.3,312.6c0,0-9.5,9.2-9.5,12.6"/>
<path class="st0" d="M238.1,323.1c4.5,4.4,52.7,7.3,67.7-2.6c0.6-4.3-7.8-9.5-11.1-10.4C278.2,314,257.8,311.7,238.1,323.1z"/>
<path class="st0" d="M262.8,314.6c0,0,10.6,9.2,10.6,12.6"/>
<path class="st0" d="M281.4,312.6c0,0,9.5,9.2,9.5,12.6"/>
<path class="st2" d="M28,223.4c-70.2-67.1,46.3-152.3,83.5-179.7c1.4-8.4-5.1-26.2,11.3-33.5c13,2.4,24.6,14.8,27.1,21
	C199,31,208.6,31,245,30.8c8.6-5.6,11.6-14.2,27.3-20.6c18,2.6,14.7,24.2,12.6,33c49.6,32.3,156.7,101.7,84.1,179.7"/>
<path class="st3" d="M40.1,150.7c0,0-50.2,105.8,48.8,159.9c29.8,12,55,14.2,107.1,11.3c3.4-2.4,3.7-16.3,3.7-16.3
	s0.3,13.8,3.7,16.3c56.1,3.6,76.3-2.6,106.9-11.3c98.7-64,45-162.8,45-162.8"/>
<circle class="st0" cx="264.8" cy="94.2" r="33.8"/>
<circle class="st4" cx="264.1" cy="95.5" r="17.2"/>
<circle class="st0" cx="258" cy="88.6" r="8"/>
<circle class="st0" cx="142.8" cy="94.2" r="33.8"/>
<circle class="st4" cx="142.1" cy="95.5" r="17.2"/>
<circle class="st0" cx="135.9" cy="88.6" r="8"/>
<path class="st1" d="M212.3,154.1c0,0,12.5,3.2,13.6,0"/>
<path class="st4" d="M232.3,132.2l-14.5,5.4c-7.2,7.7-19.5,8.1-27.3,0.7l-13.6-5.8c-10.8-10.1-3.8-28.2,10.9-28.1l32.4,0.2
	C234.5,104.8,242,121.8,232.3,132.2z"/>
<ellipse class="st5" cx="200.3" cy="232.9" rx="131" ry="72.8"/>
<path class="st2" d="M123.7,205.1c-3.9,2-8-2.2-5.7-6c4.5-7.5,13.1-15.1,18.3-14.6c4.9,0.4,13.2,6.8,17.5,13c2.1,3-0.9,7-4.4,5.8
	C140.4,200.2,132.9,200.3,123.7,205.1z"/>
<path class="st2" d="M184.3,215.7c-3.9,2-8-2.2-5.7-6c4.5-7.5,13.1-15.1,18.3-14.6c4.9,0.4,13.2,6.8,17.5,13c2.1,3-0.9,7-4.4,5.8
	C200.9,210.8,193.4,210.9,184.3,215.7z"/>
<path class="st2" d="M241.2,200c-3.9,2-8-2.2-5.7-6c4.5-7.5,13.1-15.1,18.3-14.6c4.9,0.4,13.2,6.8,17.5,13c2.1,3-0.9,7-4.4,5.8
	C257.9,195.1,250.4,195.2,241.2,200z"/>
<path class="st2" d="M144.6,242.6c-3.9,2-8-2.2-5.7-6c4.5-7.5,13.1-15.1,18.3-14.6c4.9,0.4,13.2,6.8,17.5,13c2.1,3-0.9,7-4.4,5.8
	C161.3,237.7,153.8,237.8,144.6,242.6z"/>
<path class="st2" d="M222.7,242.6c-3.9,2-8-2.2-5.7-6c4.5-7.5,13.1-15.1,18.3-14.6c4.9,0.4,13.2,6.8,17.5,13c2.1,3-0.9,7-4.4,5.8
	C239.3,237.7,231.8,237.8,222.7,242.6z"/>
</svg>
