<?xml version="1.0" encoding="utf-8"?>
<!-- Generator: Adobe Illustrator 24.1.3, SVG Export Plug-In . SVG Version: 6.00 Build 0)  -->
<svg version="1.1"
	 id="Ebene_1" xmlns:cc="http://creativecommons.org/ns#" xmlns:dc="http://purl.org/dc/elements/1.1/" xmlns:rdf="http://www.w3.org/1999/02/22-rdf-syntax-ns#"
	 xmlns="http://www.w3.org/2000/svg" xmlns:xlink="http://www.w3.org/1999/xlink" x="0px" y="0px" viewBox="0 0 440 460"
	 style="enable-background:new 0 0 440 460;" xml:space="preserve">
<style type="text/css">
	.st0{fill:#96642C;}
	.st1{fill:#8C5829;}
</style>
<g transform="translate(0 -452.36)">
	<g transform="matrix(1.1719 0 0 1.1901 .0000012857 443.32)">
		<path class="st0" d="M-1.5,201.8V5.5h189.3H377v196.3v196.3H187.7H-1.5V201.8z"/>
		<path class="st1" d="M3.5,389.9c1.2-94.7,9.5-189.5,2.8-284.2C5.1,72.3,3.8,39,3.5,5.6c8.7,26.8,3,55.3,6,82.8
			c0.4,72.9,6.6,145.9-0.6,218.7c-1.7,28.2-2.8,56.4-2.8,84.6C4.1,398.6,2.2,393.2,3.5,389.9L3.5,389.9z M29.5,370.6
			c-2.4-96.4-6.7-193,0.3-289.3c0.1-25.3-1-50.7,0.9-75.9c0.3,88.9,2.4,167.7-2.1,251.9c4.9,50.6,0.2,78.1,6.2,119.3
			c0.9,17-9.3,14.9-5.2-0.4l0-2.8L29.5,370.6z M37.2,395.6c-3.5-135.9-2.9-255.4-0.1-380.5c10.9-3,0.8,25.3,3.9,33.9
			c-9.3,119.9,4.2,232.1,1.3,343.4C41.6,394.4,39.5,396.6,37.2,395.6L37.2,395.6z M46.1,390.4c3.4-30.2,1.7-60.6-1.6-90.7
			c-4.6-68.6-4.9-137.4-1.4-206c1.1-26.2,0-53.3,4.1-78.9c3.9,14.4-0.7,32.1-0.6,47.8c-1.1,19-2,38.1-1.1,57.2
			c4-36.2,1.3-72.8,7-108.8c-1.1,51.5-6.4,102.9-6.2,154.5c-1,56.5,3,113,9.3,169.1c0.9,16.8,0.4,46.2-1.8,55.1
			c-1.5-26.9,2.6-54.1-2.6-80.8c-9.8-279.8-8.9-127.1,0.3,48.1C51.1,365.3,53.5,391.5,46.1,390.4L46.1,390.4z M41.8,203.5
			C39.5,204.9,44.2,205.1,41.8,203.5z M66.8,396.1c3.3-59.6,2.1-119.4,4.7-179.1c-16.9-46-10.4-96.1-7.9-144
			c6.4-17.5-6.2-57.2,9-60.7c3.4,30.7-5.4,62.6,5.5,92.4c8.9,19.5,10.2,40.9,9.5,62.2c-3.6,43.3,2.7,97.8,8.3,146.3
			c2.3,21.5,1.9,43.1,3.8,64.6c0.8,10.6-8.8,19.3-6.7,3.1c-1.4-22.6,2.1-45.9-2.3-68.1c-15.2-1.7-8.1,28.1-12.1,39.8
			c-2.8,14.5-0.5,34-8.9,45l-1.7-0.5L66.8,396.1L66.8,396.1z M76.4,390.8c4.9-13.8,0.4-51.3,12.5-50.8c2.4,14.3,3.4,41.3-0.6,48.1
			c-1-9,6.5-38.1-5.4-33.7C81.4,365.3,83.4,379.4,76.4,390.8L76.4,390.8z M100.2,392.9c5.2-58.7-3.3-117.2-9.2-175.4
			c-2.5-33.1-2.4-66.3-0.7-99.4c-0.9-12.8-25-31.5-2.4-31.8c7-17.7-1.2-37.4,0.9-56c5.8-29.6-6.3,25.9,7.4,17.7
			c0.7-9.1,4.8-42.8,2.7-17.2c-8.9,83-12.8,167.5,1.9,250c2.7,29.9,2.7,60,4.5,90C99.4,376.5,106.3,388.3,100.2,392.9L100.2,392.9z
			 M104.4,393.8c5.9-19.3,0.1-40,7.4-58.6c2.3-10.7-6.4-42-1.3-41.5c4.6,32.7,3.2,66.2-3.4,98.3
			C106.8,393.6,105.5,393.5,104.4,393.8L104.4,393.8z M111.8,395.9c5.7-20,3.3-41.3,8.4-61c-3.6-67.7-18.4-135.5-17.2-198.8
			c2.4-22.6-6.4-46.2,3.1-68c2.2-17.2-3.4-38.9,4-52.5c11.2-19.2,2.9,17.7,2.4,24.7c-6.2,54.3-1.4,90.4-2.5,163.8
			c13.3,50.5,16.2,102.3,13.8,150.6C121.9,364.3,120.3,399.1,111.8,395.9L111.8,395.9z M140.1,391c4.3-63.3,6.1-127.2-1.1-190.3
			c-2.1,16.4-14,14.8-12.1-1.2c-6.3-34.3-12.8-70-3.3-104.3c4.8-22.8,12.3-45.2,13.4-68.6c-3.1,6.3-10.8,35.5-6.1,13.8
			c-2.5-8.9,11.8-40.1,10.6-16.7c-1.6,7.1-7,35.2-1.5,30.5c1.9-15.2-0.5-53.5,23.7-42.3c2.3,27.3,3.4,54.8,10.2,81.4
			c-0.2,18.7,1.6,44.2-9.4,58.3c-6.1-13.6,0.8-35-9.6-44.8c-13.8,24.9-3.2,37.7-5.3,81.5c-10.7,73.1,17.8,136.4,4.5,204.6
			c-2.9-15.2-1.3,8-4.8-6.7c-2.3-21.3,3.4-42.9-3.4-63.9c-1.4,22.9,5.6,47.1-2.4,69.3C139.3,397.4,140,396.8,140.1,391L140.1,391z
			 M141.6,392.9C139.3,394.3,144,394.5,141.6,392.9z M146.8,252.3c0.2-31-3.4-70.6-5.7-105.9c-4.7,6.4-5.4,38-12.4,15.9
			c-9.7-24.8,1.3-50.9,8.6-74.6c3.6-9.6-5.4-18.3-4.4-4c-6,25.6-12.4,52.2-8,78.7c-4.5,16.6,15.5,25.9,15.7,9.2
			c4.8,16.5,2,34.7,4.4,51.9c1,19.6,1.5,39.3,0.8,58.9C147,272.4,146.4,262.3,146.8,252.3L146.8,252.3z M132.5,182.9
			C130.5,177.1,135.4,186.1,132.5,182.9z M157.3,390.8c-5.5-9.1,9.7-29,7.6-8.6C166.2,387.9,161,406.8,157.3,390.8z M167,397.1
			c2.5-27.7-5.8-54.5-10.4-81.3c-4.5-57-7.9-114.6,0.1-171.4c4.9,3.9,3.7,37.7,10.8,22.3c-0.9-15.2,16.5-17,11,0.3
			c4.1,66.9,2.2,134.1,5.2,201.1c-4.8-67.1-1.7-134.6-7.8-201.6c-10.5-5.1-7,33.9-16.3,13.1c-9.3,29.8-5,61.6-4.9,92.4
			c2.5,40.9,15.3,81.1,12.9,122.3L167,397.1z M185.9,376.8c-3.1-50.3-4.3-155.1-3.7-232.8c5.2-45.7,8-91.9,4.2-137.9
			c9.1,6.3,1.5,43,4,16.1c-1.1-13.2,2.9-14.2,1.9-0.6c-0.9,47.2,1.5,94.6-2.9,141.7c-1.5,20.4,2.5,40.5-0.9,60.9
			c-0.9,56.4,3.8,112.7,3.3,169.1C182.9,402.5,187.3,380.5,185.9,376.8L185.9,376.8z M190.4,370.6c-1.3-11.1,0-25.8-2.5-34.7
			C188.7,347.5,186.6,359.5,190.4,370.6z M200.2,395.9c-3.3-59.9-1.4-121.3-0.4-195.2c3.9-53.3,8.5-106.9,1.8-160.1
			c-2.1-8.8,0.9-44.7,2.9-20.2c1.8,30.2,3,60.5,3.6,90.7c0.1,18.9-0.1,37.9-0.4,56.8c9.2-20.7,2.6-44.4,4.5-66.3
			c-2.2-26.8-2.6-53.6-5.5-80.3c6.9-21.6,8.3,13.2,8.2,20.8c6.8,128.2-9.8,238.1-3.2,353.8c-16.3-73.5,0.2-155-1.4-224.4
			c-9.8,26.8-2.8,50.6-8.5,94.1c-0.8,30.7-0.2,61.5,2.3,92.1C195.9,371.5,214.6,383.1,200.2,395.9L200.2,395.9z M230.7,396.3
			c-1.4-32.4-9.1-64.4-7.3-97c-1.9-93.8,6.8-187.3,7.2-281.1c7.2-10.3,1.3,23.4,1.8,29.8c-1.7,80.5-9,179.4-5.8,269.6
			c-2.4,22.3,10.4,36.9,7.9,58.9C233.9,383.1,239.9,393.8,230.7,396.3L230.7,396.3z M238.4,394.4c3.9-33.9-3.7-67.5-9-100.7
			c-4.3-44.7-0.9-89.6,0.2-134.3c4.6,25.1-0.1,50.8,1.6,76.2c-0.1,29.8,5.2,59.2,9.7,88.4c1.8,23.7,1.6,47.6-1.1,71.2l-0.9,0.1
			L238.4,394.4z M244.2,396.9c2.1-48.3,1.3-97.1-8.3-144.5c-3.7-69.7-2.7-139.7,5.7-209c-0.5-8.7-1.9-37.6,10.6-29.1
			c-0.9,33.8-8.1,67-11.5,100.5c-3,115.7-1.7,111.7,6.9,146.8c1.9,27.7,4.3,55.6,4.4,83.2c-1.1,17.6,5.7,41-7.2,51.3l-0.2,0.6
			L244.2,396.9L244.2,396.9z M256,344c1.2-93.9-12-188.2,0-281.8c0-12.6-0.9-46.1,3-45.3c-3.4,85.4-7.8,170.9-1.8,256.3
			c1.4,41.3,2.4,82.7,1.9,124C250.9,380.4,258.9,361.6,256,344L256,344z M283.6,394.4c-0.1-28,1.6-56,4.7-83.8
			c21.6,9.1,2.9,37.6,7,55.4C294.9,374.3,298.9,400.5,283.6,394.4L283.6,394.4z M300.4,394.4c1.7-9.8,3.8-42.2,3.7-16.3
			C304,383.7,303.2,389.5,300.4,394.4z M323.7,392.1c-1.4-98.5,15.4-197.1,3-295.5c-4.8-29.5-4-59.3-2.9-89
			c8.1,35.6,0.8,74.2,6.7,84.6c6,79,1.9,158.2,0.8,237.3c-4,20.8-1.7,48.6-7.2,65.5L323.7,392.1z M329.2,388.3
			c3-25.6,10.9-50.9,5.9-76.9c-1.3-62.2,0-124.5,0.3-186.7c1,84.9,1,170.1,1.8,254.9C337.3,385,327.4,404.8,329.2,388.3L329.2,388.3
			z M335.3,291.7C333,293.1,337.7,293.3,335.3,291.7z M347.6,380.2c4-6.1-3.9-19.6-2.9-5.1c3-52.1,8.3-104.6-0.3-156.4
			c-2.3-45.4,1.9-90.8,1-136.2c1.7-24.4-3-50.7,3.7-73.9c18-13.6,35.1,10,24.9,26.9c4,109.1,2.8,218.3,1.8,327.5
			c3,15.4-5,36.6-21.4,34.2C348.1,394.5,345.6,386.6,347.6,380.2L347.6,380.2z M365.4,181.8c2.2-48.9,0.7-98-3.2-146.8
			c-9.2,18.8-1.8,41.5-5.2,61.9c0.2,30.3,3,60.5,7.2,90.5C365,185.6,365.3,183.8,365.4,181.8L365.4,181.8z M362.3,174.6
			C361.3,170.1,364,176,362.3,174.6z M375.2,100.7C372.9,102.1,377.6,102.4,375.2,100.7z M375.2,97.7
			C372.9,99.1,377.6,99.3,375.2,97.7z M235.1,393.1C234.1,388.6,236.8,394.5,235.1,393.1z M156.5,380.6
			C152.6,372.2,160.3,380.4,156.5,380.6z M271.8,368.8c-9.6,2.2,4.1-16.1-6.7-9.4c-1.6-75.3-5.8-150.7-4.8-226
			c0.8-19.7,3.2-39.5,2.7-59c11.5-14.6,7.5,17.9,10.2,26.2c1,19.4,4,38.4,8.1,57.3c10.4,43.8,14.2-44.6,16.9-59.6
			c3.6-15.2-1-37.3,9.9-48.2c6,16.6,4.8,35.4,8.3,52.8c7.1,58.4,9.6,118.6-1.7,176.5c-10.6-21.8-10.7-48.6-17.2-72.4
			c4.6,15.4-7.8-13.4-8,6.1c-4.1,31.1-8,62.2-12.2,93.2c-2.6,20.8-3.3,42-4.7,62.6L271.8,368.8L271.8,368.8z M268,302.4
			C265.7,303.8,270.4,304,268,302.4z M277.6,197.5c-3.6-24.6-5.7-49.4-10.2-73.8c-7.5,25-3.4,51.8-3.3,77.5
			c1.1,22.2,0.3,44.6,3.6,66.6C283.1,278,278.1,203.9,277.6,197.5L277.6,197.5z M314.9,235.9c7.6-51,2.9-103-6-153.4
			c-15,21.4-6.5,49-10.5,73.2C299.8,183.1,302.9,211.1,314.9,235.9L314.9,235.9z M110.8,368.2C109.7,362.3,113.5,370.5,110.8,368.2z
			 M253.2,357.6C254.2,347.3,254.6,362.9,253.2,357.6z M318.8,339.4c-1.9-11,3.2-14.5,1.6-0.6C320.7,348.5,317.6,355.2,318.8,339.4z
			 M303.7,351.9c-3.5-9.4,1.7-30.3,0.9-8.3C304.6,346.4,304.6,349.2,303.7,351.9z M85.7,346.3C84.7,341.7,88,348.5,85.7,346.3z
			 M204.9,342.5C204.8,336.6,205.9,345.7,204.9,342.5z M204.9,336.7C205.5,330.5,205.5,342.9,204.9,336.7z M97.6,335.6
			C96.6,331.1,99.3,337,97.6,335.6z M204.9,330.6C205.3,325.3,205.3,335.9,204.9,330.6z M3.1,304.1c6.9-91.4-0.9-78.6,1.2-2.9
			C4,308,2.7,317.8,3.1,304.1z M169.7,310.2c0.1-14.5-9-51.8,0.4-52.9C174,274.4,177.4,291.7,169.7,310.2z M30.7,297
			c-2-18.6,2.9-8.3,0.6,4.2L30.7,297z M33.7,278.7C28.6,275.5,35.4,273.6,33.7,278.7z M103.4,267c-5.9-39.3-5.7-79.2-6.7-118.9
			c-0.6-41.7-3.6-51.2,7.1-132.3c4.6,9.7-5.4,39.4-4.2,56.4c-1.8,41.8-1,83.7-0.3,125.4C109.5,218.3,84.6,254.2,103.4,267L103.4,267
			z M28.7,215.8C8.5,337.2,18.6,276.5,28.7,215.8z M138.5,204.5C133.2,200.3,140.5,198.9,138.5,204.5z M207,181.5
			C206,177,208.7,182.9,207,181.5z M207.7,170C206.8,165.5,209.4,171.4,207.7,170z M173,166.2C172,161.7,174.7,167.6,173,166.2z
			 M321.5,155.3C324.3,152.6,321,160.6,321.5,155.3z M230.3,130.4c0.8-39.6,2.4-79.2,7.8-118.4c6,21.3-5.2,42.5-4.1,64
			c-1.4,22-0.8,44.2-3.8,66.1C230,138.2,230.3,134.3,230.3,130.4L230.3,130.4z M376.3,124C375.3,119.5,378,125.4,376.3,124z
			 M334.6,123c-1.2-29.7-7.1-45.9-5.7-109.6c9.9,2.9,2.1,30.5,4.9,42.6C334.5,78.3,337.1,100.7,334.6,123L334.6,123z M333.1,50.9
			C330.8,52.3,335.5,52.5,333.1,50.9z M376.4,117.4C377,111.2,377,123.7,376.4,117.4z M157,110.4C154.6,100.4,159.9,114.2,157,110.4
			z M178.8,109.1c-4-31-7.6-62.1-11.1-93.1c8.4,14.9,4.2,35.4,7.2,52.4c-0.8,10.3,9.9,22.2,10.2,4.7c2.5-15-2.7-45.7,0.1-51.2
			c1.2,28.8,3.2,58.2-3.9,86.4C183.1,100.8,180.4,109,178.8,109.1L178.8,109.1z M250.3,108.5c0.5-16.3,2.8-51.9,4.6-55.7
			C254.5,71.4,252.6,90,250.3,108.5z M116.9,104.2c0.5-9.4,7.5-30.8,3.9-8.8C120.3,98.5,119.3,101.9,116.9,104.2z M375.5,93.3
			C376.5,86.7,376.6,100.7,375.5,93.3z M179.7,85.3C177.5,81.7,183.8,86.8,179.7,85.3z M375.7,77.2C375.9,70,376.4,81.9,375.7,77.2z
			 M79.8,72.2c-4.7-31.6,2.5-81.8,5.4-25C84.2,55.6,83.9,64.8,79.8,72.2z M285.7,62c0.6-14.4-10.8-50.7,6.5-49.1
			C296.6,29.7,286.9,45.6,285.7,62z M310.5,61.9C309.5,57.4,312.2,63.3,310.5,61.9z M167.5,58C169,54.7,168.1,63.6,167.5,58z
			 M85,47.3C84,42.8,86.7,48.7,85,47.3z M241,27.4C240,22.9,242.7,28.8,241,27.4z"/>
	</g>
</g>
</svg>
