<?xml version="1.0" encoding="utf-8"?>
<!-- Generator: Adobe Illustrator 24.1.3, SVG Export Plug-In . SVG Version: 6.00 Build 0)  -->
<svg version="1.1" id="Ebene_1" xmlns="http://www.w3.org/2000/svg" xmlns:xlink="http://www.w3.org/1999/xlink" x="0px" y="0px"
	 viewBox="0 0 1094 457" style="enable-background:new 0 0 1094 457;" xml:space="preserve">
<style type="text/css">
	.st0{fill:#FFFFFF;stroke:#000000;stroke-width:0.9668;stroke-miterlimit:10;}
	.st1{fill:none;stroke:#000000;stroke-width:0.9668;stroke-miterlimit:10;}
	.st2{fill:#535347;stroke:#000000;stroke-width:0.9668;stroke-miterlimit:10;}
	.st3{fill:#535249;stroke:#000000;stroke-width:0.9668;stroke-miterlimit:10;}
	.st4{fill:#FFFFFF;stroke:#000000;stroke-width:0.9667;stroke-miterlimit:9.9997;}
	.st5{stroke:#000000;stroke-width:0.9668;stroke-miterlimit:10.0002;}
	.st6{stroke:#000000;stroke-width:0.9668;stroke-miterlimit:10;}
	.st7{fill:#F7F8BF;stroke:#000000;stroke-width:0.9668;stroke-miterlimit:10;}
</style>
<g>
	<path class="st0" d="M63,281.1c5.7,4.4,5.1,9.7,16.7,15.4c2,3.8,3.3,9.4,2.2,17c-3.5,0.7-8.3-7.5-8.3-7.5s0.1,4.7-1.2,4.8
		C64,305.4,62.4,294.5,63,281.1z"/>
	<path class="st1" d="M72.6,292c0,0-0.2,11,0.9,13.9"/>
	<path class="st0" d="M403.3,277.2c-5.7,4.4-5.1,9.7-16.7,15.4c-2,3.8-3.3,9.4-2.2,17c3.5,0.7,8.3-7.5,8.3-7.5s-0.1,4.7,1.2,4.8
		C402.4,301.5,403.9,290.5,403.3,277.2z"/>
	<path class="st1" d="M393.7,288c0,0,0.2,11-0.9,13.9"/>
	<path class="st0" d="M204.2,396.6c-4,3.9-47.3,6.6-60.8-2.3c-0.5-3.9,7-8.5,10-9.3C168.3,388.5,186.5,386.4,204.2,396.6z"/>
	<path class="st0" d="M182.1,389c0,0-9.5,8.3-9.5,11.3"/>
	<path class="st0" d="M165.3,387.2c0,0-8.5,8.3-8.5,11.3"/>
	<path class="st0" d="M268.3,396.6c4,3.9,47.3,6.6,60.8-2.3c0.5-3.9-7-8.5-10-9.3C304.3,388.5,286,386.4,268.3,396.6z"/>
	<path class="st0" d="M290.5,389c0,0,9.5,8.3,9.5,11.3"/>
	<path class="st0" d="M307.2,387.2c0,0,8.5,8.3,8.5,11.3"/>
	<path class="st2" d="M79.8,307.1c-63-60.2,41.5-136.7,74.9-161.3c1.3-7.5-4.6-23.5,10.1-30.1c11.7,2.2,22.1,13.3,24.3,18.8
		c44.1-0.2,52.7-0.2,85.3-0.4c7.7-5,10.4-12.7,24.5-18.5c16.2,2.3,13.2,21.7,11.3,29.6c44.5,29,140.6,91.3,75.5,161.3"/>
	<path class="st3" d="M90.7,241.9c0,0-45,94.9,43.8,143.5c26.7,10.8,49.4,12.7,96.1,10.1c3.1-2.2,3.3-14.6,3.3-14.6
		s0.3,12.4,3.3,14.6c50.3,3.2,68.5-2.3,95.9-10.1c88.6-57.4,40.4-146.1,40.4-146.1"/>
	<ellipse transform="matrix(0.329 -0.9443 0.9443 0.329 15.5664 404.301)" class="st4" cx="292.3" cy="191.2" rx="30.3" ry="30.3"/>
	
		<ellipse transform="matrix(0.1602 -0.9871 0.9871 0.1602 55.0735 449.4417)" class="st5" cx="291.7" cy="192.4" rx="15.4" ry="15.4"/>
	<circle class="st0" cx="286.2" cy="186.2" r="7.2"/>
	<circle class="st0" cx="182.8" cy="191.2" r="30.3"/>
	<circle class="st6" cx="182.2" cy="192.4" r="15.4"/>
	<circle class="st0" cx="176.6" cy="186.2" r="7.2"/>
	<path class="st1" d="M245.2,245c0,0,11.2,2.9,12.2,0"/>
	<path class="st6" d="M263.1,225.3l-13,4.8c-6.5,6.9-17.5,7.3-24.5,0.6l-12.2-5.2c-9.7-9.1-3.4-25.3,9.8-25.2l29.1,0.2
		C265.1,200.7,271.8,216,263.1,225.3z"/>
	<ellipse class="st7" cx="234.4" cy="315.7" rx="117.6" ry="65.3"/>
	<path class="st2" d="M165.7,290.7c-3.5,1.8-7.2-2-5.1-5.4c4-6.7,11.8-13.6,16.4-13.1c4.4,0.4,11.8,6.1,15.7,11.7
		c1.9,2.7-0.8,6.3-3.9,5.2C180.7,286.3,173.9,286.4,165.7,290.7z"/>
	<path class="st2" d="M220.1,300.2c-3.5,1.8-7.2-2-5.1-5.4c4-6.7,11.8-13.6,16.4-13.1c4.4,0.4,11.8,6.1,15.7,11.7
		c1.9,2.7-0.8,6.3-3.9,5.2C235,295.8,228.2,295.9,220.1,300.2z"/>
	<path class="st2" d="M271.1,286.1c-3.5,1.8-7.2-2-5.1-5.4c4-6.7,11.8-13.6,16.4-13.1c4.4,0.4,11.8,6.1,15.7,11.7
		c1.9,2.7-0.8,6.3-3.9,5.2C286.1,281.8,279.4,281.8,271.1,286.1z"/>
	<path class="st2" d="M184.4,324.4c-3.5,1.8-7.2-2-5.1-5.4c4-6.7,11.8-13.6,16.4-13.1c4.4,0.4,11.8,6.1,15.7,11.7
		c1.9,2.7-0.8,6.3-3.9,5.2C199.4,320,192.7,320.1,184.4,324.4z"/>
	<path class="st2" d="M254.5,324.4c-3.5,1.8-7.2-2-5.1-5.4c4-6.7,11.8-13.6,16.4-13.1c4.4,0.4,11.8,6.1,15.7,11.7
		c1.9,2.7-0.8,6.3-3.9,5.2C269.4,320,262.7,320.1,254.5,324.4z"/>
</g>
</svg>
