<?xml version="1.0" encoding="utf-8"?>
<!-- Generator: Adobe Illustrator 24.1.3, SVG Export Plug-In . SVG Version: 6.00 Build 0)  -->
<svg version="1.1" id="Ebene_1" xmlns="http://www.w3.org/2000/svg" xmlns:xlink="http://www.w3.org/1999/xlink" x="0px" y="0px"
	 viewBox="0 0 1094 457" style="enable-background:new 0 0 1094 457;" xml:space="preserve">
<style type="text/css">
	.st0{fill:#FFFFFF;}
	.st1{fill:#FFFFFF;stroke:#FFFFFF;stroke-width:2.7531;stroke-miterlimit:10;}
	.st2{fill:#FFFFFF;stroke:#FFFFFF;stroke-width:2.7626;stroke-miterlimit:10;}
	.st3{fill:#FCF506;}
	.st4{fill:#FFFFFF;stroke:#FFFFFF;stroke-width:2.1706;stroke-miterlimit:10;}
</style>
<path class="st0" d="M261.8,268.5v70h61.8v-73.7h-24.2l-0.3,44.5c-5.1-5.1-11.3-11.8-18.7-20.1C274.2,282.3,268,275.4,261.8,268.5z
	 M297.4,331.3c2.4-0.3,5.6-0.4,9.4-0.4h9.6l0.6-23.1h0.7l0.3,24.5h-20.6V331.3L297.4,331.3z"/>
<path class="st0" d="M153.4,304c-6-6-12-12-18-18.1c-7.2-7.1-13.3-12.9-18.3-17.5v69.5h75.3v-70.2L155.8,304H153.4z M167,330.6
	l16.7-0.2l0.7-21.1h0.6l0.4,22l-18.3,0.3L167,330.6L167,330.6z"/>
<path class="st0" d="M189.1,338.1l77.7-0.2l-36.9-70.3L189.1,338.1z M244,333.4l13.5-0.4c-0.6-1.9-1.9-4.7-3.9-8.3
	c-2.1-3.8-3.5-6.7-4.1-8.6l0.9-0.6l9.7,18.6l-16.2,0.3L244,333.4L244,333.4z M231.9,310.1c0.2,1.3-0.1,2.4-0.6,3.4
	c-0.7,1.2-1.7,1.7-2.9,1.7c-1.6,0-2.8-0.8-3.6-2.5c-0.2-1-0.1-2,0.2-2.9c0.4-1.2,1.1-1.9,2.1-2.1c0.3-0.1,0.6-0.1,0.9-0.1
	C229.7,307.6,231,308.4,231.9,310.1z"/>
<polygon points="180.1,309.3 179.6,309.3 178.8,330.4 162.2,330.6 162.2,331.7 180.5,331.3 "/>
<path class="st1" d="M174.7,282c-7.9,7.9-14.7,14.4-20.3,19.6l-39.5-39v77.5h80.2l-0.3-78.3C188.1,268.5,181.4,275.2,174.7,282z
	 M192.4,337.8h-75.3v-69.5c5.1,4.6,11.2,10.4,18.3,17.5c6,6.1,12,12.1,18,18.1h2.4l36.6-36.3L192.4,337.8L192.4,337.8z"/>
<path d="M257.6,315.6l-0.9,0.6c0.6,1.9,2,4.8,4.1,8.6c2,3.6,3.3,6.4,3.9,8.3l-13.5,0.4v1l16.2-0.3L257.6,315.6z"/>
<path class="st2" d="M226.4,266.2l-37.9,66.7c-1.5,2.6-2.1,7.1,2.6,7.1h74c2.9,0,4.1-4.5,2.8-7.1l-17.4-33.8
	c-6.6-12.7-12.3-23.7-17.3-32.8C231.8,263.6,227.9,263.5,226.4,266.2z M192.6,330.5l33.7-59c1.5-2.7,5.4-2.6,6.9,0.1l30.6,58.9
	c1.3,2.6-0.5,5.7-3.5,5.7l-64.3,0.1C193,336.4,191.1,333.1,192.6,330.5z"/>
<path d="M234.3,307.7c-1,0.3-1.7,1-2.1,2.1c-0.3,0.9-0.4,1.9-0.2,2.9c0.8,1.7,2.1,2.5,3.6,2.5c1.3,0,2.2-0.6,2.9-1.7
	c0.6-1,0.8-2.1,0.6-3.4c-0.9-1.7-2.2-2.5-3.9-2.5C234.9,307.6,234.6,307.6,234.3,307.7z"/>
<path class="st1" d="M296.7,303.5l-36.9-41.2V340h65.8v-77.9h-28.1L296.7,303.5z M299.4,264.8h24.2v73.7h-61.7v-70
	c6.2,6.9,12.3,13.8,18.6,20.7c7.4,8.3,13.7,15,18.7,20.1L299.4,264.8z"/>
<path class="st0" d="M143.2,143.1v70h61.7v-73.7h-24.2l-0.3,44.5c-5.1-5.1-11.3-11.8-18.7-20.1C155.5,156.9,149.3,150,143.2,143.1z
	 M178.8,205.9c2.4-0.3,5.6-0.4,9.4-0.4h9.6l0.6-23.1h0.7l0.3,24.5h-20.6V205.9z"/>
<path class="st0" d="M127,169.5c1.6-2.1,3.9-4.7,6.9-7.7c4.7-4.6,7.2-7.1,7.6-7.5c-0.8-1.5-1.7-2.9-2.5-4.4c-1.1-1.7-2.2-3-3.6-4
	c-3.8-2.9-8.2-4.3-13.3-4.3c-4.2,0-7.9,1-11.1,3.1c-3,1.9-5.4,4.5-7.2,7.9c-1.8,3.4-2.7,6.9-2.7,10.5c0,4.2,1.8,8.4,5.4,12.7
	c3.4,3.5,6.8,6.9,10.3,10.4l-13.2,13.6c-0.4,0.6-0.6,1.3-0.6,1.9c0,1.2,0.5,2.5,1.5,3.9c0.9,1.2,1.9,2.4,2.8,3.6
	c4.3,3.9,9.4,5.8,15.2,5.8c3.3,0,6.3-0.7,9.2-2.1c3.5-1.5,6.3-4.2,8.4-7.9c2.1-3.5,3.2-7.2,3.2-11.1c0-4.5-1.8-8.9-5.4-13.4
	C136.5,178.8,132.9,175.2,127,169.5z M121,146.6c-1.5,0-2.9,0.2-4.2,0.7c0.5-1.2,1.9-1.8,4.1-2c7.9,0.4,13.1,3.2,15.5,8.4
	c-0.8,0.9-1.6,1.9-2.4,2.8c-1.1,1.2-2.1,1.7-3,1.5c0-0.6,0.6-1.5,1.9-2.5c1.3-1,1.9-1.8,1.9-2.4c0-0.6-0.4-1.2-1.3-1.8
	C128.7,148.2,124.5,146.6,121,146.6z M134.8,205.8c-1.2,1.2-2.7,2.3-4.5,3.2c-0.2,0.1-1.9,0.7-5,1.9c-0.2-0.1-0.3-0.2-0.4-0.3
	c0-0.1,0-0.3,0-0.5c0.1-0.2,0.2-0.4,0.2-0.5c3.3-0.6,6.1-2.2,8.5-5c2.3-2.6,3.7-5.6,4.4-9c0.2-0.4,0.2-0.9,0.2-1.3
	c0-0.7-0.3-1.6-0.7-2.8c-0.5-1.2-0.7-2-0.7-2.5s0.2-1,0.5-1.4c1.4,1.8,2.1,4,2.1,6.4C139.3,197.5,137.8,201.5,134.8,205.8z"/>
<path class="st0" d="M205.6,212.7l77.7-0.2l-36.9-70.3L205.6,212.7z M260.5,208l13.5-0.4c-0.6-1.9-1.9-4.7-3.9-8.3
	c-2.1-3.8-3.5-6.7-4.1-8.6l1-0.6l9.7,18.6l-16.2,0.3V208L260.5,208z M248.4,184.7c0.2,1.3-0.1,2.4-0.6,3.4c-0.7,1.2-1.7,1.7-2.9,1.7
	c-1.6,0-2.8-0.8-3.6-2.5c-0.2-1-0.1-2,0.2-2.9c0.4-1.2,1.1-1.9,2.1-2.1c0.3-0.1,0.6-0.1,0.9-0.1
	C246.2,182.2,247.5,183.1,248.4,184.7z"/>
<path class="st0" d="M322,166.9c8-5,13.3-8.4,15.9-9.9c-2.5-4.5-6.1-8.3-10.7-11.3c-4.3-2.7-9-4.6-14.3-5.6
	c-1.4-0.1-2.8-0.2-4.2-0.2c-6.9,0-13.3,1.5-19,4.6c-6,3.3-10.7,7.9-14,13.9c-2.8,5.1-4.3,10.9-4.3,17.3c0,8.7,2.4,16,7.3,21.8
	c3.7,4.4,8.1,7.9,13.1,10.4s10.2,3.8,15.6,3.8c3.8,0,7.5-0.6,11.1-1.9c4.8-1.6,9-4.1,12.8-7.3c4.3-3.7,6.8-7.6,7.7-11.9
	c-12.2-4.6-23.3-9.2-33.3-13.8C309.9,174.3,315.3,171.1,322,166.9z M309.2,184.4l22.5,8.7c0,1.4-0.9,2.9-2.6,4.5
	c-1.4,1.3-2.9,2.3-4.7,3.2l-0.7-0.6c1.1-0.9,2.2-1.8,3.3-2.8c1.4-1.2,2.3-2.3,2.8-3.5c-2.5-1.2-5.9-2.6-10.2-4.3
	c-5.2-2-8.7-3.4-10.3-4.1L309.2,184.4L309.2,184.4z"/>
<path class="st1" d="M130.1,169.3l14.1-14.3c-0.3-2.1-1.6-4.4-3.7-7c-4.8-6.1-10.9-9.1-18.2-9.1c-2.2,0-4.3,0.3-6.5,0.9
	c-4.4,1.2-8.2,3.8-11.5,7.8c-3.2,4-5,8.3-5.4,12.9c-0.4,4.8,0.9,9.6,4.1,14.3c1.7,2.5,5.2,6.4,10.4,11.7l-13.5,13.6
	c0.6,5.1,3.2,9.3,8,12.7c4.4,3.2,9.3,4.7,14.5,4.7c2.2,0,4.4-0.3,6.6-0.8c3.6-0.9,7-3,10-6.3c2.8-3.1,4.8-6.6,5.9-10.3
	c0.5-1.9,0.8-3.9,0.8-5.8c0-4.5-1.6-9.1-4.9-13.7C138.7,177.7,135.2,173.9,130.1,169.3z M140.2,205.1c-2.2,3.7-5,6.4-8.4,7.9
	c-2.9,1.4-6,2.1-9.2,2.1c-5.8,0-10.8-1.9-15.2-5.8c-0.9-1.2-1.9-2.4-2.8-3.6c-1-1.5-1.5-2.8-1.5-3.9c0-0.6,0.2-1.3,0.6-1.9
	l13.3-13.6c-3.4-3.5-6.8-6.9-10.3-10.4c-3.6-4.3-5.4-8.6-5.4-12.7c0-3.6,0.9-7.1,2.7-10.5c1.8-3.4,4.2-6,7.2-7.9
	c3.3-2.1,7-3.1,11.1-3.1c5.1,0,9.6,1.4,13.3,4.3c1.3,1,2.5,2.3,3.6,4c0.8,1.5,1.7,2.9,2.5,4.4c-0.4,0.4-2.9,2.9-7.6,7.5
	c-3.1,3.1-5.4,5.6-6.9,7.7c5.9,5.6,9.5,9.3,10.9,11.1c3.6,4.5,5.4,8.9,5.4,13.4C143.4,197.9,142.3,201.6,140.2,205.1z"/>
<path class="st1" d="M178.1,178.1l-36.9-41.2v78.5h65.7v-78.6h-28.1L178.1,178.1z M180.7,139.4h24.2v73.7h-61.7v-70
	c6.2,6.9,12.3,13.8,18.6,20.7c7.4,8.3,13.7,15,18.7,20.1L180.7,139.4z"/>
<path d="M184.7,182.5H184l-0.6,23.1h-9.6c-3.8,0-7,0.1-9.4,0.4v1H185L184.7,182.5z"/>
<path d="M236.5,182.3c-1,0.3-1.7,1-2.1,2.1c-0.3,0.9-0.4,1.9-0.2,2.9c0.8,1.7,2.1,2.5,3.6,2.5c1.3,0,2.2-0.6,2.9-1.7
	c0.6-1,0.8-2.1,0.6-3.4c-0.9-1.7-2.2-2.5-3.9-2.5C237.1,182.2,236.8,182.2,236.5,182.3z"/>
<path class="st1" d="M246.3,137.1l-44.8,78l85.8-0.2L267,175.8C258.9,160.2,252,147.3,246.3,137.1z M205.6,212.7l40.7-70.5
	l36.9,70.3L205.6,212.7z"/>
<path d="M259.8,190.2l-1,0.6c0.6,1.9,2,4.8,4.1,8.6c2,3.6,3.3,6.4,3.9,8.3l-13.5,0.4v1l16.2-0.3L259.8,190.2z"/>
<path class="st1" d="M341.2,158.1c-2.5-5.3-6.3-9.8-11.4-13.5c-4.9-3.6-10.3-5.8-15.9-6.7c-2.1-0.3-4.2-0.5-6.3-0.5
	c-7.4,0-14.2,1.9-20.4,5.8c-6.2,3.9-11.1,9.2-14.5,15.9c-2.4,4.7-3.6,10.2-3.6,16.4c0,6.7,1.3,12.6,4,17.6
	c3.4,6.4,8.2,11.5,14.3,15.3c6.1,3.8,12.7,5.6,19.7,5.6c7.8,0.1,15.1-2.3,22-6.9c6.9-4.7,11.6-10.7,14.2-18.1
	c-9.8-3.4-20.5-7.7-32.1-12.8C324.5,168.2,334.5,162.1,341.2,158.1z M339.1,190.5c-0.9,4.2-3.5,8.2-7.7,11.9
	c-3.7,3.3-8,5.7-12.8,7.3c-3.6,1.3-7.3,1.9-11.1,1.9c-5.4,0-10.6-1.3-15.6-3.8s-9.3-6-13.1-10.4c-4.9-5.8-7.3-13.1-7.3-21.8
	c0-6.4,1.4-12.2,4.3-17.3c3.3-6,8-10.6,14-13.9c5.7-3.1,12-4.6,19-4.6c1.4,0,2.8,0.1,4.2,0.2c5.3,1,10,2.9,14.3,5.6
	c4.7,3,8.3,6.8,10.7,11.3c-2.6,1.6-7.9,4.9-15.9,9.9c-6.7,4.2-12.1,7.4-16.2,9.8C315.8,181.3,326.9,185.9,339.1,190.5z"/>
<path d="M329.7,194.1c-0.5,1.2-1.4,2.3-2.8,3.5c-1.1,0.9-2.2,1.9-3.3,2.8l0.7,0.6c1.8-0.9,3.4-2,4.7-3.2c1.7-1.6,2.6-3.1,2.6-4.5
	l-22.5-8.7v1.3c1.7,0.7,5.1,2.1,10.3,4.1C323.8,191.4,327.2,192.9,329.7,194.1z"/>
<path class="st3" d="M149.1,150.1v60.6h53.5v-63.9h-20.9l-0.3,38.6c-4.4-4.4-9.8-10.3-16.2-17.5
	C159.8,162.1,154.5,156.1,149.1,150.1z M180,204.5c2.1-0.2,4.8-0.3,8.1-0.3h8.3l0.5-20h0.6l0.3,21.2h-17.9
	C180,205.4,180,204.5,180,204.5z"/>
<path class="st3" d="M126.7,170.9c1.4-1.8,3.4-4.1,6-6.7c4.1-4,6.2-6.2,6.6-6.5c-0.7-1.3-1.5-2.6-2.2-3.8c-0.9-1.5-1.9-2.6-3.1-3.5
	c-3.3-2.5-7.1-3.8-11.6-3.8c-3.6,0-6.8,0.9-9.6,2.7c-2.6,1.6-4.7,3.9-6.2,6.9c-1.6,2.9-2.3,6-2.3,9.1c0,3.6,1.6,7.3,4.7,11
	c3,3,5.9,6,8.9,9l-11.5,11.8c-0.3,0.5-0.5,1.1-0.5,1.6c0,1,0.4,2.1,1.3,3.4c0.8,1,1.6,2.1,2.5,3.1c3.7,3.4,8.1,5.1,13.1,5.1
	c2.8,0,5.5-0.6,8-1.8c3-1.3,5.5-3.6,7.3-6.8c1.8-3.1,2.7-6.3,2.7-9.7c0-3.9-1.6-7.8-4.7-11.6C134.9,179,131.8,175.8,126.7,170.9z
	 M121.5,151c-1.3,0-2.5,0.2-3.6,0.6c0.5-1,1.6-1.6,3.6-1.7c6.9,0.3,11.4,2.8,13.4,7.3c-0.7,0.8-1.4,1.6-2.1,2.5
	c-1,1-1.8,1.4-2.6,1.3c0-0.5,0.5-1.3,1.6-2.2s1.6-1.6,1.6-2c0-0.5-0.4-1.1-1.2-1.6C128.1,152.4,124.5,151,121.5,151z M133.4,202.4
	c-1,1-2.3,2-3.9,2.7c-0.2,0.1-1.6,0.6-4.3,1.6c-0.2,0-0.3-0.1-0.3-0.3c0-0.1,0-0.2,0-0.4c0.1-0.2,0.1-0.3,0.1-0.4
	c2.8-0.5,5.3-1.9,7.4-4.3c2-2.2,3.2-4.8,3.8-7.8c0.1-0.4,0.2-0.8,0.2-1.2c0-0.6-0.2-1.4-0.6-2.4s-0.6-1.7-0.6-2.2s0.1-0.9,0.4-1.2
	c1.2,1.6,1.8,3.4,1.8,5.5C137.3,195.2,136,198.6,133.4,202.4z"/>
<path class="st3" d="M209.4,210.4l67.3-0.1l-32-61L209.4,210.4z M257.1,206.4l11.7-0.3c-0.5-1.6-1.6-4-3.4-7.2
	c-1.8-3.3-3-5.8-3.6-7.5l0.8-0.5L271,207l-14,0.3C257.1,207.3,257.1,206.4,257.1,206.4z M246.6,186.2c0.1,1.1,0,2.1-0.5,2.9
	c-0.6,1-1.4,1.5-2.5,1.5c-1.4,0-2.4-0.7-3.1-2.2c-0.1-0.9-0.1-1.7,0.2-2.5c0.4-1,1-1.6,1.8-1.8c0.3,0,0.5-0.1,0.8-0.1
	C244.6,184,245.8,184.7,246.6,186.2z"/>
<path class="st3" d="M316.5,170.7c6.9-4.4,11.5-7.2,13.8-8.6c-2.1-3.9-5.2-7.2-9.3-9.8c-3.7-2.4-7.8-4-12.4-4.9
	c-1.2-0.1-2.4-0.1-3.6-0.1c-6,0-11.5,1.3-16.4,4c-5.2,2.8-9.2,6.8-12.1,12c-2.5,4.4-3.7,9.4-3.7,15c0,7.6,2.1,13.9,6.4,18.9
	c3.2,3.8,7,6.8,11.3,9s8.8,3.3,13.5,3.3c3.3,0,6.5-0.5,9.6-1.6c4.1-1.4,7.8-3.5,11.1-6.3c3.7-3.2,5.9-6.6,6.7-10.3
	c-10.6-4-20.2-8-28.9-12C306,177.2,310.7,174.3,316.5,170.7z M305.4,185.9l19.5,7.5c0,1.2-0.8,2.5-2.3,3.9c-1.2,1.1-2.6,2-4.1,2.8
	l-0.6-0.5c1-0.8,1.9-1.6,2.9-2.4c1.2-1,2-2,2.4-3c-2.1-1-5.1-2.3-8.8-3.7c-4.5-1.7-7.5-2.9-9-3.6C305.4,187,305.4,185.9,305.4,185.9
	z"/>
<path d="M129.4,170.7l12.3-12.4c-0.3-1.8-1.3-3.8-3.2-6.1c-4.2-5.2-9.5-7.9-15.8-7.9c-1.9,0-3.7,0.3-5.6,0.8c-3.8,1-7.2,3.3-10,6.8
	s-4.4,7.2-4.7,11.2c-0.4,4.2,0.8,8.3,3.6,12.4c1.5,2.2,4.5,5.6,9,10.1l-11.8,11.8c0.5,4.4,2.8,8.1,6.9,11c3.8,2.7,8,4.1,12.6,4.1
	c1.9,0,3.8-0.2,5.7-0.7c3.1-0.8,6-2.6,8.7-5.5c2.5-2.7,4.2-5.7,5.1-9c0.5-1.7,0.7-3.4,0.7-5c0-3.9-1.4-7.9-4.2-11.8
	C136.8,178,133.7,174.7,129.4,170.7z M138.1,201.8c-1.9,3.2-4.3,5.5-7.3,6.8c-2.5,1.2-5.2,1.8-8,1.8c-5,0-9.4-1.7-13.1-5.1
	c-0.8-1-1.6-2.1-2.5-3.1c-0.9-1.3-1.3-2.4-1.3-3.4c0-0.5,0.2-1.1,0.5-1.6l11.5-11.8c-3-3-5.9-6-8.9-9c-3.1-3.7-4.7-7.4-4.7-11
	c0-3.1,0.8-6.2,2.3-9.1c1.6-2.9,3.6-5.2,6.2-6.9c2.8-1.8,6-2.7,9.6-2.7c4.4,0,8.3,1.3,11.6,3.8c1.1,0.9,2.2,2,3.1,3.5
	c0.7,1.3,1.5,2.6,2.2,3.8c-0.3,0.3-2.5,2.5-6.6,6.5c-2.6,2.6-4.7,4.9-6,6.7c5.1,4.9,8.3,8.1,9.4,9.6c3.1,3.9,4.7,7.8,4.7,11.6
	C140.9,195.5,139.9,198.7,138.1,201.8z"/>
<path d="M133.5,156.8c0,0.5-0.5,1.1-1.6,2s-1.6,1.6-1.6,2.2c0.8,0.1,1.6-0.3,2.6-1.3c0.7-0.8,1.4-1.6,2.1-2.5
	c-2.1-4.6-6.5-7-13.4-7.3c-1.9,0.1-3.1,0.7-3.6,1.7c1.1-0.4,2.3-0.6,3.6-0.6c3,0,6.6,1.4,10.8,4.2
	C133.1,155.7,133.5,156.3,133.5,156.8z"/>
<path d="M135,187.8c0,0.4,0.2,1.1,0.6,2.2c0.4,1,0.6,1.8,0.6,2.4c0,0.4-0.1,0.8-0.2,1.2c-0.6,3-1.8,5.6-3.8,7.8
	c-2.1,2.4-4.5,3.8-7.4,4.3c0,0.1,0,0.2-0.1,0.4c0,0.2,0,0.3,0,0.4c0,0.1,0.2,0.2,0.3,0.3c2.7-1,4.1-1.6,4.3-1.6
	c1.6-0.8,2.9-1.7,3.9-2.7c2.6-3.8,3.9-7.2,3.9-10.3c0-2.1-0.6-3.9-1.8-5.5C135.2,187,135,187.4,135,187.8z"/>
<path d="M179.4,180.5l-32-35.7v68h56.9v-68.2h-24.4L179.4,180.5z M181.7,146.9h20.9v63.9h-53.5v-60.7c5.3,6,10.7,11.9,16.1,17.9
	c6.4,7.2,11.8,13,16.2,17.5L181.7,146.9z"/>
<path d="M197.6,184.2H197l-0.5,20h-8.3c-3.3,0-6,0.1-8.1,0.3v0.9H198L197.6,184.2z"/>
<path d="M242.4,184.1c-0.9,0.2-1.5,0.8-1.8,1.8c-0.3,0.8-0.3,1.7-0.2,2.5c0.7,1.5,1.8,2.2,3.1,2.2c1.1,0,1.9-0.5,2.5-1.5
	c0.5-0.9,0.7-1.8,0.5-2.9c-0.8-1.5-1.9-2.2-3.4-2.2C243,184,242.7,184,242.4,184.1z"/>
<path d="M244.7,144.9l-38.9,67.5l74.4-0.2l-17.6-33.9C255.6,164.9,249.7,153.7,244.7,144.9z M209.4,210.4l35.3-61.1l32,61
	L209.4,210.4z"/>
<path d="M262.7,190.9l-0.8,0.5c0.5,1.6,1.7,4.1,3.6,7.5c1.7,3.1,2.9,5.5,3.4,7.2l-11.7,0.3v0.9l14-0.3L262.7,190.9z"/>
<path d="M333.2,163.1c-2.1-4.6-5.5-8.5-9.9-11.7c-4.3-3.1-8.9-5-13.8-5.8c-1.8-0.3-3.7-0.4-5.5-0.4c-6.4,0-12.3,1.7-17.7,5
	c-5.4,3.4-9.6,8-12.6,13.8c-2.1,4.1-3.1,8.8-3.1,14.2c0,5.8,1.2,10.9,3.5,15.3c3,5.6,7.1,10,12.4,13.2c5.3,3.3,11,4.9,17.1,4.9
	c6.8,0,13.1-2,19.1-6c6-4.1,10-9.3,12.3-15.7c-8.5-3-17.7-6.7-27.8-11.1C318.7,171.8,327.4,166.6,333.2,163.1z M331.4,191.2
	c-0.8,3.7-3,7.1-6.7,10.3c-3.2,2.8-6.9,4.9-11.1,6.3c-3.1,1.1-6.4,1.6-9.6,1.6c-4.7,0-9.2-1.1-13.5-3.3s-8.1-5.2-11.3-9
	c-4.2-5-6.4-11.3-6.4-18.9c0-5.6,1.2-10.6,3.7-15c2.9-5.2,6.9-9.2,12.1-12c4.9-2.6,10.4-4,16.4-4c1.2,0,2.4,0,3.6,0.1
	c4.6,0.9,8.7,2.5,12.4,4.9c4.1,2.6,7.2,5.9,9.3,9.8c-2.2,1.4-6.8,4.2-13.8,8.6c-5.8,3.6-10.5,6.4-14,8.5
	C311.1,183.2,320.8,187.2,331.4,191.2z"/>
<path d="M323.2,194.3c-0.4,1-1.2,2-2.4,3c-1,0.8-1.9,1.6-2.9,2.4l0.6,0.5c1.6-0.8,2.9-1.7,4.1-2.8c1.5-1.4,2.3-2.7,2.3-3.9
	l-19.5-7.5v1.1c1.5,0.6,4.4,1.8,9,3.6C318.1,192,321.1,193.2,323.2,194.3z"/>
<path class="st3" d="M267.2,274.7v60.6h53.5v-63.9h-20.9l-0.3,38.6c-4.4-4.4-9.8-10.3-16.2-17.5
	C277.9,286.7,272.5,280.7,267.2,274.7z M298,329.2c2.1-0.2,4.8-0.3,8.1-0.3h8.3l0.5-20h0.6l0.3,21.2h-17.9L298,329.2L298,329.2z"/>
<path class="st3" d="M152.5,305.5c-5.2-5.2-10.4-10.4-15.6-15.7c-6.2-6.2-11.5-11.2-15.9-15.2v60.2h65.3V274l-31.8,31.5H152.5z
	 M164.2,328.6l14.4-0.2l0.6-18.3h0.5l0.3,19.1l-15.9,0.3L164.2,328.6L164.2,328.6z"/>
<path class="st3" d="M193.7,335l67.3-0.1l-32-61L193.7,335z M241.4,331l11.7-0.3c-0.5-1.6-1.6-4-3.4-7.2c-1.8-3.3-3-5.8-3.6-7.5
	l0.8-0.5l8.4,16.1l-14,0.3L241.4,331L241.4,331z M230.9,310.8c0.1,1.1,0,2.1-0.5,2.9c-0.6,1-1.4,1.5-2.5,1.5c-1.4,0-2.4-0.7-3.1-2.2
	c-0.1-0.9-0.1-1.7,0.2-2.5c0.4-1,1-1.6,1.8-1.8c0.3,0,0.5-0.1,0.8-0.1C229,308.6,230.1,309.4,230.9,310.8z"/>
<polygon points="179.8,310.1 179.3,310.1 178.7,328.4 164.2,328.6 164.2,329.5 180.1,329.2 "/>
<path d="M170.9,286.4c-6.8,6.8-12.7,12.5-17.6,17L119,269.6v67.2h69.6l-0.3-67.8C182.5,274.8,176.7,280.6,170.9,286.4z M186.3,334.8
	H121v-60.2c4.4,4,9.7,9,15.9,15.2c5.2,5.2,10.4,10.5,15.6,15.7h2.1l31.8-31.5L186.3,334.8L186.3,334.8z"/>
<path d="M247,315.5l-0.8,0.5c0.5,1.6,1.7,4.1,3.6,7.5c1.7,3.1,2.9,5.5,3.4,7.2l-11.7,0.3v0.9l14-0.3L247,315.5z"/>
<path d="M229.1,269.5l-38.9,67.6l74.4-0.2L247,303C240,289.5,234,278.4,229.1,269.5z M193.7,335l35.3-61.1l32,61L193.7,335z"/>
<path d="M226.7,308.7c-0.9,0.2-1.5,0.8-1.8,1.8c-0.3,0.8-0.3,1.7-0.2,2.5c0.7,1.5,1.8,2.2,3.1,2.2c1.1,0,1.9-0.5,2.5-1.5
	c0.5-0.9,0.7-1.8,0.5-2.9c-0.8-1.5-1.9-2.2-3.4-2.2C227.3,308.6,227,308.6,226.7,308.7z"/>
<path d="M297.4,305.1l-32-35.7v68h56.9v-68.2h-24.4L297.4,305.1z M299.7,271.5h20.9v63.9h-53.5v-60.6c5.3,6,10.7,11.9,16.1,17.9
	c6.4,7.2,11.8,13,16.2,17.5L299.7,271.5z"/>
<path d="M315.6,308.8H315l-0.5,20h-8.3c-3.3,0-6,0.1-8.1,0.3v0.9H316L315.6,308.8z"/>
<g>
	<path class="st4" d="M267,232c-0.2,27.1-10.9,43.3-33,50.3c-29,9.2-58.9-12.3-59.7-42.9c-0.1-5-0.1-10.1,0-15.1
		c0.1-4.5-0.6-9.3,6.4-9.5c1.4,0,2.9-2.8,4.2-4.4c19.4-23.2,52.8-23,72,0.4c0.7,0.8,1.2,1.8,1.9,2.5
		C267.1,221.3,267.1,221.3,267,232z M261.7,247c-8.6,0-16.5-0.3-24.4,0.1c-5.1,0.3-8.2-1.4-11-5.7c-4.3-6.9-6.9-6.9-11.2,0.2
		c-2.8,4.5-6.1,5.8-11,5.6c-8-0.3-16.1-0.1-24.3-0.1c3.2,20,21.5,34.8,41.5,34.4S259.2,266.3,261.7,247z M186.9,214.6
		c22.9,0,45.2,0,67.9,0C239,189.6,200.1,191.5,186.9,214.6z M244.3,241.2c2.6,0,4.2-0.2,5.7,0c8.1,1.5,10.1-2.9,10-9.9
		c-0.2-9.4-1.1-10.6-10.1-10.8c-4.8-0.1-9.6-0.5-14.3,0.2c-2.4,0.3-5.1,2.3-6.5,4.4c-5,7.1,0.5,11.2,3.3,14.5c2.8-3.4,5.2-9,7.7-9
		C246.1,230.5,246.2,235.7,244.3,241.2z M208.7,241.8c2-4.2,5.2-8.2,5.3-12.3c0.1-2.9-3.9-8.2-6.3-8.4c-8.2-0.5-16.5,0.7-24.7,1.4
		c-0.1,0-0.2,0.5-0.3,0.7c-5,9.2,0,18,10.2,18c1.3,0,2.6-0.2,2.6-0.2c1.2-3.8,1.6-7,3.2-9.7c0.6-0.9,4.9-1.2,5.5-0.3
		C206,233.8,206.8,237.1,208.7,241.8z"/>
	<path d="M262.5,232.6c-0.2,24.3-9.8,38.9-29.6,45.2c-26.1,8.3-52.9-11-53.6-38.5c-0.1-4.5-0.1-9.1,0-13.6c0-4-0.5-8.3,5.8-8.5
		c1.3,0,2.6-2.5,3.8-4c17.4-20.8,47.4-20.6,64.6,0.4c0.6,0.7,1.1,1.6,1.7,2.3C262.6,223,262.6,223,262.5,232.6z M257.7,246.1
		c-7.7,0-14.8-0.3-21.9,0.1c-4.6,0.3-7.4-1.2-9.8-5.2c-3.9-6.2-6.2-6.2-10.1,0.2c-2.5,4.1-5.5,5.2-9.9,5c-7.2-0.3-14.5-0.1-21.8-0.1
		c2.8,17.9,19.3,31.2,37.3,30.9C239.4,276.7,255.4,263.4,257.7,246.1z M190.6,217c20.5,0,40.6,0,60.9,0
		C237.4,194.5,202.4,196.3,190.6,217z M242.1,240.9c2.3,0,3.8-0.2,5.1,0c7.3,1.3,9.1-2.6,9-8.9c-0.1-8.4-1-9.6-9.1-9.7
		c-4.3-0.1-8.6-0.4-12.9,0.2c-2.1,0.3-4.5,2.1-5.8,3.9c-4.5,6.3,0.5,10.1,2.9,13c2.5-3,4.7-8.1,7-8.1
		C243.7,231.3,243.8,235.9,242.1,240.9z M210.2,241.4c1.8-3.8,4.7-7.3,4.8-11c0.1-2.6-3.5-7.4-5.7-7.5c-7.3-0.5-14.8,0.7-22.2,1.2
		c-0.1,0-0.2,0.4-0.3,0.6c-4.5,8.3,0,16.2,9.1,16.2c1.2,0,2.3-0.1,2.3-0.1c1-3.4,1.5-6.3,2.9-8.7c0.5-0.9,4.4-1,4.9-0.3
		C207.7,234.2,208.4,237.2,210.2,241.4z"/>
	<path class="st3" d="M257.7,246.1c-2.3,17.3-18.3,30.6-36.3,30.9s-34.4-13-37.3-30.9c7.4,0,14.6-0.2,21.8,0.1
		c4.5,0.2,7.4-0.9,9.9-5c3.9-6.4,6.2-6.4,10.1-0.2c2.4,3.9,5.2,5.4,9.8,5.2C242.9,245.8,250,246.1,257.7,246.1z M243.2,250
		c-4.9,9-11.4,15.9-22.3,15.9c-10.9,0-17.2-7.2-22.8-17.8c0.8,12.4,11.3,20.8,23.1,20.7C232.6,268.8,242.9,260.4,243.2,250z"/>
	<path class="st3" d="M190.6,217c11.8-20.8,46.8-22.5,60.9,0C231.1,217,211.1,217,190.6,217z"/>
	<path class="st3" d="M242.1,240.9c1.8-5,1.6-9.6-3.8-9.5c-2.3,0-4.5,5.1-7,8.1c-2.5-3-7.4-6.7-2.9-13c1.3-1.8,3.7-3.6,5.8-3.9
		c4.2-0.6,8.6-0.2,12.9-0.2c8.1,0.1,8.9,1.2,9.1,9.7c0.1,6.3-1.6,10.2-9,8.9C245.8,240.7,244.4,240.9,242.1,240.9z"/>
	<path class="st3" d="M210.2,241.4c-1.7-4.2-2.5-7.2-4.1-9.6c-0.5-0.8-4.4-0.6-4.9,0.3c-1.4,2.3-1.8,5.3-2.9,8.7
		c0,0-1.2,0.2-2.3,0.1c-9.2,0-13.6-7.9-9.1-16.2c0.1-0.2,0.2-0.6,0.3-0.6c7.4-0.6,14.9-1.7,22.2-1.2c2.2,0.1,5.8,4.9,5.7,7.5
		C214.8,234.1,211.9,237.6,210.2,241.4z"/>
	<path d="M243.2,250c-0.2,10.3-10.6,18.8-21.9,18.8c-11.8,0-22.3-8.4-23.1-20.7c5.6,10.6,11.9,17.9,22.8,17.8
		C231.7,265.9,238.2,259,243.2,250z"/>
</g>
</svg>
