<?xml version="1.0" encoding="utf-8"?>
<!-- Generator: Adobe Illustrator 24.3.0, SVG Export Plug-In . SVG Version: 6.00 Build 0)  -->
<svg version="1.1" id="Ebene_1" xmlns="http://www.w3.org/2000/svg" xmlns:xlink="http://www.w3.org/1999/xlink" x="0px" y="0px"
	 viewBox="0 0 1094 457" style="enable-background:new 0 0 1094 457;" xml:space="preserve">
<style type="text/css">
	.st0{fill:#D5D6DB;}
	.st1{fill:#DD4664;}
	.st2{fill:#AD3B5B;}
	.st3{fill:#F8C9CF;}
	.st4{fill:#EF8192;}
	.st5{fill:#EE7689;}
	.st6{fill:#EE788A;}
	.st7{fill:#EE7A8C;}
	.st8{fill:#ED7588;}
	.st9{fill:#EE7B8C;}
	.st10{fill:#F08697;}
	.st11{fill:#F08898;}
	.st12{fill:#EC6B7F;}
	.st13{fill:#EF8495;}
	.st14{fill:#F08C9C;}
	.st15{fill:#EF8898;}
	.st16{fill:#0A4A99;}
	.st17{fill:#1D1F3F;}
	.st18{fill:#8F6C84;}
	.st19{fill:#26367F;}
	.st20{fill:#263680;}
	.st21{fill:#242D64;}
	.st22{fill:#1F2041;}
	.st23{fill:#202141;}
</style>
<path class="st0" d="M336.2,347.4c0.7,0.4,0.8,1.1,0.7,1.6c-1.1,6.9,2,12.7,5,18.4c0.8,1.5,1.9,3.1,2.1,5c-1.2,0-2.1,0-3.2,0
	c-59,0-117.9,0-177,0c-2.6,0-4.2-0.5-5.5-3.1c-2.1-4.5-4.7-8.7-7.2-12.9c1.8-1.3,3.9-0.9,5.8-0.9c56.3,0,112.7,0,169,0
	c1.1,0,2.1,0,3.2,0c6,0,6.2,0,6.1-5.5C335.3,349.3,335.4,348.2,336.2,347.4z"/>
<path class="st1" d="M320.4,123.7c-0.1,0.2-0.5,0.5-0.5,0.8c-0.8,4.9-0.8,4.9-5.9,4.9c-46.4,0-92.7,0-139.1,0
	c-3.3,0-7.3,1.1-7.4-4.3c-0.7-3.6-1.8-7.3-3.3-10.7c1.6-1.5,3.8-1.1,5.8-1.1c38.7,0,77.5,0,116.2,0c10.7,0,21.5,0,32.2,0
	c1.6,0,3.4-0.4,4.8,1.1C321.9,117.3,320.8,120.4,320.4,123.7z"/>
<path class="st2" d="M323.2,114.2c-11.6,0-23.4-0.1-35-0.1c-41.3,0-82.6,0-123.9,0.1c-3.4-4.8-7.4-8.9-13.5-10.2
	c0-1.4,1.2-1.3,2-1.4c1.3-0.2,2.5-0.1,3.8-0.1c58.1,0,116.3,0,174.4,0c1.3,0,2.6-0.1,3.8,0.1c0.8,0.1,2,0.1,2,1.4
	C330.6,105.3,326.5,109.3,323.2,114.2z"/>
<path class="st1" d="M336.2,347.4c0,2.1-0.1,4.2,0.1,6.3c0.4,2.7-0.8,3.1-3.3,3.1c-28.3-0.1-56.7,0-85,0c-32.3,0-64.7,0-96.9,0
	c-0.9-9.4-0.9-9.4,8.2-9.4c2.5,0,5,0,7.5,0c3.9,0.1,7.9-0.4,11.7,0.6c1.1,0.2,2.5,0.5,3.5-0.6c0.9-1.1,2.2-1.1,3.5-1.1
	c18.3,0,36.6-0.1,54.9,0.1c4.1-0.4,4.2-0.4,4.2-4.5c0-11.9,0-23.8,0.1-35.7c0-1.5-0.9-3.8,1.6-4.3c1.2,1.4,0.8,3.2,0.8,4.8
	c0,11.7,0,23.4,0,35.1c0,4.5,0.1,4.6,4.6,4.6c16,0,31.9,0,48,0c1.8,0,3.6-0.4,5,1.1c1.2,0.9,2.7,0.7,3.9,0.5
	c3.8-0.8,7.6-0.4,11.4-0.6C325.8,347.3,330.9,347.4,336.2,347.4z"/>
<path class="st3" d="M336.7,104c-0.9-0.9-2.2-0.6-3.3-0.6c-59.9,0-119.6,0-179.4,0c-1.1,0-2.3-0.5-3.3,0.6c-1.6-1.8-0.6-4-0.7-5.9
	c0-0.7,0.7-0.9,1.4-0.9c0.9,0,1.9,0,2.8,0c59.6,0,119.2,0,178.8,0C337.7,97.2,339,99.4,336.7,104z"/>
<path class="st4" d="M170.8,390.4c0.6,1.6,1.1,3.4,2.3,4.7c2-1.4,1.5-4.6,4.3-6.6c-0.9,4.1-2.5,7.3-4.2,10.9c-1.1-3.1-2.7-5-3.2-7.6
	C169.8,391.1,169.6,390.4,170.8,390.4z"/>
<path class="st5" d="M238.8,392.3c-1.5,2,0.4,4.7-1.9,7.4c0-4,0-7.2,0-10.4c1.5,0,1.8,1.5,2.7,2.3
	C239.6,392.2,239.5,392.6,238.8,392.3z"/>
<path class="st6" d="M207.5,394.2c-0.7,1.4,1.2,4.1-1.1,4.3c-1.3,0.1-0.7-2.8-0.7-4.5c0.1-1.6-1.2-4.5,0.9-4.7
	C208,389.3,206.9,392.5,207.5,394.2z"/>
<path class="st7" d="M275,398.6c-0.9-2.7-0.4-5.5-0.4-8.3c0-1.5,0.9-0.9,1.6-0.5c0.2,0.2,0.5,0.6,0.6,0.8c0.5,2.2,0.4,4.6,0,6.8
	c-0.1,0.5-0.5,0.9-0.9,1.2C275.5,398.8,275.3,398.8,275,398.6z"/>
<path class="st8" d="M244.7,389.1c1.1-0.1,1.2,0.7,1.2,1.4c0,1.8,0,3.5,0,5.4c0,0.8,0.5,2-0.5,2.3c-1.1,0.5-1.5-0.8-2.1-1.4
	C245.2,394.5,243.9,391.6,244.7,389.1z"/>
<path class="st9" d="M316.7,398c1.6-0.8,1.1-2.3,1.2-3.6c0.1-1.6-0.4-3.5,0.7-5.2c0.6,3.1,1.3,6.2-0.1,9.3
	C317.8,398.7,316.9,399.4,316.7,398z"/>
<path class="st10" d="M244.7,389.1c-0.5,2.6,1.2,5.5-1.4,7.6c-1.5-1.5-2.9-2.9-4.5-4.5c0.2-0.2,0.5-0.5,0.7-0.7
	c1.3,1.1,2.7,2.2,4.1,3.4C244.8,393.2,243.3,390.8,244.7,389.1z"/>
<path class="st11" d="M276.3,390.4c0-0.2,0-0.5,0-0.7c3.6-1.4,6.1,0.2,6.3,4.5c-0.4,0.5-0.7,1.1-1.4,0.6
	C280.4,392.2,278.4,391.2,276.3,390.4z"/>
<path class="st12" d="M312.2,397.3c-0.9-2.7-0.5-5.4,0-8.1c1.4,2.1,0.6,4.5,0.8,6.7C313.2,396.7,313.3,397.3,312.2,397.3z"/>
<path class="st13" d="M281.3,394.7c0.4-0.2,0.8-0.5,1.2-0.6c-0.9,4.6-3.4,6-7.6,4.5c0.2,0,0.5,0,0.7,0c0.7-0.6,1.9-0.2,2.5-1.2
	C279.1,396.5,280,395.3,281.3,394.7z"/>
<path class="st14" d="M312.2,397.3c0.6-0.4,0.7-0.9,0.8-1.4c0.7,1.6,2.1,2.1,3.8,2.1c0.5,0.7,1.2,0.5,1.9,0.6
	C316.2,399.6,313.8,400.1,312.2,397.3z"/>
<path class="st15" d="M170.8,390.4c-0.6,0.4-0.6,0.8-0.7,1.4c-0.5-0.8-1.6-1.6-0.7-2.6C170,388.6,170.5,389.6,170.8,390.4z"/>
<path class="st16" d="M170.4,340.5c-0.2-3.9,0-7.7-0.1-11.6c0-1.2,0-2.5,1.8-2.3c1.2,0,1.4-0.7,1.4-1.6c0-0.8,0-1.8-1.3-1.8
	c-1.9,0-1.9-1.2-1.9-2.6c0-0.5,0-1.1,0-1.5c0-48.2,0-96.6,0-144.8c0-1.8-0.9-4,2.2-4.6c1.1-0.2,1.3-2.6-0.5-3.1
	c-2-0.5-1.9-1.6-1.9-2.9c0-5.6-0.1-11.1,0.1-16.7c0.1-2.7-0.9-3.3-3.4-3.3c-18.5,0.1-37,0-55.5,0c-0.6,0-1.3-0.1-1.9-0.1
	c18.1,0,36.1-0.1,54.1,0c0.9,0,1.6-0.1,2.1-0.2c-18.7,0.1-37.4,0.1-56.1,0c-2,0.4-1.3,1.9-1.3,3.1c-0.1,65,0,129.9-0.1,194.8
	c0,2.5,0.7,3.1,3.1,3.1c17.4,0,34.7,0,52.1,0c1.3,0,2.5,0.1,3.8,0.2c0,0,0,0,0.1,0c0,0,0-0.1-0.1-0.1
	C169.8,344.3,170.5,343.1,170.4,340.5z M161.7,171.7c-7.5,0-14.9,0-22.4,0c-7.5,0-14.9,0-22.4,0c-1.1,0-2.3,0.4-2.3-1.6
	c0-1.9,1.1-1.9,2.3-1.9c14.9,0,29.8,0,44.8,0c1.5,0,2.3,0.2,2.3,2C164.1,172.2,162.7,171.7,161.7,171.7z M164.1,177.6
	c0,2.1-1.4,1.6-2.6,1.6c-7.4,0.1-14.9,0.1-22.3,0.1c-7.4,0-14.7,0-22.1,0c-1.2,0-2.5,0.4-2.6-1.8c0-2.1,1.1-2.1,2.6-2.1
	c14.8,0,29.6,0,44.4,0C163,175.5,164.1,175.6,164.1,177.6z M117.5,198.9c14.6,0,29.2,0,43.8,0c1.4,0,2.7-0.4,2.7,1.9
	c0,2.3-1.3,2.1-2.8,2.1c-7.3,0.1-14.7,0.1-22.1,0.1c-7.2,0-14.3,0-21.5,0c-1.4,0-3.3,0.6-3.2-2.1
	C114.4,198.4,116.1,199.1,117.5,198.9z M117,207c7.6,0,15,0,22.5,0c7.4,0,14.7,0,22.1,0c1.3,0,2.3-0.1,2.3,1.9c0,1.9-0.8,2-2.2,2
	c-14.9,0-29.8,0-44.8,0c-1.3,0-2.3,0.1-2.5-1.9C114.4,206.8,115.7,207,117,207z M117,262.7c14.8,0,29.7,0,44.5,0
	c1.3,0,2.5-0.2,2.5,1.8c0,2.2-1.2,2-2.6,2c-7.5,0-15,0-22.4,0c-7.3,0-14.6,0-21.7,0c-1.3,0-2.7,0.6-2.8-1.8
	C114.4,262.4,115.6,262.7,117,262.7z M116.8,270.5c7.4,0,14.7,0,22.1,0c7.5,0,14.9,0,22.4,0c1.5,0,2.7,0,2.6,2.1
	c0,2-1.3,1.8-2.6,1.8c-14.8,0-29.7,0-44.5,0c-1.4,0-2.5,0-2.5-1.9C114.3,270.6,115.4,270.5,116.8,270.5z M117,294.2
	c7.4,0,14.8,0,22.1,0c7.4,0,14.7,0,22.1,0c1.3,0,2.7-0.4,2.7,1.9c0,2.3-1.4,1.9-2.7,1.9c-14.7,0-29.5,0-44.1,0
	c-1.3,0-2.7,0.4-2.7-1.9C114.3,293.9,115.7,294.2,117,294.2z M114.4,288.1c0-2.2,1.2-2,2.6-2c7.4-0.1,14.8-0.1,22.2-0.1
	c7.5,0,14.9,0,22.4,0c1.3,0,2.5-0.1,2.3,1.9c0,1.8-0.7,2.1-2.2,2.1c-14.9,0-29.9,0-44.8,0C115.5,290,114.5,290,114.4,288.1z
	 M117.2,309.6c7.3-0.1,14.6-0.1,21.8-0.1c7.4,0,14.8,0,22.1,0c1.4,0,2.7-0.2,2.7,2c0,2.3-1.5,1.9-2.8,1.9c-14.7,0-29.2,0-43.9,0
	c-1.2,0-2.8,0.6-2.8-1.8C114.3,309.1,115.8,309.6,117.2,309.6z M160.9,337.4c-14.7,0-29.2,0-43.9,0c-1.3,0-2.8,0.6-2.9-1.8
	c-0.1-2.5,1.5-2,2.9-2c7.4-0.1,14.8-0.1,22.2-0.1c7.3,0,14.6,0,21.8,0c1.4,0,2.8-0.2,2.7,2C163.7,337.8,162.2,337.4,160.9,337.4z
	 M160.9,329.3c-7.3,0.1-14.7,0.1-22.1,0.1c-7.4,0-14.7,0-22.1,0c-1.4,0-2.7,0.2-2.7-2c0-2.2,1.5-1.9,2.8-1.9c14.7,0,29.3,0,44.1,0
	c1.3,0,2.8-0.4,2.7,1.9C163.7,329.7,162.3,329.3,160.9,329.3z M161.2,321.3c-14.8,0-29.5,0-44.2,0c-1.4,0-2.7,0.2-2.6-2
	c0-2.2,1.4-1.9,2.7-1.9c7.4,0,14.9,0,22.4,0c7.2,0,14.3,0,21.5,0c1.4,0,2.9-0.5,2.9,2C163.9,321.8,162.5,321.3,161.2,321.3z
	 M161.5,306.2c-7.6-0.1-14.9,0-22.3,0c-7.4,0-14.8,0-22.1,0c-1.4,0-2.7,0.2-2.7-2c0-2.3,1.5-1.9,2.8-1.9c14.8,0,29.5,0,44.2,0
	c1.2,0,2.6-0.4,2.6,1.8S163,306.2,161.5,306.2z M161.5,281.9c-14.7,0-29.5,0-44.1,0c-1.3,0-2.8,0.5-2.8-1.9c0-2.5,1.5-2,2.9-2
	c7.2,0,14.4,0,21.7,0c7.4,0,14.7,0,22.1,0c1.3,0,2.7-0.5,2.8,1.9C164.1,282,162.9,281.9,161.5,281.9z M161.7,258.3
	c-7.6-0.1-15-0.1-22.5-0.1c-7.4,0-14.8,0-22.1,0c-1.3,0-2.5,0.4-2.5-1.8c0-2.1,1.2-2,2.6-2c14.8,0,29.7,0,44.5,0c1.4,0,2.3,0,2.3,2
	C164.1,258.4,163,258.3,161.7,258.3z M161.4,250.2c-7.4,0.1-14.6,0.1-21.8,0.1c-7.5,0-14.9,0-22.4,0c-1.5,0-2.6-0.1-2.5-2.2
	c0-1.9,1.1-1.9,2.5-1.9c14.8,0,29.7,0,44.5,0c1.6,0,2.5,0.1,2.5,2.1C164.1,250.6,162.7,250.2,161.4,250.2z M161.7,243.1
	c-14.9,0-29.8,0-44.7,0c-1.3,0-2.5,0-2.5-1.9c0-1.9,0.9-2,2.3-2c7.5,0,15,0,22.6,0c7.4,0,14.7,0,22.1,0c1.3,0,2.5-0.1,2.5,1.9
	C164.1,243,163.2,243.1,161.7,243.1z M114.5,233c0.1-2,1.3-1.8,2.5-1.8c14.8,0,29.6,0,44.4,0c1.5,0,2.6,0,2.6,2
	c0,2.1-1.3,1.8-2.5,1.8c-7.4,0-14.9,0-22.3,0c-7.4,0-14.7,0-22.1,0C115.7,235,114.4,235.2,114.5,233z M161.6,226.9
	c-14.8,0-29.6,0-44.4,0c-1.2,0-2.5,0.4-2.6-1.8c0-2.1,1.1-2.1,2.6-2.1c7.4,0,14.8,0,22.3,0c7.4,0,14.7,0,22.1,0
	c1.5,0,2.6,0.1,2.6,2.1C164.2,227.2,162.8,226.9,161.6,226.9z M161.4,219c-7.5,0-14.8,0-22.2,0c-7.3,0-14.6,0-21.7,0
	c-1.5,0-2.9,0.4-2.8-2.1c0-2.2,1.3-2,2.7-2c14.7,0,29.5,0,44.1,0c1.4,0,2.7-0.2,2.7,2C164.2,219.2,162.8,219,161.4,219z
	 M161.6,194.8c-14.7,0-29.3,0-44.1,0c-1.4,0-2.7,0.2-2.7-2c0-2.2,1.4-1.9,2.8-1.9c7.3,0,14.6,0,21.9,0c7.4,0,14.7,0,22.1,0
	c1.3,0,2.5-0.2,2.6,1.8C164.2,194.8,163.1,194.8,161.6,194.8z M161.6,186.9c-14.7,0-29.3,0-44.1,0c-1.4,0-2.7,0.2-2.7-2
	c0-2.3,1.5-1.9,2.8-1.9c7.4,0,14.8,0,22.3,0c7.3,0,14.4,0,21.7,0c1.2,0,2.5-0.4,2.6,1.8C164.2,186.9,163.1,186.9,161.6,186.9z
	 M161.6,163.9c-7.3,0.1-14.7,0.1-21.9,0.1c-7.5,0-14.9,0-22.4,0c-1.3,0-2.5,0.1-2.5-1.9c0-1.9,0.9-2,2.3-2c14.9,0,29.8,0,44.7,0
	c1.3,0,2.5-0.2,2.5,1.8C164.3,164,163,163.9,161.6,163.9z M161.7,155.9c-7.5,0-14.9,0-22.2,0c-7.4,0-14.8,0-22.1,0
	c-1.4,0-2.7,0.4-2.7-2c0-2.3,1.5-1.9,2.7-1.9c14.8,0,29.5,0,44.2,0c1.4,0,2.7-0.4,2.7,2C164.4,156.3,162.9,155.9,161.7,155.9z"/>
<path class="st12" d="M320.4,344.2c-2,0.2-2.8-0.6-2.7-2.7c0.1-4.1,0-8.2,0-12.3c0-1.4,0.4-2.9-1.9-2.8c-1.1,0.1-1.2-0.7-1.2-1.5
	c0-0.7-0.2-1.9,0.6-1.9c3.5,0,2.5-2.5,2.5-4.2c0-48.3,0-96.6,0-144.9c0-0.6,0-1.3,0-1.9c0-1.2-0.1-2.2-1.6-2.1
	c-1.4,0.1-1.4-0.8-1.4-1.9c0-0.9,0-2,1.4-1.9c2.1,0.1,1.8-1.3,1.8-2.6c0-5.8,0.1-11.6,0-17.4c0-2,0.6-2.9,2.6-2.9
	c0-6.5,0-13-0.2-19.5c-0.4,0-0.9,0.2-0.9,0.6c-0.2,4.6-3.5,4.1-6.6,4.1c-46,0-91.9,0-137.9,0c-2.8,0-5.4,0.1-6.6-3.2
	c-0.1-0.5-0.5-0.2-0.8-0.2c0,4.8-0.1,9.6,0.1,14.4c0.2,2.3-0.2,3.4-1.7,3.9c0.1,0,0.2,0,0.3,0c4.7,0,5,0.1,5,5c0,4.5,0,8.8,0,13.3
	c0,1.8,0.4,3.2,1.9,4.5c1.3,1.1,1.4,2.8,0,3.9c-2.1,1.6-1.9,3.9-1.9,6c0,24.8,0,49.4,0,74.2c0,22.1,0,44.2,0,66.3
	c0,2.3-0.2,4.8,2.1,6.6c1.2,0.9,1.1,2.7-0.2,3.6c-1.9,1.4-1.9,3.4-1.9,5.4c0,3.2,0.1,6.3-0.1,9.5c-0.1,2.9-0.8,3.3-3.8,2.9
	c0.5,0.9,0.4,1.8-0.2,2.7c0.4,0.4,0.7,0.7,1.3,0.7c3.9,0.2,7.7,0.5,11.6,0.7c1.2,0,2.2-0.4,2.8-1.6c0.4-0.9,0.4-1.9,0.4-2.8
	c0-13,0-26.1,0-39.1c0-1.2,0-2.5-0.9-3.5c-2.3,0.9-1.6,2.9-1.6,4.6c0,11.7,0,23.4,0,35.1c0,1.1,0.1,2.1-0.1,3.2
	c-0.1,0.5-0.4,1.1-0.9,1.1c-0.6,0.1-0.9-0.4-1.1-0.9c-0.4-1.4-0.2-2.8-0.2-4.3c0-55.5,0-110.9,0-166.4c0-1.4,0-2.7-0.1-4.1
	c0.2-7.6,0-15.4,0.1-23c0-4.1,0.2-4.3,4.2-4.3c41,0,81.8,0,122.8,0c4,0,4.2,0.4,4.2,4.5c0.1,7.6-0.1,15.4,0.1,23
	c-0.2,9.6-0.1,19.1-0.1,28.8c0,47.5,0,95.1,0,142.6c0,4.6,0,4.6-3.8,5.4c-0.4,0.2-0.5,0.6-0.5,1.1c1.1,1.6,2.7,1.4,4.2,1.3
	c2.8-0.4,5.6-0.6,8.4-0.6c0.9,0,2.1,0,2.8-0.9C320.5,346.3,320.5,345.3,320.4,344.2z"/>
<path class="st12" d="M171,341.5c0.2-3.2,0.1-6.3,0.1-9.5c0-2,0-4,1.9-5.4c1.3-0.9,1.4-2.7,0.2-3.6c-2.3-1.8-2.1-4.2-2.1-6.6
	c0-22.1,0-44.2,0-66.3c0-24.8,0-49.4,0-74.2c0-2.1-0.2-4.3,1.9-6c1.4-1.1,1.3-2.8,0-3.9c-1.5-1.3-1.9-2.7-1.9-4.5
	c0-4.5,0-8.8,0-13.3c0-4.9-0.4-5-5-5c-0.1,0-0.2,0-0.3,0c-0.6,0.2-1.2,0.2-2.1,0.2c-18-0.1-36,0-54.1,0c0.6,0,1.3,0.1,1.9,0.1
	c18.5,0,37,0.1,55.5,0c2.5,0,3.5,0.6,3.4,3.3c-0.2,5.5-0.1,11-0.1,16.7c0,1.3-0.1,2.5,1.9,2.9c1.8,0.5,1.5,2.8,0.5,3.1
	c-3.2,0.6-2.2,2.8-2.2,4.6c0,48.2,0,96.6,0,144.8c0,0.5,0,1.1,0,1.5c0,1.4,0,2.6,1.9,2.6c1.3,0,1.3,0.9,1.3,1.8
	c0,0.9-0.2,1.6-1.4,1.6c-1.8-0.1-1.8,1.2-1.8,2.3c0.1,3.9-0.1,7.7,0.1,11.6c0.1,2.6-0.6,3.9-3.3,3.9c0,0,0,0.1,0.1,0.1
	C170.2,344.8,170.9,344.4,171,341.5z"/>
<path class="st16" d="M378.6,146.3c0-2.5-0.6-3.1-3.1-3.1c-18.3,0.1-36.7,0-55.2,0c-2.6-0.5-3.3-0.1-3.3,2.7
	c-0.2,5-0.1,10.1-0.1,15.1c0,1.8-0.1,3.3-1.8,4.5c-1.6,1.2-1.9,3.2-0.4,4.3c2.1,1.6,2,3.6,2,5.9c0,15,0,29.9,0,44.8
	c0,31.9,0,64,0,95.9c0,2.2,0.1,4.3-2,6c-1.4,1.1-1.4,3.1,0,4.1c2,1.4,2,3.3,2,5.3c0,3.2-0.1,6.5,0.1,9.7c0.1,1.9,0.6,3.8,3.3,2.5
	c18.3,0,36.7-0.1,55.2,0c2.5,0,3.2-0.5,3.2-3.1C378.5,276,378.5,211.2,378.6,146.3z M326.8,246.1c7.2,0,14.4,0,21.7,0
	c7.2,0,14.3,0,21.5,0c1.4,0,2.7-0.2,2.7,2c0,2.2-1.5,1.9-2.8,1.9c-14.4,0-28.8,0-43.2,0c-1.3,0-2.8,0.5-2.8-1.9
	C323.8,245.5,325.5,246.1,326.8,246.1z M324,240.7c0-1.9,0.9-2,2.3-2c14.7,0,29.5,0,44.1,0c1.5,0,2.2,0.4,2.2,2.1
	c0,1.8-0.9,1.8-2.2,1.8c-7.3,0-14.6,0-21.9,0c-7.4,0-14.7,0-22.1,0C325.2,242.6,324,242.7,324,240.7z M326.7,254.1
	c7,0,14.3,0,21.6,0c7.3,0,14.6,0,21.8,0c1.3,0,2.5-0.2,2.6,1.8c0,2.1-1.1,2.1-2.6,2.1c-14.6,0-29,0-43.5,0c-1.4,0-2.8,0.2-2.7-2
	C323.9,253.8,325.3,254.1,326.7,254.1z M326.8,262.1c14.4,0,28.9,0,43.2,0c1.3,0,2.7-0.5,2.8,1.9c0,2.3-1.2,2.2-2.8,2.2
	c-7.2,0-14.4,0-21.7,0c-7.2,0-14.3,0-21.5,0c-1.5,0-2.9,0.1-2.8-2.2C324.1,261.7,325.5,262.1,326.8,262.1z M370,234.9
	c-7.2-0.1-14.3-0.1-21.5-0.1c-7.3,0-14.6,0-21.7,0c-1.3,0-2.7,0.4-2.8-1.9c0-2.3,1.4-2.1,2.9-2.1c14.4,0,28.9,0,43.2,0
	c1.3,0,2.7-0.4,2.7,2C372.8,235.1,371.5,234.9,370,234.9z M370,194.5c-7.4-0.1-14.7,0-21.8,0c-7.3,0-14.6,0-21.7,0
	c-1.3,0-2.7,0.5-2.7-1.9c0-2.1,1.1-2.1,2.6-2.1c14.6,0,29.2,0,43.8,0c1.3,0,2.3-0.1,2.3,1.9C372.5,194.5,371.4,194.5,370,194.5z
	 M372.6,200.5c0,2.1-1.2,2-2.6,2c-14.6,0-29,0-43.5,0c-1.4,0-2.7,0.1-2.7-2c0-2.3,1.5-1.8,2.8-1.8c7.3,0,14.6,0,21.7,0
	c7.2,0,14.3,0,21.5,0C371,198.7,372.6,198.1,372.6,200.5z M369.9,186.3c-7.3,0.1-14.4,0.1-21.7,0.1c-7.4,0-14.7,0-22.1,0
	c-1.3,0-2.5,0.2-2.5-1.9c0-1.9,0.8-2,2.3-2c14.7,0,29.5,0,44.1,0c1.5,0,2.2,0.2,2.2,2C372.4,186.6,371.2,186.3,369.9,186.3z
	 M326.5,206.7c14.6,0,29,0,43.5,0c1.3,0,2.5-0.1,2.5,1.9c0,2.1-1.2,2.1-2.6,2c-7.2,0-14.4,0-21.7,0c-7.2,0-14.3,0-21.5,0
	c-1.4,0-3.1,0.5-3.1-2C323.7,206.3,325.2,206.7,326.5,206.7z M369.8,179.2c-14.4,0-28.8,0-43.2,0c-1.3,0-2.8,0.5-2.8-1.8
	c-0.1-2.6,1.6-2,2.9-2c7.2-0.1,14.3-0.1,21.5-0.1c7.3,0,14.6,0,21.7,0c1.4,0,2.7-0.4,2.7,2C372.6,179.6,371.2,179.2,369.8,179.2z
	 M323.7,169.7c0-2.3,1.5-1.9,2.7-1.9c14.6,0,29.1,0,43.5,0c1.3,0,2.5-0.2,2.5,1.8c0,2.1-1.1,2-2.6,2c-7,0.1-14.3,0.1-21.6,0.1
	s-14.6,0-21.8,0C325,171.7,323.7,172.1,323.7,169.7z M326.6,151.8c7,0,14.2,0,21.4,0c7.3,0,14.6,0,21.8,0c1.4,0,2.6-0.2,2.6,2
	c0,2.2-1.4,1.9-2.7,1.9c-14.4,0-28.9,0-43.2,0c-1.3,0-2.8,0.5-2.8-1.8C323.5,151.4,325.2,151.8,326.6,151.8z M326.1,159.6
	c7.4,0.1,14.8,0,22.1,0s14.6,0,21.7,0c1.4,0,2.3,0,2.3,1.9c0,1.8-0.7,2-2.2,2c-14.7,0-29.5,0-44.1,0c-1.4,0-2.3,0-2.3-1.9
	C323.5,159.4,324.7,159.6,326.1,159.6z M326.1,214.6c14.7,0,29.2,0,43.9,0c1.4,0,2.3,0,2.3,1.9c0,1.9-0.9,1.9-2.3,1.9
	c-7.3,0.1-14.7,0.1-22.1,0.1c-7.3,0-14.6,0-21.8,0c-1.5,0-2.6,0-2.6-2.1C323.5,214.2,324.8,214.6,326.1,214.6z M326,222.9
	c7.5-0.1,14.8-0.1,22.2-0.1c7.3,0,14.6,0,21.7,0c1.3,0,2.5-0.2,2.5,1.9c0,1.8-0.8,2-2.3,2c-14.7,0-29.5,0-44.1,0
	c-1.5,0-2.2-0.2-2.3-2C323.5,222.5,324.8,222.9,326,222.9z M326.5,277.8c14.4,0,28.9,0,43.3,0c1.2,0,2.7-0.6,2.8,1.8
	c0.1,2.5-1.5,2-2.9,2c-7.2,0.1-14.3,0.1-21.5,0.1c-7.3,0-14.6,0-21.8,0c-1.4,0-2.7,0.2-2.7-2C323.7,277.3,325.2,277.8,326.5,277.8z
	 M326.6,285.7c14.6,0,29,0,43.5,0c1.3,0,2.5-0.1,2.5,1.9c0,2.1-1.2,2.1-2.6,2.1c-7.3-0.1-14.6-0.1-21.7-0.1c-7.3,0-14.6,0-21.8,0
	c-1.4,0-2.7,0.2-2.7-2C323.8,285.3,325.3,285.7,326.6,285.7z M370.7,337.2c-14.7,0-29.5,0-44.1,0c-1.4,0-2.3,0-2.5-1.9
	c0-2.1,1.2-2,2.6-2c7.3-0.1,14.6-0.1,21.8-0.1c7.4,0,14.7,0,22.1,0c1.4,0,2.3,0,2.3,1.9C373,336.8,372.2,337.2,370.7,337.2z
	 M324,319.1c0-2.1,1.1-2.1,2.6-2.1c14.6,0,29.2,0,43.8,0c1.4,0,2.3,0,2.3,2s-1.1,1.9-2.5,1.9c-7.2,0-14.6,0-21.9,0
	c-7.3,0-14.6,0-21.7,0C325.4,320.9,324,321.2,324,319.1z M370.6,329c-7.4,0-14.7,0-22.1,0c-7.3,0-14.6,0-21.7,0
	c-1.4,0-2.7,0.1-2.6-2.1c0-2,1.3-1.8,2.6-1.8c14.6,0,29.2,0,43.8,0c1.4,0,2.3,0,2.3,1.9C373,328.9,372,329,370.6,329z M370.6,313.1
	c-7.5,0-14.9,0-22.2,0s-14.6,0-21.7,0c-1.5,0-2.7,0-2.6-2.1c0-2.1,1.3-1.8,2.6-1.8c14.6,0,29.2,0,43.8,0c1.3,0,2.5-0.1,2.5,1.9
	C373,313,372,313.1,370.6,313.1z M370.7,305.9c-14.7,0-29.5,0-44.1,0c-1.4,0-2.3-0.1-2.3-2c0-1.9,0.9-2,2.3-2c7.4,0,14.8,0,22.3,0
	c7.3,0,14.6,0,21.7,0c1.4,0,2.3,0,2.3,2C373,305.6,372.1,305.9,370.7,305.9z M370.3,297.8c-14.4,0-28.9,0-43.2,0
	c-1.3,0-2.8,0.5-2.8-1.8c-0.1-2.5,1.5-2,2.9-2.1c7.2,0,14.4,0,21.7,0c7.2,0,14.3,0,21.5,0c1.4,0,2.6-0.2,2.6,2
	C373,298.1,371.5,297.8,370.3,297.8z M370.7,274.2c-7.5-0.1-14.8-0.1-22.2-0.1c-7.4,0-14.8,0-22.1,0c-1.3,0-2.3,0.1-2.3-1.9
	c0-1.9,0.9-1.9,2.3-1.9c14.8,0,29.5,0,44.2,0c1.5,0,2.2,0.4,2.2,2.1S372,274.2,370.7,274.2z"/>
<path class="st3" d="M246.2,302c-0.6,1.1-0.4,2.2-0.4,3.4c0,12.4,0,24.9,0,37.2c0,5,0,5-5.2,4.7c-1.2-1.4-0.9-3.2-0.9-4.8
	c0-11.7,0-23.6,0-35.3c0-4.1-0.2-4.2-4.3-4.2c-16.1,0-32.2,0-48.2,0c-1.8,0-3.6,0.2-5.2-0.8c-0.9,0.9-0.5,2.2-0.5,3.3
	c0,12.9,0,25.9,0,38.8c0,1.5,0.5,3.3-2.1,3.2c-2.5-0.1-2.2-1.6-2.2-3.3c0-58.1,0-116.2,0-174.3c1.5-1.3,3.2-1.1,4.9-0.2
	c0.4,0.2,0.5,0.6,0.7,0.9c0.7,4,0.2,8,0.4,12c0.1,6.9-0.5,6.6,6.8,6.6c14,0,27.9-0.1,41.8,0.1c2.5-0.2,5,0.5,7.5-0.6
	c1.1-0.9,0.8-2.1,0.8-3.3c0-4,0-8,0-12c0-1.3-0.1-2.6,0.7-3.6c1.8-1.1,3.5-1.1,5.2-0.1c1.1,1.2,0.8,2.6,0.8,3.9c0,4,0,8,0,11.9
	c0,1.2-0.2,2.3,0.8,3.2c2.5,1.2,4.9,0.4,7.5,0.6c12.6-0.2,25,0,37.6-0.1c3.8,0,8.4,1.8,10.9-1.1c2.2-2.5,0.6-7,0.7-10.8
	c0.1-2.2-0.2-4.5,0.4-6.6c0.1-0.4,0.4-0.7,0.6-1.1c1.8-0.8,3.4-0.9,5,0.2c0,49.9,0,99.9,0,149.7c0,7.9,0,15.7,0,23.7
	c0,4.5-0.5,4.8-4.9,3.5c-1.5-1.3-1.2-3.1-1.2-4.7c0-11.7,0-23.6,0-35.3c0-4.5-0.1-4.7-4.6-4.6c-16.1,0.6-32.2,0.7-48.2,0.6
	C249.7,302.8,247.9,303,246.2,302z"/>
<path class="st17" d="M246.2,302c0.7-0.1,1.4-0.2,2.2-0.2c18-0.1,35.9-0.1,53.9-0.4c2.6,0,3.2,0.7,3.2,3.2c-0.1,14.1,0,28.2,0,42.2
	c-0.1,0.2-0.1,0.5-0.2,0.6c-18.5,0-37,0-55.5,0.1c-2.9,0-3.4-1.1-3.4-3.6C246.4,329.9,246.3,315.9,246.2,302z"/>
<path class="st17" d="M182.1,302c1.1-0.1,2.1-0.4,3.1-0.4c17.5,0,35,0,52.3-0.1c2.7,0,3.3,0.8,3.3,3.4c-0.1,14.1-0.1,28.2-0.1,42.2
	c-13.5,0-27.1,0.1-40.6,0.1c-6,0-12-0.1-18-0.1C182.1,332.3,182.1,317.1,182.1,302z"/>
<path class="st18" d="M245.9,169.8c-1.6,0-3.3,0-4.9,0.1c-1.2-0.9-0.9-2.2-0.9-3.5c-0.2-5.4-0.1-10.7-0.1-16.1
	c0-2.6-0.9-3.5-3.5-3.5c-16.5,0-33.2,0-49.8,0c-2.6,0-3.5,0.9-3.5,3.5c0.1,5.2,0.1,10.3,0,15.5c0,1.4,0.2,2.9-1.1,4.1
	c-1.6,0-3.2,0-4.8,0c0-8.6,0-17.3-0.1-25.8c0-2.1,0.7-2.7,2.7-2.7c5.8,0.1,11.6,0,17.4,0c36.5,0,73,0,109.5,0c2.8,0,3.9,0.6,3.8,3.6
	c-0.2,8.3-0.1,16.7-0.1,24.9c-1.6,0-3.2,0-4.8,0.1c-1.4-1.1-1.2-2.6-1.2-4.1c-0.1-5,0-10.1,0-15.1c0-3.6-0.2-3.9-3.6-3.9
	c-16.5,0-33.2,0-49.8,0c-3.6,0-3.9,0.4-3.9,4c-0.1,5.3,0.4,10.4-0.1,15.7C246.7,167.7,246.9,168.9,245.9,169.8z"/>
<path class="st12" d="M276.4,397.7c0.6,0,1.2,0,1.8,0c-0.5,1.5-1.6,0.4-2.5,0.7C275.9,398.2,276.1,398,276.4,397.7z"/>
<path class="st17" d="M305.2,274.6c0,6.6,0.1,13,0.1,19.6c0,1.4-0.4,2-1.9,2c-18.5,0-37,0-55.5,0c-1.5,0-1.9-0.6-1.9-2.1
	c0-14.2,0-28.4,0-42.6c0-1.6,0.5-2.2,2.1-2.1c12.7,0.1,25.5,0.1,38.1,0.1c2,1.1,2.9,3.2,4.2,4.9c4,5.8,8.3,11.3,12.7,16.7
	C304.2,272.2,304.8,273.3,305.2,274.6z"/>
<path class="st17" d="M240.3,296c-19.2,0.4-38.4,0.5-57.6,0.1c-0.5-7.4-0.2-14.7-0.1-22.1c0-2.3,1.6-4.3,2.9-6.1
	c3.9-5.2,7.9-10.2,11.4-15.5c1.3-1.9,2.9-2.7,5.3-2.7c11.9,0.1,23.7,0,35.7,0c1.5,0,2.8-0.2,2.8,2.1c-0.1,14.4,0,28.8,0,43.2
	C240.6,295.4,240.5,295.6,240.3,296z"/>
<path class="st19" d="M257.4,195.7c15.4,0,30.6,0,46-0.1c1.8,0,2.1,0.7,2.1,2.2c0,14.7,0,29.5,0,44.1c0,1.3-0.2,2.1-1.9,2.1
	c-18.7,0-37.4,0-56.1,0c-0.2,0-0.6-0.2-0.8-0.4c1.2-1.3,2.7-0.9,4.1-0.9c8.8,0,17.6,0,26.5,0c1.1,0,2.1,0.2,3.1-0.4
	c0.2-1.1-0.6-1.8-1.1-2.5c-8-12.7-14.8-25.9-20.8-39.5C257.8,198.9,256.8,197.5,257.4,195.7z"/>
<path class="st20" d="M240.2,243.8c-1.6,0.8-3.3,0.4-4.9,0.4c-8.3,0.1-16.7,0.2-24.9,0c-8.6-0.2-17.3-0.4-25.8-0.4
	c-1.9,0-2.5-0.6-2.5-2.5c0.1-14.4,0-28.8,0-43.2c0-1.5,0-2.6,2.1-2.6c14.7,0,29.5-0.1,44.1-0.2c0.4,0,0.8,0.2,1.2,0.4
	c0.6,1.8-0.5,3.3-1.2,4.7c-6,13.4-12.6,26.5-20.5,39c-0.6,0.9-1.4,1.9-1.5,3.1c1.1,0.8,2.2,0.4,3.3,0.4c8.8,0,17.6,0,26.4,0
	C237.5,242.8,239.1,242.5,240.2,243.8z"/>
<path class="st21" d="M245.9,169.8c0-7,0.1-14.1,0-21.1c0-2,0.4-3.1,2.7-3.1c18,0.1,36,0.1,54,0c2.1,0,2.7,0.7,2.7,2.7
	c-0.1,7.2,0,14.3,0.1,21.5h-0.1c-1.2,0.9-2.6,0.9-3.9,0.9c-17.6,0-35.1,0-52.7,0c-1.8-0.4-1.4-1.8-1.6-2.9
	c0.7,6.1,0.4,12.1,0.4,18.2c0,1.3,0.1,2.7-0.9,3.9c-1.1-3.2-0.2-6.6-0.5-9.7C245.9,176.6,246,173.2,245.9,169.8z"/>
<path class="st21" d="M182,169.8c0-7,0.1-14.1,0-21.1c0-2.3,0.7-3.1,3.1-3.1c17.6,0.1,35.2,0.1,52.7,0c2.3,0,3.1,0.7,3.1,3.1
	c-0.1,7,0,14.1,0.1,21.1c0,5.8,0,11.5-0.1,17.1c0,0.9,0.6,2.1-0.6,2.8c-0.7-0.7-0.9-1.6-0.9-2.6c0.1-6.8-0.5-13.6,0.5-20.3
	c-0.1,1.3-0.2,2.7-1.8,3.4c-1.2,0.5-2.5,0.5-3.8,0.5c-15.8,0-31.7,0-47.6,0c-1.5,0-3.2,0.1-4.5-1.1L182,169.8z"/>
<path class="st17" d="M240.2,243.8c-11.7,0-23.6,0-36.1,0c10-15.7,18.4-31.6,25.5-48.1c3.1,0,6.1,0,9.2-0.1c1.3,0,2.2,0.1,2.2,1.9
	c0,15.1,0,30.3-0.1,45.4C240.7,243.1,240.5,243.4,240.2,243.8z"/>
<path class="st17" d="M257.4,195.7c6.8,16,14.6,31.3,24.1,45.9c1.4,2.1,0.4,2.1-1.4,2.1c-11.1,0-22.3,0-33.4,0.1
	c-0.8-0.6-0.5-1.5-0.5-2.3c0-14.3,0-28.8-0.1-43.1c0-2.1,0.6-3.1,2.8-2.8C251.6,195.8,254.5,195.7,257.4,195.7z"/>
<path class="st19" d="M248.4,170.4c0.7-0.9,1.8-0.6,2.7-0.6c18.1,0,36.1,0,54.2,0c0,6,0,12,0.1,18c0,1.8-0.6,2.3-2.3,2.3
	C287,190,271,190,254.8,190c-3.3-5.3-4.5-11.4-6.5-17.3C248.1,172,247.7,171.3,248.4,170.4z"/>
<path class="st20" d="M182.1,169.8c18.8,0,37.4,0,56.2,0c0.7,0.7,0.6,1.5,0.4,2.3c-1.8,5.4-3.4,10.8-5.4,16.1
	c-0.2,0.7-0.7,1.3-1.3,1.8c-15.6,0-31.3,0-46.9,0.1c-2.3,0-3.1-0.6-3.1-2.9C182.3,181.3,182.1,175.6,182.1,169.8z"/>
<path class="st20" d="M240.3,296c0-14.1-0.1-28.2,0-42.2c0-2.8-0.6-3.9-3.6-3.8c-11.3,0.2-22.5,0.1-33.8,0c-2.3,0-3.9,0.8-5.2,2.8
	c-3.5,5.4-7.6,10.6-11.5,15.7c-2.2,2.9-3.9,6-3.6,10c0.4,5.9,0.1,11.7,0,17.7c-0.9-0.4-0.6-1.2-0.6-1.9c0-14.2,0.1-28.4,0-42.6
	c0-1.8,0.6-2.3,2.3-2.3c18.1,0.1,36.1,0.1,54.2,0c1.5,0,2.2,0.4,2.2,2.1c0,14.6,0,29,0,43.5C240.8,295.4,240.8,295.9,240.3,296z"/>
<path class="st19" d="M305.2,274.6c-6.8-8-13.1-16.3-18.9-25.1c5.6,0,11.4,0,17-0.1c1.4,0,2.1,0.4,2,1.9
	C305.4,259,305.2,266.9,305.2,274.6z"/>
<path class="st22" d="M232,190c1.9-5.5,3.6-11,5.4-16.5c0.4-1.2,0.6-2.5,0.9-3.6c0.5-1.4,1.1-2.8,1.5-4.3c0.1,0,0.2,0,0.4,0
	c0,8.1,0,16.3,0,24.4C237.5,190.4,234.7,190.3,232,190z"/>
<path class="st23" d="M248.4,170.4c2.1,6.6,4.2,13,6.3,19.6c-2.8,0.2-5.5,0.5-8.2-0.1c0-8.1,0-16.3,0-24.8
	C248,166.9,247.3,169,248.4,170.4z"/>
</svg>
