<?xml version="1.0" encoding="utf-8"?>
<!-- Generator: Adobe Illustrator 24.0.2, SVG Export Plug-In . SVG Version: 6.00 Build 0)  -->
<svg version="1.1" id="Ebene_1" xmlns="http://www.w3.org/2000/svg" xmlns:xlink="http://www.w3.org/1999/xlink" x="0px" y="0px"
	 viewBox="0 0 211.583 247.358" enable-background="new 0 0 211.583 247.358" xml:space="preserve">
<g>
	<path fill="#FFFFFF" d="M103.486,207.315c-0.146-0.162-0.271-0.285-0.383-0.428c-0.713-0.918-1.424-1.84-2.135-2.761
		c-0.597-0.773-1.211-1.524-1.786-2.326c-0.751-1.048-1.459-2.153-2.209-3.203c-0.577-0.808-1.196-1.56-1.785-2.353
		c-0.228-0.307-0.418-0.664-0.639-0.983c-0.49-0.708-0.976-1.423-1.487-2.103c-0.764-1.017-1.546-2.007-2.325-3.003
		c-0.082-0.105-0.193-0.168-0.291-0.25c-0.1-0.084-0.217-0.145-0.297-0.255c-0.648-0.894-1.289-1.798-1.934-2.697
		c-0.57-0.795-1.157-1.569-1.709-2.387c-0.743-1.101-1.458-2.235-2.185-3.354c-0.052-0.08-0.094-0.189-0.16-0.235
		c-0.512-0.358-0.694-1.102-1.06-1.629c-0.04-0.058-0.065-0.137-0.109-0.188c-0.29-0.339-0.281-0.371-0.04-0.757
		c0.27-0.434,0.475-0.954,0.778-1.337c0.862-1.091,1.567-2.371,2.39-3.508c0.503-0.694,0.972-1.435,1.443-2.169
		c0.644-1.002,1.274-2.019,1.914-3.025c0.102-0.161,0.221-0.305,0.342-0.442c0.049-0.056,0.125-0.106,0.185-0.099
		c0.308,0.034,0.615,0.12,0.923,0.122c0.24,0.002,0.48-0.12,0.721-0.136c0.889-0.059,1.779-0.118,2.668-0.135
		c0.393-0.008,0.786,0.115,1.18,0.124c0.891,0.02,1.782,0.001,2.674,0.006c1.727,0.009,3.455,0.03,5.182,0.033
		c1.101,0.002,2.202-0.047,3.303-0.027c2.303,0.042,4.606,0.121,6.908,0.169c0.792,0.016,1.585,0.005,2.376-0.033
		c0.379-0.018,0.636,0.158,0.844,0.578c0.196,0.396,0.432,0.757,0.656,1.127c0.585,0.967,1.175,1.93,1.761,2.897
		c0.443,0.731,0.881,1.466,1.325,2.196c0.511,0.842,1.025,1.681,1.541,2.518c0.114,0.184,0.236,0.36,0.36,0.531
		c0.231,0.316,0.241,0.478,0.033,0.841c-0.091,0.158-0.186,0.311-0.286,0.459c-0.319,0.471-0.648,0.929-0.959,1.409
		c-0.381,0.585-0.737,1.199-1.124,1.777c-0.384,0.574-0.805,1.104-1.188,1.68c-0.627,0.942-1.228,1.913-1.854,2.855
		c-0.465,0.699-0.959,1.364-1.427,2.06c-0.316,0.47-0.602,0.978-0.917,1.451c-0.388,0.584-0.799,1.142-1.188,1.725
		c-0.734,1.101-1.459,2.214-2.189,3.32c-0.495,0.75-0.995,1.493-1.488,2.245c-0.504,0.768-1.001,1.544-1.505,2.312
		c-0.691,1.053-1.38,2.108-2.081,3.149c-0.794,1.18-1.601,2.344-2.398,3.522c-0.088,0.131-0.138,0.307-0.212,0.458
		C103.607,207.134,103.555,207.204,103.486,207.315z M95.217,179.14c-0.001-0.027-0.001-0.054-0.002-0.081
		c-0.426,0-0.852,0.001-1.277,0c-0.201-0.001-0.282,0.063-0.163,0.356c0.164,0.403,0.295,0.83,0.443,1.245
		c0.389,1.084,0.78,2.166,1.169,3.25c0.249,0.696,0.501,1.39,0.74,2.092c0.208,0.611,0.384,1.243,0.604,1.845
		c0.142,0.388,0.364,0.723,0.504,1.111c0.303,0.84,0.569,1.703,0.863,2.548c0.428,1.233,0.86,2.464,1.303,3.689
		c0.446,1.234,0.912,2.453,1.356,3.688c0.182,0.507,0.322,1.042,0.493,1.557c0.148,0.445,0.313,0.88,0.471,1.32
		c0.291,0.808,0.591,1.611,0.869,2.427c0.187,0.55,0.336,1.123,0.515,1.677c0.038,0.117,0.133,0.27,0.206,0.275
		c0.073,0.005,0.184-0.138,0.221-0.25c0.083-0.254,0.115-0.538,0.196-0.793c0.352-1.121,0.706-2.24,1.074-3.352
		c0.444-1.343,0.895-2.683,1.356-4.015c0.492-1.423,1.017-2.826,1.494-4.258c0.412-1.238,0.766-2.511,1.165-3.758
		c0.482-1.51,0.973-3.016,1.482-4.51c0.278-0.817,0.621-1.593,0.899-2.41c0.389-1.142,0.743-2.306,1.119-3.456
		c0.106-0.325,0.068-0.409-0.208-0.408c-0.961,0.005-1.922,0-2.882,0.006c-2.03,0.013-4.059,0.024-6.089,0.049
		c-0.472,0.006-0.944,0.083-1.416,0.092c-0.919,0.017-1.838,0.021-2.757,0.006c-0.699-0.011-1.398-0.088-2.097-0.083
		C96.318,179.004,95.768,179.09,95.217,179.14z M102.295,204.997c0.022-0.027,0.044-0.053,0.066-0.08
		c-0.16-0.462-0.316-0.927-0.482-1.386c-0.336-0.93-0.682-1.853-1.016-2.785c-0.652-1.821-1.299-3.645-1.946-5.47
		c-0.372-1.05-0.744-2.101-1.109-3.155c-0.32-0.922-0.616-1.86-0.95-2.772c-0.387-1.057-0.808-2.091-1.208-3.139
		c-0.653-1.71-1.304-3.42-1.948-5.136c-0.176-0.47-0.354-0.945-0.479-1.442c-0.112-0.446-0.294-0.586-0.631-0.541
		c-0.579,0.077-1.161,0.144-1.742,0.142c-0.627-0.003-1.254-0.117-1.882-0.133c-0.662-0.016-1.324,0.041-1.986,0.041
		c-0.999,0-1.999-0.024-2.998-0.032c-0.07-0.001-0.14,0.054-0.21,0.082c0.028,0.091,0.042,0.199,0.087,0.27
		c0.109,0.171,0.241,0.317,0.351,0.488c0.743,1.15,1.471,2.319,2.228,3.453c0.586,0.877,1.199,1.722,1.812,2.565
		c1.184,1.63,2.372,3.255,3.567,4.869c0.877,1.185,1.764,2.358,2.657,3.522c0.31,0.404,0.659,0.754,0.976,1.148
		c0.222,0.276,0.432,0.574,0.629,0.883c0.179,0.28,0.312,0.617,0.501,0.88c1.08,1.5,2.172,2.985,3.258,4.478
		c0.654,0.899,1.303,1.805,1.961,2.699C101.951,204.651,102.129,204.815,102.295,204.997z M121.522,178.838
		c-0.639,0-1.219-0.002-1.799,0.001c-0.482,0.002-0.965,0.018-1.447,0.015c-0.66-0.004-1.32-0.031-1.981-0.026
		c-0.932,0.006-1.863,0.053-2.795,0.039c-0.417-0.006-0.555,0.045-0.736,0.571c-0.111,0.322-0.206,0.654-0.306,0.984
		c-0.107,0.354-0.216,0.707-0.315,1.065c-0.103,0.371-0.142,0.796-0.302,1.112c-0.442,0.874-0.723,1.842-1.031,2.802
		c-0.375,1.17-0.803,2.31-1.188,3.474c-0.474,1.435-0.933,2.879-1.388,4.325c-0.314,0.994-0.595,2.008-0.921,2.994
		c-0.23,0.697-0.524,1.355-0.765,2.046c-0.227,0.654-0.41,1.336-0.635,1.991c-0.309,0.898-0.642,1.78-0.958,2.674
		c-0.113,0.32-0.209,0.652-0.312,0.979c0.022,0.017,0.044,0.034,0.066,0.051c0.321-0.481,0.64-0.964,0.965-1.441
		c1.027-1.511,2.049-3.027,3.087-4.525c0.647-0.934,1.34-1.811,1.975-2.76c0.938-1.402,1.844-2.841,2.759-4.27
		c0.907-1.417,1.807-2.842,2.712-4.262c0.038-0.059,0.085-0.107,0.131-0.156c0.181-0.194,0.384-0.36,0.541-0.584
		c0.305-0.435,0.596-0.889,0.871-1.359c0.374-0.639,0.838-1.192,1.052-1.992c0.039-0.147,0.16-0.262,0.254-0.375
		c0.133-0.161,0.285-0.293,0.412-0.461c0.335-0.444,0.664-0.896,0.987-1.355C120.815,179.881,121.168,179.355,121.522,178.838z
		 M111.925,178.302c0.009-0.035,0.017-0.071,0.026-0.106c-0.202-0.181-0.421-0.336-0.604-0.547c-0.803-0.924-1.608-1.847-2.39-2.805
		c-0.804-0.985-1.576-2.016-2.372-3.013c-0.875-1.097-1.757-2.183-2.647-3.258c-0.066-0.08-0.255-0.099-0.325-0.031
		c-0.713,0.692-1.42,1.398-2.116,2.12c-0.453,0.47-0.878,0.988-1.329,1.461c-0.763,0.8-1.544,1.57-2.305,2.373
		c-0.863,0.909-1.714,1.838-2.566,2.765c-0.279,0.303-0.544,0.629-0.883,1.023c0.174,0.021,0.257,0.039,0.34,0.039
		c1.803,0.001,3.606-0.016,5.408,0.006c0.899,0.011,1.798,0.102,2.697,0.142c0.423,0.019,0.848,0.024,1.271-0.001
		c0.468-0.027,0.935-0.111,1.403-0.14c0.39-0.024,0.782-0.006,1.174-0.006c1.665,0,3.329,0.001,4.994,0.001
		C111.776,178.324,111.851,178.31,111.925,178.302z M90.228,168.598c1.106,3.26,2.188,6.45,3.285,9.686
		c3.034-3.298,6.141-6.303,9.042-9.724c-0.069-0.044-0.102-0.084-0.135-0.084c-0.65-0.005-1.299-0.008-1.949-0.005
		c-0.875,0.004-1.75,0.024-2.626,0.017c-0.74-0.006-1.481-0.057-2.221-0.059c-0.798-0.002-1.596,0.038-2.394,0.046
		c-0.71,0.008-1.421-0.014-2.131,0.002C90.81,168.484,90.521,168.555,90.228,168.598z M112.761,177.881
		c0.147-0.441,0.254-0.775,0.37-1.104c0.42-1.188,0.855-2.367,1.261-3.564c0.463-1.367,0.899-2.751,1.35-4.125
		c0.141-0.431,0.108-0.501-0.243-0.516c-0.818-0.035-1.636,0.039-2.454,0.008c-1.746-0.066-3.493-0.107-5.239-0.144
		c-0.938-0.02-1.876-0.011-2.814-0.012c-0.103,0-0.207,0.019-0.406,0.039C107.334,171.63,110.012,174.715,112.761,177.881z
		 M89.749,168.807c-0.126,0.219-0.203,0.357-0.283,0.492c-0.48,0.802-0.952,1.615-1.445,2.403c-0.869,1.391-1.746,2.772-2.629,4.147
		c-0.473,0.735-0.967,1.445-1.445,2.173c-0.105,0.16-0.185,0.351-0.266,0.508c3.112,0,6.19,0,9.359,0
		C91.933,175.257,90.867,172.109,89.749,168.807z M116.349,169.049c-1.053,3.104-2.086,6.148-3.153,9.292
		c2.833-0.071,5.63-0.082,8.431-0.332C119.864,174.985,118.241,171.878,116.349,169.049z"/>
	<path fill="#020203" d="M95.217,179.14c0.55-0.05,1.1-0.135,1.65-0.14c0.699-0.006,1.398,0.071,2.097,0.083
		c0.919,0.015,1.838,0.011,2.757-0.006c0.472-0.009,0.944-0.086,1.416-0.092c2.03-0.025,4.059-0.037,6.089-0.049
		c0.961-0.006,1.922-0.001,2.882-0.006c0.275-0.001,0.314,0.082,0.208,0.408c-0.376,1.15-0.73,2.314-1.119,3.456
		c-0.278,0.816-0.621,1.593-0.899,2.41c-0.509,1.494-1,3-1.482,4.51c-0.398,1.247-0.753,2.52-1.165,3.758
		c-0.477,1.432-1.002,2.835-1.494,4.258c-0.461,1.333-0.912,2.672-1.356,4.015c-0.367,1.112-0.722,2.231-1.074,3.352
		c-0.08,0.256-0.113,0.54-0.196,0.793c-0.037,0.112-0.148,0.255-0.221,0.25s-0.169-0.158-0.206-0.275
		c-0.18-0.554-0.328-1.127-0.515-1.677c-0.278-0.816-0.578-1.619-0.869-2.427c-0.158-0.439-0.323-0.874-0.471-1.32
		c-0.171-0.515-0.311-1.05-0.493-1.557c-0.444-1.235-0.91-2.455-1.356-3.688c-0.442-1.224-0.875-2.455-1.303-3.689
		c-0.294-0.846-0.56-1.709-0.863-2.548c-0.14-0.389-0.362-0.724-0.504-1.111c-0.22-0.603-0.396-1.234-0.604-1.845
		c-0.239-0.702-0.491-1.396-0.74-2.092c-0.388-1.084-0.78-2.166-1.169-3.25c-0.149-0.414-0.28-0.842-0.443-1.245
		c-0.119-0.293-0.038-0.357,0.163-0.356c0.426,0.001,0.852,0,1.277,0C95.216,179.086,95.217,179.113,95.217,179.14z"/>
	<path fill="#020203" d="M102.295,204.997c-0.165-0.182-0.344-0.346-0.493-0.549c-0.658-0.894-1.307-1.8-1.961-2.699
		c-1.086-1.492-2.178-2.977-3.258-4.478c-0.19-0.264-0.323-0.6-0.501-0.88c-0.197-0.309-0.406-0.607-0.629-0.883
		c-0.318-0.394-0.666-0.744-0.976-1.148c-0.893-1.164-1.78-2.337-2.657-3.522c-1.195-1.615-2.383-3.24-3.567-4.869
		c-0.613-0.843-1.226-1.688-1.812-2.565c-0.757-1.134-1.485-2.302-2.228-3.453c-0.11-0.171-0.241-0.317-0.351-0.488
		c-0.045-0.071-0.059-0.179-0.087-0.27c0.07-0.029,0.14-0.083,0.21-0.082c0.999,0.007,1.999,0.031,2.998,0.032
		c0.662,0,1.325-0.057,1.986-0.041c0.628,0.015,1.255,0.13,1.882,0.133c0.581,0.002,1.163-0.065,1.742-0.142
		c0.337-0.045,0.519,0.095,0.631,0.541c0.125,0.497,0.303,0.972,0.479,1.442c0.644,1.716,1.295,3.426,1.948,5.136
		c0.4,1.048,0.821,2.082,1.208,3.139c0.334,0.912,0.63,1.85,0.95,2.772c0.366,1.054,0.737,2.105,1.109,3.155
		c0.647,1.824,1.294,3.649,1.946,5.47c0.333,0.932,0.68,1.855,1.016,2.785c0.166,0.459,0.321,0.924,0.482,1.386
		C102.339,204.943,102.317,204.97,102.295,204.997z"/>
	<path fill="#020203" d="M121.522,178.838c-0.354,0.517-0.706,1.043-1.068,1.557c-0.323,0.459-0.653,0.911-0.987,1.355
		c-0.127,0.168-0.279,0.3-0.412,0.461c-0.094,0.113-0.214,0.228-0.254,0.375c-0.213,0.8-0.677,1.353-1.052,1.992
		c-0.275,0.469-0.566,0.924-0.871,1.359c-0.157,0.224-0.36,0.39-0.541,0.584c-0.046,0.049-0.093,0.097-0.131,0.156
		c-0.904,1.42-1.805,2.845-2.712,4.262c-0.915,1.429-1.822,2.869-2.759,4.27c-0.635,0.949-1.327,1.826-1.975,2.76
		c-1.038,1.497-2.06,3.014-3.087,4.525c-0.324,0.477-0.643,0.961-0.965,1.441c-0.022-0.017-0.044-0.034-0.066-0.051
		c0.104-0.327,0.199-0.658,0.312-0.979c0.316-0.893,0.65-1.776,0.958-2.674c0.225-0.655,0.407-1.337,0.635-1.991
		c0.241-0.691,0.535-1.349,0.765-2.046c0.326-0.987,0.607-2,0.921-2.994c0.456-1.446,0.914-2.89,1.388-4.325
		c0.385-1.165,0.813-2.304,1.188-3.474c0.308-0.96,0.588-1.928,1.031-2.802c0.16-0.316,0.199-0.741,0.302-1.112
		c0.099-0.358,0.208-0.711,0.315-1.065c0.1-0.329,0.195-0.661,0.306-0.984c0.181-0.526,0.319-0.577,0.736-0.571
		c0.931,0.013,1.863-0.033,2.795-0.039c0.66-0.004,1.32,0.023,1.981,0.026c0.482,0.003,0.965-0.013,1.447-0.015
		C120.302,178.835,120.883,178.838,121.522,178.838z"/>
	<path fill="#020203" d="M111.925,178.302c-0.074,0.008-0.148,0.022-0.222,0.022c-1.665,0.001-3.329,0-4.994-0.001
		c-0.391,0-0.783-0.018-1.174,0.006c-0.468,0.029-0.935,0.113-1.403,0.14c-0.423,0.024-0.848,0.02-1.271,0.001
		c-0.899-0.04-1.798-0.131-2.697-0.142c-1.803-0.023-3.605-0.005-5.408-0.006c-0.083,0-0.166-0.018-0.34-0.039
		c0.338-0.393,0.604-0.719,0.883-1.023c0.852-0.927,1.704-1.856,2.566-2.765c0.761-0.803,1.542-1.573,2.305-2.373
		c0.451-0.473,0.876-0.991,1.329-1.461c0.696-0.723,1.403-1.428,2.116-2.12c0.07-0.068,0.258-0.049,0.325,0.031
		c0.89,1.075,1.772,2.161,2.647,3.258c0.795,0.998,1.568,2.029,2.372,3.013c0.782,0.957,1.587,1.88,2.39,2.805
		c0.183,0.211,0.402,0.366,0.604,0.547C111.942,178.232,111.933,178.267,111.925,178.302z"/>
	<path fill="#020203" d="M90.228,168.598c0.293-0.043,0.581-0.114,0.87-0.12c0.71-0.016,1.42,0.006,2.131-0.002
		c0.798-0.009,1.596-0.048,2.394-0.046c0.74,0.002,1.481,0.053,2.221,0.059c0.875,0.007,1.75-0.013,2.626-0.017
		c0.65-0.003,1.299,0,1.949,0.005c0.033,0,0.066,0.04,0.135,0.084c-2.901,3.421-6.008,6.426-9.042,9.724
		C92.416,175.048,91.334,171.858,90.228,168.598z"/>
	<path fill="#020203" d="M112.761,177.881c-2.748-3.166-5.426-6.251-8.176-9.418c0.2-0.02,0.303-0.04,0.406-0.039
		c0.938,0.001,1.876-0.008,2.814,0.012c1.746,0.037,3.493,0.079,5.239,0.144c0.819,0.031,1.636-0.043,2.454-0.008
		c0.352,0.015,0.385,0.085,0.243,0.516c-0.451,1.374-0.887,2.758-1.35,4.125c-0.406,1.197-0.841,2.376-1.261,3.564
		C113.015,177.106,112.908,177.441,112.761,177.881z"/>
	<path fill="#020203" d="M89.749,168.807c1.118,3.302,2.184,6.45,3.292,9.723c-3.169,0-6.247,0-9.359,0
		c0.081-0.157,0.161-0.348,0.266-0.508c0.477-0.728,0.971-1.438,1.444-2.173c0.883-1.375,1.76-2.756,2.629-4.147
		c0.493-0.789,0.964-1.601,1.445-2.403C89.546,169.164,89.623,169.026,89.749,168.807z"/>
	<path fill="#020203" d="M116.349,169.049c1.891,2.829,3.514,5.937,5.278,8.959c-2.801,0.25-5.598,0.262-8.431,0.332
		C114.263,175.196,115.296,172.153,116.349,169.049z"/>
</g>
<path fill="#FFFFFF" d="M109.783,35.651c-1.49,1.62-2.936,3.202-4.393,4.773c-1.818,1.961-3.963,1.984-5.865,0.112
	c-1.597-1.572-3.228-3.11-4.787-4.609c-1.384,1.336-2.845,2.768-4.328,4.175c-2.58,2.448-6.747,1.496-7.716-1.842
	c-0.294-1.014-0.18-2.177-0.104-3.262c0.415-5.899,0.975-11.79,1.286-17.694c0.188-3.564,1.129-6.769,3.379-9.538
	c2.566-3.158,6.011-4.79,9.95-5.409c4.656-0.731,9.283-0.593,13.697,1.226c6.224,2.565,9.308,7.384,9.734,14.022
	c0.289,4.508,0.61,9.014,0.915,13.522c0.136,2.011,0.301,4.02,0.389,6.033c0.08,1.838-1.115,3.587-2.829,4.29
	c-1.741,0.713-3.665,0.305-5.005-1.092c-0.743-0.775-1.45-1.583-2.176-2.375C111.23,37.221,110.528,36.46,109.783,35.651z
	 M119.513,36.623c-0.107-1.805-0.184-3.234-0.279-4.661c-0.308-4.637-0.715-9.271-0.913-13.913
	c-0.252-5.924-3.417-10.628-8.787-12.469c-4.635-1.589-9.38-1.715-14.094-0.386c-5.405,1.524-8.782,5.845-9.17,11.435
	c-0.451,6.516-0.924,13.03-1.393,19.544c-0.107,1.492,0.26,2.279,1.312,2.748c1.006,0.449,1.844,0.218,2.862-0.814
	c1.508-1.529,3.003-3.071,4.511-4.599c0.914-0.926,1.472-0.934,2.382-0.015c1.717,1.734,3.418,3.484,5.128,5.224
	c1.106,1.126,1.651,1.119,2.736-0.06c1.609-1.747,3.203-3.508,4.811-5.256c0.909-0.988,1.416-0.992,2.326-0.004
	c1.411,1.531,2.828,3.058,4.2,4.624c0.842,0.961,1.739,1.758,3.099,1.2C119.596,38.666,119.624,37.47,119.513,36.623z"/>
<path fill="#D92626" stroke="#D92626" stroke-miterlimit="10" d="M119.513,36.623c0.111,0.847,0.083,2.043-1.268,2.597
	c-1.36,0.558-2.257-0.239-3.099-1.2c-1.372-1.566-2.789-3.093-4.2-4.624c-0.91-0.987-1.417-0.983-2.326,0.004
	c-1.609,1.747-3.202,3.509-4.811,5.256c-1.086,1.178-1.63,1.185-2.736,0.06c-1.71-1.74-3.411-3.49-5.128-5.224
	c-0.91-0.919-1.468-0.911-2.382,0.015c-1.508,1.528-3.003,3.07-4.511,4.599c-1.018,1.032-1.855,1.262-2.862,0.814
	c-1.052-0.469-1.419-1.256-1.312-2.748c0.469-6.514,0.942-13.028,1.394-19.543c0.388-5.59,3.764-9.911,9.17-11.435
	c4.714-1.329,9.459-1.203,14.094,0.386c5.37,1.841,8.535,6.545,8.787,12.469c0.197,4.642,0.604,9.275,0.913,13.913
	C119.329,33.39,119.406,34.818,119.513,36.623z M101.691,17.022c-0.004-3.577-3.002-6.566-6.589-6.569
	c-3.607-0.003-6.503,2.943-6.498,6.609c0.005,3.653,2.935,6.592,6.538,6.558C98.753,23.588,101.694,20.624,101.691,17.022z
	 M115.761,17.132c0.009-3.719-2.888-6.679-6.538-6.68c-3.531-0.001-6.532,2.98-6.544,6.502c-0.012,3.686,2.898,6.644,6.562,6.67
	C112.787,23.649,115.752,20.697,115.761,17.132z M108.034,32.485c2.195,0.006,3.927-1.671,3.955-3.83
	c0.027-2.094-1.789-3.926-3.903-3.938c-2.094-0.012-3.835,1.722-3.849,3.836C104.222,30.803,105.84,32.478,108.034,32.485z
	 M95.696,5.706c-0.049,0.074-0.098,0.147-0.147,0.221c-0.097,0-0.196-0.008-0.292,0.001c-1.267,0.124-3.336,2.298-3.34,3.566
	c-0.001,0.231,0.227,0.628,0.396,0.655c0.253,0.04,0.649-0.101,0.804-0.304c0.429-0.563,0.708-1.242,1.149-1.793
	c0.822-1.026,1.557-1.036,2.399-0.041c0.435,0.514,0.7,1.172,1.142,1.679c0.219,0.252,0.663,0.308,1.005,0.453
	c0.053-0.368,0.26-0.808,0.128-1.088C98.612,8.36,98.218,7.65,97.684,7.11C97.122,6.543,96.367,6.167,95.696,5.706z M109.458,5.835
	c-0.472,0.128-0.763,0.173-1.026,0.285c-1.49,0.631-2.243,1.911-2.796,3.32c-0.086,0.218,0.221,0.59,0.346,0.892
	c0.291-0.132,0.682-0.187,0.856-0.41c0.493-0.633,0.824-1.401,1.355-1.994c0.784-0.875,1.422-0.842,2.191,0.06
	c0.436,0.511,0.697,1.173,1.135,1.682c0.224,0.26,0.664,0.333,1.007,0.491c0.064-0.371,0.299-0.835,0.158-1.096
	c-0.425-0.791-0.915-1.582-1.537-2.219C110.68,6.368,109.968,6.128,109.458,5.835z"/>
<path fill="#020203" d="M101.691,17.022c0.004,3.601-2.938,6.565-6.548,6.599c-3.604,0.033-6.533-2.905-6.538-6.558
	c-0.005-3.666,2.891-6.611,6.498-6.609C98.689,10.456,101.687,13.445,101.691,17.022z M91.455,20.605
	c2.112,2.225,5.548,2.12,7.56-0.148c2.033-2.291,1.633-5.793-0.872-7.627c-2.212-1.62-5.642-1.121-6.967,1.012
	c2.297-0.363,4.08,0.843,4.322,2.923C95.758,18.993,94.274,20.436,91.455,20.605z M94.139,17.123
	c-0.011-1.127-0.962-2.064-2.048-2.019c-1.061,0.044-1.926,0.956-1.933,2.037c-0.007,1.136,0.89,2.059,2.001,2.057
	C93.282,19.196,94.151,18.285,94.139,17.123z"/>
<path fill="#020203" d="M115.761,17.132c-0.009,3.564-2.974,6.517-6.519,6.492c-3.664-0.026-6.574-2.984-6.562-6.67
	c0.012-3.522,3.012-6.503,6.544-6.502C112.872,10.454,115.77,13.414,115.761,17.132z M105.237,13.877
	c2.286-0.419,4.122,0.73,4.359,2.846c0.086,0.768-0.198,1.687-0.594,2.375c-0.703,1.221-1.987,1.526-3.393,1.491
	c1.76,2.123,5.214,2.156,7.262,0.15c2.115-2.072,2.032-5.604-0.178-7.563C110.447,11.185,107.012,11.475,105.237,13.877z
	 M106.32,19.2c1.082-0.031,2.041-1.058,1.982-2.124c-0.059-1.053-1.016-1.978-2.044-1.973c-1.073,0.005-2.036,0.997-2.022,2.083
	C104.251,18.273,105.241,19.23,106.32,19.2z"/>
<path fill="#020203" d="M108.034,32.485c-2.194-0.006-3.812-1.682-3.797-3.932c0.014-2.114,1.755-3.848,3.849-3.836
	c2.114,0.012,3.93,1.845,3.903,3.938C111.961,30.814,110.229,32.491,108.034,32.485z M105.593,28.633
	c0.002,1.442,1.091,2.508,2.541,2.491c1.375-0.017,2.452-1.109,2.458-2.494c0.006-1.361-1.094-2.483-2.464-2.515
	C106.719,26.083,105.591,27.204,105.593,28.633z"/>
<path fill="#020203" d="M95.696,5.706c0.67,0.46,1.425,0.837,1.987,1.405c0.534,0.539,0.928,1.249,1.256,1.945
	c0.132,0.28-0.075,0.721-0.128,1.088c-0.342-0.145-0.786-0.202-1.005-0.453c-0.441-0.507-0.707-1.165-1.142-1.679
	c-0.842-0.995-1.578-0.985-2.399,0.041c-0.441,0.551-0.72,1.23-1.149,1.793c-0.154,0.202-0.551,0.344-0.804,0.304
	c-0.169-0.028-0.396-0.425-0.395-0.656c0.004-1.268,2.073-3.442,3.341-3.566c0.096-0.009,0.195-0.001,0.292-0.001
	C95.598,5.854,95.647,5.78,95.696,5.706z"/>
<path fill="#020203" d="M109.458,5.835c0.51,0.293,1.222,0.532,1.689,1.01c0.623,0.637,1.112,1.429,1.537,2.219
	c0.141,0.261-0.095,0.725-0.158,1.096c-0.343-0.158-0.783-0.231-1.007-0.491c-0.438-0.509-0.699-1.171-1.135-1.682
	c-0.77-0.902-1.408-0.935-2.191-0.06c-0.531,0.593-0.862,1.361-1.355,1.994c-0.174,0.223-0.564,0.279-0.856,0.41
	c-0.125-0.301-0.432-0.673-0.346-0.892c0.553-1.409,1.306-2.69,2.796-3.32C108.695,6.009,108.987,5.964,109.458,5.835z"/>
<path fill="#FFFFFF" d="M91.455,20.605c2.82-0.169,4.303-1.612,4.043-3.84c-0.242-2.08-2.025-3.286-4.322-2.923
	c1.325-2.133,4.755-2.631,6.967-1.012c2.505,1.834,2.905,5.335,0.872,7.627C97.003,22.724,93.567,22.829,91.455,20.605z"/>
<path fill="#FFFFFF" d="M94.139,17.123c0.012,1.162-0.858,2.073-1.98,2.075c-1.112,0.002-2.009-0.921-2.001-2.057
	c0.007-1.081,0.872-1.993,1.933-2.037C93.178,15.058,94.128,15.995,94.139,17.123z"/>
<path fill="#FFFFFF" d="M105.237,13.877c1.775-2.401,5.21-2.692,7.456-0.701c2.21,1.958,2.293,5.491,0.178,7.563
	c-2.047,2.006-5.501,1.973-7.262-0.15c1.406,0.036,2.689-0.27,3.393-1.491c0.396-0.688,0.68-1.607,0.594-2.375
	C109.359,14.607,107.523,13.457,105.237,13.877z"/>
<path fill="#FFFFFF" d="M106.32,19.2c-1.079,0.031-2.069-0.927-2.084-2.014c-0.014-1.085,0.949-2.078,2.022-2.083
	c1.027-0.005,1.985,0.92,2.044,1.973C108.361,18.141,107.402,19.169,106.32,19.2z"/>
<path fill="#FFFFFF" d="M105.593,28.633c-0.002-1.429,1.126-2.55,2.534-2.518c1.37,0.032,2.47,1.154,2.464,2.515
	c-0.006,1.385-1.083,2.477-2.458,2.494C106.684,31.142,105.596,30.075,105.593,28.633z"/>
<path fill="#FFFFFF" d="M110.494,93.899c-1.49,1.62-2.936,3.202-4.393,4.773c-1.818,1.961-3.963,1.984-5.865,0.112
	c-1.597-1.572-3.228-3.11-4.787-4.609c-1.384,1.336-2.845,2.768-4.328,4.175c-2.58,2.448-6.747,1.496-7.716-1.842
	c-0.294-1.014-0.18-2.177-0.104-3.262c0.415-5.899,0.975-11.79,1.286-17.694c0.188-3.564,1.129-6.769,3.379-9.538
	c2.566-3.158,6.011-4.79,9.95-5.409c4.656-0.731,9.283-0.593,13.697,1.226c6.224,2.565,9.308,7.384,9.734,14.022
	c0.289,4.508,0.61,9.014,0.915,13.522c0.136,2.011,0.301,4.02,0.389,6.033c0.08,1.838-1.115,3.587-2.829,4.29
	c-1.741,0.713-3.665,0.305-5.005-1.092c-0.743-0.775-1.45-1.583-2.176-2.375C111.941,95.469,111.239,94.708,110.494,93.899z
	 M120.224,94.871c-0.107-1.805-0.184-3.234-0.279-4.661c-0.308-4.637-0.715-9.271-0.913-13.913
	c-0.252-5.924-3.417-10.628-8.787-12.469c-4.635-1.589-9.38-1.715-14.094-0.386c-5.405,1.524-8.782,5.845-9.17,11.435
	c-0.451,6.516-0.924,13.03-1.393,19.544c-0.107,1.492,0.26,2.279,1.312,2.748c1.006,0.449,1.844,0.218,2.862-0.814
	c1.508-1.529,3.003-3.071,4.511-4.599c0.914-0.926,1.472-0.934,2.382-0.015c1.717,1.734,3.418,3.484,5.128,5.224
	c1.106,1.126,1.651,1.119,2.736-0.06c1.609-1.747,3.203-3.508,4.811-5.256c0.909-0.988,1.416-0.992,2.326-0.004
	c1.411,1.531,2.828,3.058,4.2,4.624c0.842,0.961,1.739,1.758,3.099,1.2C120.307,96.914,120.335,95.718,120.224,94.871z"/>
<linearGradient id="SVGID_1_" gradientUnits="userSpaceOnUse" x1="85.5708" y1="193.5982" x2="120.2642" y2="193.5982" gradientTransform="matrix(1 0 0 -1 0 273.7632)">
	<stop  offset="0" style="stop-color:#FFFFFF"/>
	<stop  offset="1" style="stop-color:#020203"/>
</linearGradient>
<linearGradient id="SVGID_2_" gradientUnits="userSpaceOnUse" x1="85.0708" y1="193.5982" x2="120.7642" y2="193.5982" gradientTransform="matrix(1 0 0 -1 0 273.7632)">
	<stop  offset="0" style="stop-color:#FFFFFF"/>
	<stop  offset="1" style="stop-color:#020203"/>
</linearGradient>
<path fill="url(#SVGID_1_)" stroke="url(#SVGID_2_)" stroke-miterlimit="10" d="M120.224,94.871
	c0.111,0.847,0.083,2.043-1.268,2.597c-1.36,0.558-2.257-0.239-3.099-1.2c-1.372-1.566-2.789-3.093-4.2-4.624
	c-0.91-0.987-1.417-0.983-2.326,0.004c-1.609,1.747-3.202,3.509-4.811,5.256c-1.086,1.178-1.63,1.185-2.736,0.06
	c-1.71-1.74-3.411-3.49-5.128-5.224c-0.91-0.919-1.468-0.911-2.382,0.015c-1.508,1.528-3.003,3.07-4.511,4.599
	c-1.018,1.032-1.855,1.262-2.862,0.814c-1.052-0.469-1.419-1.256-1.312-2.748c0.469-6.514,0.942-13.028,1.394-19.543
	c0.388-5.59,3.764-9.911,9.17-11.435c4.714-1.329,9.459-1.203,14.094,0.386c5.37,1.841,8.535,6.545,8.787,12.469
	c0.197,4.642,0.604,9.275,0.913,13.913C120.04,91.638,120.117,93.066,120.224,94.871z M102.402,75.27
	c-0.004-3.577-3.002-6.566-6.589-6.569c-3.607-0.003-6.503,2.943-6.498,6.609c0.005,3.653,2.935,6.592,6.538,6.558
	C99.464,81.836,102.405,78.872,102.402,75.27z M116.472,75.38c0.009-3.719-2.888-6.679-6.538-6.68
	c-3.531-0.001-6.532,2.98-6.544,6.502c-0.012,3.686,2.898,6.644,6.562,6.67C113.498,81.897,116.463,78.945,116.472,75.38z
	 M108.745,90.733c2.195,0.006,3.927-1.671,3.955-3.83c0.027-2.094-1.789-3.926-3.903-3.938c-2.094-0.012-3.835,1.722-3.849,3.836
	C104.933,89.051,106.551,90.726,108.745,90.733z M96.407,63.954c-0.049,0.074-0.098,0.147-0.147,0.221
	c-0.097,0-0.196-0.008-0.292,0.001c-1.267,0.124-3.336,2.298-3.34,3.566c-0.001,0.231,0.227,0.628,0.396,0.655
	c0.253,0.04,0.649-0.101,0.804-0.304c0.429-0.563,0.708-1.242,1.149-1.793c0.822-1.026,1.557-1.036,2.399-0.041
	c0.435,0.514,0.7,1.172,1.142,1.679c0.219,0.252,0.663,0.308,1.005,0.453c0.053-0.368,0.26-0.808,0.128-1.088
	c-0.328-0.695-0.722-1.405-1.256-1.945C97.833,64.791,97.078,64.415,96.407,63.954z M110.169,64.083
	c-0.472,0.128-0.763,0.173-1.026,0.285c-1.49,0.631-2.243,1.911-2.796,3.32c-0.086,0.218,0.221,0.59,0.346,0.892
	c0.291-0.132,0.682-0.187,0.856-0.41c0.493-0.633,0.824-1.401,1.355-1.994c0.784-0.875,1.422-0.842,2.191,0.06
	c0.436,0.511,0.697,1.173,1.135,1.682c0.224,0.26,0.664,0.333,1.007,0.491c0.064-0.371,0.299-0.835,0.158-1.096
	c-0.425-0.791-0.915-1.582-1.537-2.219C111.391,64.616,110.679,64.376,110.169,64.083z"/>
<path fill="#020203" d="M102.402,75.27c0.004,3.601-2.938,6.565-6.548,6.599c-3.604,0.033-6.533-2.905-6.538-6.558
	c-0.005-3.666,2.891-6.611,6.498-6.609C99.4,68.704,102.398,71.693,102.402,75.27z M92.166,78.853
	c2.112,2.225,5.548,2.12,7.56-0.148c2.033-2.291,1.633-5.793-0.872-7.627c-2.212-1.62-5.642-1.121-6.967,1.012
	c2.297-0.363,4.08,0.843,4.322,2.923C96.469,77.241,94.985,78.684,92.166,78.853z M94.85,75.371
	c-0.011-1.127-0.962-2.064-2.048-2.019c-1.061,0.044-1.926,0.956-1.933,2.037c-0.007,1.136,0.89,2.059,2.001,2.057
	C93.993,77.444,94.862,76.533,94.85,75.371z"/>
<path fill="#020203" d="M116.472,75.38c-0.009,3.564-2.974,6.517-6.519,6.492c-3.664-0.026-6.574-2.984-6.562-6.67
	c0.012-3.522,3.012-6.503,6.544-6.502C113.583,68.702,116.481,71.662,116.472,75.38z M105.948,72.125
	c2.286-0.419,4.122,0.73,4.359,2.846c0.086,0.768-0.198,1.687-0.594,2.375c-0.703,1.221-1.987,1.526-3.393,1.491
	c1.76,2.123,5.214,2.156,7.262,0.15c2.115-2.072,2.032-5.604-0.178-7.563C111.158,69.433,107.723,69.723,105.948,72.125z
	 M107.031,77.448c1.082-0.031,2.041-1.058,1.982-2.124c-0.059-1.053-1.016-1.978-2.044-1.973c-1.073,0.005-2.036,0.997-2.022,2.083
	C104.962,76.521,105.952,77.478,107.031,77.448z"/>
<path fill="#020203" d="M108.745,90.733c-2.194-0.006-3.812-1.682-3.797-3.932c0.014-2.114,1.755-3.848,3.849-3.836
	c2.114,0.012,3.93,1.845,3.903,3.938C112.672,89.062,110.94,90.739,108.745,90.733z M106.304,86.881
	c0.002,1.442,1.091,2.508,2.541,2.491c1.375-0.017,2.452-1.109,2.458-2.494c0.006-1.361-1.094-2.483-2.464-2.515
	C107.43,84.331,106.302,85.452,106.304,86.881z"/>
<path fill="#020203" d="M96.407,63.954c0.67,0.46,1.425,0.837,1.987,1.405c0.534,0.539,0.928,1.249,1.256,1.945
	c0.132,0.28-0.075,0.721-0.128,1.088c-0.342-0.145-0.786-0.202-1.005-0.453c-0.441-0.507-0.707-1.165-1.142-1.679
	c-0.842-0.995-1.578-0.985-2.399,0.041c-0.441,0.551-0.72,1.23-1.149,1.793c-0.154,0.202-0.551,0.344-0.804,0.304
	c-0.169-0.028-0.396-0.425-0.395-0.656c0.004-1.268,2.073-3.442,3.341-3.566c0.096-0.009,0.195-0.001,0.292-0.001
	C96.309,64.102,96.358,64.028,96.407,63.954z"/>
<path fill="#020203" d="M110.169,64.083c0.51,0.293,1.222,0.532,1.689,1.01c0.623,0.637,1.112,1.429,1.537,2.219
	c0.141,0.261-0.095,0.725-0.158,1.096c-0.343-0.158-0.783-0.231-1.007-0.491c-0.438-0.509-0.699-1.171-1.135-1.682
	c-0.77-0.902-1.408-0.935-2.191-0.06c-0.531,0.593-0.862,1.361-1.355,1.994c-0.174,0.223-0.564,0.279-0.856,0.41
	c-0.125-0.301-0.432-0.673-0.346-0.892c0.553-1.409,1.306-2.69,2.796-3.32C109.406,64.257,109.698,64.212,110.169,64.083z"/>
<path fill="#FFFFFF" d="M92.166,78.853c2.82-0.169,4.303-1.612,4.043-3.84c-0.242-2.08-2.025-3.286-4.322-2.923
	c1.325-2.133,4.755-2.631,6.967-1.012c2.505,1.834,2.905,5.335,0.872,7.627C97.714,80.972,94.278,81.077,92.166,78.853z"/>
<path fill="#FFFFFF" d="M94.85,75.371c0.012,1.162-0.858,2.073-1.98,2.075c-1.112,0.002-2.009-0.921-2.001-2.057
	c0.007-1.081,0.872-1.993,1.933-2.037C93.889,73.306,94.839,74.243,94.85,75.371z"/>
<path fill="#FFFFFF" d="M105.948,72.125c1.775-2.401,5.21-2.692,7.456-0.701c2.21,1.958,2.293,5.491,0.178,7.563
	c-2.047,2.006-5.501,1.973-7.262-0.15c1.406,0.036,2.689-0.27,3.393-1.491c0.396-0.688,0.68-1.607,0.594-2.375
	C110.07,72.855,108.234,71.705,105.948,72.125z"/>
<path fill="#FFFFFF" d="M107.031,77.448c-1.079,0.031-2.069-0.927-2.084-2.014c-0.014-1.085,0.949-2.078,2.022-2.083
	c1.027-0.005,1.985,0.92,2.044,1.973C109.072,76.389,108.113,77.417,107.031,77.448z"/>
<path fill="#FFFFFF" d="M106.304,86.881c-0.002-1.429,1.126-2.55,2.534-2.518c1.37,0.032,2.47,1.154,2.464,2.515
	c-0.006,1.385-1.083,2.477-2.458,2.494C107.395,89.39,106.307,88.323,106.304,86.881z"/>
<g>
	<path fill="#FFFFFF" d="M85.412,119.205c0.096-0.803,0.192-1.864,0.354-2.919c0.386-2.508,2.395-3.07,4.848-3.173
		c4.103-0.173,7.379,1.255,9.816,3.865c2.105,2.254,3.793,4.688,4.801,7.405c0.203,0.546,0.687,0.614,1.154,0.106
		c2.177-2.365,5.327-3.617,8.607-4.667c3.41-1.091,8.198,0.35,9.65,3.061c0.526,0.982,0.467,2.365,0.074,3.423
		c-1.477,3.983-3.582,7.759-6.726,11.119c-3.369,3.6-6.708,7.219-10.106,10.802c-1.22,1.286-2.471,2.572-3.894,3.711
		c-1.508,1.207-2.06,1.037-3.041-0.476c-2.884-4.446-6.037-8.793-8.632-13.343c-2.888-5.069-6.073-10.107-6.652-15.812
		C85.569,121.363,85.51,120.416,85.412,119.205z M104.966,128.522c-0.175-0.103-0.35-0.206-0.525-0.309
		c-0.031-0.331-0.04-0.664-0.099-0.992c-0.084-0.468-0.102-0.967-0.33-1.39c-0.428-0.795-1.08-1.516-1.474-2.319
		c-1.855-3.786-5.772-5.889-9.932-7.779c-2.6-1.183-4.792-0.089-4.891,2.186c-0.123,2.806,0.064,5.701,0.83,8.43
		c0.824,2.932,2.272,5.788,3.809,8.549c2.855,5.126,5.611,10.311,9.742,14.945c0.622-0.976,1.071-1.994,1.843-2.822
		c1.195-1.281,2.704-2.375,3.912-3.649c3.723-3.926,7.409-7.869,10.056-12.365c1.325-2.251,2.895-4.405,3.194-6.948
		c0.173-1.48-0.831-2.218-2.667-1.957c-2.688,0.382-4.742,1.689-6.881,2.905C109.402,126.23,107.165,127.354,104.966,128.522z
		 M109.981,142.673c-0.09-0.064-0.18-0.127-0.27-0.191c-1.449,1.463-2.899,2.927-4.348,4.39c0.133,0.08,0.266,0.161,0.399,0.241
		C107.168,145.634,108.574,144.153,109.981,142.673z"/>
	<path fill="#E19AB0" d="M104.966,128.522c2.199-1.167,4.436-2.292,6.586-3.514c2.14-1.216,4.193-2.523,6.881-2.905
		c1.836-0.261,2.84,0.477,2.667,1.957c-0.298,2.544-1.869,4.697-3.194,6.948c-2.646,4.496-6.332,8.439-10.056,12.365
		c-1.209,1.274-2.718,2.368-3.912,3.649c-0.771,0.827-1.221,1.845-1.843,2.822c-4.131-4.634-6.887-9.819-9.742-14.945
		c-1.538-2.761-2.986-5.617-3.809-8.549c-0.767-2.729-0.953-5.624-0.83-8.43c0.099-2.275,2.291-3.369,4.892-2.187
		c4.16,1.89,8.077,3.993,9.932,7.779c0.394,0.803,1.046,1.524,1.474,2.319c0.228,0.424,0.246,0.922,0.33,1.39
		c0.059,0.328,0.068,0.661,0.099,0.992C104.616,128.316,104.791,128.419,104.966,128.522z"/>
	<path fill="#FFFFFF" d="M109.981,142.673c-1.406,1.48-2.813,2.961-4.219,4.441c-0.133-0.08-0.266-0.161-0.399-0.241
		c1.449-1.463,2.899-2.927,4.348-4.39C109.8,142.546,109.891,142.61,109.981,142.673z"/>
</g>
<g>
	<path fill="#FFFFFE" d="M132.976,225.866c-13.618,0.859-23.281-1.539-29.521-7.205c-2.003-1.819-2.889-3.86-1.836-6.218
		c0.229-0.514,1.414-0.992,2.158-1.486c0.464,0.434,1.321,0.824,1.334,1.307c0.193,7.043,10.298,12.053,23.64,11.72
		c5.705-0.142,11.284-0.578,16.776-2.414c0.991-0.331,2.472-0.08,3.727-0.097c-0.914,0.63-1.651,1.502-2.775,1.849
		C141.971,224.71,137.383,226.088,132.976,225.866z"/>
	<path fill="#FFFFFE" d="M147.855,217.428c0.358-0.007,1.687-0.108,2.935-0.045c5.389,0.273,6.903,1.96,4.361,4.826
		c-1.643,1.852-3.246,3.718-5.111,5.518c-0.541,0.522-1.928,0.837-2.927,1.247c-0.073-0.639-0.573-1.342-0.139-1.906
		c1.309-1.703,3.005-3.348,4.508-5.024c1.715-1.911,0.98-2.652-2.664-2.614c-1.717,0.018-3.517,0.257-5.186,0.192
		c-0.973-0.038-1.763-0.482-2.635-0.744c0.995-0.422,1.931-0.96,3.006-1.231C144.887,217.424,145.937,217.519,147.855,217.428z"/>
</g>
<g>
	<path fill="#FFFFFE" d="M128.805,115.666c-13.618,0.859-23.281-1.539-29.521-7.205c-2.003-1.819-2.889-3.86-1.836-6.218
		c0.229-0.514,1.414-0.992,2.158-1.486c0.464,0.434,1.321,0.824,1.334,1.307c0.193,7.043,10.298,12.053,23.64,11.72
		c5.705-0.142,11.284-0.578,16.776-2.414c0.991-0.331,2.472-0.08,3.727-0.097c-0.914,0.63-1.651,1.502-2.775,1.849
		C137.8,114.51,133.213,115.888,128.805,115.666z"/>
	<path fill="#FFFFFE" d="M143.685,107.228c0.358-0.007,1.687-0.108,2.935-0.045c5.389,0.273,6.903,1.96,4.361,4.826
		c-1.643,1.852-3.246,3.718-5.111,5.518c-0.541,0.522-1.928,0.837-2.927,1.247c-0.073-0.639-0.573-1.342-0.139-1.906
		c1.309-1.703,3.005-3.348,4.508-5.024c1.715-1.911,0.98-2.652-2.664-2.614c-1.717,0.018-3.517,0.257-5.186,0.192
		c-0.973-0.038-1.763-0.482-2.635-0.744c0.995-0.422,1.931-0.96,3.006-1.231C140.717,107.224,141.767,107.319,143.685,107.228z"/>
</g>
<g>
	<path fill="#FFFFFE" d="M65.24,161.805c-1.124-0.347-1.86-1.218-2.775-1.849c1.255,0.018,2.736-0.234,3.727,0.097
		c5.492,1.836,11.071,2.272,16.776,2.414c13.342,0.333,23.447-4.677,23.64-11.72c0.013-0.483,0.87-0.873,1.334-1.307
		c0.745,0.494,1.929,0.972,2.158,1.486c1.053,2.358,0.167,4.4-1.836,6.218c-6.24,5.666-15.903,8.064-29.521,7.205
		C74.336,164.573,69.749,163.195,65.24,161.805z"/>
	<path fill="#FFFFFE" d="M67.716,156.132c1.075,0.271,2.01,0.809,3.006,1.231c-0.872,0.261-1.662,0.705-2.635,0.744
		c-1.669,0.066-3.469-0.173-5.186-0.192c-3.644-0.038-4.379,0.703-2.664,2.614c1.504,1.676,3.199,3.321,4.508,5.024
		c0.434,0.564-0.066,1.267-0.139,1.906c-0.999-0.41-2.386-0.725-2.927-1.247c-1.865-1.8-3.468-3.666-5.111-5.518
		c-2.542-2.866-1.028-4.553,4.361-4.826c1.249-0.063,2.577,0.038,2.935,0.045C65.782,156.003,66.832,155.909,67.716,156.132z"/>
</g>
<g>
	<path fill="#FFFFFE" d="M58.872,56.065c-1.124-0.347-1.86-1.218-2.775-1.849c1.255,0.018,2.736-0.234,3.727,0.097
		c5.492,1.836,11.071,2.272,16.776,2.414c13.342,0.333,23.447-4.677,23.64-11.72c0.013-0.483,0.87-0.873,1.334-1.307
		c0.745,0.494,1.929,0.972,2.158,1.486c1.053,2.358,0.167,4.4-1.836,6.218c-6.24,5.666-15.903,8.064-29.521,7.205
		C67.968,58.833,63.381,57.455,58.872,56.065z"/>
	<path fill="#FFFFFE" d="M61.349,50.393c1.075,0.271,2.01,0.809,3.006,1.231c-0.872,0.261-1.662,0.705-2.635,0.744
		c-1.669,0.066-3.469-0.173-5.186-0.192c-3.644-0.038-4.379,0.703-2.664,2.614c1.504,1.676,3.199,3.321,4.508,5.024
		c0.434,0.564-0.066,1.267-0.139,1.906c-0.999-0.41-2.386-0.725-2.927-1.247c-1.865-1.8-3.468-3.666-5.111-5.518
		c-2.542-2.866-1.028-4.553,4.361-4.826c1.249-0.063,2.577,0.038,2.935,0.045C59.415,50.264,60.465,50.169,61.349,50.393z"/>
</g>
<text transform="matrix(1 0 0 1 3.1482 38.2469)"><tspan x="0" y="0" fill="#FFFFFE" font-family="'Noteworthy-Light'" font-size="12px">headbanging</tspan><tspan x="25.211" y="12" fill="#FFFFFE" font-family="'Noteworthy-Light'" font-size="10px">=</tspan><tspan x="21.322" y="26.4" fill="#FFFFFE" font-family="'Noteworthy-Light'" font-size="12px">die</tspan></text>
<g>
	<path fill="#FFFFFE" d="M136.586,55.238c-13.618,0.859-23.281-1.539-29.521-7.205c-2.003-1.819-2.889-3.86-1.836-6.218
		c0.229-0.514,1.414-0.992,2.158-1.486c0.464,0.434,1.321,0.824,1.334,1.307c0.193,7.043,10.298,12.053,23.64,11.72
		c5.705-0.142,11.284-0.578,16.776-2.414c0.991-0.331,2.472-0.08,3.727-0.097c-0.914,0.63-1.651,1.502-2.775,1.849
		C145.581,54.081,140.994,55.459,136.586,55.238z"/>
	<path fill="#FFFFFE" d="M151.466,46.8c0.358-0.007,1.687-0.108,2.935-0.045c5.389,0.273,6.903,1.96,4.361,4.826
		c-1.643,1.852-3.246,3.718-5.111,5.518c-0.541,0.522-1.928,0.837-2.927,1.247c-0.073-0.639-0.573-1.342-0.139-1.906
		c1.309-1.703,3.005-3.348,4.508-5.024c1.715-1.911,0.98-2.652-2.664-2.614c-1.717,0.018-3.517,0.257-5.186,0.192
		c-0.973-0.038-1.763-0.482-2.635-0.744c0.995-0.422,1.931-0.96,3.006-1.231C148.497,46.796,149.548,46.89,151.466,46.8z"/>
</g>
<text transform="matrix(1 0 0 1 131.3871 40.7367)"><tspan x="0" y="0" fill="#FFFFFE" font-family="'Noteworthy-Light'" font-size="12px">touching the body</tspan><tspan x="37.533" y="12" fill="#FFFFFE" font-family="'Noteworthy-Light'" font-size="10px">=</tspan><tspan x="16.912" y="26.4" fill="#FFFFFE" font-family="'Noteworthy-Light'" font-size="12px">just a hole</tspan></text>
<text transform="matrix(1 0 0 1 153.4739 103.0536)"><tspan x="0" y="0" fill="#FFFFFE" font-family="'Noteworthy-Light'" font-size="12px">touching</tspan><tspan x="16.503" y="12" fill="#FFFFFE" font-family="'Noteworthy-Light'" font-size="10px">=</tspan><tspan x="-0.75" y="26.4" fill="#FFFFFE" font-family="'Noteworthy-Light'" font-size="12px">eat them</tspan></text>
<text transform="matrix(1 0 0 1 19.2553 151.1116)"><tspan x="0" y="0" fill="#FFFFFE" font-family="'Noteworthy-Light'" font-size="12px">eat it</tspan><tspan x="9.506" y="12" fill="#FFFFFE" font-family="'Noteworthy-Light'" font-size="10px">=</tspan><tspan x="-10.687" y="26.4" fill="#FFFFFE" font-family="'Noteworthy-Light'" font-size="12px">kill ghosts</tspan></text>
<text transform="matrix(1 0 0 1 156.5641 215.0125)"><tspan x="0" y="0" fill="#FFFFFE" font-family="'Noteworthy-Light'" font-size="12px">eat it</tspan><tspan x="9.506" y="12" fill="#FFFFFE" font-family="'Noteworthy-Light'" font-size="10px">=</tspan><tspan x="-10.59" y="26.4" fill="#FFFFFE" font-family="'Noteworthy-Light'" font-size="12px">get longer</tspan></text>
</svg>
