<?xml version="1.0" encoding="utf-8"?>
<!-- Generator: Adobe Illustrator 24.0.2, SVG Export Plug-In . SVG Version: 6.00 Build 0)  -->
<svg version="1.1" id="Ebene_1" xmlns="http://www.w3.org/2000/svg" xmlns:xlink="http://www.w3.org/1999/xlink" x="0px" y="0px"
	 viewBox="0 0 39.997 40" enable-background="new 0 0 39.997 40" xml:space="preserve">
<path fill="#FFFFFF" d="M12.368,33.824c-1.452,1.424-2.896,2.849-4.348,4.264c-1.285,1.252-2.807,1.654-4.536,1.177
	c-1.784-0.493-2.957-1.695-3.23-3.479c-0.19-1.246,0.038-2.563,0.127-3.845c0.156-2.253,0.361-4.502,0.521-6.754
	c0.287-4.024,0.298-8.088,0.892-12.065C2.7,7.059,6.299,3.01,12.195,1.246c5.439-1.627,10.924-1.509,16.211,0.605
	c5.837,2.334,9.025,6.799,9.535,13.064c0.505,6.209,0.897,12.426,1.311,18.642c0.062,0.928,0.112,1.896-0.081,2.792
	c-0.361,1.676-1.491,2.781-3.133,3.242c-1.771,0.497-3.322-0.017-4.571-1.348c-1.389-1.479-2.738-2.995-4.187-4.585
	c-1.383,1.51-2.8,2.88-4.009,4.415c-1.809,2.297-4.643,2.318-6.461,0.169c-1.31-1.549-2.844-2.909-4.28-4.351
	C12.489,33.851,12.416,33.843,12.368,33.824z M18.478,2.542c-0.948,0.132-2.8,0.234-4.572,0.664C8.594,4.493,5.02,7.72,4.198,13.23
	c-0.612,4.105-0.656,8.293-0.976,12.442c-0.218,2.83-0.451,5.66-0.728,8.485c-0.12,1.219,0.273,2.213,1.232,2.706
	c0.952,0.49,1.911,0.294,2.801-0.602c1.571-1.582,3.128-3.178,4.697-4.762c0.86-0.868,1.425-0.863,2.286,0.008
	c1.749,1.77,3.487,3.551,5.24,5.316c0.971,0.977,1.57,0.951,2.507-0.076c1.59-1.742,3.173-3.491,4.768-5.228
	c1.008-1.098,1.5-1.094,2.521,0.021c1.506,1.644,2.997,3.301,4.502,4.946c0.765,0.836,1.715,1.098,2.605,0.743
	c0.858-0.343,1.366-1.139,1.309-2.26c-0.114-2.257-0.273-4.511-0.428-6.765c-0.298-4.348-0.594-8.695-0.911-13.041
	c-0.285-3.911-1.913-7.134-5.082-9.486C27.227,3.218,23.356,2.67,18.478,2.542z"/>
<linearGradient id="SVGID_1_" gradientUnits="userSpaceOnUse" x1="2.473" y1="20.9605" x2="36.9663" y2="20.9605" gradientTransform="matrix(1 0 0 -1 0 41)">
	<stop  offset="0" style="stop-color:#FFFFFF"/>
	<stop  offset="1" style="stop-color:#000000"/>
</linearGradient>
<path fill="url(#SVGID_1_)" d="M18.478,2.542c4.878,0.128,8.749,0.676,12.063,3.135c3.169,2.352,4.797,5.575,5.082,9.486
	c0.317,4.346,0.614,8.694,0.911,13.041c0.154,2.254,0.314,4.509,0.428,6.765c0.057,1.121-0.451,1.918-1.309,2.26
	c-0.89,0.355-1.841,0.093-2.605-0.743c-1.504-1.645-2.995-3.303-4.502-4.946c-1.021-1.114-1.513-1.118-2.521-0.021
	c-1.595,1.738-3.178,3.486-4.768,5.228c-0.937,1.027-1.537,1.053-2.507,0.076c-1.754-1.765-3.492-3.546-5.24-5.316
	c-0.861-0.872-1.426-0.876-2.286-0.008c-1.57,1.583-3.126,3.18-4.697,4.762c-0.89,0.896-1.849,1.091-2.801,0.602
	c-0.959-0.493-1.352-1.487-1.232-2.706c0.277-2.825,0.51-5.655,0.728-8.485c0.32-4.149,0.364-8.338,0.976-12.442
	C5.02,7.72,8.594,4.493,13.906,3.205C15.679,2.776,17.531,2.673,18.478,2.542z M19.22,15.052c-0.131-3.643-3.13-6.535-6.641-6.401
	c-3.61,0.137-6.531,3.187-6.393,6.675c0.144,3.632,3.2,6.564,6.663,6.393C16.539,21.537,19.347,18.597,19.22,15.052z M20.248,15.168
	c-0.013,3.626,2.862,6.543,6.462,6.557c3.547,0.014,6.54-2.962,6.551-6.515c0.011-3.544-2.948-6.527-6.511-6.563
	C23.192,8.611,20.262,11.55,20.248,15.168z M20.079,24.457c-2.682,0-5.364-0.016-8.045,0.024c-0.284,0.004-0.563,0.34-0.845,0.523
	c0.281,0.192,0.553,0.4,0.848,0.569c0.097,0.056,0.253,0.008,0.383,0.008c5.105,0.001,10.21,0.003,15.315,0.003
	c0.226,0,0.493,0.064,0.668-0.033c0.24-0.132,0.41-0.39,0.61-0.594c-0.199-0.164-0.377-0.38-0.604-0.475
	c-0.194-0.081-0.446-0.024-0.672-0.024C25.184,24.457,22.632,24.457,20.079,24.457z"/>
<path d="M19.22,15.052c0.127,3.545-2.682,6.485-6.37,6.667c-3.463,0.171-6.52-2.761-6.663-6.393
	C6.049,11.838,8.97,8.788,12.58,8.651C16.09,8.517,19.09,11.408,19.22,15.052z M8.705,12.049c2.214-0.402,4.091,0.653,4.332,2.576
	c0.104,0.827-0.13,1.817-0.531,2.56c-0.68,1.26-1.997,1.568-3.444,1.519c1.945,2.137,5.317,2.134,7.332,0.091
	c2.036-2.064,1.92-5.494-0.251-7.44C13.937,9.377,10.627,9.651,8.705,12.049z M11.766,15.361c0.03-1.087-0.892-2.072-1.964-2.098
	c-1.049-0.025-2.051,0.961-2.058,2.025c-0.007,1.039,0.894,1.987,1.938,2.04C10.754,17.383,11.736,16.456,11.766,15.361z"/>
<path d="M20.248,15.168c0.013-3.618,2.944-6.557,6.503-6.521c3.563,0.036,6.522,3.019,6.511,6.563
	c-0.011,3.553-3.004,6.529-6.551,6.515C23.11,21.712,20.235,18.794,20.248,15.168z M23.073,18.734
	c1.577,1.627,3.879,2.035,5.853,1.11c1.897-0.888,3.193-3.093,2.954-5.024c-0.293-2.365-1.898-4.228-4.012-4.657
	c-2.055-0.416-4.203,0.375-5.043,1.857c2.14-0.38,4.022,0.821,4.258,2.718C27.377,17.108,25.991,18.523,23.073,18.734z
	 M25.752,15.284c-0.01-1.121-0.94-2.054-2.014-2.022c-1.069,0.032-1.922,0.919-1.929,2.008c-0.007,1.165,0.842,2.055,1.964,2.058
	C24.881,17.332,25.763,16.421,25.752,15.284z"/>
<path d="M20.079,24.457c2.552,0,5.105,0,7.657,0.001c0.226,0,0.478-0.056,0.672,0.024c0.228,0.095,0.405,0.311,0.604,0.475
	c-0.2,0.204-0.37,0.462-0.61,0.594c-0.176,0.097-0.442,0.033-0.668,0.033c-5.105-0.001-10.21-0.002-15.315-0.003
	c-0.129,0-0.285,0.047-0.383-0.008c-0.295-0.168-0.567-0.376-0.848-0.569c0.281-0.182,0.561-0.518,0.845-0.523
	C14.715,24.441,17.397,24.457,20.079,24.457z"/>
<path fill="#FFFFFF" d="M8.705,12.049c1.922-2.398,5.232-2.672,7.438-0.694c2.171,1.947,2.287,5.376,0.251,7.44
	c-2.015,2.043-5.387,2.046-7.332-0.091c1.447,0.048,2.764-0.26,3.444-1.519c0.401-0.743,0.635-1.733,0.531-2.56
	C12.796,12.702,10.919,11.646,8.705,12.049z"/>
<path fill="#FFFFFF" d="M11.766,15.361c-0.031,1.095-1.012,2.022-2.083,1.967c-1.045-0.053-1.945-1.001-1.938-2.04
	c0.007-1.064,1.009-2.05,2.058-2.025C10.874,13.289,11.797,14.274,11.766,15.361z"/>
<path fill="#FFFFFF" d="M23.073,18.734c2.918-0.212,4.305-1.626,4.01-3.995c-0.235-1.897-2.118-3.098-4.258-2.718
	c0.84-1.483,2.987-2.274,5.043-1.857c2.114,0.428,3.719,2.291,4.012,4.657c0.239,1.931-1.057,4.135-2.954,5.024
	C26.952,20.769,24.649,20.361,23.073,18.734z"/>
<path fill="#FFFFFF" d="M25.752,15.284c0.011,1.136-0.871,2.047-1.979,2.044c-1.122-0.003-1.972-0.894-1.964-2.058
	c0.007-1.088,0.859-1.976,1.929-2.008C24.813,13.23,25.742,14.163,25.752,15.284z"/>
</svg>
