<?xml version="1.0" encoding="utf-8"?>
<!-- Generator: Adobe Illustrator 24.0.2, SVG Export Plug-In . SVG Version: 6.00 Build 0)  -->
<svg version="1.1" id="Ebene_1" xmlns="http://www.w3.org/2000/svg" xmlns:xlink="http://www.w3.org/1999/xlink" x="0px" y="0px"
	 viewBox="0 0 39.997 40" enable-background="new 0 0 39.997 40" xml:space="preserve">
<path fill="#FFFFFF" d="M12.624,33.825c-1.473,1.403-2.92,2.774-4.359,4.154c-2.092,2.007-5.106,1.907-6.911-0.255
	c-0.841-1.008-1.165-2.184-1.051-3.501c0.312-3.622,0.608-7.246,0.894-10.871c0.285-3.624,0.272-7.297,0.889-10.862
	c0.891-5.145,3.955-8.883,8.883-10.711C17.33-0.58,23.762-0.436,29.894,2.536c5.26,2.55,7.782,7.106,8.215,12.849
	c0.349,4.622,0.63,9.25,0.938,13.875c0.131,1.96,0.292,3.918,0.369,5.88c0.071,1.801-1.077,3.5-2.725,4.2
	c-1.731,0.736-3.629,0.391-4.971-1.005c-1.451-1.509-2.837-3.08-4.33-4.708c-0.919,0.992-1.825,1.967-2.728,2.946
	c-0.612,0.663-1.203,1.346-1.83,1.994c-1.597,1.648-3.758,1.699-5.398,0.09c-1.518-1.49-2.986-3.03-4.478-4.546
	C12.823,33.977,12.668,33.862,12.624,33.825z M36.993,34.189c-0.081-1.382-0.153-2.765-0.245-4.147
	c-0.307-4.626-0.704-9.247-0.913-13.877C35.56,10.08,32.322,5.492,26.647,3.686c-4.455-1.418-9.001-1.499-13.501-0.212
	C7.797,5.003,4.45,9.329,4.089,14.827c-0.424,6.455-0.911,12.906-1.377,19.358c-0.101,1.398,0.26,2.2,1.247,2.665
	c0.979,0.462,1.88,0.23,2.848-0.751c1.493-1.515,2.977-3.039,4.47-4.555c0.95-0.965,1.49-0.975,2.423-0.032
	c1.722,1.742,3.428,3.499,5.155,5.237c0.996,1.002,1.546,0.999,2.497-0.027c1.621-1.749,3.221-3.517,4.829-5.278
	c0.935-1.024,1.445-1.042,2.377-0.03c1.44,1.565,2.858,3.151,4.298,4.716c1.062,1.154,1.964,1.469,2.937,1.029
	c1.232-0.557,1.323-1.625,1.201-2.777C36.986,34.319,36.992,34.254,36.993,34.189z"/>
<path fill="#73E573" stroke="#73E573" stroke-miterlimit="10" d="M36.992,34.189c-0.001,0.065-0.007,0.13,0,0.193
	c0.122,1.152,0.031,2.22-1.201,2.777c-0.973,0.44-1.875,0.125-2.937-1.029c-1.44-1.565-2.857-3.152-4.298-4.716
	c-0.932-1.012-1.442-0.995-2.377,0.03c-1.608,1.761-3.208,3.529-4.829,5.278c-0.951,1.026-1.501,1.03-2.497,0.027
	c-1.727-1.737-3.432-3.495-5.155-5.237c-0.933-0.944-1.474-0.933-2.423,0.032c-1.492,1.516-2.977,3.04-4.47,4.555
	c-0.967,0.982-1.868,1.214-2.848,0.751c-0.986-0.466-1.348-1.267-1.247-2.665c0.466-6.452,0.953-12.903,1.377-19.358
	c0.363-5.498,3.71-9.824,9.059-11.353c4.501-1.287,9.046-1.206,13.501,0.212c5.675,1.806,8.913,6.394,9.188,12.479
	c0.209,4.63,0.606,9.251,0.913,13.877C36.84,31.424,36.912,32.807,36.992,34.189z M32.255,17.77
	c0.097-0.363,0.146-0.544,0.194-0.725c1.28-4.837-2.633-9.107-7.547-8.201c-2.688,0.496-5.385,3.027-5.152,6.932
	c0.169,2.831,2.619,5.443,5.528,5.836c3.356,0.454,5.712-1.785,8.422-3.064c0.14-0.066,0.213-0.567,0.113-0.761
	c-0.096-0.185-0.454-0.305-0.704-0.319C32.88,17.457,32.64,17.625,32.255,17.77z M5.768,15.212c0.006,3.607,2.908,6.51,6.491,6.495
	c3.561-0.016,6.523-2.986,6.5-6.52c-0.023-3.554-2.989-6.515-6.529-6.517C8.674,8.669,5.761,11.617,5.768,15.212z M20.802,25.383
	c0.465,0.706,0.841,1.305,1.244,1.884c0.722,1.035,1.597,1.03,2.31-0.006c0.407-0.592,0.798-1.194,1.242-1.86
	c0.472,0.719,0.809,1.355,1.27,1.881c0.212,0.242,0.669,0.27,1.015,0.395c0.035-0.365,0.22-0.81,0.077-1.08
	c-0.467-0.876-1.044-1.696-1.599-2.523c-0.565-0.841-1.003-0.826-1.588,0.045c-0.517,0.769-1.017,1.549-1.527,2.329
	c-0.119-0.087-0.183-0.112-0.214-0.159c-0.425-0.644-0.847-1.291-1.268-1.939c-0.784-1.208-1.13-1.213-1.903-0.035
	c-0.466,0.712-0.938,1.42-1.459,2.208c-0.466-0.712-0.853-1.299-1.237-1.888c-1.066-1.638-1.225-1.636-2.318,0.036
	c-0.383,0.586-0.767,1.172-1.212,1.853c-0.567-0.858-1.032-1.667-1.611-2.385c-0.219-0.272-0.699-0.336-1.06-0.494
	c-0.022,0.397-0.197,0.873-0.039,1.175c0.462,0.879,1.04,1.7,1.605,2.521c0.639,0.93,1.54,0.928,2.192,0.003
	c0.433-0.613,0.832-1.25,1.301-1.958c0.475,0.725,0.86,1.354,1.287,1.954c0.665,0.935,1.538,0.934,2.2,0.001
	C19.937,26.742,20.324,26.113,20.802,25.383z"/>
<path d="M32.255,17.77c0.385-0.145,0.624-0.312,0.854-0.3c0.25,0.013,0.608,0.134,0.704,0.319c0.1,0.193,0.026,0.695-0.113,0.761
	c-2.71,1.279-5.066,3.517-8.422,3.064c-2.909-0.393-5.359-3.006-5.528-5.836c-0.233-3.906,2.464-6.437,5.152-6.932
	c4.913-0.906,8.826,3.365,7.547,8.201C32.401,17.226,32.352,17.407,32.255,17.77z M22.574,18.738
	c2.158,2.198,5.524,2.075,7.52-0.183c1.976-2.234,1.591-5.681-0.837-7.494c-2.192-1.637-5.567-1.182-6.919,0.934
	c2.45-0.245,4.129,0.981,4.304,3.141C26.806,17.158,25.263,18.555,22.574,18.738z M25.253,15.264
	c-0.018-1.113-0.965-2.03-2.047-1.982c-1.09,0.048-1.939,0.995-1.906,2.123c0.031,1.047,0.962,1.948,1.997,1.933
	C24.393,17.323,25.271,16.391,25.253,15.264z"/>
<path d="M5.768,15.212C5.761,11.617,8.674,8.669,12.23,8.67c3.54,0.002,6.507,2.963,6.529,6.517c0.022,3.534-2.939,6.504-6.5,6.52
	C8.675,21.723,5.774,18.82,5.768,15.212z M8.611,18.713c1.973,2.187,5.415,2.12,7.423-0.056c2.021-2.19,1.717-5.674-0.656-7.528
	c-2.212-1.727-5.63-1.285-7.073,0.914c2.229-0.372,4.079,0.839,4.31,2.763C12.848,16.758,11.588,18.789,8.611,18.713z M11.27,15.355
	c0.016-1.131-0.858-2.06-1.949-2.072c-1.103-0.012-1.989,0.893-1.988,2.034c0,1.104,0.818,1.974,1.9,2.022
	C10.306,17.385,11.255,16.462,11.27,15.355z"/>
<path d="M20.802,25.383c-0.478,0.73-0.865,1.359-1.291,1.959c-0.662,0.934-1.535,0.934-2.2-0.001
	c-0.427-0.6-0.812-1.229-1.287-1.954c-0.469,0.708-0.868,1.344-1.301,1.958c-0.652,0.924-1.553,0.927-2.192-0.003
	c-0.565-0.822-1.143-1.642-1.605-2.521c-0.159-0.301,0.016-0.778,0.039-1.175c0.361,0.159,0.84,0.222,1.06,0.494
	c0.578,0.718,1.044,1.527,1.611,2.385c0.446-0.681,0.829-1.267,1.212-1.853c1.093-1.672,1.252-1.675,2.318-0.036
	c0.384,0.589,0.771,1.176,1.237,1.888c0.521-0.788,0.993-1.497,1.459-2.208c0.773-1.179,1.118-1.173,1.903,0.035
	c0.421,0.647,0.842,1.294,1.268,1.939c0.031,0.047,0.094,0.072,0.214,0.159c0.51-0.78,1.011-1.56,1.527-2.329
	c0.585-0.871,1.023-0.886,1.588-0.045c0.556,0.827,1.132,1.647,1.599,2.523c0.144,0.27-0.042,0.715-0.077,1.08
	c-0.346-0.125-0.803-0.153-1.015-0.395c-0.462-0.526-0.798-1.162-1.27-1.881c-0.444,0.666-0.835,1.268-1.242,1.86
	c-0.713,1.036-1.588,1.041-2.31,0.006C21.643,26.689,21.267,26.09,20.802,25.383z"/>
<path fill="#FFFFFF" d="M22.574,18.738c2.689-0.182,4.232-1.58,4.068-3.602c-0.175-2.16-1.854-3.386-4.304-3.141
	c1.352-2.116,4.727-2.572,6.919-0.934c2.427,1.813,2.812,5.26,0.837,7.494C28.097,20.813,24.732,20.936,22.574,18.738z"/>
<path fill="#FFFFFF" d="M25.253,15.264c0.018,1.127-0.86,2.058-1.956,2.074c-1.035,0.015-1.966-0.886-1.997-1.933
	c-0.033-1.129,0.816-2.075,1.906-2.123C24.287,13.234,25.235,14.151,25.253,15.264z"/>
<path fill="#FFFFFF" d="M8.611,18.713c2.977,0.076,4.237-1.955,4.003-3.907c-0.23-1.925-2.08-3.135-4.31-2.763
	c1.443-2.2,4.862-2.642,7.073-0.914c2.374,1.854,2.678,5.338,0.656,7.528C14.026,20.833,10.584,20.9,8.611,18.713z"/>
<path fill="#FFFFFF" d="M11.27,15.355c-0.015,1.107-0.964,2.031-2.038,1.984c-1.082-0.047-1.899-0.917-1.9-2.022
	c0-1.141,0.885-2.046,1.988-2.034C10.412,13.295,11.286,14.224,11.27,15.355z"/>
</svg>
