<?xml version="1.0" encoding="utf-8"?>
<!-- Generator: Adobe Illustrator 24.0.2, SVG Export Plug-In . SVG Version: 6.00 Build 0)  -->
<svg version="1.1" id="Ebene_1" xmlns="http://www.w3.org/2000/svg" xmlns:xlink="http://www.w3.org/1999/xlink" x="0px" y="0px"
	 viewBox="0 0 39.997 40" enable-background="new 0 0 39.997 40" xml:space="preserve">
<path fill="#FFFFFF" d="M27.516,33.804c-1.49,1.62-2.936,3.202-4.393,4.773c-1.818,1.961-3.963,1.984-5.865,0.112
	c-1.597-1.572-3.228-3.11-4.787-4.609c-1.384,1.336-2.845,2.768-4.328,4.175c-2.58,2.448-6.747,1.496-7.716-1.842
	c-0.294-1.014-0.18-2.177-0.104-3.262c0.415-5.899,0.975-11.79,1.286-17.694c0.188-3.564,1.129-6.769,3.379-9.538
	c2.566-3.158,6.011-4.79,9.95-5.409c4.656-0.731,9.283-0.593,13.697,1.226c6.224,2.565,9.308,7.384,9.734,14.022
	c0.289,4.508,0.61,9.014,0.915,13.522c0.136,2.011,0.301,4.02,0.389,6.033c0.08,1.838-1.115,3.587-2.829,4.29
	c-1.741,0.713-3.665,0.305-5.005-1.092c-0.743-0.775-1.45-1.583-2.176-2.375C28.963,35.374,28.261,34.613,27.516,33.804z
	 M37.246,34.776c-0.107-1.805-0.184-3.234-0.279-4.661c-0.308-4.637-0.715-9.271-0.913-13.913
	c-0.252-5.924-3.417-10.628-8.787-12.469c-4.635-1.589-9.38-1.715-14.094-0.386c-5.405,1.524-8.782,5.845-9.17,11.435
	c-0.451,6.516-0.924,13.03-1.393,19.544c-0.107,1.492,0.26,2.279,1.312,2.748c1.006,0.449,1.844,0.218,2.862-0.814
	c1.508-1.529,3.003-3.071,4.511-4.599c0.914-0.926,1.472-0.934,2.382-0.015c1.717,1.734,3.418,3.484,5.128,5.224
	c1.106,1.126,1.651,1.119,2.736-0.06c1.609-1.747,3.203-3.508,4.811-5.256c0.909-0.988,1.416-0.992,2.326-0.004
	c1.411,1.531,2.828,3.058,4.2,4.624c0.842,0.961,1.739,1.758,3.099,1.2C37.329,36.819,37.357,35.623,37.246,34.776z"/>
<linearGradient id="SVGID_1_" gradientUnits="userSpaceOnUse" x1="2.5932" y1="20.9299" x2="37.2866" y2="20.9299" gradientTransform="matrix(1 0 0 -1 0 41)">
	<stop  offset="0" style="stop-color:#FFFFFF"/>
	<stop  offset="1" style="stop-color:#000000"/>
</linearGradient>
<linearGradient id="SVGID_2_" gradientUnits="userSpaceOnUse" x1="2.0932" y1="20.9299" x2="37.7866" y2="20.9299" gradientTransform="matrix(1 0 0 -1 0 41)">
	<stop  offset="0" style="stop-color:#FFFFFF"/>
	<stop  offset="1" style="stop-color:#000000"/>
</linearGradient>
<path fill="url(#SVGID_1_)" stroke="url(#SVGID_2_)" stroke-miterlimit="10" d="M37.246,34.776c0.111,0.847,0.083,2.043-1.268,2.597
	c-1.36,0.558-2.257-0.239-3.099-1.2c-1.372-1.566-2.789-3.093-4.2-4.624c-0.91-0.987-1.417-0.983-2.326,0.004
	c-1.609,1.747-3.202,3.509-4.811,5.256c-1.086,1.178-1.63,1.185-2.736,0.06c-1.71-1.74-3.411-3.49-5.128-5.224
	c-0.91-0.919-1.468-0.911-2.382,0.015c-1.508,1.528-3.003,3.07-4.511,4.599c-1.018,1.032-1.855,1.262-2.862,0.814
	c-1.052-0.469-1.419-1.256-1.312-2.748c0.469-6.514,0.942-13.028,1.394-19.543c0.388-5.59,3.764-9.911,9.17-11.435
	c4.714-1.329,9.459-1.203,14.094,0.386c5.37,1.841,8.535,6.545,8.787,12.469c0.197,4.642,0.604,9.275,0.913,13.913
	C37.062,31.543,37.139,32.971,37.246,34.776z M19.424,15.175c-0.004-3.577-3.002-6.566-6.589-6.569
	c-3.607-0.003-6.503,2.943-6.498,6.609c0.005,3.653,2.935,6.592,6.538,6.558C16.486,21.741,19.427,18.777,19.424,15.175z
	 M33.494,15.285c0.009-3.719-2.888-6.679-6.538-6.68c-3.531-0.001-6.532,2.98-6.544,6.502c-0.012,3.686,2.898,6.644,6.562,6.67
	C30.52,21.802,33.485,18.85,33.494,15.285z M25.767,30.638c2.195,0.006,3.927-1.671,3.955-3.83c0.027-2.094-1.789-3.926-3.903-3.938
	c-2.094-0.012-3.835,1.722-3.849,3.836C21.955,28.956,23.573,30.631,25.767,30.638z M13.429,3.859
	c-0.049,0.074-0.098,0.147-0.147,0.221c-0.097,0-0.196-0.008-0.292,0.001c-1.267,0.124-3.336,2.298-3.34,3.566
	c-0.001,0.231,0.227,0.628,0.396,0.655c0.253,0.04,0.649-0.101,0.804-0.304c0.429-0.563,0.708-1.242,1.149-1.793
	c0.822-1.026,1.557-1.036,2.399-0.041c0.435,0.514,0.7,1.172,1.142,1.679c0.219,0.252,0.663,0.308,1.005,0.453
	c0.053-0.368,0.26-0.808,0.128-1.088c-0.328-0.695-0.722-1.405-1.256-1.945C14.855,4.696,14.1,4.32,13.429,3.859z M27.191,3.988
	c-0.472,0.128-0.763,0.173-1.026,0.285c-1.49,0.631-2.243,1.911-2.796,3.32c-0.086,0.218,0.221,0.59,0.346,0.892
	c0.291-0.132,0.682-0.187,0.856-0.41c0.493-0.633,0.824-1.401,1.355-1.994c0.784-0.875,1.422-0.842,2.191,0.06
	c0.436,0.511,0.697,1.173,1.135,1.682c0.224,0.26,0.664,0.333,1.007,0.491c0.064-0.371,0.299-0.835,0.158-1.096
	c-0.425-0.791-0.915-1.582-1.537-2.219C28.413,4.521,27.701,4.281,27.191,3.988z"/>
<path d="M19.424,15.175c0.004,3.601-2.938,6.565-6.548,6.599c-3.604,0.033-6.533-2.905-6.538-6.558
	c-0.005-3.666,2.891-6.611,6.498-6.609C16.422,8.609,19.42,11.598,19.424,15.175z M9.188,18.758c2.112,2.225,5.548,2.12,7.56-0.148
	c2.033-2.291,1.633-5.793-0.872-7.627c-2.212-1.62-5.642-1.121-6.967,1.012c2.297-0.363,4.08,0.843,4.322,2.923
	C13.491,17.146,12.007,18.589,9.188,18.758z M11.872,15.276c-0.011-1.127-0.962-2.064-2.048-2.019
	c-1.061,0.044-1.926,0.956-1.933,2.037c-0.007,1.136,0.89,2.059,2.001,2.057C11.015,17.349,11.884,16.438,11.872,15.276z"/>
<path d="M33.494,15.285c-0.009,3.564-2.974,6.517-6.519,6.492c-3.664-0.026-6.574-2.984-6.562-6.67
	c0.012-3.522,3.012-6.503,6.544-6.502C30.605,8.607,33.503,11.567,33.494,15.285z M22.97,12.03c2.286-0.419,4.122,0.73,4.359,2.846
	c0.086,0.768-0.198,1.687-0.594,2.375c-0.703,1.221-1.987,1.526-3.393,1.491c1.76,2.123,5.214,2.156,7.262,0.15
	c2.115-2.072,2.032-5.604-0.178-7.563C28.18,9.338,24.745,9.628,22.97,12.03z M24.053,17.353c1.082-0.031,2.041-1.058,1.982-2.124
	c-0.059-1.053-1.016-1.978-2.044-1.973c-1.073,0.005-2.036,0.997-2.022,2.083C21.984,16.426,22.974,17.383,24.053,17.353z"/>
<path d="M25.767,30.638c-2.194-0.006-3.812-1.682-3.797-3.932c0.014-2.114,1.755-3.848,3.849-3.836
	c2.114,0.012,3.93,1.845,3.903,3.938C29.694,28.967,27.962,30.644,25.767,30.638z M23.326,26.786
	c0.002,1.442,1.091,2.508,2.541,2.491c1.375-0.017,2.452-1.109,2.458-2.494c0.006-1.361-1.094-2.483-2.464-2.515
	C24.452,24.236,23.324,25.357,23.326,26.786z"/>
<path d="M13.429,3.859c0.67,0.46,1.425,0.837,1.987,1.405c0.534,0.539,0.928,1.249,1.256,1.945c0.132,0.28-0.075,0.721-0.128,1.088
	c-0.342-0.145-0.786-0.202-1.005-0.453c-0.441-0.507-0.707-1.165-1.142-1.679c-0.842-0.995-1.578-0.985-2.399,0.041
	c-0.441,0.551-0.72,1.23-1.149,1.793c-0.154,0.202-0.551,0.344-0.804,0.304C9.876,8.275,9.649,7.878,9.65,7.647
	c0.004-1.268,2.073-3.442,3.341-3.566c0.096-0.009,0.195-0.001,0.292-0.001C13.331,4.007,13.38,3.933,13.429,3.859z"/>
<path d="M27.191,3.988c0.51,0.293,1.222,0.532,1.689,1.01c0.623,0.637,1.112,1.429,1.537,2.219c0.141,0.261-0.095,0.725-0.158,1.096
	c-0.343-0.158-0.783-0.231-1.007-0.491c-0.438-0.509-0.699-1.171-1.135-1.682c-0.77-0.902-1.408-0.935-2.191-0.06
	c-0.531,0.593-0.862,1.361-1.355,1.994c-0.174,0.223-0.564,0.279-0.856,0.41c-0.125-0.301-0.432-0.673-0.346-0.892
	c0.553-1.409,1.306-2.69,2.796-3.32C26.428,4.162,26.72,4.117,27.191,3.988z"/>
<path fill="#FFFFFF" d="M9.188,18.758c2.82-0.169,4.303-1.612,4.043-3.84c-0.242-2.08-2.025-3.286-4.322-2.923
	c1.325-2.133,4.755-2.631,6.967-1.012c2.505,1.834,2.905,5.335,0.872,7.627C14.736,20.877,11.3,20.982,9.188,18.758z"/>
<path fill="#FFFFFF" d="M11.872,15.276c0.012,1.162-0.858,2.073-1.98,2.075c-1.112,0.002-2.009-0.921-2.001-2.057
	c0.007-1.081,0.872-1.993,1.933-2.037C10.911,13.211,11.861,14.148,11.872,15.276z"/>
<path fill="#FFFFFF" d="M22.97,12.03c1.775-2.401,5.21-2.692,7.456-0.701c2.21,1.958,2.293,5.491,0.178,7.563
	c-2.047,2.006-5.501,1.973-7.262-0.15c1.406,0.036,2.689-0.27,3.393-1.491c0.396-0.688,0.68-1.607,0.594-2.375
	C27.092,12.76,25.256,11.61,22.97,12.03z"/>
<path fill="#FFFFFF" d="M24.053,17.353c-1.079,0.031-2.069-0.927-2.084-2.014c-0.014-1.085,0.949-2.078,2.022-2.083
	c1.027-0.005,1.985,0.92,2.044,1.973C26.094,16.294,25.135,17.322,24.053,17.353z"/>
<path fill="#FFFFFF" d="M23.326,26.786c-0.002-1.429,1.126-2.55,2.534-2.518c1.37,0.032,2.47,1.154,2.464,2.515
	c-0.006,1.385-1.083,2.477-2.458,2.494C24.417,29.295,23.329,28.228,23.326,26.786z"/>
</svg>
