<?xml version="1.0" encoding="utf-8"?>
<!-- Generator: Adobe Illustrator 24.0.2, SVG Export Plug-In . SVG Version: 6.00 Build 0)  -->
<svg version="1.1" id="Ebene_1" xmlns="http://www.w3.org/2000/svg" xmlns:xlink="http://www.w3.org/1999/xlink" x="0px" y="0px"
	 viewBox="0 0 40 40" enable-background="new 0 0 40 40" xml:space="preserve">
<path fill="#FFFFFF" stroke="#FFFFFF" stroke-width="0.9096" stroke-miterlimit="10" d="M39.515,17.018
	c-0.1,11.354-4.554,18.155-13.808,21.089C13.542,41.964,1.006,32.968,0.676,20.129c-0.054-2.113-0.032-4.23-0.009-6.344
	c0.021-1.889-0.232-3.892,2.69-3.988c0.607-0.02,1.198-1.188,1.759-1.858c8.117-9.718,22.125-9.636,30.156,0.183
	c0.281,0.344,0.499,0.749,0.815,1.054C39.551,12.514,39.555,12.51,39.515,17.018z M37.284,23.313c-3.602,0-6.931-0.141-10.24,0.05
	c-2.154,0.125-3.455-0.579-4.593-2.409c-1.798-2.893-2.903-2.898-4.709,0.079c-1.156,1.906-2.544,2.429-4.625,2.341
	c-3.37-0.143-6.751-0.039-10.184-0.039c1.321,8.368,8.995,14.569,17.396,14.418C28.742,37.602,36.219,31.375,37.284,23.313z
	 M5.932,9.739c9.586,0,18.933,0,28.437,0C27.785-0.77,11.462,0.047,5.932,9.739z M29.968,20.88c1.084,0,1.763-0.098,2.404,0.016
	c3.412,0.611,4.232-1.209,4.181-4.16c-0.068-3.942-0.458-4.459-4.244-4.519c-2.003-0.032-4.036-0.204-5.999,0.082
	c-0.989,0.144-2.121,0.976-2.72,1.827c-2.08,2.957,0.215,4.701,1.366,6.081c1.155-1.421,2.188-3.769,3.246-3.78
	C30.729,16.4,30.799,18.562,29.968,20.88z M15.082,21.122c0.833-1.763,2.185-3.429,2.236-5.134c0.036-1.201-1.632-3.438-2.652-3.506
	c-3.425-0.228-6.901,0.309-10.357,0.567c-0.05,0.004-0.078,0.197-0.131,0.294c-2.088,3.859-0.02,7.539,4.256,7.557
	c0.536,0.002,1.073-0.069,1.075-0.069c0.484-1.587,0.687-2.954,1.345-4.046c0.24-0.398,2.049-0.483,2.301-0.122
	C13.923,17.758,14.278,19.14,15.082,21.122z"/>
<path d="M37.62,17.269c-0.09,10.194-4.088,16.3-12.397,18.934C14.3,39.666,3.045,31.589,2.749,20.062
	C2.7,18.164,2.72,16.264,2.74,14.366c0.018-1.696-0.208-3.494,2.416-3.58c0.545-0.018,1.076-1.066,1.579-1.669
	c7.288-8.725,19.864-8.652,27.075,0.164c0.253,0.309,0.448,0.673,0.732,0.946C37.652,13.225,37.655,13.222,37.62,17.269z
	 M35.616,22.92c-3.234,0-6.222-0.127-9.194,0.045c-1.934,0.112-3.102-0.52-4.124-2.163c-1.614-2.597-2.607-2.602-4.228,0.071
	c-1.038,1.711-2.284,2.181-4.152,2.102c-3.026-0.129-6.061-0.035-9.143-0.035c1.186,7.513,8.076,13.08,15.618,12.945
	C27.947,35.75,34.66,30.159,35.616,22.92z M7.468,10.734c8.607,0,16.999,0,25.532,0C27.087,1.298,12.433,2.031,7.468,10.734z
	 M29.048,20.736c0.973,0,1.583-0.088,2.158,0.015c3.063,0.548,3.8-1.086,3.754-3.735c-0.061-3.539-0.411-4.004-3.811-4.058
	c-1.799-0.028-3.624-0.183-5.386,0.073c-0.888,0.129-1.905,0.876-2.442,1.64c-1.868,2.655,0.193,4.221,1.227,5.46
	c1.037-1.276,1.964-3.384,2.914-3.394C29.731,16.713,29.793,18.655,29.048,20.736z M15.683,20.953
	c0.748-1.582,1.962-3.079,2.008-4.61c0.032-1.079-1.465-3.087-2.381-3.148c-3.075-0.204-6.196,0.277-9.299,0.509
	c-0.045,0.003-0.07,0.177-0.117,0.264c-1.875,3.464-0.018,6.769,3.822,6.785c0.482,0.002,0.963-0.062,0.965-0.062
	c0.434-1.425,0.617-2.652,1.207-3.633c0.215-0.357,1.839-0.434,2.066-0.11C14.642,17.933,14.961,19.174,15.683,20.953z"/>
<path fill="#FCF506" d="M35.616,22.92c-0.956,7.239-7.669,12.83-15.223,12.965C12.851,36.021,5.961,30.453,4.775,22.94
	c3.082,0,6.117-0.094,9.143,0.035c1.869,0.079,3.114-0.39,4.152-2.102c1.621-2.673,2.614-2.668,4.228-0.071
	c1.021,1.643,2.19,2.275,4.124,2.163C29.394,22.793,32.383,22.92,35.616,22.92z M29.512,24.562c-2.065,3.77-4.788,6.668-9.333,6.673
	c-4.573,0.005-7.201-3.036-9.547-7.479c0.337,5.181,4.748,8.708,9.694,8.691C25.086,32.431,29.409,28.894,29.512,24.562z"/>
<path fill="#FCF506" d="M7.468,10.734c4.965-8.702,19.62-9.436,25.532,0C24.467,10.734,16.075,10.734,7.468,10.734z"/>
<path fill="#FCF506" d="M29.048,20.736c0.745-2.081,0.683-4.022-1.586-3.998c-0.95,0.01-1.877,2.118-2.914,3.394
	c-1.033-1.239-3.094-2.805-1.227-5.46c0.537-0.764,1.554-1.511,2.442-1.64c1.762-0.256,3.587-0.102,5.386-0.073
	c3.399,0.054,3.75,0.518,3.811,4.058c0.046,2.649-0.691,4.283-3.754,3.735C30.631,20.648,30.021,20.736,29.048,20.736z"/>
<path fill="#FCF506" d="M15.683,20.953c-0.722-1.779-1.041-3.021-1.729-4.004c-0.227-0.324-1.851-0.248-2.066,0.11
	c-0.591,0.981-0.773,2.208-1.207,3.633c-0.001,0-0.483,0.064-0.965,0.062c-3.84-0.017-5.696-3.321-3.822-6.785
	c0.047-0.087,0.072-0.261,0.117-0.264c3.103-0.232,6.224-0.713,9.299-0.509c0.916,0.061,2.413,2.069,2.381,3.148
	C17.645,17.875,16.431,19.371,15.683,20.953z"/>
<path d="M29.512,24.562c-0.103,4.332-4.426,7.869-9.186,7.885c-4.946,0.017-9.357-3.51-9.694-8.691
	c2.345,4.443,4.974,7.484,9.547,7.479C24.724,31.23,27.447,28.332,29.512,24.562z"/>
</svg>
