<?xml version="1.0" encoding="utf-8"?>
<!-- Generator: Adobe Illustrator 24.0.2, SVG Export Plug-In . SVG Version: 6.00 Build 0)  -->
<svg version="1.1" id="Ebene_1" xmlns="http://www.w3.org/2000/svg" xmlns:xlink="http://www.w3.org/1999/xlink" x="0px" y="0px"
	 viewBox="0 0 246 41.001" enable-background="new 0 0 246 41.001" xml:space="preserve">
<path fill="#FFFFFF" d="M218.133,5.548v29.316h25.872V3.995h-10.124l-0.133,18.66c-2.117-2.148-4.731-4.961-7.84-8.437
	C223.305,11.317,220.713,8.428,218.133,5.548z M233.054,31.853c1.014-0.11,2.326-0.166,3.936-0.166h4.004l0.265-9.661h0.297
	l0.132,10.257h-8.635V31.853z"/>
<path fill="#FFFFFF" d="M172.683,20.406c-2.515-2.515-5.029-5.04-7.544-7.577c-2.999-2.978-5.558-5.426-7.676-7.345v29.115h31.564
	V5.186l-15.351,15.22H172.683z M178.373,31.588l6.981-0.099l0.299-8.834h0.231l0.166,9.231l-7.676,0.132V31.588z"/>
<path fill="#FFFFFF" d="M187.63,34.698l32.544-0.066l-15.47-29.47L187.63,34.698z M210.66,32.746l5.657-0.166
	c-0.242-0.794-0.783-1.952-1.621-3.474c-0.882-1.609-1.456-2.812-1.72-3.606l0.398-0.232l4.069,7.775l-6.782,0.132V32.746z
	 M205.598,22.986c0.065,0.529-0.023,1.004-0.265,1.422c-0.287,0.486-0.695,0.728-1.225,0.728c-0.661,0-1.169-0.353-1.522-1.058
	c-0.065-0.419-0.033-0.827,0.099-1.224c0.177-0.485,0.474-0.783,0.893-0.893c0.133-0.022,0.265-0.033,0.398-0.033
	C204.66,21.927,205.201,22.281,205.598,22.986z"/>
<polygon points="183.884,22.655 183.653,22.655 183.354,31.489 176.373,31.588 176.373,32.019 184.049,31.886 "/>
<path fill="#FFFFFF" stroke="#FFFFFF" stroke-width="1.1537" stroke-miterlimit="10" d="M181.614,11.187
	c-3.31,3.306-6.146,6.039-8.506,8.198l-16.57-16.338v32.512h33.614l-0.132-32.8C187.217,5.557,184.416,8.367,181.614,11.187z
	 M189.027,34.599h-31.564V5.484c2.118,1.919,4.677,4.367,7.676,7.345c2.515,2.537,5.029,5.062,7.544,7.577h0.993l15.351-15.22
	V34.599z"/>
<path d="M216.373,25.269l-0.398,0.232c0.265,0.794,0.838,1.997,1.72,3.606c0.838,1.522,1.379,2.68,1.621,3.474l-5.657,0.166v0.43
	l6.782-0.132L216.373,25.269z"/>
<path fill="#FFFFFF" stroke="#FFFFFF" stroke-width="1.1577" stroke-miterlimit="10" d="M203.295,4.589l-15.897,27.953
	c-0.622,1.095-0.898,2.958,1.102,2.958h31c1.224-0.003,1.715-1.891,1.156-2.98l-7.261-14.152c-2.745-5.337-5.157-9.922-7.237-13.755
	C205.545,3.483,203.93,3.472,203.295,4.589z M189.117,31.54l14.136-24.745c0.644-1.127,2.281-1.094,2.878,0.058l12.807,24.689
	c0.565,1.09-0.224,2.392-1.452,2.394l-26.943,0.055C189.284,33.995,188.492,32.634,189.117,31.54z"/>
<path d="M206.58,21.961c-0.419,0.11-0.717,0.408-0.893,0.893c-0.132,0.397-0.164,0.806-0.099,1.224
	c0.353,0.706,0.861,1.058,1.522,1.058c0.53,0,0.937-0.242,1.225-0.728c0.242-0.419,0.33-0.893,0.265-1.422
	c-0.398-0.706-0.938-1.059-1.621-1.059C206.844,21.927,206.712,21.939,206.58,21.961z"/>
<path fill="#FFFFFF" stroke="#FFFFFF" stroke-width="1.1537" stroke-miterlimit="10" d="M232.757,20.208L217.305,2.937V35.5h27.527
	V2.87h-11.778L232.757,20.208z M233.881,3.995h10.124v30.869h-25.872V5.548c2.58,2.88,5.171,5.769,7.775,8.671
	c3.109,3.477,5.723,6.289,7.84,8.437L233.881,3.995z"/>
<path fill="#FFFFFF" d="M19.661,5.234V34.55h25.873V3.682H35.409l-0.132,18.66c-2.118-2.148-4.731-4.961-7.841-8.437
	C24.833,11.003,22.241,8.114,19.661,5.234z M34.582,31.539c1.014-0.11,2.326-0.166,3.937-0.166h4.003l0.265-9.661h0.298
	l0.132,10.257h-8.635V31.539z"/>
<path fill="#FFFFFF" d="M12.893,16.294c0.661-0.882,1.632-1.963,2.911-3.242c1.963-1.941,3.022-2.988,3.177-3.143
	c-0.353-0.617-0.706-1.235-1.059-1.853c-0.442-0.706-0.938-1.268-1.489-1.688c-1.588-1.212-3.452-1.82-5.591-1.82
	c-1.742,0-3.298,0.43-4.665,1.291C4.92,6.633,3.916,7.742,3.166,9.164c-0.75,1.423-1.125,2.895-1.125,4.417
	c0,1.743,0.761,3.518,2.283,5.327c1.434,1.456,2.867,2.912,4.301,4.367l-5.558,5.691c-0.154,0.265-0.232,0.53-0.232,0.794
	c0,0.484,0.21,1.037,0.629,1.654c0.397,0.507,0.794,1.015,1.191,1.522c1.808,1.632,3.926,2.448,6.353,2.448
	c1.367,0,2.658-0.287,3.871-0.86c1.456-0.64,2.635-1.743,3.54-3.308c0.882-1.478,1.323-3.032,1.323-4.665
	c0-1.874-0.76-3.749-2.283-5.624C16.885,20.199,15.364,18.655,12.893,16.294z M10.379,6.667c-0.618,0-1.202,0.099-1.754,0.298
	c0.22-0.485,0.794-0.761,1.72-0.828c3.33,0.155,5.492,1.335,6.485,3.54c-0.331,0.397-0.662,0.794-0.993,1.191
	c-0.463,0.486-0.882,0.695-1.257,0.629c0-0.263,0.265-0.613,0.794-1.052c0.529-0.438,0.794-0.767,0.794-0.986
	c0-0.263-0.188-0.515-0.562-0.755C13.577,7.346,11.834,6.667,10.379,6.667z M16.136,31.513c-0.486,0.508-1.114,0.948-1.886,1.324
	c-0.088,0.044-0.783,0.309-2.084,0.794c-0.088-0.022-0.144-0.066-0.166-0.132c0-0.045,0-0.11,0-0.198
	c0.045-0.088,0.066-0.154,0.066-0.198c1.376-0.243,2.563-0.938,3.561-2.085c0.954-1.081,1.564-2.337,1.831-3.771
	c0.066-0.176,0.1-0.364,0.1-0.563c0-0.286-0.105-0.678-0.314-1.175c-0.21-0.496-0.314-0.843-0.314-1.042
	c0-0.22,0.066-0.419,0.199-0.595c0.595,0.772,0.893,1.666,0.893,2.68C18.021,28.029,17.393,29.683,16.136,31.513z"/>
<path fill="#FFFFFF" d="M45.806,34.385l32.545-0.066L62.88,4.848L45.806,34.385z M68.837,32.433l5.656-0.166
	c-0.241-0.794-0.782-1.952-1.62-3.474c-0.883-1.609-1.456-2.812-1.721-3.606l0.399-0.232l4.069,7.775l-6.782,0.132V32.433z
	 M63.774,22.673c0.065,0.529-0.023,1.004-0.264,1.422c-0.288,0.486-0.696,0.728-1.226,0.728c-0.66,0-1.168-0.353-1.521-1.058
	c-0.066-0.419-0.033-0.827,0.099-1.224c0.176-0.485,0.474-0.783,0.893-0.893c0.132-0.022,0.265-0.033,0.397-0.033
	C62.837,21.614,63.378,21.967,63.774,22.673z"/>
<path fill="#FFFFFF" d="M94.587,15.199c3.354-2.116,5.572-3.505,6.654-4.167c-1.036-1.898-2.536-3.477-4.5-4.735
	c-1.787-1.148-3.783-1.932-5.989-2.351c-0.596-0.044-1.181-0.066-1.754-0.066c-2.911,0-5.559,0.64-7.942,1.919
	c-2.515,1.368-4.467,3.308-5.856,5.823c-1.192,2.139-1.787,4.555-1.787,7.245c0,3.662,1.025,6.706,3.076,9.132
	c1.565,1.853,3.389,3.303,5.472,4.35c2.084,1.047,4.261,1.572,6.532,1.572c1.587,0,3.141-0.264,4.663-0.791
	c2.007-0.682,3.792-1.703,5.357-3.066c1.786-1.538,2.866-3.199,3.241-4.979c-5.115-1.928-9.767-3.856-13.954-5.785
	C89.521,18.308,91.784,16.941,94.587,15.199z M89.227,22.54l9.429,3.639c0,0.574-0.364,1.203-1.092,1.886
	c-0.573,0.53-1.235,0.981-1.985,1.356l-0.297-0.232c0.463-0.375,0.926-0.761,1.389-1.158c0.573-0.484,0.96-0.97,1.158-1.456
	c-1.037-0.507-2.459-1.102-4.268-1.786c-2.183-0.838-3.629-1.412-4.334-1.721V22.54z"/>
<path fill="#FFFFFF" stroke="#FFFFFF" stroke-width="1.1537" stroke-miterlimit="10" d="M14.183,16.195l5.923-5.989
	c-0.132-0.86-0.651-1.841-1.555-2.944c-2.03-2.536-4.577-3.805-7.643-3.805c-0.905,0-1.809,0.122-2.713,0.364
	C6.343,4.329,4.738,5.421,3.381,7.097s-2.112,3.485-2.266,5.426c-0.177,2.029,0.397,4.025,1.72,5.987
	c0.706,1.059,2.161,2.692,4.367,4.897l-5.694,5.687c0.243,2.119,1.356,3.895,3.342,5.33c1.853,1.324,3.882,1.986,6.089,1.986
	c0.926,0,1.853-0.111,2.779-0.331c1.522-0.375,2.923-1.257,4.203-2.646c1.191-1.302,2.019-2.746,2.482-4.334
	c0.22-0.816,0.331-1.621,0.331-2.415c0-1.897-0.684-3.805-2.051-5.723C17.801,19.724,16.301,18.136,14.183,16.195z M18.418,31.216
	c-0.905,1.565-2.084,2.668-3.54,3.308c-1.213,0.573-2.504,0.86-3.871,0.86c-2.427,0-4.544-0.816-6.353-2.448
	c-0.397-0.508-0.794-1.015-1.191-1.522c-0.419-0.617-0.629-1.169-0.629-1.654c0-0.265,0.077-0.53,0.232-0.794l5.558-5.691
	c-1.434-1.456-2.867-2.912-4.301-4.367c-1.522-1.808-2.283-3.584-2.283-5.327c0-1.522,0.375-2.994,1.125-4.417
	C3.916,7.742,4.92,6.633,6.177,5.84c1.367-0.86,2.922-1.291,4.665-1.291c2.139,0,4.003,0.607,5.591,1.82
	c0.551,0.42,1.047,0.982,1.489,1.688c0.353,0.617,0.706,1.235,1.059,1.853c-0.155,0.154-1.213,1.202-3.177,3.143
	c-1.279,1.28-2.25,2.361-2.911,3.242c2.47,2.361,3.992,3.904,4.566,4.632c1.522,1.875,2.283,3.75,2.283,5.624
	C19.742,28.184,19.301,29.738,18.418,31.216z"/>
<path fill="#FFFFFF" stroke="#FFFFFF" stroke-width="1.1537" stroke-miterlimit="10" d="M34.284,19.894L18.834,2.623v32.886H46.36
	V2.557H34.582L34.284,19.894z M35.409,3.682h10.124V34.55H19.661V5.234c2.581,2.88,5.172,5.769,7.775,8.671
	c3.11,3.477,5.724,6.289,7.841,8.437L35.409,3.682z"/>
<path d="M37.085,21.713h-0.298l-0.265,9.661h-4.003c-1.611,0-2.923,0.055-3.937,0.166v0.43h8.635L37.085,21.713z"/>
<path d="M58.756,21.647c-0.42,0.11-0.717,0.408-0.893,0.893c-0.132,0.397-0.166,0.806-0.099,1.224
	c0.353,0.706,0.861,1.058,1.521,1.058c0.53,0,0.937-0.242,1.226-0.728c0.241-0.419,0.329-0.893,0.264-1.422
	c-0.397-0.706-0.937-1.059-1.621-1.059C59.021,21.614,58.888,21.625,58.756,21.647z"/>
<path fill="#FFFFFF" stroke="#FFFFFF" stroke-width="1.1537" stroke-miterlimit="10" d="M62.882,2.722L44.089,35.377l35.965-0.099
	L71.55,18.901C68.152,12.372,65.264,6.979,62.882,2.722z M45.806,34.385L62.88,4.848l15.471,29.47L45.806,34.385z"/>
<path d="M68.55,24.955l-0.399,0.232c0.266,0.794,0.838,1.997,1.721,3.606c0.838,1.522,1.379,2.68,1.62,3.474l-5.656,0.166v0.43
	l6.782-0.132L68.55,24.955z"/>
<path fill="#FFFFFF" stroke="#FFFFFF" stroke-width="1.1537" stroke-miterlimit="10" d="M102.66,11.49
	c-1.038-2.205-2.636-4.091-4.797-5.657c-2.074-1.5-4.301-2.437-6.683-2.813c-0.883-0.132-1.765-0.198-2.648-0.198
	c-3.088,0-5.938,0.811-8.552,2.432s-4.637,3.844-6.071,6.667c-1.014,1.963-1.522,4.257-1.522,6.881c0,2.801,0.563,5.26,1.688,7.378
	c1.434,2.691,3.429,4.825,5.988,6.402c2.559,1.577,5.315,2.366,8.272,2.366c3.264,0.021,6.336-0.949,9.215-2.912
	c2.879-1.963,4.857-4.488,5.938-7.577c-4.103-1.434-8.58-3.22-13.433-5.359C95.657,15.725,99.858,13.189,102.66,11.49z
	 M101.754,25.085c-0.375,1.78-1.456,3.44-3.241,4.979c-1.565,1.363-3.351,2.385-5.357,3.066c-1.522,0.527-3.076,0.791-4.663,0.791
	c-2.271,0-4.448-0.524-6.532-1.572c-2.083-1.048-3.907-2.498-5.472-4.35c-2.05-2.426-3.076-5.47-3.076-9.132
	c0-2.69,0.595-5.106,1.787-7.245c1.389-2.515,3.342-4.455,5.856-5.823c2.383-1.279,5.03-1.919,7.942-1.919
	c0.573,0,1.158,0.023,1.754,0.066c2.206,0.42,4.202,1.203,5.989,2.351c1.964,1.258,3.463,2.836,4.5,4.735
	c-1.082,0.662-3.3,2.05-6.654,4.167c-2.803,1.742-5.065,3.109-6.787,4.102C91.988,21.229,96.639,23.157,101.754,25.085z"/>
<path d="M97.829,26.576c-0.198,0.486-0.585,0.971-1.158,1.456c-0.463,0.397-0.926,0.784-1.389,1.158l0.297,0.232
	c0.75-0.375,1.412-0.827,1.985-1.356c0.728-0.683,1.092-1.312,1.092-1.886l-9.429-3.639v0.529c0.705,0.309,2.151,0.883,4.334,1.721
	C95.37,25.474,96.793,26.069,97.829,26.576z"/>
<path fill="#FCF506" d="M22.16,8.166v25.411h22.426V6.82h-8.775l-0.115,16.175c-1.835-1.862-4.101-4.3-6.797-7.313
	C26.644,13.166,24.397,10.662,22.16,8.166z M35.094,30.967c0.879-0.096,2.017-0.144,3.413-0.144h3.47l0.229-8.374h0.258l0.115,8.891
	h-7.485V30.967z"/>
<path fill="#FCF506" d="M12.754,16.886c0.573-0.764,1.415-1.701,2.523-2.811c1.702-1.682,2.619-2.59,2.753-2.724
	c-0.306-0.535-0.612-1.071-0.918-1.606C16.73,9.133,16.3,8.646,15.823,8.282c-1.376-1.051-2.992-1.577-4.847-1.577
	c-1.51,0-2.858,0.373-4.043,1.119c-1.09,0.688-1.96,1.649-2.61,2.882c-0.65,1.233-0.975,2.509-0.975,3.829
	c0,1.511,0.66,3.05,1.979,4.617c1.243,1.262,2.485,2.524,3.728,3.786L4.237,27.87c-0.134,0.229-0.201,0.459-0.201,0.688
	c0,0.42,0.182,0.898,0.545,1.434c0.344,0.439,0.688,0.879,1.032,1.319c1.567,1.415,3.403,2.122,5.506,2.122
	c1.185,0,2.304-0.249,3.355-0.746c1.262-0.555,2.284-1.511,3.068-2.868c0.765-1.281,1.147-2.628,1.147-4.044
	c0-1.625-0.659-3.25-1.979-4.875C16.214,20.27,14.896,18.932,12.754,16.886z M10.575,8.541c-0.536,0-1.042,0.086-1.52,0.258
	c0.191-0.42,0.688-0.66,1.491-0.717c2.887,0.134,4.761,1.157,5.621,3.069c-0.287,0.344-0.574,0.688-0.86,1.032
	c-0.401,0.421-0.765,0.603-1.09,0.545c0-0.228,0.229-0.531,0.688-0.912c0.458-0.379,0.688-0.665,0.688-0.854
	c0-0.228-0.163-0.446-0.487-0.655C13.347,9.129,11.836,8.541,10.575,8.541z M15.565,30.078c-0.421,0.44-0.966,0.822-1.635,1.147
	c-0.077,0.038-0.679,0.268-1.807,0.688c-0.077-0.019-0.125-0.057-0.144-0.115c0-0.039,0-0.096,0-0.172
	c0.039-0.077,0.058-0.134,0.058-0.172c1.192-0.211,2.221-0.813,3.087-1.807c0.827-0.937,1.355-2.026,1.587-3.269
	c0.057-0.153,0.086-0.315,0.086-0.488c0-0.248-0.091-0.588-0.272-1.018s-0.272-0.731-0.272-0.903c0-0.191,0.058-0.363,0.172-0.516
	c0.516,0.669,0.774,1.444,0.774,2.323C17.199,27.057,16.654,28.491,15.565,30.078z"/>
<path fill="#FCF506" d="M47.423,33.433l28.21-0.057L62.223,7.831L47.423,33.433z M67.387,31.741l4.902-0.144
	c-0.209-0.688-0.678-1.692-1.404-3.011c-0.766-1.395-1.262-2.438-1.492-3.126l0.346-0.201l3.527,6.739l-5.879,0.115V31.741z
	 M62.998,23.281c0.057,0.458-0.02,0.87-0.229,1.233c-0.25,0.421-0.604,0.631-1.062,0.631c-0.572,0-1.013-0.306-1.318-0.917
	c-0.058-0.363-0.029-0.717,0.086-1.061c0.153-0.42,0.411-0.679,0.774-0.774c0.114-0.019,0.229-0.029,0.344-0.029
	C62.186,22.363,62.654,22.669,62.998,23.281z"/>
<path fill="#FCF506" d="M92.307,16.803c2.907-1.834,4.83-3.038,5.768-3.612c-0.898-1.646-2.198-3.014-3.9-4.104
	c-1.549-0.995-3.279-1.674-5.191-2.038c-0.517-0.038-1.023-0.058-1.521-0.058c-2.523,0-4.818,0.555-6.884,1.664
	c-2.18,1.186-3.872,2.868-5.076,5.047c-1.033,1.854-1.549,3.948-1.549,6.28c0,3.174,0.889,5.812,2.666,7.916
	c1.356,1.606,2.938,2.863,4.743,3.771c1.807,0.908,3.693,1.362,5.662,1.362c1.376,0,2.723-0.229,4.042-0.686
	c1.739-0.591,3.287-1.477,4.644-2.658c1.548-1.333,2.484-2.772,2.81-4.315c-4.434-1.671-8.466-3.343-12.096-5.014
	C87.916,19.498,89.877,18.313,92.307,16.803z M87.661,23.167l8.173,3.154c0,0.498-0.315,1.042-0.946,1.635
	c-0.497,0.459-1.07,0.851-1.721,1.176l-0.258-0.201c0.401-0.325,0.803-0.66,1.204-1.004c0.497-0.42,0.832-0.841,1.004-1.262
	c-0.898-0.439-2.132-0.956-3.699-1.548c-1.893-0.727-3.146-1.224-3.757-1.492V23.167z"/>
<path d="M13.873,16.8l5.134-5.191c-0.115-0.746-0.564-1.596-1.348-2.552c-1.759-2.198-3.967-3.298-6.625-3.298
	c-0.784,0-1.568,0.105-2.352,0.315C7.076,6.514,5.685,7.46,4.509,8.914s-1.831,3.021-1.964,4.703
	c-0.153,1.759,0.344,3.489,1.491,5.19c0.612,0.918,1.874,2.333,3.785,4.245l-4.936,4.93c0.21,1.836,1.176,3.376,2.897,4.62
	c1.606,1.147,3.365,1.722,5.278,1.722c0.803,0,1.606-0.096,2.409-0.287c1.319-0.325,2.534-1.089,3.643-2.294
	c1.033-1.128,1.75-2.38,2.151-3.757c0.191-0.707,0.287-1.405,0.287-2.094c0-1.644-0.593-3.298-1.778-4.961
	C17.008,19.859,15.708,18.482,13.873,16.8z M17.543,29.82c-0.784,1.357-1.807,2.313-3.068,2.868
	c-1.052,0.497-2.17,0.746-3.355,0.746c-2.104,0-3.939-0.708-5.506-2.122c-0.344-0.44-0.688-0.88-1.032-1.319
	c-0.363-0.535-0.545-1.014-0.545-1.434c0-0.229,0.067-0.459,0.201-0.688l4.818-4.933c-1.243-1.262-2.485-2.524-3.728-3.786
	c-1.319-1.567-1.979-3.106-1.979-4.617c0-1.319,0.325-2.595,0.975-3.829c0.65-1.233,1.52-2.194,2.61-2.882
	c1.185-0.746,2.533-1.119,4.043-1.119c1.854,0,3.47,0.526,4.847,1.577c0.478,0.364,0.908,0.851,1.291,1.463
	c0.306,0.535,0.612,1.071,0.918,1.606c-0.134,0.134-1.052,1.042-2.753,2.724c-1.109,1.109-1.95,2.046-2.523,2.811
	c2.141,2.046,3.46,3.384,3.958,4.015c1.319,1.625,1.979,3.25,1.979,4.875C18.69,27.191,18.308,28.539,17.543,29.82z"/>
<path d="M15.593,10.961c0,0.19-0.229,0.475-0.688,0.854c-0.459,0.38-0.688,0.684-0.688,0.912c0.325,0.058,0.688-0.124,1.09-0.545
	c0.287-0.344,0.574-0.688,0.86-1.032c-0.86-1.912-2.734-2.935-5.621-3.069c-0.803,0.058-1.3,0.297-1.491,0.717
	c0.478-0.172,0.984-0.258,1.52-0.258c1.262,0,2.772,0.589,4.531,1.766C15.431,10.515,15.593,10.734,15.593,10.961z"/>
<path d="M16.253,23.969c0,0.172,0.091,0.473,0.272,0.903s0.272,0.77,0.272,1.018c0,0.172-0.029,0.335-0.086,0.488
	c-0.231,1.243-0.76,2.332-1.587,3.269c-0.866,0.994-1.895,1.596-3.087,1.807c0,0.038-0.019,0.095-0.058,0.172
	c0,0.076,0,0.133,0,0.172c0.019,0.058,0.067,0.096,0.144,0.115c1.128-0.42,1.73-0.65,1.807-0.688
	c0.669-0.326,1.214-0.708,1.635-1.147c1.089-1.586,1.634-3.021,1.634-4.302c0-0.879-0.258-1.653-0.774-2.323
	C16.311,23.606,16.253,23.778,16.253,23.969z"/>
<path d="M34.836,20.873L21.443,5.902v28.506h23.86V5.845H35.094L34.836,20.873z M35.811,6.82h8.775v26.757H22.16V8.166
	c2.237,2.496,4.483,5,6.739,7.516c2.696,3.014,4.961,5.452,6.797,7.313L35.811,6.82z"/>
<path d="M42.464,22.449h-0.258l-0.229,8.374h-3.47c-1.396,0-2.534,0.048-3.413,0.144v0.373h7.485L42.464,22.449z"/>
<path d="M61.249,22.392c-0.364,0.096-0.622,0.354-0.774,0.774c-0.115,0.344-0.144,0.698-0.086,1.061
	c0.306,0.612,0.746,0.917,1.318,0.917c0.459,0,0.812-0.21,1.062-0.631c0.209-0.363,0.285-0.774,0.229-1.233
	c-0.344-0.612-0.812-0.918-1.405-0.918C61.479,22.363,61.363,22.373,61.249,22.392z"/>
<path d="M62.225,5.988l-16.29,28.305l31.175-0.086l-7.371-14.196C66.793,14.353,64.289,9.678,62.225,5.988z M47.423,33.433
	l14.8-25.602l13.41,25.545L47.423,33.433z"/>
<path d="M69.738,25.26l-0.346,0.201c0.23,0.688,0.727,1.731,1.492,3.126c0.727,1.319,1.195,2.323,1.404,3.011l-4.902,0.144v0.373
	l5.879-0.115L69.738,25.26z"/>
<path d="M99.305,13.588c-0.899-1.912-2.285-3.546-4.158-4.904c-1.798-1.3-3.729-2.112-5.793-2.438
	c-0.766-0.115-1.53-0.172-2.295-0.172c-2.677,0-5.147,0.703-7.413,2.108s-4.02,3.332-5.263,5.779
	c-0.879,1.702-1.319,3.69-1.319,5.965c0,2.428,0.488,4.56,1.463,6.395c1.243,2.333,2.973,4.182,5.19,5.549
	c2.218,1.367,4.607,2.051,7.17,2.051c2.829,0.019,5.492-0.822,7.987-2.524s4.21-3.89,5.147-6.567
	c-3.557-1.243-7.438-2.791-11.644-4.646C93.234,17.259,96.876,15.061,99.305,13.588z M98.52,25.373
	c-0.325,1.543-1.262,2.982-2.81,4.315c-1.356,1.181-2.904,2.067-4.644,2.658c-1.319,0.457-2.666,0.686-4.042,0.686
	c-1.969,0-3.855-0.455-5.662-1.362c-1.806-0.908-3.387-2.165-4.743-3.771c-1.777-2.103-2.666-4.742-2.666-7.916
	c0-2.332,0.516-4.426,1.549-6.28c1.204-2.18,2.896-3.862,5.076-5.047c2.065-1.108,4.36-1.664,6.884-1.664
	c0.497,0,1.004,0.02,1.521,0.058c1.912,0.364,3.643,1.043,5.191,2.038c1.702,1.09,3.002,2.458,3.9,4.104
	c-0.938,0.574-2.86,1.777-5.768,3.612c-2.43,1.51-4.391,2.695-5.883,3.555C90.054,22.03,94.086,23.701,98.52,25.373z"/>
<path d="M95.117,26.665c-0.172,0.421-0.507,0.842-1.004,1.262c-0.401,0.344-0.803,0.679-1.204,1.004l0.258,0.201
	c0.65-0.325,1.224-0.717,1.721-1.176c0.631-0.592,0.946-1.137,0.946-1.635l-8.173-3.154v0.458c0.611,0.268,1.864,0.765,3.757,1.492
	C92.985,25.709,94.219,26.226,95.117,26.665z"/>
<path fill="#FCF506" d="M220.366,8.166v25.411h22.426V6.82h-8.775l-0.115,16.175c-1.835-1.862-4.101-4.3-6.796-7.313
	C224.849,13.166,222.603,10.662,220.366,8.166z M233.3,30.967c0.879-0.096,2.017-0.144,3.412-0.144h3.471l0.229-8.374h0.258
	l0.114,8.891H233.3V30.967z"/>
<path fill="#FCF506" d="M172.302,21.044c-2.18-2.18-4.359-4.369-6.539-6.567c-2.6-2.581-4.817-4.703-6.653-6.367v25.237h27.359
	V7.852l-13.307,13.192H172.302z M177.234,30.737l6.051-0.086l0.259-7.657h0.2l0.144,8.001l-6.653,0.115V30.737z"/>
<path fill="#FCF506" d="M189.592,33.433l28.209-0.057L204.392,7.831L189.592,33.433z M209.555,31.741l4.903-0.144
	c-0.21-0.688-0.679-1.692-1.405-3.011c-0.765-1.395-1.262-2.438-1.491-3.126l0.345-0.201l3.527,6.739l-5.879,0.115V31.741z
	 M205.167,23.281c0.057,0.458-0.02,0.87-0.229,1.233c-0.249,0.421-0.603,0.631-1.062,0.631c-0.573,0-1.014-0.306-1.319-0.917
	c-0.057-0.363-0.028-0.717,0.086-1.061c0.153-0.42,0.411-0.679,0.774-0.774c0.115-0.019,0.229-0.029,0.345-0.029
	C204.354,22.363,204.822,22.669,205.167,23.281z"/>
<polygon points="183.744,22.994 183.544,22.994 183.285,30.651 177.234,30.737 177.234,31.11 183.888,30.996 "/>
<path d="M180.043,13.054c-2.869,2.866-5.327,5.234-7.373,7.106L158.307,5.998v28.181h29.137l-0.114-28.431
	C184.9,8.173,182.472,10.609,180.043,13.054z M186.469,33.347h-27.359V8.11c1.836,1.664,4.054,3.786,6.653,6.367
	c2.18,2.199,4.359,4.388,6.539,6.567h0.86l13.307-13.192V33.347z"/>
<path d="M211.906,25.26l-0.345,0.201c0.229,0.688,0.727,1.731,1.491,3.126c0.727,1.319,1.195,2.323,1.405,3.011l-4.903,0.144v0.373
	l5.879-0.115L211.906,25.26z"/>
<path d="M204.393,5.988l-16.289,28.305l31.174-0.086l-7.37-14.196C208.962,14.353,206.458,9.678,204.393,5.988z M189.592,33.433
	l14.8-25.602l13.409,25.545L189.592,33.433z"/>
<path d="M203.417,22.392c-0.363,0.096-0.621,0.354-0.774,0.774c-0.114,0.344-0.143,0.698-0.086,1.061
	c0.306,0.612,0.746,0.917,1.319,0.917c0.459,0,0.812-0.21,1.062-0.631c0.21-0.363,0.286-0.774,0.229-1.233
	c-0.345-0.612-0.813-0.918-1.405-0.918C203.646,22.363,203.532,22.373,203.417,22.392z"/>
<path d="M233.042,20.873l-13.394-14.97v28.506h23.86V5.845H233.3L233.042,20.873z M234.017,6.82h8.775v26.757h-22.426V8.166
	c2.236,2.496,4.482,5,6.739,7.516c2.695,3.014,4.961,5.452,6.796,7.313L234.017,6.82z"/>
<path d="M240.67,22.449h-0.258l-0.229,8.374h-3.471c-1.396,0-2.533,0.048-3.412,0.144v0.373h7.484L240.67,22.449z"/>
<g>
	<path fill="#FFFFFF" stroke="#FFFFFF" stroke-width="0.9096" stroke-miterlimit="10" d="M148.538,17.347
		c-0.1,11.354-4.554,18.155-13.808,21.089c-12.165,3.857-24.701-5.139-25.031-17.978c-0.054-2.113-0.032-4.23-0.009-6.344
		c0.021-1.889-0.232-3.892,2.69-3.988c0.607-0.02,1.198-1.188,1.759-1.858c8.117-9.718,22.125-9.636,30.156,0.183
		c0.281,0.344,0.499,0.749,0.815,1.054C148.574,12.843,148.578,12.839,148.538,17.347z M146.307,23.642
		c-3.602,0-6.931-0.141-10.24,0.05c-2.154,0.125-3.455-0.579-4.593-2.409c-1.798-2.893-2.903-2.898-4.709,0.079
		c-1.156,1.906-2.544,2.429-4.625,2.341c-3.37-0.143-6.751-0.039-10.184-0.039c1.321,8.368,8.995,14.569,17.396,14.418
		C137.765,37.931,145.242,31.704,146.307,23.642z M114.955,10.068c9.586,0,18.933,0,28.437,0
		C136.808-0.441,120.485,0.376,114.955,10.068z M138.991,21.209c1.084,0,1.763-0.098,2.404,0.016
		c3.412,0.611,4.232-1.209,4.181-4.16c-0.068-3.942-0.458-4.459-4.244-4.519c-2.003-0.032-4.036-0.204-5.999,0.082
		c-0.989,0.144-2.121,0.976-2.72,1.827c-2.08,2.957,0.215,4.701,1.366,6.081c1.155-1.421,2.188-3.769,3.246-3.78
		C139.752,16.729,139.822,18.891,138.991,21.209z M124.105,21.451c0.833-1.763,2.185-3.429,2.236-5.134
		c0.036-1.201-1.632-3.438-2.652-3.506c-3.425-0.228-6.901,0.309-10.357,0.567c-0.05,0.004-0.078,0.197-0.131,0.294
		c-2.088,3.859-0.02,7.539,4.256,7.557c0.536,0.002,1.073-0.069,1.075-0.069c0.484-1.587,0.687-2.954,1.345-4.046
		c0.24-0.398,2.049-0.483,2.301-0.122C122.946,18.087,123.301,19.469,124.105,21.451z"/>
	<path d="M146.643,17.598c-0.09,10.194-4.088,16.3-12.397,18.934c-10.923,3.463-22.178-4.614-22.474-16.141
		c-0.049-1.898-0.029-3.798-0.009-5.696c0.018-1.696-0.208-3.494,2.416-3.58c0.545-0.018,1.076-1.066,1.579-1.669
		c7.288-8.725,19.864-8.652,27.075,0.164c0.253,0.309,0.448,0.673,0.732,0.946C146.675,13.554,146.678,13.551,146.643,17.598z
		 M144.639,23.249c-3.234,0-6.222-0.127-9.194,0.045c-1.934,0.112-3.102-0.52-4.124-2.163c-1.614-2.597-2.607-2.602-4.228,0.071
		c-1.038,1.711-2.284,2.181-4.152,2.102c-3.026-0.129-6.061-0.035-9.143-0.035c1.186,7.513,8.076,13.08,15.618,12.945
		C136.97,36.079,143.683,30.488,144.639,23.249z M116.491,11.063c8.607,0,16.999,0,25.532,0
		C136.11,1.627,121.456,2.36,116.491,11.063z M138.071,21.065c0.973,0,1.583-0.088,2.158,0.015c3.063,0.548,3.8-1.086,3.754-3.735
		c-0.061-3.539-0.411-4.004-3.811-4.058c-1.799-0.028-3.624-0.183-5.386,0.073c-0.888,0.129-1.905,0.876-2.442,1.64
		c-1.868,2.655,0.193,4.221,1.227,5.46c1.037-1.276,1.964-3.384,2.914-3.394C138.754,17.042,138.816,18.984,138.071,21.065z
		 M124.706,21.282c0.748-1.582,1.962-3.079,2.008-4.61c0.032-1.079-1.465-3.087-2.381-3.148c-3.075-0.204-6.196,0.277-9.299,0.509
		c-0.045,0.003-0.07,0.177-0.117,0.264c-1.875,3.464-0.018,6.769,3.822,6.785c0.482,0.002,0.963-0.062,0.965-0.062
		c0.434-1.425,0.617-2.652,1.207-3.633c0.215-0.357,1.839-0.434,2.066-0.11C123.665,18.262,123.984,19.503,124.706,21.282z"/>
	<path fill="#FCF506" d="M144.639,23.249c-0.956,7.239-7.669,12.83-15.223,12.965c-7.542,0.136-14.432-5.432-15.618-12.945
		c3.082,0,6.117-0.094,9.143,0.035c1.869,0.079,3.114-0.39,4.152-2.102c1.621-2.673,2.614-2.668,4.228-0.071
		c1.021,1.643,2.19,2.275,4.124,2.163C138.417,23.122,141.406,23.249,144.639,23.249z M138.535,24.891
		c-2.065,3.77-4.788,6.668-9.333,6.673c-4.573,0.005-7.201-3.036-9.547-7.479c0.337,5.181,4.748,8.708,9.694,8.691
		C134.109,32.76,138.432,29.223,138.535,24.891z"/>
	<path fill="#FCF506" d="M116.491,11.063c4.965-8.702,19.62-9.436,25.532,0C133.49,11.063,125.098,11.063,116.491,11.063z"/>
	<path fill="#FCF506" d="M138.071,21.065c0.745-2.081,0.683-4.022-1.586-3.998c-0.95,0.01-1.877,2.118-2.914,3.394
		c-1.033-1.239-3.094-2.805-1.227-5.46c0.537-0.764,1.554-1.511,2.442-1.64c1.762-0.256,3.587-0.102,5.386-0.073
		c3.399,0.054,3.75,0.518,3.811,4.058c0.046,2.649-0.691,4.283-3.754,3.735C139.654,20.977,139.044,21.065,138.071,21.065z"/>
	<path fill="#FCF506" d="M124.706,21.282c-0.722-1.779-1.041-3.021-1.729-4.004c-0.227-0.324-1.851-0.248-2.066,0.11
		c-0.591,0.981-0.773,2.208-1.207,3.633c-0.001,0-0.483,0.064-0.965,0.062c-3.84-0.017-5.696-3.321-3.822-6.785
		c0.047-0.087,0.072-0.261,0.117-0.264c3.103-0.232,6.224-0.713,9.299-0.509c0.916,0.061,2.413,2.069,2.381,3.148
		C126.668,18.204,125.454,19.7,124.706,21.282z"/>
	<path d="M138.535,24.891c-0.103,4.332-4.426,7.869-9.186,7.885c-4.946,0.017-9.357-3.51-9.694-8.691
		c2.345,4.443,4.974,7.484,9.547,7.479C133.747,31.559,136.47,28.661,138.535,24.891z"/>
</g>
</svg>
