<?xml version="1.0" encoding="utf-8"?>
<!-- Generator: Adobe Illustrator 24.1.3, SVG Export Plug-In . SVG Version: 6.00 Build 0)  -->
<svg version="1.1" id="Ebene_1" xmlns="http://www.w3.org/2000/svg" xmlns:xlink="http://www.w3.org/1999/xlink" x="0px" y="0px"
	 viewBox="0 0 1094 457" style="enable-background:new 0 0 1094 457;" xml:space="preserve">
<style type="text/css">
	.st0{fill:#FFFFFF;}
	.st1{fill:#FFFFFF;stroke:#FFFFFF;stroke-width:2.7531;stroke-miterlimit:10;}
	.st2{fill:#FFFFFF;stroke:#FFFFFF;stroke-width:2.7626;stroke-miterlimit:10;}
	.st3{fill:#FCF506;}
	.st4{fill:#FFFFFF;stroke:#FFFFFF;stroke-width:2.1706;stroke-miterlimit:10;}
</style>
<path class="st0" d="M263.2,251.4v70H325v-73.7h-24.2l-0.3,44.5c-5.1-5.1-11.3-11.8-18.7-20.1C275.6,265.2,269.4,258.3,263.2,251.4z
	 M298.8,314.2c2.4-0.3,5.6-0.4,9.4-0.4h9.6l0.6-23.1h0.7l0.3,24.5h-20.6L298.8,314.2L298.8,314.2z"/>
<path class="st0" d="M154.8,286.9c-6-6-12-12-18-18.1c-7.2-7.1-13.3-12.9-18.3-17.5v69.5h75.3v-70.2l-36.6,36.3H154.8z M168.4,313.5
	l16.7-0.2l0.7-21.1h0.6l0.4,22l-18.3,0.3L168.4,313.5L168.4,313.5z"/>
<path class="st0" d="M190.5,321l77.7-0.2l-36.9-70.3L190.5,321z M245.4,316.3l13.5-0.4c-0.6-1.9-1.9-4.7-3.9-8.3
	c-2.1-3.8-3.5-6.7-4.1-8.6l0.9-0.6l9.7,18.6l-16.2,0.3L245.4,316.3L245.4,316.3z M233.3,293c0.2,1.3-0.1,2.4-0.6,3.4
	c-0.7,1.2-1.7,1.7-2.9,1.7c-1.6,0-2.8-0.8-3.6-2.5c-0.2-1-0.1-2,0.2-2.9c0.4-1.2,1.1-1.9,2.1-2.1c0.3-0.1,0.6-0.1,0.9-0.1
	C231.1,290.5,232.4,291.3,233.3,293z"/>
<polygon points="181.5,292.2 181,292.2 180.2,313.3 163.6,313.5 163.6,314.6 181.9,314.2 "/>
<path class="st1" d="M176.1,264.9c-7.9,7.9-14.7,14.4-20.3,19.6l-39.5-39V323h80.2l-0.3-78.3C189.5,251.4,182.8,258.1,176.1,264.9z
	 M193.8,320.7h-75.3v-69.5c5.1,4.6,11.2,10.4,18.3,17.5c6,6.1,12,12.1,18,18.1h2.4l36.6-36.3V320.7z"/>
<path d="M259,298.5l-0.9,0.6c0.6,1.9,2,4.8,4.1,8.6c2,3.6,3.3,6.4,3.9,8.3l-13.5,0.4v1l16.2-0.3L259,298.5z"/>
<path class="st2" d="M227.8,249.1l-37.9,66.7c-1.5,2.6-2.1,7.1,2.6,7.1h74c2.9,0,4.1-4.5,2.8-7.1L251.9,282
	c-6.6-12.7-12.3-23.7-17.3-32.8C233.2,246.5,229.3,246.4,227.8,249.1z M194,313.4l33.7-59c1.5-2.7,5.4-2.6,6.9,0.1l30.6,58.9
	c1.3,2.6-0.5,5.7-3.5,5.7l-64.3,0.1C194.4,319.3,192.5,316,194,313.4z"/>
<path d="M235.7,290.6c-1,0.3-1.7,1-2.1,2.1c-0.3,0.9-0.4,1.9-0.2,2.9c0.8,1.7,2.1,2.5,3.6,2.5c1.3,0,2.2-0.6,2.9-1.7
	c0.6-1,0.8-2.1,0.6-3.4c-0.9-1.7-2.2-2.5-3.9-2.5C236.3,290.5,236,290.5,235.7,290.6z"/>
<path class="st1" d="M298.1,286.4l-36.9-41.2v77.7H327V245h-28.1L298.1,286.4z M300.8,247.7H325v73.7h-61.7v-70
	c6.2,6.9,12.3,13.8,18.6,20.7c7.4,8.3,13.7,15,18.7,20.1L300.8,247.7z"/>
<path class="st0" d="M144.6,126v70h61.7v-73.7h-24.2l-0.3,44.5c-5.1-5.1-11.3-11.8-18.7-20.1C156.9,139.8,150.7,132.9,144.6,126z
	 M180.2,188.8c2.4-0.3,5.6-0.4,9.4-0.4h9.6l0.6-23.1h0.7l0.3,24.5h-20.6V188.8z"/>
<path class="st0" d="M128.4,152.4c1.6-2.1,3.9-4.7,6.9-7.7c4.7-4.6,7.2-7.1,7.6-7.5c-0.8-1.5-1.7-2.9-2.5-4.4c-1.1-1.7-2.2-3-3.6-4
	c-3.8-2.9-8.2-4.3-13.3-4.3c-4.2,0-7.9,1-11.1,3.1c-3,1.9-5.4,4.5-7.2,7.9c-1.8,3.4-2.7,6.9-2.7,10.5c0,4.2,1.8,8.4,5.4,12.7
	c3.4,3.5,6.8,6.9,10.3,10.4L105,182.7c-0.4,0.6-0.6,1.3-0.6,1.9c0,1.2,0.5,2.5,1.5,3.9c0.9,1.2,1.9,2.4,2.8,3.6
	c4.3,3.9,9.4,5.8,15.2,5.8c3.3,0,6.3-0.7,9.2-2.1c3.5-1.5,6.3-4.2,8.4-7.9c2.1-3.5,3.2-7.2,3.2-11.1c0-4.5-1.8-8.9-5.4-13.4
	C137.9,161.7,134.3,158.1,128.4,152.4z M122.4,129.5c-1.5,0-2.9,0.2-4.2,0.7c0.5-1.2,1.9-1.8,4.1-2c7.9,0.4,13.1,3.2,15.5,8.4
	c-0.8,0.9-1.6,1.9-2.4,2.8c-1.1,1.2-2.1,1.7-3,1.5c0-0.6,0.6-1.5,1.9-2.5c1.3-1,1.9-1.8,1.9-2.4c0-0.6-0.4-1.2-1.3-1.8
	C130.1,131.1,125.9,129.5,122.4,129.5z M136.2,188.7c-1.2,1.2-2.7,2.3-4.5,3.2c-0.2,0.1-1.9,0.7-5,1.9c-0.2-0.1-0.3-0.2-0.4-0.3
	c0-0.1,0-0.3,0-0.5c0.1-0.2,0.2-0.4,0.2-0.5c3.3-0.6,6.1-2.2,8.5-5c2.3-2.6,3.7-5.6,4.4-9c0.2-0.4,0.2-0.9,0.2-1.3
	c0-0.7-0.3-1.6-0.7-2.8c-0.5-1.2-0.7-2-0.7-2.5c0-0.5,0.2-1,0.5-1.4c1.4,1.8,2.1,4,2.1,6.4C140.7,180.4,139.2,184.4,136.2,188.7z"/>
<path class="st0" d="M207,195.6l77.7-0.2l-36.9-70.3L207,195.6z M261.9,190.9l13.5-0.4c-0.6-1.9-1.9-4.7-3.9-8.3
	c-2.1-3.8-3.5-6.7-4.1-8.6l1-0.6l9.7,18.6l-16.2,0.3L261.9,190.9L261.9,190.9z M249.8,167.6c0.2,1.3-0.1,2.4-0.6,3.4
	c-0.7,1.2-1.7,1.7-2.9,1.7c-1.6,0-2.8-0.8-3.6-2.5c-0.2-1-0.1-2,0.2-2.9c0.4-1.2,1.1-1.9,2.1-2.1c0.3-0.1,0.6-0.1,0.9-0.1
	C247.6,165.1,248.9,166,249.8,167.6z"/>
<path class="st0" d="M323.4,149.8c8-5,13.3-8.4,15.9-9.9c-2.5-4.5-6.1-8.3-10.7-11.3c-4.3-2.7-9-4.6-14.3-5.6
	c-1.4-0.1-2.8-0.2-4.2-0.2c-6.9,0-13.3,1.5-19,4.6c-6,3.3-10.7,7.9-14,13.9c-2.8,5.1-4.3,10.9-4.3,17.3c0,8.7,2.4,16,7.3,21.8
	c3.7,4.4,8.1,7.9,13.1,10.4c5,2.5,10.2,3.8,15.6,3.8c3.8,0,7.5-0.6,11.1-1.9c4.8-1.6,9-4.1,12.8-7.3c4.3-3.7,6.8-7.6,7.7-11.9
	c-12.2-4.6-23.3-9.2-33.3-13.8C311.3,157.2,316.7,154,323.4,149.8z M310.6,167.3l22.5,8.7c0,1.4-0.9,2.9-2.6,4.5
	c-1.4,1.3-2.9,2.3-4.7,3.2l-0.7-0.6c1.1-0.9,2.2-1.8,3.3-2.8c1.4-1.2,2.3-2.3,2.8-3.5c-2.5-1.2-5.9-2.6-10.2-4.3
	c-5.2-2-8.7-3.4-10.3-4.1V167.3z"/>
<path class="st1" d="M131.5,152.2l14.1-14.3c-0.3-2.1-1.6-4.4-3.7-7c-4.8-6.1-10.9-9.1-18.2-9.1c-2.2,0-4.3,0.3-6.5,0.9
	c-4.4,1.2-8.2,3.8-11.5,7.8c-3.2,4-5,8.3-5.4,12.9c-0.4,4.8,0.9,9.6,4.1,14.3c1.7,2.5,5.2,6.4,10.4,11.7L101.3,183
	c0.6,5.1,3.2,9.3,8,12.7c4.4,3.2,9.3,4.7,14.5,4.7c2.2,0,4.4-0.3,6.6-0.8c3.6-0.9,7-3,10-6.3c2.8-3.1,4.8-6.6,5.9-10.3
	c0.5-1.9,0.8-3.9,0.8-5.8c0-4.5-1.6-9.1-4.9-13.7C140.1,160.6,136.6,156.8,131.5,152.2z M141.6,188c-2.2,3.7-5,6.4-8.4,7.9
	c-2.9,1.4-6,2.1-9.2,2.1c-5.8,0-10.8-1.9-15.2-5.8c-0.9-1.2-1.9-2.4-2.8-3.6c-1-1.5-1.5-2.8-1.5-3.9c0-0.6,0.2-1.3,0.6-1.9
	l13.3-13.6c-3.4-3.5-6.8-6.9-10.3-10.4c-3.6-4.3-5.4-8.6-5.4-12.7c0-3.6,0.9-7.1,2.7-10.5c1.8-3.4,4.2-6,7.2-7.9
	c3.3-2.1,7-3.1,11.1-3.1c5.1,0,9.6,1.4,13.3,4.3c1.3,1,2.5,2.3,3.6,4c0.8,1.5,1.7,2.9,2.5,4.4c-0.4,0.4-2.9,2.9-7.6,7.5
	c-3.1,3.1-5.4,5.6-6.9,7.7c5.9,5.6,9.5,9.3,10.9,11.1c3.6,4.5,5.4,8.9,5.4,13.4C144.8,180.8,143.7,184.5,141.6,188z"/>
<path class="st1" d="M179.5,161l-36.9-41.2v78.5h65.7v-78.6h-28.1L179.5,161z M182.1,122.3h24.2V196h-61.7v-70
	c6.2,6.9,12.3,13.8,18.6,20.7c7.4,8.3,13.7,15,18.7,20.1L182.1,122.3z"/>
<path d="M186.1,165.4h-0.7l-0.6,23.1h-9.6c-3.8,0-7,0.1-9.4,0.4v1h20.6L186.1,165.4z"/>
<path d="M237.9,165.2c-1,0.3-1.7,1-2.1,2.1c-0.3,0.9-0.4,1.9-0.2,2.9c0.8,1.7,2.1,2.5,3.6,2.5c1.3,0,2.2-0.6,2.9-1.7
	c0.6-1,0.8-2.1,0.6-3.4c-0.9-1.7-2.2-2.5-3.9-2.5C238.5,165.1,238.2,165.1,237.9,165.2z"/>
<path class="st1" d="M247.7,120L202.9,198l85.8-0.2l-20.3-39.1C260.3,143.1,253.4,130.2,247.7,120z M207,195.6l40.7-70.5l36.9,70.3
	L207,195.6z"/>
<path d="M261.2,173.1l-1,0.6c0.6,1.9,2,4.8,4.1,8.6c2,3.6,3.3,6.4,3.9,8.3l-13.5,0.4v1l16.2-0.3L261.2,173.1z"/>
<path class="st1" d="M342.6,141c-2.5-5.3-6.3-9.8-11.4-13.5c-4.9-3.6-10.3-5.8-15.9-6.7c-2.1-0.3-4.2-0.5-6.3-0.5
	c-7.4,0-14.2,1.9-20.4,5.8s-11.1,9.2-14.5,15.9c-2.4,4.7-3.6,10.2-3.6,16.4c0,6.7,1.3,12.6,4,17.6c3.4,6.4,8.2,11.5,14.3,15.3
	c6.1,3.8,12.7,5.6,19.7,5.6c7.8,0.1,15.1-2.3,22-6.9c6.9-4.7,11.6-10.7,14.2-18.1c-9.8-3.4-20.5-7.7-32.1-12.8
	C325.9,151.1,335.9,145,342.6,141z M340.5,173.4c-0.9,4.2-3.5,8.2-7.7,11.9c-3.7,3.3-8,5.7-12.8,7.3c-3.6,1.3-7.3,1.9-11.1,1.9
	c-5.4,0-10.6-1.3-15.6-3.8c-5-2.5-9.3-6-13.1-10.4c-4.9-5.8-7.3-13.1-7.3-21.8c0-6.4,1.4-12.2,4.3-17.3c3.3-6,8-10.6,14-13.9
	c5.7-3.1,12-4.6,19-4.6c1.4,0,2.8,0.1,4.2,0.2c5.3,1,10,2.9,14.3,5.6c4.7,3,8.3,6.8,10.7,11.3c-2.6,1.6-7.9,4.9-15.9,9.9
	c-6.7,4.2-12.1,7.4-16.2,9.8C317.2,164.2,328.3,168.8,340.5,173.4z"/>
<path d="M331.1,177c-0.5,1.2-1.4,2.3-2.8,3.5c-1.1,0.9-2.2,1.9-3.3,2.8l0.7,0.6c1.8-0.9,3.4-2,4.7-3.2c1.7-1.6,2.6-3.1,2.6-4.5
	l-22.5-8.7v1.3c1.7,0.7,5.1,2.1,10.3,4.1C325.2,174.3,328.6,175.8,331.1,177z"/>
<path class="st3" d="M150.5,133v60.6H204v-63.9h-20.9l-0.3,38.6c-4.4-4.4-9.8-10.3-16.2-17.5C161.2,145,155.9,139,150.5,133z
	 M181.4,187.4c2.1-0.2,4.8-0.3,8.1-0.3h8.3l0.5-20h0.6l0.3,21.2h-17.9C181.4,188.3,181.4,187.4,181.4,187.4z"/>
<path class="st3" d="M128.1,153.8c1.4-1.8,3.4-4.1,6-6.7c4.1-4,6.2-6.2,6.6-6.5c-0.7-1.3-1.5-2.6-2.2-3.8c-0.9-1.5-1.9-2.6-3.1-3.5
	c-3.3-2.5-7.1-3.8-11.6-3.8c-3.6,0-6.8,0.9-9.6,2.7c-2.6,1.6-4.7,3.9-6.2,6.9c-1.6,2.9-2.3,6-2.3,9.1c0,3.6,1.6,7.3,4.7,11
	c3,3,5.9,6,8.9,9l-11.5,11.8c-0.3,0.5-0.5,1.1-0.5,1.6c0,1,0.4,2.1,1.3,3.4c0.8,1,1.6,2.1,2.5,3.1c3.7,3.4,8.1,5.1,13.1,5.1
	c2.8,0,5.5-0.6,8-1.8c3-1.3,5.5-3.6,7.3-6.8c1.8-3.1,2.7-6.3,2.7-9.7c0-3.9-1.6-7.8-4.7-11.6C136.3,161.9,133.2,158.7,128.1,153.8z
	 M122.9,133.9c-1.3,0-2.5,0.2-3.6,0.6c0.5-1,1.6-1.6,3.6-1.7c6.9,0.3,11.4,2.8,13.4,7.3c-0.7,0.8-1.4,1.6-2.1,2.5
	c-1,1-1.8,1.4-2.6,1.3c0-0.5,0.5-1.3,1.6-2.2c1.1-0.9,1.6-1.6,1.6-2c0-0.5-0.4-1.1-1.2-1.6C129.5,135.3,125.9,133.9,122.9,133.9z
	 M134.8,185.3c-1,1-2.3,2-3.9,2.7c-0.2,0.1-1.6,0.6-4.3,1.6c-0.2,0-0.3-0.1-0.3-0.3c0-0.1,0-0.2,0-0.4c0.1-0.2,0.1-0.3,0.1-0.4
	c2.8-0.5,5.3-1.9,7.4-4.3c2-2.2,3.2-4.8,3.8-7.8c0.1-0.4,0.2-0.8,0.2-1.2c0-0.6-0.2-1.4-0.6-2.4s-0.6-1.7-0.6-2.2
	c0-0.5,0.1-0.9,0.4-1.2c1.2,1.6,1.8,3.4,1.8,5.5C138.7,178.1,137.4,181.5,134.8,185.3z"/>
<path class="st3" d="M210.8,193.3l67.3-0.1l-32-61L210.8,193.3z M258.5,189.3l11.7-0.3c-0.5-1.6-1.6-4-3.4-7.2
	c-1.8-3.3-3-5.8-3.6-7.5l0.8-0.5l8.4,16.1l-14,0.3C258.5,190.2,258.5,189.3,258.5,189.3z M248,169.1c0.1,1.1,0,2.1-0.5,2.9
	c-0.6,1-1.4,1.5-2.5,1.5c-1.4,0-2.4-0.7-3.1-2.2c-0.1-0.9-0.1-1.7,0.2-2.5c0.4-1,1-1.6,1.8-1.8c0.3,0,0.5-0.1,0.8-0.1
	C246,166.9,247.2,167.6,248,169.1z"/>
<path class="st3" d="M317.9,153.6c6.9-4.4,11.5-7.2,13.8-8.6c-2.1-3.9-5.2-7.2-9.3-9.8c-3.7-2.4-7.8-4-12.4-4.9
	c-1.2-0.1-2.4-0.1-3.6-0.1c-6,0-11.5,1.3-16.4,4c-5.2,2.8-9.2,6.8-12.1,12c-2.5,4.4-3.7,9.4-3.7,15c0,7.6,2.1,13.9,6.4,18.9
	c3.2,3.8,7,6.8,11.3,9c4.3,2.2,8.8,3.3,13.5,3.3c3.3,0,6.5-0.5,9.6-1.6c4.1-1.4,7.8-3.5,11.1-6.3c3.7-3.2,5.9-6.6,6.7-10.3
	c-10.6-4-20.2-8-28.9-12C307.4,160.1,312.1,157.2,317.9,153.6z M306.8,168.8l19.5,7.5c0,1.2-0.8,2.5-2.3,3.9c-1.2,1.1-2.6,2-4.1,2.8
	l-0.6-0.5c1-0.8,1.9-1.6,2.9-2.4c1.2-1,2-2,2.4-3c-2.1-1-5.1-2.3-8.8-3.7c-4.5-1.7-7.5-2.9-9-3.6
	C306.8,169.9,306.8,168.8,306.8,168.8z"/>
<path d="M130.8,153.6l12.3-12.4c-0.3-1.8-1.3-3.8-3.2-6.1c-4.2-5.2-9.5-7.9-15.8-7.9c-1.9,0-3.7,0.3-5.6,0.8c-3.8,1-7.2,3.3-10,6.8
	c-2.8,3.5-4.4,7.2-4.7,11.2c-0.4,4.2,0.8,8.3,3.6,12.4c1.5,2.2,4.5,5.6,9,10.1l-11.8,11.8c0.5,4.4,2.8,8.1,6.9,11
	c3.8,2.7,8,4.1,12.6,4.1c1.9,0,3.8-0.2,5.7-0.7c3.1-0.8,6-2.6,8.7-5.5c2.5-2.7,4.2-5.7,5.1-9c0.5-1.7,0.7-3.4,0.7-5
	c0-3.9-1.4-7.9-4.2-11.8C138.2,160.9,135.1,157.6,130.8,153.6z M139.5,184.7c-1.9,3.2-4.3,5.5-7.3,6.8c-2.5,1.2-5.2,1.8-8,1.8
	c-5,0-9.4-1.7-13.1-5.1c-0.8-1-1.6-2.1-2.5-3.1c-0.9-1.3-1.3-2.4-1.3-3.4c0-0.5,0.2-1.1,0.5-1.6l11.5-11.8c-3-3-5.9-6-8.9-9
	c-3.1-3.7-4.7-7.4-4.7-11c0-3.1,0.8-6.2,2.3-9.1c1.6-2.9,3.6-5.2,6.2-6.9c2.8-1.8,6-2.7,9.6-2.7c4.4,0,8.3,1.3,11.6,3.8
	c1.1,0.9,2.2,2,3.1,3.5c0.7,1.3,1.5,2.6,2.2,3.8c-0.3,0.3-2.5,2.5-6.6,6.5c-2.6,2.6-4.7,4.9-6,6.7c5.1,4.9,8.3,8.1,9.4,9.6
	c3.1,3.9,4.7,7.8,4.7,11.6C142.3,178.4,141.3,181.6,139.5,184.7z"/>
<path d="M134.9,139.7c0,0.5-0.5,1.1-1.6,2c-1.1,0.9-1.6,1.6-1.6,2.2c0.8,0.1,1.6-0.3,2.6-1.3c0.7-0.8,1.4-1.6,2.1-2.5
	c-2.1-4.6-6.5-7-13.4-7.3c-1.9,0.1-3.1,0.7-3.6,1.7c1.1-0.4,2.3-0.6,3.6-0.6c3,0,6.6,1.4,10.8,4.2
	C134.5,138.6,134.9,139.2,134.9,139.7z"/>
<path d="M136.4,170.7c0,0.4,0.2,1.1,0.6,2.2c0.4,1,0.6,1.8,0.6,2.4c0,0.4-0.1,0.8-0.2,1.2c-0.6,3-1.8,5.6-3.8,7.8
	c-2.1,2.4-4.5,3.8-7.4,4.3c0,0.1,0,0.2-0.1,0.4c0,0.2,0,0.3,0,0.4c0,0.1,0.2,0.2,0.3,0.3c2.7-1,4.1-1.6,4.3-1.6
	c1.6-0.8,2.9-1.7,3.9-2.7c2.6-3.8,3.9-7.2,3.9-10.3c0-2.1-0.6-3.9-1.8-5.5C136.6,169.9,136.4,170.3,136.4,170.7z"/>
<path d="M180.8,163.4l-32-35.7v68h56.9v-68.2h-24.4L180.8,163.4z M183.1,129.8H204v63.9h-53.5V133c5.3,6,10.7,11.9,16.1,17.9
	c6.4,7.2,11.8,13,16.2,17.5L183.1,129.8z"/>
<path d="M199,167.1h-0.6l-0.5,20h-8.3c-3.3,0-6,0.1-8.1,0.3v0.9h17.9L199,167.1z"/>
<path d="M243.8,167c-0.9,0.2-1.5,0.8-1.8,1.8c-0.3,0.8-0.3,1.7-0.2,2.5c0.7,1.5,1.8,2.2,3.1,2.2c1.1,0,1.9-0.5,2.5-1.5
	c0.5-0.9,0.7-1.8,0.5-2.9c-0.8-1.5-1.9-2.2-3.4-2.2C244.4,166.9,244.1,166.9,243.8,167z"/>
<path d="M246.1,127.8l-38.9,67.5l74.4-0.2l-17.6-33.9C257,147.8,251.1,136.6,246.1,127.8z M210.8,193.3l35.3-61.1l32,61L210.8,193.3
	z"/>
<path d="M264.1,173.8l-0.8,0.5c0.5,1.6,1.7,4.1,3.6,7.5c1.7,3.1,2.9,5.5,3.4,7.2l-11.7,0.3v0.9l14-0.3L264.1,173.8z"/>
<path d="M334.6,146c-2.1-4.6-5.5-8.5-9.9-11.7c-4.3-3.1-8.9-5-13.8-5.8c-1.8-0.3-3.7-0.4-5.5-0.4c-6.4,0-12.3,1.7-17.7,5
	c-5.4,3.4-9.6,8-12.6,13.8c-2.1,4.1-3.1,8.8-3.1,14.2c0,5.8,1.2,10.9,3.5,15.3c3,5.6,7.1,10,12.4,13.2c5.3,3.3,11,4.9,17.1,4.9
	c6.8,0,13.1-2,19.1-6c6-4.1,10-9.3,12.3-15.7c-8.5-3-17.7-6.7-27.8-11.1C320.1,154.7,328.8,149.5,334.6,146z M332.8,174.1
	c-0.8,3.7-3,7.1-6.7,10.3c-3.2,2.8-6.9,4.9-11.1,6.3c-3.1,1.1-6.4,1.6-9.6,1.6c-4.7,0-9.2-1.1-13.5-3.3c-4.3-2.2-8.1-5.2-11.3-9
	c-4.2-5-6.4-11.3-6.4-18.9c0-5.6,1.2-10.6,3.7-15c2.9-5.2,6.9-9.2,12.1-12c4.9-2.6,10.4-4,16.4-4c1.2,0,2.4,0,3.6,0.1
	c4.6,0.9,8.7,2.5,12.4,4.9c4.1,2.6,7.2,5.9,9.3,9.8c-2.2,1.4-6.8,4.2-13.8,8.6c-5.8,3.6-10.5,6.4-14,8.5
	C312.5,166.1,322.2,170.1,332.8,174.1z"/>
<path d="M324.6,177.2c-0.4,1-1.2,2-2.4,3c-1,0.8-1.9,1.6-2.9,2.4l0.6,0.5c1.6-0.8,2.9-1.7,4.1-2.8c1.5-1.4,2.3-2.7,2.3-3.9
	l-19.5-7.5v1.1c1.5,0.6,4.4,1.8,9,3.6C319.5,174.9,322.5,176.1,324.6,177.2z"/>
<path class="st3" d="M268.6,257.6v60.6h53.5v-63.9h-20.9l-0.3,38.6c-4.4-4.4-9.8-10.3-16.2-17.5
	C279.3,269.6,273.9,263.6,268.6,257.6z M299.4,312.1c2.1-0.2,4.8-0.3,8.1-0.3h8.3l0.5-20h0.6l0.3,21.2h-17.9V312.1z"/>
<path class="st3" d="M153.9,288.4c-5.2-5.2-10.4-10.4-15.6-15.7c-6.2-6.2-11.5-11.2-15.9-15.2v60.2h65.3v-60.8l-31.8,31.5H153.9z
	 M165.6,311.5l14.4-0.2l0.6-18.3h0.5l0.3,19.1l-15.9,0.3L165.6,311.5L165.6,311.5z"/>
<path class="st3" d="M195.1,317.9l67.3-0.1l-32-61L195.1,317.9z M242.8,313.9l11.7-0.3c-0.5-1.6-1.6-4-3.4-7.2
	c-1.8-3.3-3-5.8-3.6-7.5l0.8-0.5l8.4,16.1l-14,0.3V313.9z M232.3,293.7c0.1,1.1,0,2.1-0.5,2.9c-0.6,1-1.4,1.5-2.5,1.5
	c-1.4,0-2.4-0.7-3.1-2.2c-0.1-0.9-0.1-1.7,0.2-2.5c0.4-1,1-1.6,1.8-1.8c0.3,0,0.5-0.1,0.8-0.1C230.4,291.5,231.5,292.3,232.3,293.7z
	"/>
<polygon points="181.2,293 180.7,293 180.1,311.3 165.6,311.5 165.6,312.4 181.5,312.1 "/>
<path d="M172.3,269.3c-6.8,6.8-12.7,12.5-17.6,17l-34.3-33.8v67.2H190l-0.3-67.8C183.9,257.7,178.1,263.5,172.3,269.3z M187.7,317.7
	h-65.3v-60.2c4.4,4,9.7,9,15.9,15.2c5.2,5.2,10.4,10.5,15.6,15.7h2.1l31.8-31.5L187.7,317.7L187.7,317.7z"/>
<path d="M248.4,298.4l-0.8,0.5c0.5,1.6,1.7,4.1,3.6,7.5c1.7,3.1,2.9,5.5,3.4,7.2l-11.7,0.3v0.9l14-0.3L248.4,298.4z"/>
<path d="M230.5,252.4L191.6,320l74.4-0.2l-17.6-33.9C241.4,272.4,235.4,261.3,230.5,252.4z M195.1,317.9l35.3-61.1l32,61
	L195.1,317.9z"/>
<path d="M228.1,291.6c-0.9,0.2-1.5,0.8-1.8,1.8c-0.3,0.8-0.3,1.7-0.2,2.5c0.7,1.5,1.8,2.2,3.1,2.2c1.1,0,1.9-0.5,2.5-1.5
	c0.5-0.9,0.7-1.8,0.5-2.9c-0.8-1.5-1.9-2.2-3.4-2.2C228.7,291.5,228.4,291.5,228.1,291.6z"/>
<path d="M298.8,288l-32-35.7v68h56.9v-68.2h-24.4L298.8,288z M301.1,254.4h20.9v63.9h-53.5v-60.6c5.3,6,10.7,11.9,16.1,17.9
	c6.4,7.2,11.8,13,16.2,17.5L301.1,254.4z"/>
<path d="M317,291.7h-0.6l-0.5,20h-8.3c-3.3,0-6,0.1-8.1,0.3v0.9h17.9L317,291.7z"/>
<g>
	<path class="st4" d="M268.4,214.9c-0.2,27.1-10.9,43.3-33,50.3c-29,9.2-58.9-12.3-59.7-42.9c-0.1-5-0.1-10.1,0-15.1
		c0.1-4.5-0.6-9.3,6.4-9.5c1.4,0,2.9-2.8,4.2-4.4c19.4-23.2,52.8-23,72,0.4c0.7,0.8,1.2,1.8,1.9,2.5
		C268.5,204.2,268.5,204.2,268.4,214.9z M263.1,229.9c-8.6,0-16.5-0.3-24.4,0.1c-5.1,0.3-8.2-1.4-11-5.7c-4.3-6.9-6.9-6.9-11.2,0.2
		c-2.8,4.5-6.1,5.8-11,5.6c-8-0.3-16.1-0.1-24.3-0.1c3.2,20,21.5,34.8,41.5,34.4C242.7,264,260.6,249.2,263.1,229.9z M188.3,197.5
		c22.9,0,45.2,0,67.9,0C240.4,172.5,201.5,174.4,188.3,197.5z M245.7,224.1c2.6,0,4.2-0.2,5.7,0c8.1,1.5,10.1-2.9,10-9.9
		c-0.2-9.4-1.1-10.6-10.1-10.8c-4.8-0.1-9.6-0.5-14.3,0.2c-2.4,0.3-5.1,2.3-6.5,4.4c-5,7.1,0.5,11.2,3.3,14.5c2.8-3.4,5.2-9,7.7-9
		C247.5,213.4,247.6,218.6,245.7,224.1z M210.1,224.7c2-4.2,5.2-8.2,5.3-12.3c0.1-2.9-3.9-8.2-6.3-8.4c-8.2-0.5-16.5,0.7-24.7,1.4
		c-0.1,0-0.2,0.5-0.3,0.7c-5,9.2,0,18,10.2,18c1.3,0,2.6-0.2,2.6-0.2c1.2-3.8,1.6-7,3.2-9.7c0.6-0.9,4.9-1.2,5.5-0.3
		C207.4,216.7,208.2,220,210.1,224.7z"/>
	<path d="M263.9,215.5c-0.2,24.3-9.8,38.9-29.6,45.2c-26.1,8.3-52.9-11-53.6-38.5c-0.1-4.5-0.1-9.1,0-13.6c0-4-0.5-8.3,5.8-8.5
		c1.3,0,2.6-2.5,3.8-4c17.4-20.8,47.4-20.6,64.6,0.4c0.6,0.7,1.1,1.6,1.7,2.3C264,205.9,264,205.9,263.9,215.5z M259.1,229
		c-7.7,0-14.8-0.3-21.9,0.1c-4.6,0.3-7.4-1.2-9.8-5.2c-3.9-6.2-6.2-6.2-10.1,0.2c-2.5,4.1-5.5,5.2-9.9,5c-7.2-0.3-14.5-0.1-21.8-0.1
		c2.8,17.9,19.3,31.2,37.3,30.9C240.8,259.6,256.8,246.3,259.1,229z M192,199.9c20.5,0,40.6,0,60.9,0
		C238.8,177.4,203.8,179.2,192,199.9z M243.5,223.8c2.3,0,3.8-0.2,5.1,0c7.3,1.3,9.1-2.6,9-8.9c-0.1-8.4-1-9.6-9.1-9.7
		c-4.3-0.1-8.6-0.4-12.9,0.2c-2.1,0.3-4.5,2.1-5.8,3.9c-4.5,6.3,0.5,10.1,2.9,13c2.5-3,4.7-8.1,7-8.1
		C245.1,214.2,245.2,218.8,243.5,223.8z M211.6,224.3c1.8-3.8,4.7-7.3,4.8-11c0.1-2.6-3.5-7.4-5.7-7.5c-7.3-0.5-14.8,0.7-22.2,1.2
		c-0.1,0-0.2,0.4-0.3,0.6c-4.5,8.3,0,16.2,9.1,16.2c1.2,0,2.3-0.1,2.3-0.1c1-3.4,1.5-6.3,2.9-8.7c0.5-0.9,4.4-1,4.9-0.3
		C209.1,217.1,209.8,220.1,211.6,224.3z"/>
	<path class="st3" d="M259.1,229c-2.3,17.3-18.3,30.6-36.3,30.9c-18,0.3-34.4-13-37.3-30.9c7.4,0,14.6-0.2,21.8,0.1
		c4.5,0.2,7.4-0.9,9.9-5c3.9-6.4,6.2-6.4,10.1-0.2c2.4,3.9,5.2,5.4,9.8,5.2C244.3,228.7,251.4,229,259.1,229z M244.6,232.9
		c-4.9,9-11.4,15.9-22.3,15.9c-10.9,0-17.2-7.2-22.8-17.8c0.8,12.4,11.3,20.8,23.1,20.7C234,251.7,244.3,243.3,244.6,232.9z"/>
	<path class="st3" d="M192,199.9c11.8-20.8,46.8-22.5,60.9,0C232.5,199.9,212.5,199.9,192,199.9z"/>
	<path class="st3" d="M243.5,223.8c1.8-5,1.6-9.6-3.8-9.5c-2.3,0-4.5,5.1-7,8.1c-2.5-3-7.4-6.7-2.9-13c1.3-1.8,3.7-3.6,5.8-3.9
		c4.2-0.6,8.6-0.2,12.9-0.2c8.1,0.1,8.9,1.2,9.1,9.7c0.1,6.3-1.6,10.2-9,8.9C247.2,223.6,245.8,223.8,243.5,223.8z"/>
	<path class="st3" d="M211.6,224.3c-1.7-4.2-2.5-7.2-4.1-9.6c-0.5-0.8-4.4-0.6-4.9,0.3c-1.4,2.3-1.8,5.3-2.9,8.7
		c0,0-1.2,0.2-2.3,0.1c-9.2,0-13.6-7.9-9.1-16.2c0.1-0.2,0.2-0.6,0.3-0.6c7.4-0.6,14.9-1.7,22.2-1.2c2.2,0.1,5.8,4.9,5.7,7.5
		C216.2,217,213.3,220.5,211.6,224.3z"/>
	<path d="M244.6,232.9c-0.2,10.3-10.6,18.8-21.9,18.8c-11.8,0-22.3-8.4-23.1-20.7c5.6,10.6,11.9,17.9,22.8,17.8
		C233.1,248.8,239.6,241.9,244.6,232.9z"/>
</g>
</svg>
