<svg id="Ebene_1" data-name="Ebene 1" xmlns="http://www.w3.org/2000/svg" viewBox="0 0 224.74 29.98"><defs><style>.cls-1{fill:#7c7c7c;}.cls-2{fill:#fff;}</style></defs><path class="cls-1" d="M4,32.9V4.27h3.1V29.52H18.65V32.9Z" transform="translate(-2.86 -3.41)"/><path class="cls-1" d="M26.62,32.9V20.77l-9-16.5h3.8L26,12.91c.91,1.71,1.71,3.32,2.4,4.85.69-1.5,1.55-3.19,2.56-5.07l4.56-8.42H39.1l-9.37,16.5V32.9Z" transform="translate(-2.86 -3.41)"/><path class="cls-1" d="M41.8,32.9V4.27H45L57.33,26.79V4.27h3V32.9H57.11L44.79,10.37V32.9Z" transform="translate(-2.86 -3.41)"/><path class="cls-1" d="M65.47,32.9V4.27h3.18L81,26.79V4.27h3V32.9H80.78L68.46,10.37V32.9Z" transform="translate(-2.86 -3.41)"/><path class="cls-1" d="M98.28,32.9V4.27h8.11a15.2,15.2,0,0,1,4.57.52,7.76,7.76,0,0,1,3.55,2.5,12.93,12.93,0,0,1,2.35,4.58,22.73,22.73,0,0,1,.84,6.56,21.28,21.28,0,0,1-1.43,8.25,10,10,0,0,1-3.66,4.8,10.74,10.74,0,0,1-5.85,1.42Zm3.11-3.38h5a8.65,8.65,0,0,0,4.59-1,6.18,6.18,0,0,0,2.4-3.17,19.56,19.56,0,0,0,1.11-7,16.22,16.22,0,0,0-1.18-6.85,6.5,6.5,0,0,0-3-3.33,10.27,10.27,0,0,0-4-.56h-4.92Z" transform="translate(-2.86 -3.41)"/><path class="cls-1" d="M137.37,4.27h3.1V20.81a24,24,0,0,1-.81,6.83,7.79,7.79,0,0,1-2.95,4.2,9,9,0,0,1-5.43,1.55q-4.64,0-7-2.78T122,20.81V4.27h3.11V20.79a18.91,18.91,0,0,0,.6,5.63,5.07,5.07,0,0,0,2,2.64,5.89,5.89,0,0,0,3.35.91c2.21,0,3.82-.63,4.81-1.88s1.5-3.68,1.5-7.3Z" transform="translate(-2.86 -3.41)"/><path class="cls-1" d="M145.61,32.9V4.27h3.18l12.34,22.52V4.27h3V32.9h-3.18L148.6,10.37V32.9Z" transform="translate(-2.86 -3.41)"/><path class="cls-1" d="M169.26,32.9V4.27h3.11v14.2L184,4.27h4.21l-9.85,11.61,10.28,17h-4.1l-8.34-14.48L172.37,23V32.9Z" transform="translate(-2.86 -3.41)"/><path class="cls-1" d="M191.31,32.9V4.27h17V7.65H194.42V16.4h13v3.37h-13v9.75h14.41V32.9Z" transform="translate(-2.86 -3.41)"/><path class="cls-1" d="M212.93,32.9V4.27H216V29.52H227.6V32.9Z" transform="translate(-2.86 -3.41)"/><path class="cls-2" d="M2.86,32V3.41H6V28.66H17.53V32Z" transform="translate(-2.86 -3.41)"/><path class="cls-2" d="M25.49,32V19.91l-9-16.5h3.8l4.61,8.64c.91,1.71,1.71,3.32,2.4,4.85.69-1.5,1.55-3.19,2.56-5.07l4.56-8.42H38L28.6,19.91V32Z" transform="translate(-2.86 -3.41)"/><path class="cls-2" d="M40.67,32V3.41h3.18L56.2,25.93V3.41h3V32H56L43.66,9.51V32Z" transform="translate(-2.86 -3.41)"/><path class="cls-2" d="M64.34,32V3.41h3.19L79.87,25.93V3.41h3V32H79.65L67.33,9.51V32Z" transform="translate(-2.86 -3.41)"/><path class="cls-2" d="M97.15,32V3.41h8.11a15.2,15.2,0,0,1,4.57.52,7.76,7.76,0,0,1,3.55,2.5A13,13,0,0,1,115.73,11a22.73,22.73,0,0,1,.84,6.56,21.28,21.28,0,0,1-1.43,8.25,10,10,0,0,1-3.66,4.8A10.74,10.74,0,0,1,105.63,32Zm3.11-3.38h5a8.65,8.65,0,0,0,4.59-1,6.18,6.18,0,0,0,2.4-3.17,19.55,19.55,0,0,0,1.12-7,16.2,16.2,0,0,0-1.19-6.85,6.45,6.45,0,0,0-3-3.33,10.47,10.47,0,0,0-4-.56h-4.92Z" transform="translate(-2.86 -3.41)"/><path class="cls-2" d="M136.24,3.41h3.1V20a24,24,0,0,1-.81,6.83A7.89,7.89,0,0,1,135.59,31a9.14,9.14,0,0,1-5.44,1.54q-4.64,0-7-2.78T120.88,20V3.41H124V19.93a18.51,18.51,0,0,0,.61,5.63,5,5,0,0,0,2,2.64,5.91,5.91,0,0,0,3.35.91c2.21,0,3.82-.62,4.81-1.87s1.5-3.69,1.5-7.31Z" transform="translate(-2.86 -3.41)"/><path class="cls-2" d="M144.48,32V3.41h3.18L160,25.93V3.41h3V32h-3.18L147.47,9.51V32Z" transform="translate(-2.86 -3.41)"/><path class="cls-2" d="M168.13,32V3.41h3.11v14.2L182.9,3.41h4.22L177.26,15l10.28,17h-4.1L175.1,17.56l-3.86,4.56V32Z" transform="translate(-2.86 -3.41)"/><path class="cls-2" d="M190.18,32V3.41h17V6.79H193.29v8.75h13v3.38h-13v9.74H207.7V32Z" transform="translate(-2.86 -3.41)"/><path class="cls-2" d="M211.8,32V3.41h3.11V28.66h11.56V32Z" transform="translate(-2.86 -3.41)"/></svg>