<?xml version="1.0" encoding="utf-8"?>
<!-- Generator: Adobe Illustrator 24.1.3, SVG Export Plug-In . SVG Version: 6.00 Build 0)  -->
<svg version="1.1" id="Ebene_1" xmlns="http://www.w3.org/2000/svg" xmlns:xlink="http://www.w3.org/1999/xlink" x="0px" y="0px"
	 viewBox="0 0 1094 457" style="enable-background:new 0 0 1094 457;" xml:space="preserve">
<style type="text/css">
	.st0{fill:#107202;}
	.st1{fill:#56891A;}
	.st2{fill:#FFFFFF;stroke:#56891A;stroke-width:2.7874;stroke-miterlimit:10;}
	.st3{fill:#FFFFFF;stroke:#56891A;stroke-width:1.6412;stroke-miterlimit:10;}
	.st4{fill:#FFFFFF;}
	.st5{fill:#011835;}
</style>
<rect x="188.9" y="340.6" class="st0" width="14.3" height="33.2"/>
<rect x="238.3" y="340.6" class="st0" width="14.3" height="33.2"/>
<path class="st0" d="M314.9,283.3h-12.6c-4.4,0-7.9-3.6-7.9-7.9l0,0c0-4.4,3.6-7.9,7.9-7.9h12.6c4.4,0,7.9,3.6,7.9,7.9l0,0
	C323,279.7,319.4,283.3,314.9,283.3z"/>
<circle class="st0" cx="221.5" cy="119.1" r="46.9"/>
<rect x="237.1" y="68.4" transform="matrix(0.6237 -0.7816 0.7816 0.6237 36.6392 218.5813)" class="st0" width="16.6" height="5.6"/>
<circle class="st1" cx="219.9" cy="117.6" r="45.5"/>
<rect x="235.5" y="69.2" transform="matrix(0.6237 -0.7816 0.7816 0.6237 36.3568 217.7886)" class="st1" width="17.7" height="3.9"/>
<rect x="179.4" y="157.3" transform="matrix(0.6237 -0.7816 0.7816 0.6237 -54.8884 206.1153)" class="st0" width="14.4" height="5.6"/>
<rect x="178.4" y="156.8" transform="matrix(0.6237 -0.7816 0.7816 0.6237 -53.8389 205.6197)" class="st1" width="16.6" height="3.9"/>
<ellipse transform="matrix(8.248051e-02 -0.9966 0.9966 8.248051e-02 84.7525 326.8842)" class="st2" cx="219.9" cy="117.4" rx="38.9" ry="38.9"/>
<circle class="st0" cx="219.4" cy="267.4" r="80.4"/>
<circle class="st1" cx="218.1" cy="265.1" r="78.4"/>
<circle class="st3" cx="264.2" cy="50.9" r="22.8"/>
<rect x="261.1" y="192.3" transform="matrix(0.6237 -0.7816 0.7816 0.6237 -51.5272 283.1331)" class="st0" width="14.4" height="5.6"/>
<rect x="259.1" y="193.2" transform="matrix(0.6237 -0.7816 0.7816 0.6237 -52.0598 282.271)" class="st1" width="16.1" height="3.9"/>
<circle class="st3" cx="168.4" cy="179.6" r="22.8"/>
<rect x="213.7" y="163" class="st0" width="16.1" height="25.1"/>
<rect x="213.5" y="156.6" class="st1" width="12.5" height="31.5"/>
<path class="st1" d="M147.9,287.8l-8.9,8.9c-3.1,3.1-8,3.1-11.2,0l0,0c-3.1-3.1-3.1-8,0-11.2l8.9-8.9c3.1-3.1,8-3.1,11.2,0l0,0
	C151,279.7,151,284.8,147.9,287.8z"/>
<path class="st0" d="M259.9,373.8h-12.6c-4.4,0-7.9-3.6-7.9-7.9l0,0c0-4.4,3.6-7.9,7.9-7.9h12.6c4.4,0,7.9,3.6,7.9,7.9l0,0
	C267.8,370.2,264.2,373.8,259.9,373.8z"/>
<path class="st0" d="M192.8,373.8h-12.6c-4.4,0-7.9-3.6-7.9-7.9l0,0c0-4.4,3.6-7.9,7.9-7.9h12.6c4.4,0,7.9,3.6,7.9,7.9l0,0
	C200.7,370.2,197.3,373.8,192.8,373.8z"/>
<ellipse class="st0" cx="221.1" cy="300.4" rx="16.1" ry="25.1"/>
<ellipse class="st4" cx="221.1" cy="283.3" rx="2.3" ry="7.1"/>
<ellipse class="st4" cx="225.6" cy="285" rx="2.3" ry="7.1"/>
<ellipse class="st4" cx="216.3" cy="285" rx="2.3" ry="7.1"/>
<ellipse class="st4" cx="221.1" cy="318.5" rx="2.3" ry="7.1"/>
<circle class="st5" cx="219.9" cy="117.6" r="24.5"/>
<circle class="st4" cx="200.9" cy="133.3" r="5.6"/>
<circle class="st4" cx="229.8" cy="107.2" r="2.8"/>
<circle class="st5" cx="168.4" cy="179.6" r="10.2"/>
<circle class="st4" cx="160.5" cy="186" r="2.3"/>
<circle class="st4" cx="172.5" cy="175.3" r="1.1"/>
<circle class="st5" cx="264.2" cy="50.9" r="10.2"/>
<circle class="st4" cx="256.3" cy="57.3" r="2.3"/>
<circle class="st4" cx="268.3" cy="46.5" r="1.1"/>
<circle class="st3" cx="286.4" cy="175.5" r="22.8"/>
<circle class="st5" cx="286.4" cy="175.5" r="10.2"/>
<circle class="st4" cx="278.5" cy="182.1" r="2.3"/>
<circle class="st4" cx="290.5" cy="171.2" r="1.1"/>
</svg>
