<?xml version="1.0" encoding="utf-8"?>
<!-- Generator: Adobe Illustrator 24.1.3, SVG Export Plug-In . SVG Version: 6.00 Build 0)  -->
<svg version="1.1" id="Ebene_1" xmlns="http://www.w3.org/2000/svg" xmlns:xlink="http://www.w3.org/1999/xlink" x="0px" y="0px"
	 viewBox="0 0 230 250" style="enable-background:new 0 0 230 250;" xml:space="preserve">
<style type="text/css">
	.st0{fill:#659713;}
	.st1{fill:#008700;}
	.st2{fill:#018801;}
	.st3{fill:#028701;}
	.st4{fill:#028702;}
	.st5{fill:#649811;}
	.st6{fill:#66991D;}
	.st7{fill:#038702;}
	.st8{fill:#5E9918;}
	.st9{fill:#649A1A;}
	.st10{fill:#038902;}
	.st11{fill:#619912;}
	.st12{fill:#077C08;}
	.st13{fill:#038402;}
	.st14{fill:#14620B;}
	.st15{fill:#5E9404;}
	.st16{fill:#078207;}
	.st17{fill:#070006;}
	.st18{fill:#0C8705;}
	.st19{fill:#428B0D;}
	.st20{fill:#09520A;}
	.st21{fill:#087C04;}
	.st22{fill:#0F7F08;}
	.st23{fill:#0B8206;}
	.st24{fill:#6B922F;}
	.st25{fill:#436B21;}
	.st26{fill:#0E750A;}
	.st27{fill:#116D07;}
	.st28{fill:#001F00;}
	.st29{fill:#2B7E10;}
	.st30{fill:#104314;}
	.st31{fill:#648B34;}
	.st32{fill:#276125;}
	.st33{fill:#0D7F09;}
	.st34{fill:#0D7408;}
	.st35{fill:#236F24;}
	.st36{fill:#649421;}
	.st37{fill:#688A3C;}
	.st38{fill:#568E06;}
	.st39{fill:#687F41;}
	.st40{fill:#276F23;}
	.st41{fill:#638522;}
	.st42{fill:#155D0F;}
	.st43{fill:#1E820B;}
	.st44{fill:#41771B;}
	.st45{fill:#6A8737;}
	.st46{fill:#56733B;}
	.st47{fill:#0B000D;}
	.st48{fill:#0A7B07;}
	.st49{fill:#6D7A43;}
	.st50{fill:#266B23;}
	.st51{fill:#256627;}
	.st52{fill:#051001;}
	.st53{fill:#0B7C0C;}
	.st54{fill:#106A11;}
	.st55{fill:#09710D;}
	.st56{fill:#0D790C;}
	.st57{fill:#286925;}
	.st58{fill:#226C29;}
	.st59{fill:#0C7010;}
	.st60{fill:#0C670F;}
	.st61{fill:#0E6511;}
	.st62{fill:#5A8A29;}
	.st63{fill:#012001;}
	.st64{fill:#0F6B10;}
	.st65{fill:#56801D;}
	.st66{fill:#687A3E;}
	.st67{fill:#106511;}
	.st68{fill:#073705;}
	.st69{fill:#0E6306;}
	.st70{fill:#106610;}
	.st71{fill:#296B23;}
	.st72{fill:#001300;}
	.st73{fill:#086E06;}
	.st74{fill:#2C5E28;}
	.st75{fill:#116111;}
	.st76{fill:#176B11;}
	.st77{fill:#196117;}
	.st78{fill:#106E17;}
	.st79{fill:#106413;}
	.st80{fill:#13680B;}
	.st81{fill:#145F15;}
	.st82{fill:#01781E;}
	.st83{fill:#FBFBFB;}
	.st84{fill:#629811;}
	.st85{fill:#65970E;}
	.st86{fill:#1E8907;}
	.st87{fill:#659B21;}
	.st88{fill:#63980B;}
	.st89{fill:#5B9B0D;}
	.st90{fill:#61971B;}
	.st91{fill:#2C8E01;}
	.st92{fill:#659622;}
	.st93{fill:#0F770C;}
	.st94{fill:#548111;}
	.st95{fill:#6A8D32;}
	.st96{fill:#599912;}
	.st97{fill:#319304;}
	.st98{fill:#378501;}
	.st99{fill:#067812;}
	.st100{fill:#649707;}
	.st101{fill:#F8F9E7;}
	.st102{fill:#0E8502;}
	.st103{fill:#298204;}
	.st104{fill:#589913;}
	.st105{fill:#539316;}
	.st106{fill:#476E0E;}
	.st107{fill:#579914;}
	.st108{fill:#519A14;}
	.st109{fill:#107810;}
	.st110{fill:#41990B;}
	.st111{fill:#637D42;}
	.st112{fill:#69922A;}
	.st113{fill:#4A9326;}
	.st114{fill:#1C8807;}
	.st115{fill:#359412;}
	.st116{fill:#278904;}
	.st117{fill:#2F8E08;}
	.st118{fill:#519A26;}
	.st119{fill:#32920D;}
	.st120{fill:#32920B;}
	.st121{fill:#198905;}
	.st122{fill:#2D8C08;}
	.st123{fill:#61981A;}
	.st124{fill:#619810;}
	.st125{fill:#619C21;}
	.st126{fill:#5E9A14;}
	.st127{fill:#559A17;}
	.st128{fill:#63971B;}
	.st129{fill:#64A232;}
	.st130{fill:#5B9809;}
	.st131{fill:#529A09;}
	.st132{fill:#118605;}
	.st133{fill:#20890A;}
	.st134{fill:#288A07;}
	.st135{fill:#3C990D;}
	.st136{fill:#188904;}
	.st137{fill:#3B9B0A;}
	.st138{fill:#2F8C0A;}
	.st139{fill:#429816;}
	.st140{fill:#5C9810;}
	.st141{fill:#5DA124;}
	.st142{fill:#90B469;}
	.st143{fill:#029B02;}
	.st144{fill:#FAF9FB;}
	.st145{fill:#529821;}
	.st146{fill:#679932;}
	.st147{fill:#0B850C;}
	.st148{fill:#FAFBFB;}
	.st149{fill:#5A9A27;}
	.st150{fill:#69932E;}
	.st151{fill:#FBF9F6;}
	.st152{fill:#649610;}
	.st153{fill:#569C39;}
	.st154{fill:#208105;}
	.st155{fill:#4F972C;}
	.st156{fill:#529C39;}
	.st157{fill:#5D9913;}
	.st158{fill:#659914;}
	.st159{fill:#5D9819;}
	.st160{fill:#F1F7F4;}
	.st161{fill:#E7F3E9;}
	.st162{fill:#ECF5EE;}
	.st163{fill:#BDDDCA;}
	.st164{fill:#D9F2DF;}
	.st165{fill:#103153;}
	.st166{fill:#F0F9F9;}
	.st167{fill:#2C4761;}
	.st168{fill:#E8F5DA;}
	.st169{fill:#F1F8E1;}
	.st170{fill:#FCFCFC;}
	.st171{fill:#268107;}
	.st172{fill:#609908;}
	.st173{fill:#769D2D;}
	.st174{fill:#6A9E2E;}
	.st175{fill:#F3F7E3;}
	.st176{fill:#475734;}
	.st177{fill:#DEF1C1;}
	.st178{fill:#66981F;}
	.st179{fill:#F1F8DF;}
	.st180{fill:#759B43;}
	.st181{fill:#6AA030;}
	.st182{fill:#223D5D;}
	.st183{fill:#435668;}
	.st184{fill:#0F3251;}
	.st185{fill:#19354D;}
	.st186{fill:#1E3650;}
	.st187{fill:#C7D5E0;}
	.st188{fill:#0D3151;}
	.st189{fill:#1A334C;}
	.st190{fill:#E2ECF0;}
	.st191{fill:#B7C3CE;}
	.st192{fill:#16334C;}
	.st193{fill:#EAEFF1;}
	.st194{fill:#BCCDD6;}
</style>
<path class="st0" d="M59.6,178.2c0.2-0.7-0.3-1.3-0.3-1.9c-0.3-1.1,0.1-2.3-0.2-3.4c0.1-0.2,0.2-0.4,0.3-0.7
	c0.2-0.2,0.3-0.4,0.4-0.6c0.7-3,0.5-5.9,0-8.9c0-0.3,0-0.5,0.2-0.8c1-1.4,0.4-3.2,1.4-4.7c0.6-1.2,0.2-2.5,0.6-3.7
	c1.4-4.5,3.1-8.8,5.9-12.7c0.7-0.9,1.1-2.1,1.6-3.1c0.7-1.4,1.5-2.7,3.2-3.1c0.2,0.2,0.3,0.4,0.2,0.6c-0.2,0.6-0.4,1.4,0.4,1.6
	c0.9,0.2,0.8-0.8,1.1-1.3c0.4-0.9,0.9-1.8,0.5-2.9c0.3-0.9,0-2,1.1-2.6c0.4-0.3,0.8-0.4,1.2-0.2c0.9,0.4,0.8-0.3,1-0.8
	c0.4-1.6,0.4-1.7-1.7-1.9c-3.1-1-5.6-2.7-7.1-5.8c0-0.4,0.2-0.6,0.5-0.8c1.1-0.1,1.7,0.7,2.4,1.2c2.6,1.8,5.4,3.2,8.7,3
	c0.8-0.1,1.6-0.1,2.2-0.7c2.2-2.2,5.2-3.1,7.8-4.5c0.6-0.3,1.2-0.6,1.6-1.1c0.7-0.5,0.8-1.4,1.1-2.1c0.2-0.6,0.6-1,1-1.5
	c0.3-0.2,0.6-0.3,0.9-0.3c0.3-0.1,0.9,0.6,0.9-0.5c0.1-2.1-0.2-4.2-0.6-6.2c0.1-0.7,0.3-1.2,1.1-1.2c0.8,1.4,1.7,2.8,0.8,4.6
	c0,0.2,0.3,0,0.1,0c-0.1,0-0.1-0.1-0.1-0.2c0.1-0.4,0.3-0.5,0.7-0.2c0.5,0.9,0.1,1.9,0.4,2.9c0,1.1,0.5,1.4,1.6,1.2
	c0.5-0.1,1-0.2,1.4-0.1c3.4,0.1,6.8,0.1,10.2,0c0.5-0.2,0.4-0.7,0.5-1.1c0.1-0.2,0.2-0.4,0.4-0.5c0.2-0.2,0.8-0.1,0.6-0.6
	c-0.5-1.3-0.1-2.6-0.3-3.7c-0.3,0.9,0.6,2.2-0.5,3.3c-0.3,0-0.6,0-0.8-0.3c-0.7-2.8-0.8-5.6,0.2-8.4c0.1-0.2,0.2-0.3,0.4-0.4
	c0.2-0.3,1-0.1,0.8-0.8c-0.2-0.6-0.3-1.1,0.4-1.3c0.6-0.2,1.2-0.2,1.7,0.2c0.6,0.5,0.4,1.1,0.2,1.7c-0.1,0.3-0.3,0.4-0.4,0.8
	c0.9-0.3,1.4,0.1,1.4,0.9c-0.1,2.3-0.2,4.6-0.2,6.9c0,0.4-0.3,0.6-0.7,0.6c-0.4,0-0.6-0.3-0.6-0.7c-0.1-0.8,0-1.6-0.1-2.3
	c0.4,2.2-0.4,4.7,0.8,6.8c0.5-0.6,0-0.9-0.2-1.3c-0.5-0.7-0.6-1.5,0.1-1.9c0.8-0.6,0.8-1.4,0.8-2.2c0-1.1,0-2.1,0-3.2
	c0-0.4,0.2-0.8,0.7-0.8c0.4,0,0.6,0.3,0.7,0.6c0.1,0.3,0.2,0.5,0.2,0.8c-0.2,2.2,0.7,4.4,0.7,6.6c0,0.5,0.1,1.1,0.7,1.1
	c1,0,0.9,1.8,2.1,1.4c-0.4,0-1,0-0.9-0.7c0-0.6,0.6-0.7,1.1-0.8c0.9-0.1,1.8,0.1,2.7-0.1c1.8-0.3,3.6-0.1,5.4,0.2
	c0.2,0.1,0.4,0.3,0.7,0.4c0.1,0.2,0.3,0.5,0.6,0.6c2.2,0.6,4.3,1.7,6.5,2.4c3.6,1.1,6.3,3.5,9.3,5.5c3,2.1,5.8,4.5,8.5,7.1
	c0.5,0.5,1,0.9,1.2,1.6c0,1.2,0.9,1.8,1.8,2.5c1.5,1.3,2.5,3,3.4,4.7c0.1,0.5,0.3,1,0.7,1.3c0.3,0.3,0.5,0.6,0.7,1
	c0.1,0.6,0.6,1,0.9,1.5c3.8,7,6,14.4,6.1,22.5c0.1,6.5-0.1,12.8-2.2,19c-0.2,0.7-0.8,1.3-0.8,2c0,0.2-0.1,0.3-0.2,0.4
	c-0.3,0.4-0.5,0.9-0.5,1.5c-0.6,2.2-1.6,4.2-2.7,6.2c-0.2,0.4-0.6,0.6-0.7,1.1c-0.1,0.1-0.1,0.3-0.2,0.4c-0.4,0.4-0.6,1-0.8,1.5
	c-0.7,1.2-1.4,2.3-2.3,3.4c-0.8,0.8-1.4,1.8-2.1,2.6c-0.7,0.7-1.3,1.5-2.1,2.1c-1.6,1.4-3.1,2.9-4.5,4.6c-1.2,1.3-2.4,2.6-4,3.5
	c-0.5,0.1-0.8,0.4-1.1,0.7c-4.4,2.9-9.2,5.2-14.2,6.7c-0.7-0.1-1.2,0.3-1.8,0.5c-0.3,0.1-0.6,0.2-1,0.2c-0.7-0.2-1.4,0.2-2,0.4
	c-0.2,0-0.5,0-0.7,0c-1.3-0.9-1.9,0.1-2.7,0.9c-0.9,0.5-1.9,0.7-2.9,0.7c-4.5,0.1-9,0.4-13.5-0.2c-0.7-0.1-1.3-0.3-1.9-0.5
	c-0.7-0.4-1.4-0.7-2.2-0.9c-0.1-0.1-0.2-0.2-0.3-0.4c0-0.1,0.1-0.2,0.1-0.3c0.1-0.1,0.1-0.2,0-0.1c-0.9,0.5-1.8,0.2-2.7,0.3
	c-0.2,0-0.5-0.1-0.7-0.2c-0.5-0.4-1.1-0.6-1.7-0.5c-4.4-1.1-8.5-3.1-12.4-5.5c-5.2-3.2-9.7-7.4-13.8-11.9c-1.4-1.6-2.3-3.5-3.5-5.3
	c-1.6-2.4-3-4.9-4.3-7.5c-0.1-0.9-0.6-1.5-1.1-2.2c-0.1-0.3-0.2-0.6-0.1-0.9c0-0.2,0.1-0.3,0.2-0.5c0.8-2,0.6-2.9-0.9-4.3
	c-0.1-0.1-0.2-0.2-0.3-0.4c-0.7-1-0.2-2.3-0.8-3.4c-0.3-0.5-0.2-1.1-0.3-1.7c-0.1-0.3-0.1-0.8-0.7-0.4
	C59.8,178.6,59.5,178.7,59.6,178.2z"/>
<path class="st1" d="M159.7,201.8c0.8-1.1,1.6-2.2,2.3-3.3c0.4-0.5,0.7-1.1,1-1.7l0,0c0.3-0.3,0.4-0.7,0.6-1
	c0.9-2.2,1.8-4.4,2.7-6.6c0.2-0.5,0.3-1,0.6-1.4l0,0c0.3-0.6,0.3-1.4,0.6-2c0.3-2.4,1.1-4.7,1.5-7.1c1-6.3,0.8-12.5,0-18.8
	c-0.7-5.3-2.7-10.2-5.1-14.9c-0.2-0.3-0.3-0.7-0.4-1.1c-0.4-0.4-0.3-1-0.7-1.3c-0.2-0.2-0.4-0.5-0.6-0.7c-0.4-0.3-0.4-0.9-0.7-1.3
	c-1-1.6-2.1-3.2-3.3-4.7c-0.7-0.8-1.5-1.6-2-2.7c-1.8-2.3-4.1-4.1-6.4-5.9c-3.1-2.4-6.2-4.7-9.6-6.8c-0.9-0.5-2-0.4-2.7-1.3
	c-0.3-0.5-1.3-0.4-1-1.4c0.2,0,0.4,0,0.6,0c1-0.4,1.6,0.3,2.4,0.7c2.7-0.1,5,0.9,7.3,2c0.2,0.2,0.2,0.6,0.5,0.8
	c1.7,1.7,2.4,1.6,4-0.2c1.7-1.9,3.1-2.3,4.9-1.1c0.5,0.3,0.9,0.6,1,1.3c0,1.1-1.2,0.7-1.6,1.3c-1.2,0.4-2.5,0.9-2.6,2.3
	c-0.1,1.3,0.8,2.2,2.1,2.8c0.7,0.4,1.3,1,1.9,1.6c0.3,0.6,0.7,1,1.4,1.3c1.3,0.6,2,1.8,2.7,3c0.5,1.1,1.8,1.1,2.6,1.7
	c1.6,3.5,4.1,6.5,5.6,9.9c2,4.5,5,8.6,5.1,13.9c0,0.2,0,0.4,0.1,0.5c2,2.5,1.3,5.6,1.6,8.4c0.3,3,0.7,3.6,3.3,4.1
	c0.6,0.5,1.3,0.3,1.9,0.3c2.7,0.1,5.5-0.2,8.2,0.1c1.4,0.1,2.3,0.9,3,2c0.2,0.4,0.2,1,0.7,1.3l0,0c0.3,1.6,0.3,3.1,0,4.7
	c-0.1,1.4-1.2,2.3-2,3.3c-0.4,0.4-0.9,0.4-1.4,0.6c-4.1,0-8.3,0.1-12.4,0c-1.5,0-2.4,0.5-2.6,1.9c-1.6,8.7-6.1,15.9-11.4,22.7
	c-1.5,2-3,4-4.5,5.9c-0.7,0.4-1.3,0.9-1.9,1.4c0,0.2-0.1,0.4-0.1,0.6c-0.8,0.4-1.7,0.5-2.3,1.3c-0.1,0-0.2,0.1-0.3,0.1
	c-0.4,0.2-0.8,0.3-1,0.7c-2.5,1.6-5,3.3-7.6,4.7c-0.4,0.2-0.8,0.3-1.1,0.6c-0.1,0-0.2,0-0.3,0c-2.4,0.7-3,1.5-3.2,4.8
	c-0.1,1.7-0.1,3.3,0,5c0.1,1.4,0.6,1.9,2.1,2c1.8,0.1,3.6-0.1,5.5,0.2c2.5,0.4,3.7,1.6,3.8,4.1c0.1,1.8-0.1,3.6-0.8,5.3
	c-0.5,1.1-1.5,1.3-2.4,1.9c-1.2,0.5-2.4,0-3.6,0.1c-4.6,0.1-9.3-0.4-13.9,0.2c-1.5,0.2-2.5-1-2.3-2.9c0.5-4.6-0.1-9.3-0.2-13.9
	c-0.9-0.7-1.7-0.5-2.6-0.1c-5.3-0.7-10.6-0.6-16-0.7c-1-0.5-2.1-0.3-3.2-0.6c-0.6-0.2-1.2,0.2-1.1,0.8c0.1,1.3-0.3,2.6,0.3,3.9
	c0,3.7,0.1,7.4,0.1,11.1c0,1.8-0.6,2.5-2.5,2.5c-3.3,0-6.6-0.2-9.9-0.2c-2.3,0-4.6,0.2-6.9-0.1c-2.3-0.3-3.5-1.3-4-3.7
	c-0.2-1.6-0.2-3.2,0-4.7c1.3-2.1,3.2-3.1,5.6-3.3c1.5-0.1,3,0,4.5,0c0.9,0,1.3-0.3,1.3-1.3c0-2.4,0-4.9,0-7.3c0-1-0.4-1.5-1.4-1.8
	c-1.4-0.4-2.7-1.2-4-2c-0.6-0.5-1.3-1-2-1.3l0,0c-0.3-0.4-0.7-0.5-1.1-0.7c-0.2-0.1-0.4-0.1-0.6-0.3c-2.2-2.2-5.1-3.5-7.5-5.5
	c-1-0.9-2.1-1.8-2.8-3c-0.4-0.7-0.7-1.5-1.4-1.9c-3.4-3.6-6-7.8-8.5-12c-0.9-1.6-1.4-3.5-2-5.2c-0.2-0.4-0.2-0.8-0.7-1.1
	c-0.3-0.2-0.4-0.5-0.4-0.9c0-0.2,0-0.3,0.1-0.5c1-1.6,1-1.6,2.3,0.4c3.5,6,6.7,12.2,12,17.1c6.2,5.7,13.1,10.1,21.1,12.8
	c0.2,0.1,0.3,0,0.5,0.1c0.5,0.3,1.2,0.2,1.7,0.6c0.2,0,0.4,0,0.6,0c0.8,0.5,1.9,0,2.6,0.7l0,0c0.6,0.3,1.4,0.1,2,0.6
	c4,0.9,8,0.8,12,0.8c2.3,0,4.6-0.2,6.9-0.7c0.7-0.7,1.5-0.8,2.4-0.6c0.2,0,0.4,0,0.6-0.1c0.6-0.3,1.4-0.3,2-0.6c0.3,0,0.6,0,0.9,0
	c0.5-0.3,1.2-0.3,1.7-0.6c5.1-1.6,9.8-3.9,14.3-6.7c0.3-0.3,0.7-0.3,1-0.7c1.5-0.9,2.6-2.3,4-3.4c1.9-1.2,3.1-3.1,4.6-4.7
	c0.6-0.7,1.1-1.5,2-2C159,204,159.5,203,159.7,201.8z"/>
<path class="st2" d="M153.1,76.1c0,1.7-0.6,3.2-1.3,4.7c-0.5,0.3-0.4,0.9-0.7,1.4c-3.4,7.9-8.7,14-16.5,18c-2.5,1.3-4.8,3-7.8,2.5
	c-1.3-0.5-1.8,0-1.8,1.2c0,3.4-0.1,6.9,0.1,10.3c0,0.5,0.1,1-0.3,1.4c-4.4,0.6-4.9,0.2-4.9-4.2c0-2.4,0-4.8,0-7.1
	c0.1-2.4,0.9-3.3,3.3-3.5c0.9-0.1,1.8-0.3,2.8-0.4c1,0,1.7-0.6,2.4-1.2c1-0.6,2.1-1.1,3.2-1.5c0.5,0,0.8-0.3,1.2-0.6
	c3.1-1.6,5.8-3.8,7.9-6.5c0.5-0.4,1-0.7,1.3-1.2c0.1-0.1,0.2-0.2,0.3-0.4c0.8-1.1,1.5-2.1,1.9-3.4c1.7-3,3.1-6.1,3.8-9.5
	c0.7-3.7,0.6-7.5,0.1-11.2c-0.1-0.7-0.3-1.3-0.2-2c0-1.3-0.8-2.5-0.7-3.8c0.2-1.2-0.4-2.1-1-3c-0.9-1.3-1.5-2.6-2.7-3.7
	c-0.7-0.9-1.3-1.9-2-2.8c-0.8-1.9-2.3-3.2-4-4.3c-1.2-0.8-2.3-1.7-3.3-2.7c-0.2-0.4-0.6-0.5-1.1-0.6c-1.1-0.3-2.1-1-3.2-1.4
	c-0.8-0.6-1.8-0.7-2.5-1.4c-0.5-0.6-1.1-0.5-1.8-0.5c-3.4-0.9-6.8-1.3-10.3-1.4c-1,0-1.9,0.3-2.9,0.5c-1,0.6-2.2,0.3-3.2,0.6
	c-5.3,1.4-10.1,3.7-14.2,7.5c-0.5,0.4-0.9,0.9-1.6,1.2C93,47.3,92.1,47,92.2,48c0,0.1-0.1,0.3-0.2,0.4c-0.4,0.5-1,0.9-1,1.6
	c0,0.1-0.1,0.3-0.2,0.4c-0.3,0.5-0.5,1-0.7,1.5c-0.9,2-2.2,3.8-3,5.9c-0.2,0.7-0.7,1.3-1.3,1.7c-0.6,0.5-0.8,1.2-0.8,1.9
	c0,0.7,0,1.4,0,2.1c0,0.6,0,1.4-0.8,1.4c-0.9,0-0.7-0.8-0.7-1.4c0-1.4,0.1-2.7,0.3-4.1c0.5-2.9,2-5.3,3.1-8c0.4-1.1,1-2.1,1.6-3.1
	c1.7-3.3,4.2-5.9,7.3-7.8c2.6-1.6,5.1-3.3,8-4.3c2.2-0.6,4.4-1.5,6.7-2c0.1,0,0.2-0.1,0.3,0c0.7-0.3,1.3-0.1,2-0.1
	c0.6-0.1,1.1-0.3,1.7-0.4c5.1-0.5,10.1,0.1,15,1.7c0.5,0.1,0.9-0.3,1.4-0.1c2.5,1.2,2.5,1.2,3.9-0.6c0.3-0.3,0.5-0.6,0.9-0.9
	c2.3-1.9,4.8-1.5,6.5,1.2c0.1,0.8-0.4,1-1,0.9c-0.6,0-1.2-0.1-1.8-0.3c-1.1,0.3-1.8,1-2.3,2c-0.5,0.7-0.7,1.3,0.1,2
	c1,0.2,1.9,0.6,2.6,1.3c0.2,0.4,0.7,0.5,1,0.7c2.5,1.6,4.2,4,5.6,6.6c0.3,0.5,0.3,1.2,1,1.4c0.8,2.2,2.8,3.6,3.8,5.7
	c0.7,1.5,1.2,3.2,1.2,4.9c0.7,3.9,0.4,7.9,0.5,11.8c0,0.8-0.1,1.6,0.1,2.5C153.2,75,153.3,75.5,153.1,76.1z"/>
<path class="st3" d="M69.6,121.3c1.9,2.4,4,4.3,7,5.3c0.5,0.3,1.1,0.6,0.2,1.1c-0.8,0.3-1.5-0.2-2.2-0.4c-2.3-0.7-4.4-1.8-6.1-3.7
	c-2.1-2.4-4-4.8-4.8-7.9c-0.2-0.7-0.4-1.4-0.4-2.1c-0.2-2-0.2-4,0-6c-0.1-4.2,2.4-7,5.3-9.7c1.1-0.3,1.6-1.1,2-2
	c2-1.6,4.2-2.9,6.9-2.7c0.4-0.2,0.8-0.3,1.1-0.7c0.4-0.5,1-0.6,1.6-0.7c0.7-0.2,1.4-0.2,2.1,0c1,0,1.9,0.6,2.7,1.1
	c1.4,0.9,3,1.2,4.4,2c1.4,0.9,3-0.8,3.1-3.1c0-0.5,0.2-0.8,0.7-1c0.8,0,1.4,0.6,2.2,0.4c1.7,0.8,2,2,0.9,3.4c-0.4,0.5-1,0.8-1.5,1.2
	c-0.3,0.2-0.5,0.4-0.7,0.7c-1.8,1.7-2.3,1.8-4.5,0.8c-2.7-1.9-5.8-2-9-1.9c-0.6,0-1.2,0.2-1.7,0.5c-0.9,0.2-1.7,0.5-2.4,1.1
	c-4.9,2.1-7.9,5.8-9.5,10.8c-1.6,2.2-1,4.5-0.4,6.8c0.4,1.5,1.1,2.8,2,4.1C69.1,119.8,69.5,120.5,69.6,121.3z"/>
<path class="st4" d="M152,3c0.6,0,1.1,0,1.7,0c0.6,0.5,1.4,0.3,2,0.6c0.9,0.4,1.7,0.7,2.6,1c2,0.7,3.6,1.7,4.5,3.9
	c1.3,3.1,3.4,5.8,3.8,9.2c0.6,4.4-0.5,8.3-2.9,11.9c-1.1,0.6-1,2-2.1,2.6c-0.6,0.5-1.4,1-1.8,1.6c-1.8,2.6-4.5,3.2-7.3,3.5
	c-2.7,0.3-5.4,0.9-8.2,0.2c-0.6-0.6-1.7-0.9-1-2.1c0.5-0.4,1-0.4,1.6-0.2c4,0.9,7.6-0.5,11.2-2.1c0.3-0.2,0.4-0.5,0.5-0.8
	c0.3-0.7,0.8-1.2,1.4-1.6c5.8-4.6,6.1-12.5,3.1-18c-0.3-0.6-0.8-1.2-1-1.9c-0.1-0.5-0.1-0.9,0-1.4c0.4-1.2-0.5-1.1-1.2-1.2
	c-1-0.2-1.8-0.9-2.5-1.5c-1.1-0.9-2.4-1.3-3.6-1.9c-0.3-0.2-0.6-0.5-0.9-0.8c-0.1-0.1-0.2-0.3-0.2-0.4C151.6,3.2,151.8,3.1,152,3z"
	/>
<path class="st5" d="M61.6,180.2c0.7,1.1,0.1,2.5,0.7,3.7c0.1,1-0.5,1.9-0.4,2.8c-0.5,1.6,0.5,3.1,0.4,4.7c-0.2,0.5,0,1.2-0.4,1.7
	c-1.5,1.5-3.3,3-5.4,2.3c-2.3-0.8-4.5-2.1-5-5c-0.5-2.7,0.3-4.8,2.3-6.5c0.6-0.5,1.4-0.9,2.1-1.4c0.1-0.1,0.4-0.2,0.3-0.3
	c-0.1-2.1,1.6-2.7,3-3.4c0.6-0.1,1,0.2,1.3,0.6c0.4,0.7,0.3,1.6,0.5,2.4C61.1,181.2,61,180.6,61.6,180.2z"/>
<path class="st6" d="M152.7,4.3c1.8,0.5,3.4,1.2,4.7,2.5c0.4,0.4,0.9,0.8,1.5,0.9c0.3,0.2,0.2,0.5,0.1,0.8c-0.4,0.4-0.9,0.3-1.3,0.3
	c-0.6-0.1-1.2-0.4-1.7-0.7c-3.6-2.4-7.6-2.3-11.5-1.3c-5.3,1.4-8.9,6-9.1,11.5c-0.1,2.1,0,4.1,0.6,6.1c0.2,0.6,0.3,1.2,0,1.8
	c-0.7,0.9-1.1,0.3-1.5-0.3c-1.9-2.9-1.6-6-0.9-9.2c-0.4-0.2-0.9,0.2-1.3,0c-0.5-0.2-1-0.6-0.6-1.1c0.9-1,0.6-2,0.3-3.1
	c0.2-0.7,0.5-1.2,1-1.7c0.4-0.8,0.9-1.5,1.5-2.2c0.9-0.6,1.8-1.2,2.5-2.1c1.9-1.8,4.2-2.9,6.7-3.6c2,0,3.9,0,5.9,0
	c0.8,0,1.5,0,2.1,0.7l0,0C152,3.9,152.4,4,152.7,4.3z"/>
<path class="st7" d="M181,115.4c-3,4.5-6.9,7.7-12.5,8.7c-2.1,0.4-4,0.8-6.1,0.5c-1.4-0.2-2.8-0.6-4.1-1.3c-0.2-0.4-0.7-0.5-0.8-1
	c0.1-0.7,0.6-0.8,1.2-0.9c2.2-0.3,4.4,0.4,6.6,0.3c2.7-0.1,5.2-0.8,7.2-2.7c3.1-2.4,5.3-5.4,6.5-9.2c0.1-0.3,0.3-0.6,0.6-0.8
	c0.8-0.3,1.3-0.1,1.3,0.8c0,0.5,0,1.1,0.5,1.5c0.2,0.1,0.4,0.3,0.5,0.5c0,0.2,0,0.5-0.1,0.7l0,0C181,113.5,181.6,114.6,181,115.4z"
	/>
<path class="st8" d="M132.1,12.5c1.5,1.4,1.5,2.4,0,3.3c1.2,0.5,1.2,0.5,2.1-0.8c0.4,0.6,0.4,1.4,0.2,1.9c-1,2.5-0.8,5,0,7.4
	c0.2,0.7,0.4,1.6,1.4,1.8c1,0.1,1.2,1,1.7,1.7c0.3,0.6,0.8,1,1.3,1.4c1.4,1.8,3.5,2.8,5.4,4c0.4,0.7,1.5,1,1,2.1
	c-0.1,0.1-0.1,0.1-0.2,0.2c-0.6,0-1.1,0-1.7,0c-0.9,0.7-1.1-0.4-1.7-0.7c-0.5-0.4-1-0.8-1.5-1.1c-2-1.2-2.6-1.2-4.5,0.4
	c-0.4-1.1-1.1-2-1.1-3.2c0.4-1.3-0.6-1.9-1.2-2.7c-0.8-1.2-2.2-2-2.3-3.7c-0.5-3.3-0.2-6.7-0.2-10C131.4,14,131.7,13.3,132.1,12.5z"
	/>
<path class="st9" d="M149.1,99.1c0.9-3.8,3.5-6.1,6.9-7.7c2.7-1.3,5.5-1,8.3-1.1c0.6,0,1.2,0,1.8-0.1c0.9-0.1,1.8,0.1,2.7,0.4
	c0.4,0.1,0.8,0.3,1.2,0.4c0.5,0.2,1,0.5,1.5,0.6c1.1,0.6,2.3,1.3,3.1,2.3c0.1,0.6,1,1.2-0.1,1.7c-1,0.1-1.7-0.5-2.4-0.9
	c-4.2-2.3-8.4-2.5-12.8-0.6c-2.5,1.1-4.3,3-5.9,5.2c-0.6,0.8-0.9,1.8-1.9,2.2c-1-0.1-1.1-1-1.5-1.7c0,0,0.2-1-0.3-0.1
	C149.2,100,149.3,99.3,149.1,99.1z"/>
<path class="st10" d="M170,91.4c-0.4,0-0.7,0-1-0.3c-0.2-0.7-0.5-1.4,0.7-1l0,0c0.6,0.6,1.4,0.3,2,0.7c4.2,1.3,7.5,3.7,9.3,7.9
	c0.9,2.9,1.7,5.8,1.2,8.8c-0.3,0.7-0.3,1.4-0.2,2.1c-0.1,0.8,0.3,1.7-0.3,2.4c-0.2,0-0.4,0-0.7,0c-0.6-1.4-0.4-2.9-0.6-4.3
	c-0.1-1.2-0.4-2.3-1.1-3.4c-0.2-0.3-0.2-0.7-0.3-1c0.2-1.1-0.3-2.1-0.6-3.1c-0.4-1.9-1.9-3.1-3-4.5c-0.3-0.6-0.7-1.1-1.1-1.6
	c-1-0.7-2-1.4-3-2C171,91.7,170.5,91.6,170,91.4z"/>
<path class="st11" d="M149.1,99.1c0.2,0.2,0.4,0.4,0.6,0.7c0.1,0,0.1,0.1,0.2,0.1c0.4,0.6,0.3,1.4,0.7,2c0.1,0.3,0.1,0.6,0.1,0.9
	c0.4,2.4,0.1,4.8,0.2,7.2c0.1,1.9,0.9,3.6,1.8,5.3c0.7,0.8,2,0.9,2.6,2c0.1,0.1,0.2,0.3,0.2,0.4c0.1,1.3-0.5,1.7-1.7,1.2
	c-0.4-0.2-0.7-0.2-1.2,0c-1.4,0.5-1.9,0.1-1.6-1.5c0-0.3,0.1-0.5-0.1-0.8c-0.1-0.2-0.2-0.4-0.2-0.6c0-0.4-0.3-0.8-0.6-1
	c-1.4-1.1-1.2-2.8-1.8-4.3c-0.1-0.5-0.3-1.1-0.4-1.6c-0.3-1.8-0.1-3.6-0.1-5.5c0.2-0.9,0.8-1.7,0.8-2.6c0-0.3,0.1-0.7,0.4-0.9
	c0.3-0.1,0.2-0.5,0.3-0.7C149,99.2,149,99.2,149.1,99.1z"/>
<path class="st12" d="M149.1,247.7c0.1-0.4,0.2-0.6,0.6-0.7c0.5-0.1,0.9-0.4,1-0.7c0.6-2.4,1.6-4.9,0.9-7.4
	c-0.3-1.2-1.5-1.8-2.8-2.1c-2-0.4-4-0.1-6,0c-1.3,0-2.4-0.7-2.4-2c0-3-0.2-6,0.7-9c0.5-1.6,1.8-1.3,3-1.3c-0.5,0.6-1.4,0.6-1.7,1.3
	c-0.4,0.4-0.2,1-0.7,1.3l0,0c-0.5,2-0.3,4-0.3,6c0,0.9,0.5,1.7,1,2.4c2,0.6,4,0.4,6,0.6c1.9,0.2,3.6,1.3,4,3c0.5,2.3,1,4.6-0.6,6.7
	C151.3,246.9,150.5,247.8,149.1,247.7z"/>
<path class="st13" d="M83.9,59.4c0,1.7,0,3.4,0,5.1c1-0.8,0.6-1.9,0.7-2.8c0.1-1.2,0-2.3,1.4-2.9c1,1.3-0.3,2.5-0.2,3.8
	c-1,3.7-1.3,7.5-0.7,11.3c-0.1,0.9,0.1,1.9,0.2,2.8c0,0.3-0.1,0.6-0.3,0.8c-0.4,0.2-0.7,0.2-1.1-0.1l0,0c-0.3-0.8-0.1-1.6-0.2-2.4
	c0,0,0.2-0.4-0.2-0.2C82.4,69.7,82.6,64.6,83.9,59.4z"/>
<path class="st14" d="M124.8,115.4c-0.7-3.9-0.3-7.9-0.3-11.9c0-1.4,1.1-1.7,2.3-0.9c-1.1-0.1-1.4,0.5-1.4,1.5
	c0.1,3.1,0.1,6.1,0.1,9.2c0,1.1,0.8,1.3,1.6,1.2c1.2-0.1,2.2,0.1,3,1c-1.7,0.9-3.5,0-5.2,0.3C124.5,115.9,124.6,115.7,124.8,115.4z"
	/>
<path class="st15" d="M74.8,132.6c1,0.3,1.6,0.9,0.6,1.8c-0.6,0.6-0.6,1.3-0.8,1.9c-0.5,1.5-1.2,1.7-2.3,0.6c-0.2-0.2-0.6-0.4-1-0.6
	c0.6-0.5,1.1-1,1.2-1.8C73,133.6,73.7,132.8,74.8,132.6z"/>
<path class="st16" d="M181.7,112c0-0.9,0-1.8,0-2.7c-0.3-0.6-0.3-1.1,0-1.7c0-1.8-0.1-3.6,0-5.4c0.1-1.3-1.1-2.3-0.7-3.6
	c1.5,2.9,2.1,6.1,1.9,9.4c-0.4,0.4-0.2,1-0.6,1.4c-0.2,1.1,0.3,2.3-0.7,3.3C181.7,112.5,181.7,112.3,181.7,112z"/>
<path class="st17" d="M124.7,232c0.1-0.1,0.2-0.1,0.2-0.2c3.5-0.5,3.5-0.4,3.5,3c0,3.3,0,6.6,0,10c-0.9-0.3-0.6-0.9-0.6-1.3
	c0-3-0.1-6.1,0-9.1c0.1-1.6-0.4-2.2-2-2C125.4,232.4,125,232.6,124.7,232z"/>
<path class="st18" d="M151.7,3.7c-2,0-4,0-6.1,0c-0.7,0-1.5,0.1-1.9-0.7c0.3-0.4,0.7-0.6,1.1-0.6c2.4,0,4.9-0.6,7.2,0.7
	C151.9,3.2,151.8,3.4,151.7,3.7z"/>
<path class="st19" d="M166.4,90.7c-3.5,0-6.9,0.5-10.4,0.7c1.5-1.1,3.1-2,5-1.9c1.1,0.6,2.3,0.1,3.5,0.1
	C165.4,89.7,166.2,89.6,166.4,90.7z"/>
<path class="st20" d="M152.7,74.7c-0.4-0.3-0.3-0.8-0.3-1.2c0-4.5,0-8.9,0-13.4c0.7,1.5,0.6,3.1,0.9,4.7c-0.3,2.6-0.1,5.1-0.1,7.7
	C153.2,73.3,153.3,74.1,152.7,74.7z"/>
<path class="st21" d="M166.4,90.7c-0.8-0.8-1.8-0.6-2.7-0.6c-0.9,0-1.9,0.1-2.6-0.6c2.3-0.2,4.7-0.7,7-0.1c0.6,0.2,1.2,0.3,1.6,0.7
	c-0.8,0-0.4,0.7-0.7,1C168.1,91,167.2,90.9,166.4,90.7z"/>
<path class="st22" d="M136.8,118c0.2,0.6,1,0.7,1,1.4c-2.4-0.4-4.6-1.7-7-2.4c-0.7-0.2-0.3-0.6,0-1
	C132.9,116.2,134.9,116.9,136.8,118z"/>
<path class="st23" d="M106.5,234.4c-0.7-0.2-0.6-0.8-0.6-1.3c0-0.7,0.2-1.6-0.1-2.1c-0.9-1.5,0.9-1.7,1-1.7c1.2,0.6,2.7,0,3.7,1.1
	c-0.9,0.2-1.7-0.1-2.6-0.2c-1-0.1-1.4,0.2-1.4,1.2C106.6,232.3,106.5,233.4,106.5,234.4z"/>
<path class="st24" d="M130.8,14.6c0.6,1.4,0.2,2.8,0.3,4.2c0.1,1.9,0,3.9,0,5.8C130.1,21.3,130.4,18,130.8,14.6z"/>
<path class="st25" d="M151.1,115.7c0,0.2,0,0.4,0,0.6c-0.2,0.5-0.2,1.2-0.6,1.7c-0.1,0.1-0.3,0.1-0.4,0c0.2-1.2-0.2-2.4-0.9-3.2
	c-1.1-1.3-1-2.7-1.1-4.1c0.6,0.7,0.9,1.6,1.2,2.5c0.2,0.7,0.5,1.2,1.1,1.5C150.7,115,150.8,115.4,151.1,115.7z"/>
<path class="st26" d="M110.5,34.2c-2.1,1.2-4.2,2.1-6.7,2C105.8,34.8,108,34.1,110.5,34.2z"/>
<path class="st27" d="M88.8,87.1c-1.9-0.5-1.9-2.4-2.5-3.7c0.3-0.6,0.7-0.5,1.2-0.4c0.3,0.1,0.6,0.3,0.8,0.6c0.7,0.9,1.1,2,0.9,3.2
	C89.1,87,88.9,87.1,88.8,87.1z"/>
<path class="st28" d="M142.4,235.5c-0.6-0.2-0.9-0.7-1-1.2c-0.4-2.4-0.7-4.8,0.3-7.1c0,1.3,0,2.5,0,3.8
	C141.7,232.4,141.7,234,142.4,235.5z"/>
<path class="st29" d="M93.2,91.4c-0.2,0.2-0.5,0.5-0.7,0.7c0,0,0,0,0,0c-1.2-1-2.1-2.3-3.2-3.4c-0.2-0.5-0.3-1.1-0.5-1.6
	c0,0,0.1,0,0.1,0c0.2-0.1,0.5,0,0.7,0.1c1.5,0.6,2.1,2,3.2,3C93.2,90.5,93.6,90.8,93.2,91.4z"/>
<path class="st30" d="M151.8,245.7c1-2.1,0.5-4.4,0.6-6.7C153.9,242,153.7,243.9,151.8,245.7z"/>
<path class="st31" d="M130.8,35.6c-0.5,0-0.9,0.1-1.3-0.3c1.6-1.6,3.1-3.1,4.7-4.7c0.3-0.1,0.4,0.1,0.5,0.3c0,1.2-1.1,1.7-1.7,2.5
	c-0.5,0.6-1,1-1.5,1.6C131.3,35.3,131.1,35.5,130.8,35.6z"/>
<path class="st32" d="M152.7,74.7c0.6-2.6,0.2-5.3,0.3-8c0-0.6-0.2-1.3,0.3-1.9c0,3.2,0,6.5,0,9.7c0,0.5,0.1,1.1-0.3,1.6
	C153,75.7,153.1,75.1,152.7,74.7z"/>
<path class="st33" d="M141.8,34.9c0.6,0.1,1,0.8,1.7,0.7c0,0.8,0.8,1.2,1,1.9c-1.5-1-3.4-1.2-5-1.9c0.7,0,1.3,0,2,0
	C141.8,35.5,141.9,35.3,141.8,34.9z"/>
<path class="st34" d="M83.9,77.5c0.4,0,0.7,0,1.1,0c1.3,0.4,1.1,1.5,1.1,2.4c-0.1,0.6,0,1.2-0.6,1.6C84.6,80.3,84.2,78.9,83.9,77.5z
	"/>
<path class="st35" d="M189.4,172.5c-3.3,0-6.7,0-10,0c-0.2,0-0.4-0.1-0.6-0.1c0.2-0.1,0.4-0.2,0.5-0.4c2.7,0,5.4,0.1,8,0.1
	C188,172.2,188.7,172,189.4,172.5z"/>
<path class="st36" d="M78.6,129c0,0.4,0.1,0.8-0.1,1.1c-0.3,0.5-0.6,1.9-1.4,0.3c-0.2-0.5-0.8-0.3-1.2-0.4c0.4-0.4,0.8-0.7,1.3-1.1
	c0.2-0.2,0.4-0.3,0.7-0.3C78.2,128.6,78.4,128.8,78.6,129z"/>
<path class="st37" d="M150.1,118c0.1,0,0.2,0,0.3,0c0.1,1.6-1.7,3.4-3.4,3.4c-0.3-0.2,0-0.4,0-0.7
	C147.8,119.5,148.9,118.8,150.1,118z"/>
<path class="st38" d="M60.3,179.5c-0.3-0.2-0.7-0.4-1-0.6c-0.2,0.2-0.3,0.1-0.4-0.1c0.2-0.2,0.5-0.4,0.7-0.6c0.8,0-0.1-1.2,0.8-1
	c0.7,0.1,0.9,0.7,0.9,1.4C60.9,178.9,61.2,179.8,60.3,179.5z"/>
<path class="st39" d="M59.9,161.9c0,0.2,0,0.5,0,0.7c0.5,2.6,0.4,5.2,0.2,7.8c-0.1,0.2-0.3,0.2-0.5,0.1c0-2.4-0.1-4.9-0.1-7.3
	C59.4,162.7,59.4,162.2,59.9,161.9z"/>
<path class="st40" d="M89.3,88.8c0.5,0,1.1,0,1.3,0.7c0.3,1.1,1.7,1.5,2,2.7C91,91.4,89.8,90.4,89.3,88.8z"/>
<path class="st41" d="M58.9,178.8c0.1,0,0.3,0,0.4,0.1c-0.4,0.3-0.7,0.7-1.1,0.9c-1,0.3-1.6,0.9-1.6,2c0,0.5-0.3,0.7-0.7,0.7
	C56.3,180.8,56.6,179,58.9,178.8z"/>
<path class="st42" d="M77.9,128.9c-0.2,0-0.5,0-0.7,0c-0.7-0.9-2-0.6-2.7-1.6c0.8,0,1.6,0,2.4,0C77.8,127.5,78.5,127.8,77.9,128.9z"
	/>
<path class="st43" d="M85.5,81.5c0.2-0.5-0.3-0.9,0.1-1.4c1.3,0.5,1.9,1.6,1.7,3.3c-0.3-0.1-0.7-0.2-1,0c0,0,0,0,0,0
	c-0.3-0.4-0.3-0.9-0.6-1.3C85.6,81.9,85.5,81.7,85.5,81.5z"/>
<path class="st44" d="M134.4,30.9c-0.1-0.1-0.2-0.2-0.3-0.3c0-0.9-0.5-1.6-0.8-2.4c1,0.6,2.5,0.9,1.7,2.6
	C134.9,31.1,134.7,31.1,134.4,30.9z"/>
<path class="st45" d="M61.9,153.6c0.4,1.3,0.5,2.6-0.6,3.7C61.2,156,61.1,154.7,61.9,153.6z"/>
<path class="st46" d="M137.1,6.6c0.1,1.6-1.5,1.6-2.3,2.4c-0.2-0.2-0.2-0.5,0.1-0.6C135.4,7.5,136,6.8,137.1,6.6z"/>
<path class="st47" d="M176.7,161.8c0.5,1.2,0.3,2.3,0.3,3.5C176.2,164.3,176.2,164.1,176.7,161.8z"/>
<path class="st48" d="M158.8,122c-0.5,0-0.9,0-1,0.7c-0.1,0.2-0.2,0.2-0.4,0.1c-0.5,0-1.1,0-1.6,0c0-0.9,1.4-0.5,1.4-1.4
	c0.4-0.4,0.8-0.4,1.3-0.2C158.7,121.3,158.9,121.6,158.8,122z"/>
<path class="st17" d="M127.7,245.8c0.6,0,0.7,0.4,0.7,0.9c0,0.3,0.1,0.8-0.3,0.8c-0.5,0-0.9-0.5-0.9-1
	C127.1,246.1,127.3,245.8,127.7,245.8z"/>
<path class="st49" d="M147.8,103c0,2-0.1,4-0.1,6c-0.5-2.1-0.4-4.3,0-6.4c0.1,0.1,0.2,0.1,0.1,0.2C147.8,103,147.8,103,147.8,103z"
	/>
<path class="st50" d="M63.2,107.7c0,2,0,4,0,6C62.7,111.7,62.7,109.7,63.2,107.7z"/>
<path class="st51" d="M-268.8,283c0-4.7-0.1-9.4-0.1-14.1C-266.9,273.6-266.8,278.3-268.8,283z"/>
<path class="st52" d="M134.9,8.3c0,0.2,0,0.4-0.1,0.6c-0.6,0.6-1.1,1.3-1.7,1.9C133.1,9.6,133.6,8.7,134.9,8.3z"/>
<path class="st53" d="M161.7,32.2c0.7-0.9,0.6-2.3,2.1-2.6C163.1,30.5,163.1,31.9,161.7,32.2z"/>
<path class="st54" d="M163.7,135.3c-1.1-0.3-2.3-0.3-2.6-1.7C161.9,134.3,163.1,134.3,163.7,135.3z"/>
<path class="st55" d="M70.6,96.1c0,1.4-0.6,2.1-2,2C69.2,97.4,69.9,96.7,70.6,96.1z"/>
<path class="st56" d="M126.5,231.1c0.9-1,1.8-1.2,2.6,0.1C128.2,231.1,127.3,231.1,126.5,231.1z"/>
<path class="st16" d="M181,115.4c0.2-0.9-0.7-2.1,0.7-2.7C181.5,113.6,181.9,114.7,181,115.4z"/>
<path class="st57" d="M83.2,239.3c0,1.6,0,3.2,0,4.7C82.7,242.5,82.6,240.9,83.2,239.3z"/>
<path class="st58" d="M83.5,74.9c0-0.5,0-1.1,0-1.6c0.1,0,0.2,0,0.3,0c0,1.4,0,2.8,0,4.2C83.2,76.7,83.6,75.7,83.5,74.9z"/>
<path class="st59" d="M87.2,222.5c1-0.1,1.7,0.3,2,1.3C88.3,223.6,87.7,223.2,87.2,222.5z"/>
<path class="st60" d="M154.4,218.4c0.4-1.1,1.2-1.4,2.3-1.3C156.2,218,155.1,218,154.4,218.4z"/>
<path class="st61" d="M73.8,211.2c1.1,0.2,1.5,0.9,1.4,1.9C74.5,212.6,74.2,211.9,73.8,211.2z"/>
<path class="st62" d="M61.9,193.1c0.2-0.4-1.2-0.8,0-1.2c0.2-0.2,0.4-0.2,0.7,0c0,0.3,0,0.7,0,1C62.4,192.9,62.2,193,61.9,193.1z"/>
<path class="st9" d="M147.8,103c0-0.1-0.1-0.2-0.1-0.4c0-0.6,0.3-1.2,0.7-1.7C148.9,101.8,148.6,102.5,147.8,103z"/>
<path class="st22" d="M139.7,118.7c-0.9,0.1-1.5-0.8-2.4-0.7C138.4,117.5,139.2,117.6,139.7,118.7z"/>
<path class="st63" d="M156.8,216.5c0.4-0.8,0.9-1.4,1.9-1.4C158.2,215.7,157.7,216.4,156.8,216.5z"/>
<path class="st64" d="M158.4,130.6c-1,0.1-1.5-0.2-1.4-1.3C157.6,129.7,158.1,130.1,158.4,130.6z"/>
<path class="st65" d="M59.6,170.5c0.1,0,0.2,0,0.4,0c0.4,0.6,0.2,1.1,0,1.7c-0.2,0-0.4,0-0.6,0C59.3,171.6,59.2,171.1,59.6,170.5z"
	/>
<path class="st66" d="M59,172.9c0.5,1.1,0.2,2.2,0.2,3.4C58.7,175.2,59,174,59,172.9z"/>
<path class="st21" d="M171.7,90.7c-0.7-0.1-1.7,0.5-2-0.7C170.5,90,171.2,90.2,171.7,90.7z"/>
<path class="st67" d="M147.4,49.5c-1,0-1-0.7-1-1.4C147.1,48.3,147.1,49,147.4,49.5z"/>
<path class="st18" d="M155.7,3.6c-0.7-0.1-1.6,0.4-2-0.6C154.5,2.9,155.1,3.2,155.7,3.6z"/>
<path class="st68" d="M137.1,39.5c-1.1-0.6-0.9-1.3-0.1-2C136.9,38.2,136.8,38.8,137.1,39.5z"/>
<path class="st69" d="M182.4,109.4c0-0.6-0.2-1.2,0.6-1.4C183.1,108.6,183.1,109.2,182.4,109.4z"/>
<path class="st70" d="M151.1,82.2c0-0.6-0.2-1.3,0.7-1.4C151.8,81.4,151.6,81.9,151.1,82.2z"/>
<path class="st28" d="M141.7,227.1c0-0.6,0.2-1,0.7-1.3C142.4,226.3,142.6,227,141.7,227.1z"/>
<path class="st71" d="M113.1,34.2c-0.8,0-1.6,0-2.3,0c0.7-0.5,1.5-0.3,2.3-0.4c0.1,0.1,0.1,0.2,0.1,0.2
	C113.2,34.2,113.2,34.2,113.1,34.2z"/>
<path class="st9" d="M149,99.3c0,0.4,0.5,0.8,0.1,1.1c-0.2,0.2-0.3-0.2-0.4-0.4C148.7,99.7,148.8,99.5,149,99.3z"/>
<path class="st72" d="M-279.2,294.8c1.3-0.9,2.5-2,4.2-1.9C-275.5,295.5-277.5,294.9-279.2,294.8z"/>
<path class="st73" d="M113.1,34.2c0-0.1,0-0.2,0-0.4c0.4-0.3,0.9-0.3,1.4-0.2C114.1,34,113.7,34.2,113.1,34.2z"/>
<path class="st74" d="M82.3,92c-0.7,0-1.4,0-2.1,0C80.9,91.6,81.6,91.6,82.3,92z"/>
<path class="st75" d="M-268.9,268.9c-2.5-0.4-2-2.4-2-4C-269.6,265.9-269,267.3-268.9,268.9z"/>
<path class="st76" d="M140.8,41.5c-0.5,0.1-1,0-1-0.7C140.2,40.9,140.6,41.1,140.8,41.5z"/>
<path class="st77" d="M153.1,219.2c0-0.7,0.5-0.7,1-0.7C153.9,218.9,153.5,219.1,153.1,219.2z"/>
<path class="st78" d="M86.1,221.8c0.5-0.1,1,0,1.1,0.7C86.7,222.5,86.4,222.2,86.1,221.8z"/>
<path class="st79" d="M144.4,224.4c0.1-0.6,0.6-0.7,1.1-0.6C145.2,224.2,144.9,224.4,144.4,224.4z"/>
<path class="st80" d="M78.5,92.7c-0.1,0.7-0.5,0.7-1.1,0.7C77.7,93,78.1,92.8,78.5,92.7z"/>
<path class="st81" d="M157.3,122.7c0.1,0,0.3,0,0.4-0.1c0.4,0.1,0.6,0.3,0.6,0.7C157.9,123.4,157.6,123.1,157.3,122.7z"/>
<path class="st27" d="M85.6,82.1c0.5,0.3,0.6,0.8,0.6,1.3C85.8,83.1,85.6,82.7,85.6,82.1z"/>
<path class="st82" d="M111.8,212.1c-4.7-3.9-5.7-9.5-7-14.9c-0.3-0.9-0.3-1.8,0.3-2.7c0-0.2,0.1-0.4,0.1-0.7c0.3-0.6,1-1.2,0.6-2
	c0.3-4.4,1.8-8.2,5.1-11.4c1.5-1.5,3-2.7,5.1-3c2.7-0.5,5.3-0.3,7.3,1.8c1.8,1.8,4.1,3.2,5.1,5.6c1.9,4.6,3.1,9.4,2.3,14.4
	c-0.4,2.4-1,5-2.2,7.2c-0.3,0.4-0.2,1.1-0.7,1.3c-1.2,1-1.7,2.7-3.2,3.4c-1,0.2-1.7,1.6-3.1,0.6c0.3,0.5,0.9,0.8,0.4,1.3
	c-2.9,1.4-5.7,1.6-8.6,0C112.7,212.8,112.1,212.6,111.8,212.1z"/>
<path class="st83" d="M66.6,108c1.4-5.2,4.6-8.9,9.6-11c1.8-0.8,3.6-0.4,5.5-0.5c0.7,0,1.4,0.1,2.1-0.1c2.4,0.1,4.3,1.3,6.2,2.5
	c1,0.9,2.2,1.7,2.8,3c0.1,0.7,0.6,1.2,0.8,1.9c0,0.2,0-0.1,0,0.2c0,0.3-0.5,1,0.5,0.6c0.7,0.8,1.3,1.6,1.6,2.6c0.1,1.5,0,3,0,4.5
	c0,0.4,0,0.7-0.1,1.1c-0.3,1.1-0.7,2.1-1.6,3c-0.8,0.7-0.3,1.9-0.8,2.7c-1.4,1.4-3.2,2.1-4.9,2.9c-1.3,0.5-2.5,1.1-3.5,2.1
	c-1.8,1.8-4.1,2.2-6.4,1.6c-2.6-0.7-5.2-1.6-7.1-3.6c-0.4-0.4-0.8-0.8-1.4-0.9c-1.4-0.2-1.3-1.5-1.8-2.3
	C66.2,115.2,65.4,111.7,66.6,108z"/>
<path class="st84" d="M93.2,91.4c0-0.5-0.5-0.7-0.7-1c-0.5-1.2-1.9-2.4-0.3-3.8c0.9-0.2,1.1-1.4,2.2-1.4c1.7,0.7,2,2.6,3.2,3.8
	c1.1,1.2,2.5,2.2,3.9,3c2.5,0.7,4.7,2.2,7.1,3.1c7.2,2.6,14.1,2.1,20.9-1.1c1.8-0.8,3.6-1.5,5-2.8c0.7-0.5,1.7-0.8,2.1-1.6
	c6.5-5.8,9.3-13.1,9.7-21.6c0.1-1.9-0.6-3.7-0.6-5.6c0.2-0.7-0.2-1.6,0.7-2c1.3,0.3,1,1.7,1.7,2.4c0.8,3.1,0.9,6.2,0.7,9.4
	c-0.2,5.1-1.7,9.7-4.7,13.9c-0.2,0.2-0.3,0.5-0.5,0.6c-1.1,0.6-1.4,1.6-1.5,2.7l0,0c-0.5,0.4-1,0.8-1.3,1.3
	c-2.2,2.9-4.9,5.2-8.3,6.7c-0.4,0.2-0.8,0.3-1,0.6c-1.1,0.4-2.2,0.9-3.3,1.3c-0.7,0.4-1.4,0.8-2,1.3c-1.2,0.5-2.5,0.7-3.9,0.6
	c-1.4,0-2.1,0.7-2.1,2c-0.1,3.5,0,7.1-0.1,10.6c0,0.9,0.5,1.2,1.2,1.3c1,0.1,2.1,0.1,3.1,0.2c0.1,0.2,0.1,0.4,0.2,0.6
	c-1.2,0-2.4,0-3.5,0c0.5,1,1.3,0.5,1.9,0.8c-1.2,0.8-2,0.8-2.9-0.3c-0.2-0.2-0.4-0.4-0.7-0.3c-1.6,0.8-1.3-0.4-1.3-1.2
	c0-2.7-1.1-5.3-0.9-8c-0.6,0.7-0.4,1.6-0.4,2.3c0,0.8,0.3,1.8-0.1,2.5c-0.7,1.4-1.3,2.6,0.4,3.7c0.4,0.3-0.4,1-0.5,1.7
	c-0.6-0.3-1-0.6-1.5-0.9c-0.8-0.4-1-0.8-0.6-1.8c0.6-1.3,0-2.8,0.2-4.2c0.1-1.1-0.1-2.2,0.3-3.3c0.6,1.5,0.1,3.2,0.8,4.7
	c0-2.6,0-5.1,0-7.8c-0.8,0.5-0.2,1.4-0.8,2c-0.5-1-0.5-2.1-0.1-2.8c1-2-0.3-1.6-1.4-1.7c-0.1,0.8,1.1,1,0.7,1.7
	c-0.3,0.5-0.9,0.2-1.4,0.3c-0.5-0.5-0.6-1.4-1.5-1.6c-2.9-0.5-5.7-1.8-8.8-1.6c-0.8-0.1-1.4-0.5-2-1c-0.3-0.7-1.1-0.7-1.6-1.1
	c-0.2-1.2-0.8-0.4-1.3-0.3c-0.3,0.1-0.7,0.1-1,0c-1.2-0.5-1-1.3-0.6-2.2c0.3-0.7,0.8-0.6,1.1-0.5c-0.6-0.1-0.8-0.7-0.7-1.5
	c0.1-0.9-0.4-1.4-1.1-1.8c-0.6-0.4-0.4,0.3-0.6,0.4C94.4,92.3,93.8,91.9,93.2,91.4z"/>
<path class="st85" d="M128.5,207.1c1.4-1.2,1.7-2.9,1.9-4.5c0.1-1,0.5-1.7,1.4-2.4c0,2.5,0,5,0,7.5c0,0.4-0.2,0.8-0.7,0.7
	c-0.8-0.2-0.1-0.6,0-0.9c0.1-0.4,0.1-0.8-0.4-0.9c-0.4-0.1-0.6,0.1-0.8,0.4c-1.1,1.5-0.9,2.6,0.8,3.5c0.4,0.3,1,0.5,0.9,1
	c-0.1,0.6-0.7,1.1-1.2,1.3c-0.7,0.2-0.9-0.4-1.1-0.9c-0.2-0.4-0.3-0.7-0.8-0.7c-1.7-0.1-1.4-0.8-0.6-1.9c0.3-0.4,1.2-0.6,0.7-1.5
	C128.2,207.6,128.3,207.4,128.5,207.1z"/>
<path class="st86" d="M66.6,108c-0.3,4.6,0.6,8.9,3.3,12.7c-0.1,0.2-0.2,0.4-0.3,0.6c-2.7-3.2-4.5-6.7-4-11.1
	C65.7,109.4,66,108.7,66.6,108z"/>
<path class="st87" d="M96.5,108c1.1,2.4,0.7,5,0.6,7.7c-0.5-0.4-0.9-0.7-1.3-1c-0.7-0.6-0.4-1.3-0.3-2c0-1.2,0-2.5,0-3.7
	C95.6,108.4,95.8,108,96.5,108z"/>
<path class="st88" d="M124.5,212.5c0.1,0.5,0.4,0.7,0.8,0.7c0.7,0,1.2,0.2,1.2,1c0,0.6,0.3,1.4-0.5,1.5c-0.7,0.2-1.6,0.3-2.3,0
	C122.8,215.3,123.5,213,124.5,212.5L124.5,212.5z"/>
<path class="st89" d="M96.5,108c-0.2,0.2-0.4,0.4-0.7,0.6c-0.4-0.3-0.3-0.8-0.3-1.2c0-0.8-0.3-1.5-0.7-2.2c-0.2-0.6-0.3-1.3-0.2-1.9
	c0.3-0.6-0.2-1.9,1.2-1.5c0.4,0.7,0.8,1.3,1.2,2c0.6,0.9,0.9,1.9,0.1,2.9C96.6,107,96.5,107.5,96.5,108z"/>
<path class="st90" d="M65.2,151c0,1.4,0,2.7,0,4.1c0,0.7-0.5,1.1-1.1,1.4c-0.3,0.1-0.6,0.1-0.7-0.2c-0.3-0.5-0.1-1,0.1-1.6
	c0.5-1.2,0.9-2.4,1.4-3.7C65,151,65.1,151,65.2,151z"/>
<path class="st91" d="M61.3,186.5c-0.2-1.1,0.1-2,1-2.7c0.1,0,0.2,0,0.3,0c0.8,1.6,1.5,3.2,0.7,5l0,0c-0.2,0.4-0.5,0.7-1,0.6
	c-0.5-0.1-0.6-0.6-0.6-1C61.6,187.7,61.6,187.1,61.3,186.5z"/>
<path class="st92" d="M97.2,106.7c0.5-1.8-1-3.1-1.3-4.7c-0.1-0.3,0-0.3,0.2-0.3c0.4,0.5,0.8,1.1,1.1,1.6c0.6,0.9,1.1,1.8,0.8,2.9
	c-0.3,1.2,0.4,2.2,0.6,3.4c0.2,0.4,0.2,0.7-0.1,1c-0.1,0.3-0.3,0.6-0.4,0.8C98.2,109.9,97.2,108.4,97.2,106.7z"/>
<path class="st93" d="M112.9,103.4c-1.9-0.6-3.8-1.1-5.7-1.7c0.3-0.6,0.9-0.8,1.5-0.7c1.2,0.2,2.4,0.1,3.5,0.3c1.1,0.3,1.2,1.1,1,2
	C113.1,103.4,113,103.4,112.9,103.4z"/>
<path class="st84" d="M113.1,112c0-1.9,0-3.8,0-5.7c0.2,0,0.4,0,0.5,0c0.4,2.5-0.4,5.1,1.1,7.5c-0.8-0.1-1.2-0.6-1.7-0.5
	C112.7,112.9,112.8,112.5,113.1,112z"/>
<path class="st94" d="M59.9,172.2c0-0.6,0-1.1,0-1.7c0-2.7,0-5.3,0-8C60.9,165.8,61,169,59.9,172.2z"/>
<path class="st95" d="M101.8,115.4c1.9-0.6,3.8-0.6,5.7-0.7c0.2-0.1,0.4-0.1,0.5,0c1.2,0.1,2.4,0,3.6,0.1c0.5,0,1.1-0.2,1.5,0.4
	c-0.1,0.3-0.2,0.5-0.5,0.5C109,115.1,105.4,115.5,101.8,115.4z"/>
<path class="st96" d="M61.3,186.5c0.5,0.4,0.7,1,0.7,1.6c0,1.1,0.5,1.2,1.3,0.7c0,0.3,0,0.7,0,1c-0.2,0.6-0.5,1.1-0.7,1.7
	c0,0.1,0,0.2,0,0.3c-0.2,0-0.4,0-0.7,0C61.7,190.1,61,188.4,61.3,186.5z"/>
<path class="st97" d="M155.7,206.4c-1.1,2-2.2,4-4.6,4.7C152.4,209.3,153.9,207.7,155.7,206.4z"/>
<path class="st98" d="M60.3,179.5c0.3-0.3,0.7-0.7,1-1c0.1,0.6-0.1,1.2,0.3,1.6c0,1,0,1.9,0,3.1C60,182.3,60.3,180.9,60.3,179.5z"/>
<path class="st99" d="M121.8,213.1c-0.3-0.8-2-0.9-1-2.6c1,2,2.4,0.6,3.7,0.6C123.9,212.2,122.7,212.5,121.8,213.1z"/>
<path class="st100" d="M121.5,176.3c-1.1-0.7-2.3-0.3-3.4-0.5c0.2-1.2,1-1.2,1.9-1.3C121.3,174.4,121,175.7,121.5,176.3z"/>
<path class="st101" d="M93.2,118.7c0.1-1.3-0.5-2.9,1.3-3.7c0.7-0.3,0.2-1.4,0.7-1.9c0.6,0.6,0.4,1.3,0.1,2
	C94.2,116,94.3,117.7,93.2,118.7z"/>
<path class="st96" d="M63.3,188.9c0.4-1.7-0.8-3.3-0.7-5C64.2,185.2,64.5,187.3,63.3,188.9z"/>
<path class="st102" d="M159.7,201.8c0.7,1.6,0,2.6-2,2.7C158.2,203.4,158.8,202.5,159.7,201.8z"/>
<path class="st92" d="M95.2,115c0-0.7,0-1.3-0.1-2c0-0.3,0.1-0.7,0.1-1c0.2-1.2,0-2.5,0.1-3.7c0-0.4-0.3-0.9,0.5-0.9
	c0,0.4,0,0.9,0,1.3c0,2,0,4,0,6C95.6,114.8,95.4,114.9,95.2,115z"/>
<path class="st103" d="M77.9,128.9c0.2-0.8-0.5-1.1-1-1.6c0.2-0.4-0.3-0.4-0.3-0.7c2.5,0.1,2.8,0.4,2,2.3
	C78.3,129,78.1,128.9,77.9,128.9z"/>
<path class="st104" d="M126.5,223.2c-0.7,0.7-1.5,0.6-2.4,0.6c-0.2-0.4-0.6-1.1,0.2-1.2C125,222.4,126,221.9,126.5,223.2z"/>
<path class="st105" d="M105.1,194.5c0.1,0.9,0,1.8-0.3,2.7C103.5,195.7,103.5,195.6,105.1,194.5z"/>
<path class="st106" d="M113.1,115.1c-1.8-0.2-3.6,0.3-5.4-0.3c1-0.5,2-0.1,3-0.2c0.6-0.1,1.2,0.3,1.7-0.3c0-0.1,0-0.2,0.1-0.2
	c0.2-0.2,0.4-0.2,0.6,0C113.3,114.4,113.6,114.7,113.1,115.1z"/>
<path class="st107" d="M156.4,133.3c0.9,0.7,1.6,1.6,2,2.7C157.3,135.4,156.3,134.7,156.4,133.3z"/>
<path class="st108" d="M103.1,223.1c-0.9,0-1.9-0.1-2.6-0.7c1.3,0,2.6,0,4,0C104.1,222.9,103.4,222.6,103.1,223.1z"/>
<path class="st109" d="M105.8,191.8c1,0.9,0.9,1-0.6,2C105.2,193.1,105.4,192.4,105.8,191.8z"/>
<path class="st110" d="M62.6,191.5c-0.1-0.7,0.1-1.2,0.7-1.7c0.8,0.5,1.2,1.1,1.3,2c-0.2-0.1-0.4-0.2-0.5-0.4
	C63.5,190.3,63.1,191,62.6,191.5z"/>
<path class="st111" d="M98.5,110.7c0-0.3,0-0.7,0.1-1c0.4,1.5,0.6,2.9,0,4.4C98.5,112.9,98.5,111.8,98.5,110.7z"/>
<path class="st112" d="M113.1,114.1c-0.2,0-0.4,0-0.6,0c0-0.7,0-1.3,0-2c0.2,0,0.4,0,0.6,0c0,0.4,0,0.9,0,1.3
	C113.1,113.6,113.1,113.8,113.1,114.1z"/>
<path class="st85" d="M124.5,212.5c0.4-0.8,1.4-0.9,1.8-1.6C126.2,211.9,125.4,212.3,124.5,212.5
	C124.5,212.5,124.5,212.5,124.5,212.5z"/>
<path class="st113" d="M111.8,212.1c0.6,0.1,1,0.5,1.3,1C112.4,213.2,111.8,213.1,111.8,212.1z"/>
<path class="st108" d="M105.2,223.7c-0.7,0-1.4-0.1-2-0.6C103.9,223.2,104.7,222.7,105.2,223.7z"/>
<path class="st84" d="M115,117.2c-0.9,0.2-1.2-0.1-1.1-0.9C114.2,116.6,114.5,116.9,115,117.2z"/>
<path class="st114" d="M167.7,185.8c0.1,0.8,0,1.5-0.6,2C167,187.1,167.1,186.4,167.7,185.8z"/>
<path class="st104" d="M129.2,222.5c-0.6,0.6-1.3,0.7-2,0.6C127.7,222.5,128.4,222.4,129.2,222.5z"/>
<path class="st115" d="M99.9,222.4c-0.7,0.1-1.2-0.1-1.7-0.6C98.8,221.9,99.6,221.5,99.9,222.4z"/>
<path class="st116" d="M163,196.8c0.1,0.8-0.3,1.3-1,1.7C162.2,197.8,162.4,197.2,163,196.8z"/>
<path class="st117" d="M131.8,221.8c-0.4,0.7-1,0.6-1.7,0.6C130.6,221.9,131.1,221.7,131.8,221.8z"/>
<path class="st118" d="M128.5,207.1c0,0.2,0,0.4,0,0.7c-0.2,0-0.5,0-0.7,0c0-0.6,0.2-1,0.7-1.3C128.4,206.7,128.5,206.9,128.5,207.1
	z"/>
<path class="st116" d="M163.7,195.8c0,0.5-0.2,0.8-0.6,1C163,196.3,163.1,195.9,163.7,195.8z"/>
<path class="st119" d="M167,187.8c0,0.5-0.2,1-0.6,1.4C166.3,188.6,166.5,188.1,167,187.8z"/>
<path class="st120" d="M161.7,140.6c0.4,0.3,0.6,0.8,0.7,1.3C161.8,141.7,161.7,141.2,161.7,140.6z"/>
<path class="st121" d="M163,142.7c0.5,0.3,0.7,0.8,0.7,1.3C163.1,143.7,163,143.2,163,142.7z"/>
<path class="st122" d="M147.1,214.5c-0.1,0.6-0.5,0.7-1,0.7C146.3,214.7,146.6,214.5,147.1,214.5z"/>
<path class="st123" d="M158.4,121.4c-0.4,0-0.9,0-1.3-0.1c-2.4-1.9-3.6-1.8-5.3,0.6c-0.6,0.9-1.4,1.7-2.5,1.6
	c-1-0.2-2.1-0.8-2.2-2.1c1.4-0.8,2.5-2,3.4-3.4c0-0.6,0-1.3,0.7-1.7c0.7-0.1,0.8,0.3,0.5,0.8c-0.3,0.5-0.8,1-0.1,1.4
	c0.6,0.4,0.8-0.2,1-0.7c0.3-0.6,0.8-0.6,1.1-0.1c0.3,0.4,0.3,1,1,0.8c0.6-0.2,0.4-0.8,0.5-1.3c0.7-0.4,1.1,0.1,1.6,0.5
	c0.8,0.7,1.6,1.3,2.5,1.9c0.3,0.4,0.8,0.6,1.1,1c0.1,0.2,0.2,0.5,0.1,0.7C159.7,121.9,159,121.7,158.4,121.4z"/>
<path class="st124" d="M85.2,62.4c-0.2-1.3,0.8-2.3,0.7-3.6c1.4-2.4,2.3-5.1,3.9-7.3c0.5-0.3,0.4-0.9,0.7-1.3l0,0
	c0.3-0.8,0.8-1.4,1.3-2l0,0c0.3-0.6,0.7-1,1.3-1.3c3.9-3.9,8.5-6.6,13.7-8.3c1.7-0.6,3.5-0.9,5.3-1c0.2,0,0.3,0.1,0.5,0.1
	c0.5,0.2,1.1,0.2,1.6,0.1c0.4,0,0.8,0.1,0.9,0.5c0.1,0.5-0.4,0.7-0.8,0.9c-0.4,0.2-0.9,0.1-1.3,0.1c-1.8,0.1-3.5,0.6-5,1.7
	c-1.4,1.1-3.1,1.8-4.6,2.8c-0.5,0.1-1,0.4-1.4,0.7c-3.8,2.5-6.8,5.9-9,9.8c-0.3,0.5-0.6,1-1,1.3c-1.3,0.5-1.5,1.7-1.8,2.8
	c-0.3,1.5-0.3,3.2-1.5,4.4c-0.3,0.3-0.4,0.7-0.3,1.1c0.7,2.2,0.1,4.2-0.9,6.1c-0.4,0.8,0.2,1.6-0.1,2.4c-0.2,0.5-0.2,1.1-0.4,1.6
	c-0.2,0.6-0.6,0.9-1.3,0.8c-0.7-0.1-0.8-0.6-0.9-1.2c-0.2-2.9-0.5-5.9,0.1-8.8C85.2,64.2,84.9,63.3,85.2,62.4z"/>
<path class="st125" d="M130.1,40.2c1.2,0.2,2.1,1.2,3.3,1.4c0.3,0.2,0.7,0.3,1,0.6c1.8,1.5,3.6,3,5.5,4.5c1,0.7,1.5,1.7,1.9,2.8
	c0,0.5-0.2,0.8-0.7,0.9c-1.5-0.3-2.2-1.5-3-2.6c-0.2-0.7-0.7-1.1-1.3-1.3c-2.5-1.3-5-2.9-7.5-4.2c-0.6-0.3-1.2-0.6-1.1-1.5
	c0.5-0.7,1.1-0.7,1.6-0.1c0.2,0.2,0.4,0.4,0.7,0.4c-0.3,0-0.5-0.2-0.7-0.4C129.6,40.4,129.6,40.1,130.1,40.2z"/>
<path class="st126" d="M130.1,40.2c-0.1,0.2-0.2,0.4-0.3,0.7l0,0c-0.6-0.1-1.1-0.2-1.7,0c-0.1,0-0.2,0-0.2-0.1c-2-0.7-3.9-1.2-6-1.6
	c-1.7-0.3-3.5-0.1-5.1-0.6c-1.5-0.5-3.1-0.6-4.6-0.8c0-0.1,0-0.2,0-0.4c3.1-1.1,6.3-0.7,9.4-0.2c1.5,0.2,3,0.6,4.5,0.9
	c0.5,0.4,1.2,0.2,1.7,0.7C128.6,39.3,129.3,39.8,130.1,40.2z"/>
<path class="st127" d="M148.3,62.8c-1.1-0.4-1.1-1.6-1.6-2.3c-0.9-0.2-0.8-1.3-1.5-1.6c0.1-1.6-0.6-2.7-1.7-3.7
	c-0.1-0.1-0.2-0.3-0.2-0.4c-0.1-0.9-0.6-1.8,0.4-2.5c1.3,0.9,1.9,2.3,2.7,3.7c0.4,1,1,2,1.3,3C147.9,60.2,148.1,61.5,148.3,62.8z"/>
<path class="st128" d="M134.4,30.9c0.2,0,0.4,0,0.7,0c0,0.3,0,0.7,0.1,0.8c1.3,0.6,0.6,1.7,0.6,2.6c-0.1,0.3-0.3,0.6-0.6,0.7
	c-0.8,0.7-1.8,0.7-2.7,0.9c-0.7,0.2-1.1-0.2-1.3-0.9C131.9,33.3,133.7,32.5,134.4,30.9z"/>
<path class="st129" d="M143.8,52.2c0,0.9-0.1,1.8-0.1,2.7c-1.6-1.2-2.6-2.6-2.7-4.7c0.3-0.3,0.6-0.5,0.8-0.8
	C142.7,50.2,143.2,51.2,143.8,52.2z"/>
<path class="st130" d="M131.1,34.9c0.7,0.4,1.4,0.7,2.2,0.1c0.6-0.5,1.2,0.1,1.8-0.1c-1.5,2.4-1.7,2.4-4.4,0.7
	C130.9,35.4,131,35.1,131.1,34.9z"/>
<path class="st131" d="M142.4,89.4c-0.9-1.3-0.7-2.1,0.8-2.7c0.4-0.2,0.8-0.4,1.2-0.6C144.1,87.4,143.5,88.5,142.4,89.4z"/>
<path class="st132" d="M93.2,46.9c-0.2,0.7-0.7,1.1-1.3,1.3c0-0.5-0.5-1,0-1.5C92.5,46.1,92.8,47,93.2,46.9z"/>
<path class="st133" d="M147.7,58.9c-0.6-0.9-1.2-1.9-1.3-3C147.2,56.7,147.8,57.6,147.7,58.9z"/>
<path class="st132" d="M91.9,48.2c-0.2,0.9-0.8,1.4-1.3,2C90.5,49.2,90.9,48.5,91.9,48.2z"/>
<path class="st134" d="M126.5,100.7c0.4-0.8,1.1-1.2,2-1.3C127.9,100,127.4,100.7,126.5,100.7z"/>
<path class="st135" d="M141.1,90.7c0.1-0.8,0.6-1.2,1.3-1.3C142.3,90.2,141.6,90.4,141.1,90.7z"/>
<path class="st136" d="M127.8,38.9c-0.7,0-1.3,0-1.7-0.7C126.8,38.2,127.4,38.1,127.8,38.9z"/>
<path class="st137" d="M90.6,50.2c-0.1,0.5,0.1,1.2-0.7,1.3C89.9,51,90.1,50.5,90.6,50.2z"/>
<path class="st138" d="M134.4,42.2c-0.5,0-0.8-0.2-1-0.6C133.9,41.5,134.4,41.6,134.4,42.2z"/>
<path class="st139" d="M131.8,98.1c0.1-0.6,0.5-0.7,1-0.6C132.6,97.8,132.2,98.1,131.8,98.1z"/>
<path class="st140" d="M96.1,101.8c-0.1,0.1-0.2,0.2-0.2,0.3c-1.3-0.1-0.3,0.9-0.7,1.3c-0.8-0.2-1.6-0.6-2.3-1
	c-0.1-0.1-0.2-0.2-0.4-0.3c-0.9-0.9-1.8-1.9-2.6-2.8c-0.5-0.7-0.6-1.3,0-2c1.5,0.9,2.7,0.7,3.7-0.7c0.2-0.3,0.5-0.6,0.9-0.6
	c0.1,0,0.1,0,0.2,0.1c0.9,0.6,1.3,1.5,1.5,2.5c0,0.9-0.8,1.7-0.3,2.7C96,101.5,96,101.6,96.1,101.8z"/>
<path class="st141" d="M89.9,97.4c0.3,0.7-0.1,1.3,0,2c-1.9-1-3.7-1.9-5.7-2.5c-1.3-0.5-2.6-0.2-3.9-0.3c-0.6-0.1-1.3,0.2-1.8-0.5
	c0.3-0.2,0.6-0.5,0.8-0.5C83,95.3,86.7,94.8,89.9,97.4z"/>
<path class="st142" d="M78.5,96c1.4,0,2.8,0,4.1,0.1c0.6,0,1.3,0,1.5,0.7c-2.6,0.4-5.3,0.1-7.9,0.2C76.8,96.4,77.6,96,78.5,96z"/>
<path class="st140" d="M95.2,92.1c-0.2-0.3-0.4-0.7-0.5-1c0-0.1,0.1-0.3,0.2-0.4c0.1-0.1,0.4,0,0.4,0.1c0.2,0.8,1.2,0.7,1.5,1.4
	c0.5,1,0.2,2.5,1.6,3.1c0.2,0.1,0.1,0.7-0.2,0.9c-0.6,0.3-0.3-0.3-0.5-0.5c-0.2-0.3-0.5-0.5-0.8-0.2c-0.7,0.5-1.2,1.5-2.3,0.7
	c0,0,0,0,0,0c0.4-0.7,1.2-0.9,1.6-1.6C96.8,93.2,96.6,92.6,95.2,92.1z"/>
<path class="st143" d="M73.1,96.6c-0.2,0.9-0.5,1.5-1.3,1.6c-0.3,0.1-0.5-0.2-0.4-0.5C71.5,96.8,72.2,96.7,73.1,96.6z"/>
<path class="st144" d="M137.2,28.2c-0.7-0.5-0.9-1.3-1.4-2c-0.8-3.1-1.3-6.2-0.8-9.5c1.1-7.7,8.2-11.4,14.1-11.3
	c3.3,0.1,6,1.1,8.6,2.8c1.2,0.3,2.1,0.9,2.7,2c3.8,5,4.2,10.6,1.8,16.2c-1,2.3-3.1,4.1-5.1,5.7c-1.7,1.7-3.9,2.1-6.2,2.5
	c-1.1,0-2.2,0-3.3,0c-1.3,0-2.5-0.4-3.5-1.1c-2.3-0.8-4.2-2.1-5.7-4c-0.2-0.4-0.4-0.7-0.2-1.2c0.8-0.8,2.3-0.6,2.7-1.9
	c-0.5,0.4-1,1-1.7,0.5c-1.1-0.7-0.5-2-0.9-3.1c0,1-0.1,2,0.2,2.9c0.2,0.6,0.2,1.1-0.3,1.5C137.9,28.6,137.5,28.5,137.2,28.2z"/>
<path class="st145" d="M151.1,34.2c2.1-0.4,4-1.2,6-2c0,0.4,0,0.9-0.3,1c-3.7,1.9-7.4,3.3-11.6,2.3c0,0,0-0.1,0-0.1
	c0.7-0.8,1.5-1,2.5-1C148.7,34.5,150,34.9,151.1,34.2z"/>
<path class="st146" d="M160.4,10.3c-1.1-0.4-1.8-1.3-2.7-2c0.5,0,0.9,0,1.4,0c1-0.4,1,0.4,1.3,1C160.5,9.6,160.6,10,160.4,10.3z"/>
<path class="st147" d="M160.4,9.3c-0.5-0.2-0.6-1-1.3-1c0-0.2-0.1-0.4-0.1-0.6C161,7.7,161.2,8,160.4,9.3z"/>
<path class="st18" d="M152.7,4.3c-0.5,0-0.9-0.1-1-0.6C152.2,3.6,152.5,3.9,152.7,4.3z"/>
<path class="st148" d="M159,120.1c-1.5-0.6-2.4-2.1-3.8-2.8c0,0,0,0,0,0c-0.8-0.7-1.5-1.5-2.4-2.1c-0.5-0.7-0.7-1.4-1.1-2.1
	c-0.1-0.3-0.3-0.6-0.4-1c-0.8-2.3-0.4-4.6-0.4-7c0-0.5,0.1-1.1-0.1-1.6c0.1-0.8-0.1-1.6,0.8-2.1c0.9-1.3,1.6-2.6,2.6-3.8
	c4.6-5.7,12.2-7,18.8-3.3c0.6,0.4,1.2,0.8,1.8,1.1c0.3,0.1,0.7,0.2,1,0.4c0.6,0.5,0.9,1.2,1.3,1.7c0.3,0.5,0.6,1,0.9,1.5
	c0.1,0.1,0.2,0.2,0.2,0.4c0.6,1.2,1.1,2.4,1.4,3.7c0,0.3,0.1,0.6,0.1,0.9c0.3,1.2,0.7,2.4,0.6,3.7c-0.1,0.6-0.2,1.2-0.6,1.6
	c-1.1,4.1-3.2,7.5-6.7,9.9c-3.3,2.2-7,3-11,2.4c-0.6-0.1-1.2-0.1-1.6-0.7c-0.1-0.1-0.2-0.2-0.3-0.3
	C159.7,120.4,159.4,120.2,159,120.1z"/>
<path class="st149" d="M160.4,121c4.1,0.8,8,0.1,11.8-1.5c0.2-0.1,0.5-0.1,0.8-0.2c-2.8,3.1-6.4,3.4-10.1,2.9
	c-1.4-0.2-2.7-0.2-4.1-0.3c-0.1-0.2-0.3-0.4-0.4-0.6C159.1,121.3,159.8,121.6,160.4,121z"/>
<path class="st16" d="M179.7,109.4c0-1.8,0-3.5,0-5.3c1.7,1.7,1.2,3.8,1.3,5.8c0,0.7,0,1.4,0,2.1c-1-0.3-0.6-1.1-0.6-1.7
	C180.4,109.7,180.4,109.3,179.7,109.4z"/>
<path class="st150" d="M151.1,34.2c0,0.2,0.6,0.6,0.2,0.6c-2.1,0-4.1,0.1-6.1,0.7c0.4-1.1-1.3-1-1-1.9
	C146.4,34.2,148.7,34.3,151.1,34.2z"/>
<path class="st151" d="M137.2,28.2c0.4,0,0.8,0,1.3,0c0,0,0,0,0,0c0,0.5,0,0.9,0,1.4C137.9,29.3,137.4,28.8,137.2,28.2z"/>
<path class="st152" d="M151.4,101.5c-0.1,0.6-0.3,1.3-0.4,1.9c-0.1,0.3-0.4,0.5-0.6,0.3c-0.3-0.3-0.3-0.6,0-1c0-0.3,0-0.7,0-1
	c-0.4-0.6-0.2-1.4-0.7-2c0-0.6-0.1-1.2,0.6-1.8C150.4,99.3,150.8,100.4,151.4,101.5z"/>
<path class="st153" d="M175.3,96.2c-0.2-0.2-0.4-0.5-0.7-0.7c0.4-0.5-0.4-0.8-0.3-1.3c0.6,0.3,1,0.7,1.3,1.3
	C175.8,95.8,175.6,96,175.3,96.2z"/>
<path class="st154" d="M170,91.4c0.6-0.1,1.1,0.1,1.4,0.6C170.8,92,170.4,91.8,170,91.4z"/>
<path class="st155" d="M175.3,96.2c0.1-0.3,0.3-0.5,0.4-0.8c1.4,1.4,2.8,2.7,3.3,4.7c-0.7,0.3-0.8-0.6-1.3-0.7l0,0
	c-0.3-0.6-0.5-1.3-1.1-1.6C176.1,97.3,175.7,96.7,175.3,96.2z"/>
<path class="st156" d="M177.7,99.4c0.8-0.4,0.8,0.6,1.3,0.7c0.3,1,0.8,2,0.6,3.1C179,101.9,178.3,100.6,177.7,99.4z"/>
<path class="st7" d="M181.7,107.7c0,0.6,0,1.1,0,1.7C181.2,108.8,181.2,108.3,181.7,107.7z"/>
<path class="st9" d="M150.4,102.7c0.1,0.4-0.2,1,0.6,0.7c0,1.5,0,3.1,0,4.6c0,1.5,0.2,3,0.8,4.3c0,0.3,0,0.5,0.3,0.6
	c0.4,0.6,0.9,1.3,0.9,2.1c-0.1,0.3-0.3,0.5-0.7,0.3c-1.3-1.6-2-3.4-2-5.5c0-1.7,0-3.3,0.1-5c0.1-0.7-0.4-1.1-0.5-1.7
	C149.9,102.9,149.6,102.5,150.4,102.7z"/>
<path class="st123" d="M152.4,115.4c0.2-0.1,0.4-0.2,0.7-0.3c0.7,0.7,1.6,1.3,2.1,2.3c-1,0.2-1.4-1.9-2.7-0.4
	C152.4,116.2,152.4,115.8,152.4,115.4z"/>
<path class="st9" d="M149.7,99.7c0.9,0.4,0.6,1.3,0.7,2C149.5,101.3,149.9,100.4,149.7,99.7z"/>
<path class="st123" d="M151.1,115.7c-0.4-0.2-0.6-0.5-0.6-1C151,114.8,151.1,115.2,151.1,115.7z"/>
<path class="st157" d="M85.2,62.4c-0.2,2.2,0,4.3-0.2,6.5c-0.1,1.6,0.1,3.3,0.3,5c0,0.4,0.2,0.8,0.7,0.7c0.5,0,0.6-0.4,0.6-0.8
	c0-0.7-0.1-1.4,0.7-1.7c0.3-0.3,0.5-1,1.1-0.8c0.7,0.2,0.8,0.8,0.7,1.3c-0.4,2.4-0.3,4.8-0.8,7.1c-0.2,0.2-0.5,0.4-0.6,0.7
	c0.1-0.3,0.3-0.5,0.7-0.6c1.1,1.1,1,2.2-0.4,3.9c-0.2-0.1-0.4-0.3-0.6-0.4c-0.5-1.1-0.6-2.5-1.7-3.3c0-0.9,0.1-1.9-0.6-2.7
	c0-0.2,0-0.4-0.1-0.7c-0.5-0.9,0.1-1.8-0.3-2.7c-0.6-3.4-0.4-6.8,0.3-10.2C85,63.4,84.8,62.9,85.2,62.4z"/>
<path class="st34" d="M84.6,74.1c0.5,0.8,0.3,1.8,0.3,2.7C84.3,75.9,84.7,75,84.6,74.1z"/>
<path class="st158" d="M87.9,83.8c0-0.6,0-1.2,0.4-1.8c0.4-0.6,0.6-1.4-0.4-1.9c-0.2-1.6,0.4-3.2-0.3-4.7c-0.1-0.3-0.1-0.5,0.2-0.6
	c1.4-0.6,0.8-1.8,0.6-2.7c-0.2-1-0.8,0.3-1.2,0c-0.5-1.1-1-2,0.4-2.9c0.8-0.5-0.1-1.7,0.6-2.6c0.6-0.8,0.2-1.8-0.5-2.4
	c-0.5-0.5-0.1-0.7,0.2-0.9c1.5-1.1,1.7-2.9,1.8-4.4c0.1-1.1,1-1.9,0.9-3c0-0.4,0.9,0.1,1.3-0.4c0.6,0.6,0.2,1.3-0.1,1.8
	c-3.1,7.4-2.4,14.8,0.1,22.2c0.4,1.3,1.2,2.5,2,3.6c0.4,0.7,1.1,1.3,0.6,2.3c-0.7,0.3-0.7,1.7-1.9,1.3c-0.5-0.4-0.5-0.8-0.3-1.3
	c0-0.1,0.1-0.2,0.1-0.3c0.1-0.1,0.1-0.2,0-0.1c-0.1,0.4-0.5,0.7-0.6,1.1c-0.5,1.8-0.5,1.8-2.4,1.3c-0.1-0.1-0.2-0.2-0.3-0.3
	C88.7,86,88.5,84.8,87.9,83.8z"/>
<path class="st159" d="M92.5,85.1c0,0.6,0,1.1,0,1.7c-1.2,1.2,0.3,2.4,0,3.7c-1.2-0.9-1.9-2.4-3.3-3c1,0,2.5,0.3,1.7-1.6
	c0.7-0.3,0.7-1.3,1.6-1.4C92.7,84.7,92.7,84.9,92.5,85.1z"/>
<path class="st160" d="M116.1,180.8c0-0.6,0.1-1.1,0.9-1c1.2,0.2,2.6-0.4,3.5,0.9c0,0,0.1,0.1,0.1,0.1c1.8-0.2,2.5,1.2,3.3,2.4
	c1.3,1.7,1.2,3.9-0.5,5.3c-1.5,1.2-1.8,1.1-2.4-0.8c-0.1-0.4-0.2-0.7-0.3-1.1c-0.4-1.2-0.8-0.8-1.2,0c-0.2,0.9-0.6,1.4-1.6,1.3
	c-1.2-0.1-1.7-0.9-1.8-2c-0.2-0.2-0.5-0.4-0.5-0.8C115.6,183.7,114.9,182.1,116.1,180.8z"/>
<path class="st161" d="M115.5,208.4c0.1-1.2,0.2-2.7,0.9-4c0.9-1.4,2.4-1.4,3.1,0.1c0.8,1.7,1.1,3.5,0.7,5.5
	c-0.3,1.5-1.2,1.9-2.5,1.7c-1.3-0.1-2.2-0.8-2.3-2.2C115.5,209.3,115.5,209,115.5,208.4z"/>
<path class="st162" d="M116.1,180.8c-0.5,1.4,0.3,2.9-0.3,4.4c-0.3,1.2-1.2,2.1-1.3,3.3l0,0c-0.8,0.6-1.6,0.4-2.4,0
	c-1.4-1.8-1.3-6,0.4-7.3c0.6-0.5,1.4-1.2,2.4-0.5C115.2,181.1,115.7,181,116.1,180.8z"/>
<path class="st163" d="M119.5,186.6c0.2-0.6,0-1.9,0.6-1.9c1,0.1,1,1.4,1,2.3c0,0.2,0,0.4-0.1,0.6
	C120.4,187.5,120.7,185.9,119.5,186.6z"/>
<path class="st164" d="M114.5,188.5c-0.5-1.5,0.8-2.2,1.3-3.3c0.2,0.2,0.3,0.4,0.3,0.7C114.9,186.4,115.4,187.9,114.5,188.5z"/>
<path class="st164" d="M112.1,188.5c0.8,0,1.6,0,2.4,0C113.7,189.7,112.9,189.3,112.1,188.5z"/>
<path class="st165" d="M75.2,117.5c-1-0.9-1.8-2-2.1-3.4c0-0.7-0.3-1.4-0.6-2l0,0c-0.4-1.6,0.7-3.1,0.7-4.6
	c2.9-5.9,10.8-6.9,14.8-1.8c1.3,1.7,1.2,2.3-0.3,3.8c-1.4,1.4-1.4,2.1,0.2,3.3c1,0.8,1.2,1.5,0.6,2.7c-0.4,0.7-0.8,1.3-1.3,1.8
	c-1.5,1.6-3.2,2.8-5.6,2.5c-0.6,0-1.1,0-1.7,0C78,119.7,76.2,119.4,75.2,117.5z"/>
<path class="st92" d="M92.8,102.1c0.9,0.2,2,0.1,2.4,1.3c0,0.7,0,1.3,0,2c0.2,0.6,1.1,1.2,0,1.7c-0.5-0.7-1-1.5-1.3-2.3
	c-0.2-0.2-0.4-0.5-0.5-0.7C93.4,103.3,92.7,102.8,92.8,102.1z"/>
<path class="st166" d="M81.6,119.7c2-0.4,3.8-1.4,5.6-2.5c0.1,1.8-1.8,1.8-2.6,2.8c-0.2,0.2-0.3,0.4-0.5,0.6
	C83.5,119.6,82.3,120.4,81.6,119.7z"/>
<path class="st166" d="M75.2,117.5c1.4,1.1,2.9,2,4.7,2.3c-1.6,0.2-3,0.5-4.4-0.9C74.8,118.2,75,118,75.2,117.5z"/>
<path class="st167" d="M73.2,107.4c0.5,1.1,0,2.2-0.3,3.3c-0.2,0.5-0.2,0.9-0.3,1.4C72,110.4,72.4,108.8,73.2,107.4z"/>
<path class="st87" d="M95.2,107.1c0.6-0.6-0.1-1.1,0-1.7c1.1,0.4,0.5,1.3,0.7,2c-0.6,0.9-0.2,1.9-0.3,2.9c-0.1,0.6,0.1,1.2-0.3,1.8
	C95.2,110.4,95.2,108.7,95.2,107.1z"/>
<path class="st167" d="M72.6,112c0.7,0.5,1.1,1.2,0.6,2C72.8,113.4,72.4,112.8,72.6,112z"/>
<path class="st168" d="M92.8,102.1c0.3,0.6,0.8,1.2,0.9,1.9c-0.1,0.2-0.3,0.2-0.4,0c-0.2-0.7-0.9-1.1-0.7-1.9
	C92.6,102.1,92.7,102.1,92.8,102.1z"/>
<path class="st169" d="M93.2,104.1c0.1,0,0.3,0,0.4,0c0.2,0.2,0.3,0.4,0.2,0.7c-0.2,0.1-0.4,0.3-0.5,0.3
	C93,104.8,93.3,104.4,93.2,104.1z"/>
<path class="st166" d="M84.6,120c0.7,0.3,0.8,0.7,0.4,1.2C84.8,120.8,84.7,120.4,84.6,120z"/>
<path class="st170" d="M94.5,85.4c-2.5-3.6-4.2-7.5-4.9-11.9c-1-6.2-0.6-12.3,2.3-18c2.3-4.4,5.4-8.2,9.5-11
	c0.2-0.1,0.4-0.2,0.6-0.3c0.4-0.3,1-0.2,1.3-0.7c1.4-1.2,3.1-1.8,4.6-2.7c2.8-1.6,6-1.7,9.1-2c3.4-0.3,6.9,0.4,10.2,1.5
	c0.4,0.1,0.7,0.3,1,0.6c0,0,0,0,0,0c2.3,1.3,4.6,2.6,6.9,4c0.7,0.4,1.4,0.9,2.1,1.3c0.5,0.4,1,0.8,1.3,1.4c0.9,0.9,1.7,1.8,2.6,2.7
	c0.8,1.6,2.1,2.9,2.7,4.7c0,0,0,0,0,0c0.9,1,1.6,2.2,1.6,3.6c0,0.4,0.3,0.6,0.4,0.8c0.6,0.9,0.4,1.9,0.7,2.9
	c1.7,9.9-0.6,18.6-7.4,26.1c-0.6,0.6-1.3,1.2-2,1.7c-0.5,0.6-1.5,0.6-1.9,1.3c-1.8,2.3-4.7,2.9-7.2,3.9c-8.6,3.6-16.9,2.2-24.9-2.1
	c-0.6-0.3-1.2-0.6-1.8-0.9c-1.1-1.3-2.7-2.1-4.1-3C96,88.3,95.6,86.6,94.5,85.4z"/>
<path class="st171" d="M112.2,101.4c-1.7,0-3.4,0.1-5,0.4c-1.8,0.1-3.3-0.4-4.3-2C106.2,99.1,109.1,100.9,112.2,101.4z"/>
<path class="st92" d="M95.9,101.4c-1.3-0.8-0.2-1.8-0.1-2.6c0.3-0.6,0.7-1,1.3-1.3c0.3,0,0.7,0,1,0c0.7-0.3,0.9,0.3,1.3,0.6
	c0.8-0.3,1.5-0.3,1.6,0.8c-0.2,0-0.3-0.1-0.5-0.1C97.5,97.9,96.8,98,95.9,101.4z"/>
<path class="st172" d="M97.2,97.4c-0.2,0.7-0.6,1.1-1.3,1.3c-0.4-0.9-0.9-1.8-1.3-2.6c0.9,0.2,1.4-0.8,2.3-0.7
	C96.9,96.1,95.9,96.9,97.2,97.4z"/>
<path class="st173" d="M97.2,89.4c1.7,0.6,3.2,1.3,4.1,3c-0.2,0.1-0.6,0.2-0.6,0.2C100,91,98.1,90.7,97.2,89.4z"/>
<path class="st174" d="M146.4,62.2c-0.6-0.8-0.8-1.8-1-2.7c-0.2-0.2-0.2-0.5,0-0.7c1.2,0,0.8,1.2,1.3,1.7
	C146.1,61,146.8,61.7,146.4,62.2z"/>
<path class="st172" d="M99.5,98c-0.6,0-0.9-0.4-1.3-0.6c0.5-1.1,1.3-0.5,2.1-0.6C100.3,97.5,99.4,97.5,99.5,98z"/>
<path class="st175" d="M135.1,91.4c0.3-1,1.2-1,1.9-1.3C136.6,90.9,135.8,91,135.1,91.4z"/>
<path class="st176" d="M112.4,114.3c-1.5,0.9-3.1,0.2-4.7,0.5c-0.1,0-0.2,0-0.3-0.1C109.1,114,110.8,114.6,112.4,114.3z"/>
<path class="st177" d="M159,120.1c0.5,0,1-0.1,1.1,0.6C159.6,120.6,159.2,120.5,159,120.1z"/>
<path class="st178" d="M128.1,40.9c-6.2-2.3-12.4-1.9-18.6-0.4c-0.5,0.1-1.1,0.2-1.6,0.3c-0.1-0.3-0.1-0.5,0.3-0.6
	c1.8-0.6,3.5-1.6,5.5-1.3c0.4,0.1,0.8-0.1,1.3-0.6c-1.1-0.1-2.1,0.4-2.8-0.4c1.7-0.5,3.4,0.2,5.1,0.3c3.5,0.2,7,0.8,10.3,2
	C128.1,40.3,128.3,40.4,128.1,40.9z"/>
<path class="st179" d="M103.2,43.5c0,0.2,0.7,0.5,0,0.7c-0.4,0.1-0.9,0-1.3,0C102.2,43.8,102.6,43.5,103.2,43.5z"/>
<path class="st126" d="M129.8,40.9c0.6,0,1.3-0.1,1.7,0.7C130.9,41.3,130.1,41.9,129.8,40.9C129.8,40.9,129.8,40.9,129.8,40.9z"/>
<path class="st180" d="M138.4,47.6c-0.5-0.4-1.1-0.7-1.3-1.4C137.9,46.3,138.4,46.7,138.4,47.6z"/>
<path class="st181" d="M145.4,58.8c0,0.2,0,0.5,0,0.7c-0.6-1.5-1.1-3.1-1.7-4.6C145.7,56.1,145.9,56.7,145.4,58.8z"/>
<path class="st182" d="M151.7,11.9c0.5,0.3,1.1,0.5,1.6,0.8c4.3,2.6,5.5,6.3,3.6,10.7c-1.8,4.1-5.9,6-10.4,4.7
	c-0.9-0.3-1.9-0.7-2.7-1.1c-1.6-0.8-2.4-2-2-3.9c0.4-2.1,0.1-4.3,0.1-6.4c0-2.7,0.4-3.2,2.9-4c0.5-0.2,0.9-0.4,1.3-0.6
	C148,11.5,149.9,11.7,151.7,11.9z"/>
<path class="st151" d="M140.5,13.3c-0.2,3.2,0.9,6.2,0.5,9.3c-0.1,0.4-0.1,0.8-0.6,0.9c-0.3,0-0.5-0.1-0.7-0.4
	c-0.8-1.7-2-3.3-1.4-5.3c0.1-0.2-0.1-0.6,0-0.6C139.7,16.2,139.7,14.6,140.5,13.3z"/>
<path class="st151" d="M138.4,28.2c-0.7-1.8-0.8-3.7-0.5-5.8c1.4,0.6,1.1,1.8,1.2,2.8c0,0.5-0.3,1.2,0.4,1.5
	c0.7,0.3,0.9-0.3,1.1-0.8c0-0.1,0.6-0.7,0.9-0.1c0.2,0.3,0.6,0.6,0.1,1c-0.5,0.5-0.9,1-1.3,1.6C139.8,29.1,139.1,28.1,138.4,28.2
	C138.4,28.2,138.4,28.2,138.4,28.2z"/>
<path class="st183" d="M151.7,11.9c-1.9,0.5-3.8,0.4-5.7,0.1C148,10.7,149.9,10.9,151.7,11.9z"/>
<path class="st184" d="M164.4,98.1c0.2,0,0.4,0,0.7,0c1,0.6,2.3,0.1,3.4,0.6c5.5,2,7.2,8.5,3.4,13.3c-1.8,1.8-4.3,2.2-6.4,3.3
	c-0.2,0-0.4,0-0.7,0c-0.6-0.4-1.4-0.4-2.1-0.6c-1.9-0.5-3.6-1.4-4.6-3.3c-0.4-1.4,0-2.4,1.1-3.3c1.3-1.1,1.1-2.6-0.4-3.4l0,0
	c-1.1-1.2-1.1-2,0-3.2c0.4-0.4,0.8-0.7,1-1.2l0,0c0.6-0.5,1.6-0.5,1.9-1.4l0.1,0.1l0-0.1C162.6,99,163.4,98.3,164.4,98.1z"/>
<path class="st185" d="M158.7,104.8c0.5-0.1,1.1-0.5,1.4,0.4c0.2,1,0.9,2.2-0.1,2.9c-1.2,0.9-1.7,2.1-1.9,3.4
	c-1.2-1.2-0.7-2.4,0.4-3.2C159.9,107.1,159.7,106,158.7,104.8z"/>
<path class="st186" d="M165.4,115.3c0.7-1.2,1.8-1.6,3-1.9c1-0.2,2.1,0,2.4-1.4c0-0.1,0.6,0,0.9,0
	C170.1,114.1,168.2,115.5,165.4,115.3z"/>
<path class="st185" d="M159.7,100.4c-0.1,0.5,0.8,1.3-0.8,1.5c-1,0.2-0.7,1.8-0.3,2.9c-1.9-1-1.9-1-0.6-2.7
	C158.5,101.5,159,100.8,159.7,100.4z"/>
<path class="st185" d="M168.4,98.7c-1.1-0.3-2.5,0.7-3.4-0.6C166.2,97.9,167.4,98.1,168.4,98.7z"/>
<path class="st185" d="M161.6,99c0.1,1.5-1,1.4-1.9,1.4C160.2,99.7,160.8,99.2,161.6,99z"/>
<path class="st185" d="M164.4,98.1c-0.8,0.5-1.5,1.7-2.7,0.9C162.4,98.4,163.3,98,164.4,98.1z"/>
<path class="st153" d="M176.5,97.8c0.9,0.1,1.2,0.7,1.1,1.6C177.3,98.9,176.9,98.3,176.5,97.8z"/>
<path class="st186" d="M162.6,114.7c0.8,0,1.6-0.3,2.1,0.6C163.9,115.4,163.2,115.2,162.6,114.7z"/>
<path class="st123" d="M152.1,113c-0.2,0.2-0.3,0.2-0.5,0c-0.2-0.3-0.1-0.5,0.2-0.6C152,112.5,152.1,112.7,152.1,113z"/>
<path class="st158" d="M87.9,80.1c0,0.6,0.1,1.1-0.6,1.9C87.3,81.1,86.9,80.4,87.9,80.1z"/>
<path class="st84" d="M92.5,85.1c0-0.2,0-0.4,0-0.7c0.4-0.2,0.8-0.1,0.8,0.4C93.3,85.5,92.9,85.2,92.5,85.1z"/>
<path class="st187" d="M75.6,111.4c0.1-0.7,0.3-1.7,1.4-1.8c0.6,0,1.3,0.4,1.3,1.2c0,1-0.4,1.9-1.5,2
	C75.9,112.9,75.7,112.2,75.6,111.4z"/>
<path class="st188" d="M129.8,80.7c-0.4,0.8-1.1,1.4-1.8,1.8c-3.4,1.8-6.9,3.5-10.9,3.3c-2-0.1-3.9-0.8-5.7-1.4
	c-0.7-0.2-1-0.9-0.9-1.6c0-0.6,0.2-1.2,0.3-1.8c1-3.9-1.4-5.4-4.4-6.2c-0.7-0.2-1.2,0.2-1.8,0.6c-1.5,1-2.3,0.8-2.9-0.8
	c-4.2-11.6,4.4-23.9,16.7-23.6c3.6,0.1,6.9,1.1,9.9,3.3c0.5,0.2,0.8,0.5,1.1,0.9l0,0c0.9,0.6,2,0.9,2.2,2.1c4.2,5.3,5.9,13.8,1,20.2
	C131.4,78.4,130.4,79.5,129.8,80.7z"/>
<path class="st189" d="M129.8,80.7c0.1-1.7,1.3-2.6,2.7-3.3C131.7,78.7,131,79.9,129.8,80.7z"/>
<path class="st190" d="M131.4,57.3c-0.9-0.6-1.6-1.3-2.2-2.1C130.6,55,131.5,55.8,131.4,57.3z"/>
<path class="st190" d="M129.1,55.1c-0.4-0.2-0.8-0.5-1.1-0.9C128.9,53.9,129.5,54,129.1,55.1z"/>
<path class="st191" d="M154.5,20c-0.1,0.6-0.2,1.6-1.3,1.6c-1.2,0-1.4-1-1.5-2c-0.1-1,0.5-1.3,1.3-1.3
	C153.8,18.3,154.5,18.7,154.5,20z"/>
<path class="st192" d="M170.3,105.4c0.2-0.1,0.4-0.3,0.7-0.4c-0.1,0.9,1.3,0.9,1,1.7c-0.3,0.8-0.5,1.9-1.7,2c-1,0.1-2.1,0.6-2.9-0.4
	c-0.7-0.9-0.6-2.1-0.3-3C167.6,103.9,169.2,104.1,170.3,105.4c-0.3,0.4-0.7,0.5-1.1,0.6c-0.3,0.2-0.5,0.4-0.4,0.8
	c0.1,0.3,0.3,0.4,0.6,0.4c0.4,0,0.6-0.2,0.7-0.6C170.2,106.3,170.1,105.8,170.3,105.4z"/>
<path class="st193" d="M123.7,59.7c1.7,0,2.8,1.1,2.8,2.8c0,1.7-1.3,3-2.9,3c-1.8,0-2.9-1.2-2.9-3C120.8,60.6,121.9,59.7,123.7,59.7
	z"/>
<path class="st194" d="M170.3,105.4c0.2,0.4,0.5,0.8,0.5,1.2c0,0.9-0.4,1.5-1.4,1.5c-0.9,0-1.5-0.3-1.5-1.3c0-0.9,0.3-1.5,1.3-1.5
	C169.7,105.4,170,105.4,170.3,105.4C170.3,105.4,170.3,105.4,170.3,105.4z"/>
</svg>
