<?xml version="1.0" encoding="utf-8"?>
<!-- Generator: Adobe Illustrator 24.1.3, SVG Export Plug-In . SVG Version: 6.00 Build 0)  -->
<svg version="1.1" id="Ebene_1" xmlns="http://www.w3.org/2000/svg" xmlns:xlink="http://www.w3.org/1999/xlink" x="0px" y="0px"
	 viewBox="0 0 122.3 213.4" style="enable-background:new 0 0 122.3 213.4;" xml:space="preserve">
<style type="text/css">
	.st0{fill:#107202;}
	.st1{fill:#56891A;}
	.st2{fill:#FFFFFF;stroke:#56891A;stroke-width:1.6984;stroke-miterlimit:10;}
	.st3{fill:#FFFFFF;stroke:#56891A;stroke-miterlimit:10;}
	.st4{fill:#FFFFFF;}
	.st5{fill:#011835;}
</style>
<rect x="39.5" y="191.5" class="st0" width="8.7" height="20.2"/>
<rect x="69.6" y="191.5" class="st0" width="8.7" height="20.2"/>
<path class="st0" d="M116.3,156.6h-7.7c-2.7,0-4.8-2.2-4.8-4.8v0c0-2.7,2.2-4.8,4.8-4.8h7.7c2.7,0,4.8,2.2,4.8,4.8v0
	C121.2,154.4,119,156.6,116.3,156.6z"/>
<circle class="st0" cx="59.4" cy="56.5" r="28.6"/>
<rect x="72.2" y="22.3" transform="matrix(0.7816 0.6237 -0.6237 0.7816 33.2048 -40.1059)" class="st0" width="3.4" height="10.1"/>
<circle class="st1" cx="58.4" cy="55.6" r="27.7"/>
<rect x="72.1" y="21.9" transform="matrix(0.7816 0.6237 -0.6237 0.7816 33.0548 -39.7554)" class="st1" width="2.4" height="10.8"/>
<rect x="36.4" y="77.1" transform="matrix(-0.7816 -0.6237 0.6237 -0.7816 17.0802 168.9536)" class="st0" width="3.4" height="8.8"/>
<rect x="36.9" y="75.7" transform="matrix(-0.7816 -0.6237 0.6237 -0.7816 17.554 167.5522)" class="st1" width="2.4" height="10.1"/>
<circle class="st2" cx="58.4" cy="55.5" r="23.7"/>
<circle class="st0" cx="58.1" cy="146.9" r="49"/>
<circle class="st1" cx="57.3" cy="145.5" r="47.8"/>
<circle class="st3" cx="85.4" cy="15" r="13.9"/>
<rect x="86.2" y="98.4" transform="matrix(0.7816 0.6237 -0.6237 0.7816 83.3134 -32.3446)" class="st0" width="3.4" height="8.8"/>
<rect x="86" y="98" transform="matrix(0.7816 0.6237 -0.6237 0.7816 83.215 -31.9118)" class="st1" width="2.4" height="9.8"/>
<circle class="st3" cx="27" cy="93.4" r="13.9"/>
<rect x="54.6" y="83.3" class="st0" width="9.8" height="15.3"/>
<rect x="54.5" y="79.4" class="st1" width="7.6" height="19.2"/>
<path class="st1" d="M14.5,159.3l-5.4,5.4c-1.9,1.9-4.9,1.9-6.8,0h0c-1.9-1.9-1.9-4.9,0-6.8l5.4-5.4c1.9-1.9,4.9-1.9,6.8,0h0
	C16.4,154.4,16.4,157.5,14.5,159.3z"/>
<path class="st0" d="M82.8,211.7h-7.7c-2.7,0-4.8-2.2-4.8-4.8v0c0-2.7,2.2-4.8,4.8-4.8h7.7c2.7,0,4.8,2.2,4.8,4.8v0
	C87.6,209.5,85.4,211.7,82.8,211.7z"/>
<path class="st0" d="M41.9,211.7h-7.7c-2.7,0-4.8-2.2-4.8-4.8v0c0-2.7,2.2-4.8,4.8-4.8h7.7c2.7,0,4.8,2.2,4.8,4.8v0
	C46.7,209.5,44.6,211.7,41.9,211.7z"/>
<ellipse class="st0" cx="59.1" cy="167" rx="9.8" ry="15.3"/>
<ellipse class="st4" cx="59.1" cy="156.6" rx="1.4" ry="4.3"/>
<ellipse class="st4" cx="61.9" cy="157.6" rx="1.4" ry="4.3"/>
<ellipse class="st4" cx="56.2" cy="157.6" rx="1.4" ry="4.3"/>
<ellipse class="st4" cx="59.1" cy="178" rx="1.4" ry="4.3"/>
<circle class="st5" cx="58.4" cy="55.6" r="14.9"/>
<circle class="st4" cx="46.8" cy="65.2" r="3.4"/>
<circle class="st4" cx="64.4" cy="49.3" r="1.7"/>
<circle class="st5" cx="27" cy="93.4" r="6.2"/>
<circle class="st4" cx="22.2" cy="97.3" r="1.4"/>
<circle class="st4" cx="29.5" cy="90.8" r="0.7"/>
<circle class="st5" cx="85.4" cy="15" r="6.2"/>
<circle class="st4" cx="80.6" cy="18.9" r="1.4"/>
<circle class="st4" cx="87.9" cy="12.3" r="0.7"/>
<circle class="st3" cx="98.9" cy="90.9" r="13.9"/>
<circle class="st5" cx="98.9" cy="90.9" r="6.2"/>
<circle class="st4" cx="94.1" cy="94.9" r="1.4"/>
<circle class="st4" cx="101.4" cy="88.3" r="0.7"/>
</svg>
