<?xml version="1.0" encoding="utf-8"?>
<!-- Generator: Adobe Illustrator 24.0.2, SVG Export Plug-In . SVG Version: 6.00 Build 0)  -->
<svg version="1.1" id="Ebene_1" xmlns="http://www.w3.org/2000/svg" xmlns:xlink="http://www.w3.org/1999/xlink" x="0px" y="0px"
	 viewBox="0 0 360.175 387.444" enable-background="new 0 0 360.175 387.444" xml:space="preserve">
<g>
	<path fill="#FFFFFF" d="M24.055,293.569c0.349,1.712,0.355,3.208,0.017,4.486c-0.46,1.775-1.588,2.844-3.383,3.21
		c-0.455,0.093-1.087,0.109-1.897,0.049c-0.635-0.055-1.269-0.11-1.903-0.166c-0.024,0.128-0.021,0.261,0.007,0.398
		c0.02,0.099,0.061,0.239,0.123,0.421c0.061,0.182,0.103,0.322,0.123,0.421c0.06,0.295-0.114,0.484-0.52,0.567
		s-0.77,0.013-1.089-0.208c-0.196-0.104-0.445-0.657-0.75-1.661c-0.236-0.792-0.4-1.414-0.492-1.867l-0.036-0.177l-2.674-16.611
		l0.502-0.102c0.334-0.068,0.68,0.01,1.038,0.234c0.357,0.224,0.566,0.484,0.626,0.779c0.148,0.728,0.255,1.834,0.321,3.317
		c0.065,1.483,0.172,2.589,0.321,3.317c0.016,0.079,0.092,0.453,0.229,1.122c0.18-0.098,0.373-0.373,0.58-0.825
		c0.259-0.565,0.5-0.973,0.723-1.224c0.406-0.452,0.956-0.748,1.651-0.889c1.172-0.239,2.317-0.062,3.435,0.53
		c1.006,0.533,1.754,1.272,2.246,2.217C23.554,291.54,23.822,292.428,24.055,293.569z M22.186,294.119
		c-0.249-1.223-0.62-2.248-1.112-3.072c-0.736-1.289-1.643-1.824-2.719-1.604c-1.316,0.268-2.194,1.28-2.634,3.034
		c-0.341,1.385-0.381,2.719-0.119,4.002c0.233,1.145,0.671,2.072,1.315,2.784c0.819,0.964,1.839,1.321,3.06,1.073
		c1.22-0.249,1.985-1.144,2.293-2.687C22.471,296.558,22.443,295.382,22.186,294.119z"/>
	<path fill="#FFFFFF" d="M37.106,294.692c0.176,0.866-0.371,1.787-1.642,2.763c-1.141,0.888-2.273,1.447-3.397,1.676
		c-3.207,0.653-5.151-0.693-5.832-4.039c-0.301-1.476-0.3-3.126,0.001-4.95c0.412-2.379,1.289-3.706,2.629-3.979
		c1.148-0.234,2.502-0.013,4.06,0.663c1.559,0.677,2.434,1.488,2.626,2.432c0.249,1.22-0.133,2.405-1.145,3.554
		s-2.271,1.877-3.779,2.184c-0.143,0.029-0.469-0.007-0.975-0.108c-0.507-0.102-0.844-0.136-1.011-0.102
		c-0.311,0.063-0.451,0.174-0.419,0.331c0.461,2.264,1.601,3.21,3.42,2.84c0.933-0.19,1.743-0.621,2.428-1.294
		c0.418-0.393,0.85-0.963,1.297-1.71c0.354-0.585,0.603-0.892,0.747-0.921C36.662,293.922,36.993,294.141,37.106,294.692z
		 M33.523,289.765c-0.14-0.689-0.511-1.284-1.112-1.787c-0.601-0.503-1.296-0.673-2.086-0.513c-0.957,0.195-1.635,0.846-2.032,1.951
		c-0.334,0.929-0.411,1.836-0.231,2.722c0.116,0.571,0.435,1.002,0.956,1.296c0.521,0.294,1.127,0.369,1.822,0.228
		c0.981-0.2,1.725-0.71,2.231-1.531C33.539,291.381,33.691,290.592,33.523,289.765z"/>
	<path fill="#FFFFFF" d="M50.366,295.926c0.056,0.275-0.18,0.467-0.706,0.574c-0.574,0.117-0.962-0.009-1.161-0.378
		c-0.036-0.054-0.126-0.435-0.27-1.144c-0.04-0.197-0.108-0.347-0.205-0.451c-1.175,1.08-2.541,1.779-4.096,2.096
		c-1.077,0.22-2.168,0.185-3.273-0.102c-1.261-0.317-1.976-0.889-2.144-1.716c-0.164-0.807,0.358-1.733,1.565-2.778
		c1.1-0.962,2.176-1.55,3.229-1.765l3.553-0.724c0.119-0.147,0.15-0.369,0.089-0.664c-0.269-1.318-0.604-2.285-1.002-2.901
		c-0.659-1.034-1.623-1.421-2.891-1.163c-0.91,0.185-1.651,0.828-2.224,1.928c-0.517,1.008-0.696,1.905-0.535,2.692
		c0.008,0.04,0.02,0.099,0.036,0.177s0.026,0.128,0.03,0.147c0.032,0.158-0.048,0.256-0.238,0.295
		c-0.24,0.049-0.527-0.016-0.862-0.193c-0.336-0.178-0.521-0.356-0.557-0.532c-0.112-0.551-0.051-1.286,0.186-2.206
		c0.236-0.919,0.549-1.644,0.94-2.175c0.49-0.653,1.177-1.07,2.063-1.25c1.364-0.278,2.692-0.18,3.985,0.295
		c1.377,0.519,2.188,1.317,2.432,2.394L50.366,295.926z M47.508,291.62c-0.16-0.787-0.983-1.03-2.466-0.728
		c-1.173,0.239-2.168,0.617-2.985,1.131c-1.037,0.662-1.467,1.426-1.29,2.292c0.108,0.531,0.492,0.884,1.15,1.057
		c0.555,0.154,1.179,0.159,1.873,0.018c1.029-0.21,1.948-0.683,2.757-1.423C47.355,293.229,47.676,292.446,47.508,291.62z"/>
	<path fill="#FFFFFF" d="M56.948,284.008c-0.168,0.157-0.602,0.348-1.304,0.573c-0.774,0.24-1.215,0.401-1.322,0.484
		c0.02,0.222,0.231,1.317,0.632,3.284c0.313,1.535,0.547,2.564,0.703,3.085c0.044,0.217,0.174,0.549,0.39,0.997
		c0.216,0.449,0.35,0.8,0.402,1.056c0.032,0.158-0.057,0.339-0.263,0.545c-0.208,0.206-0.407,0.329-0.598,0.368
		c-0.479,0.098-0.944-0.228-1.395-0.976c-0.313-0.551-0.522-1.093-0.63-1.624c-0.565-2.775-0.982-4.822-1.251-6.14
		c-0.16-0.07-0.696,0.039-1.609,0.328c-0.729,0.231-1.149,0.08-1.257-0.451c-0.152-0.748,0.746-1.29,2.696-1.626l-0.621-5.438
		c-0.012-0.06-0.061-0.146-0.148-0.262c-0.086-0.116-0.135-0.203-0.147-0.262c-0.024-0.118,0.049-0.251,0.218-0.398
		s0.387-0.238,0.655-0.271c0.849-0.112,1.339,0.148,1.467,0.777c0.1,0.492,0.167,1.247,0.2,2.265
		c0.032,1.018,0.097,1.763,0.193,2.235c0.048,0.236,0.118,0.458,0.21,0.664l1.957-0.491c0.669-0.136,1.049,0.012,1.137,0.445
		C57.328,283.49,57.222,283.767,56.948,284.008z"/>
	<path fill="#FFFFFF" d="M10.711,316.697c-0.019,0.705-0.026,1.409-0.024,2.109c-0.028,0.755,0.022,1.446,0.15,2.074l1.464,7.186
		c0.209,1.026-0.002,1.917-0.633,2.676c-0.631,0.758-1.579,1.266-2.844,1.524c-0.689,0.14-1.492,0.145-2.41,0.013
		c-1.056-0.136-1.82-0.418-2.296-0.847c-0.121-0.119-0.196-0.247-0.224-0.385c-0.09-0.444,0.125-0.719,0.646-0.825
		c0.111-0.023,0.238-0.017,0.382,0.018c0.372,0.211,0.743,0.414,1.112,0.61c0.729,0.346,1.578,0.42,2.546,0.223
		c1.228-0.25,1.976-0.769,2.242-1.556c0.152-0.493,0.109-1.322-0.128-2.485c-0.031-0.154-0.131-0.452-0.299-0.896
		c-0.153-0.367-0.24-0.7-0.262-0.999c-0.44,0.505-0.761,0.833-0.962,0.985c-0.366,0.298-0.791,0.496-1.275,0.595
		c-1.266,0.258-2.306,0.048-3.123-0.631c-0.721-0.586-1.191-1.423-1.413-2.51c-0.421-2.067-0.74-3.819-0.955-5.258
		c-0.026-0.505,0.251-0.816,0.828-0.934c0.706-0.144,1.043-0.108,1.01,0.105c-0.191,0.868-0.005,2.688,0.56,5.458
		c0.437,2.143,1.395,3.064,2.876,2.762c0.907-0.185,1.512-0.906,1.815-2.163c0.226-0.971,0.237-1.906,0.035-2.806l-0.533-2.617
		c-0.035-0.264-0.079-0.598-0.132-1.002c-0.053-0.404,0.212-0.648,0.795-0.736C10.338,316.295,10.688,316.399,10.711,316.697z"/>
	<path fill="#FFFFFF" d="M21.812,319.099c0.268,1.317,0.149,2.537-0.359,3.66c-0.597,1.349-1.64,2.175-3.129,2.479
		c-1.507,0.307-2.732,0.055-3.672-0.758c-0.777-0.67-1.299-1.664-1.567-2.981c-0.265-1.301-0.172-2.651,0.28-4.05
		c0.578-1.728,1.556-2.732,2.933-3.013c0.354-0.072,0.89-0.006,1.611,0.198C20.024,315.222,21.326,316.71,21.812,319.099z
		 M20.468,319.349c-0.2-0.98-0.537-1.828-1.012-2.544c-0.687-0.992-1.515-1.389-2.482-1.192c-1.117,0.228-1.868,1.011-2.255,2.349
		c-0.294,1.032-0.331,2.085-0.113,3.156c0.196,0.964,0.529,1.742,0.998,2.331c0.668,0.805,1.514,1.102,2.537,0.894
		c1.117-0.228,1.858-0.92,2.223-2.079C20.645,321.361,20.68,320.39,20.468,319.349z"/>
	<path fill="#FFFFFF" d="M30.364,313.123c0.097,0.475,0.18,1.195,0.251,2.161s0.176,1.794,0.317,2.482
		c0.056,0.275,0.196,0.793,0.419,1.553c0.222,0.76,0.368,1.308,0.436,1.645c0.137,0.674,0.126,1.099-0.031,1.274
		c-0.1,0.084-0.252,0.147-0.456,0.188c-0.41,0.083-0.719-0.005-0.927-0.266c-0.133-0.275-0.266-0.544-0.396-0.804
		c-0.401,0.793-1.235,1.409-2.502,1.849c-0.471,0.16-1.066,0.096-1.783-0.189c-0.652-0.251-1.109-0.543-1.37-0.874
		c-0.364-0.454-0.693-1.404-0.988-2.849l-1.02-5.005c-0.206-0.438,0.063-0.733,0.808-0.885c0.521-0.106,0.832,0.085,0.932,0.575
		c0.15,0.735,0.317,1.697,0.501,2.887c0.25,1.512,0.417,2.474,0.501,2.887c0.094,0.555,0.355,1.075,0.783,1.562
		c0.507,0.583,1.048,0.815,1.625,0.697c0.95-0.193,1.578-0.863,1.888-2.011c0.213-0.856,0.224-1.751,0.034-2.685l-0.613-3.008
		c-0.025-0.122-0.111-0.284-0.259-0.485c-0.147-0.201-0.235-0.371-0.263-0.509c-0.016-0.076-0.023-0.162-0.023-0.258
		c0.22-0.252,0.459-0.412,0.716-0.481C29.77,312.344,30.242,312.526,30.364,313.123z"/>
	<path fill="#FFFFFF" d="M38.572,311.881c0.013,0.062,0.03,0.193,0.052,0.396c-0.18,0.356-0.382,0.556-0.604,0.602
		c-0.15,0.03-0.295-0.019-0.438-0.15c-0.253-0.953-0.835-1.337-1.747-1.151c-0.596,0.121-0.998,1.144-1.207,3.068
		c-0.089,0.703-0.022,1.606,0.203,2.708c0.287,1.409,0.51,2.264,0.668,2.566c0.028,0.042,0.094,0.129,0.199,0.258
		c0.104,0.131,0.164,0.234,0.179,0.31c0.069,0.337-0.176,0.562-0.734,0.676c-0.633,0.129-1.004-0.074-1.113-0.611
		c-0.016-0.076-0.015-0.192,0.002-0.347c0.016-0.154,0.017-0.27,0.002-0.347c-0.172-0.842-0.476-2.095-0.911-3.76
		c-0.437-1.665-0.74-2.918-0.911-3.76c-0.062-0.306-0.036-0.507,0.081-0.603c0.116-0.095,0.36-0.181,0.733-0.257
		c0.465-0.095,0.763-0.012,0.893,0.248c0.08,0.303,0.161,0.597,0.239,0.884c0.359-0.71,0.568-1.112,0.627-1.204
		c0.331-0.466,0.72-0.745,1.167-0.836c0.336-0.068,0.688-0.052,1.057,0.048c0.204,0.054,0.509,0.239,0.912,0.555
		C38.323,311.493,38.54,311.728,38.572,311.881z"/>
	<path fill="#FFFFFF" d="M55.451,312.244c0.268,1.317,0.149,2.537-0.359,3.66c-0.597,1.349-1.64,2.175-3.129,2.479
		c-1.507,0.307-2.732,0.055-3.672-0.758c-0.777-0.67-1.299-1.664-1.567-2.981c-0.265-1.301-0.172-2.651,0.28-4.05
		c0.578-1.728,1.556-2.732,2.933-3.013c0.354-0.072,0.89-0.006,1.611,0.198C53.662,308.368,54.964,309.856,55.451,312.244z
		 M54.106,312.494c-0.2-0.98-0.537-1.828-1.012-2.544c-0.687-0.992-1.515-1.39-2.482-1.192c-1.117,0.228-1.868,1.011-2.255,2.349
		c-0.294,1.032-0.331,2.085-0.113,3.156c0.196,0.964,0.529,1.742,0.998,2.331c0.668,0.805,1.514,1.102,2.537,0.894
		c1.117-0.228,1.858-0.92,2.223-2.079C54.284,314.507,54.319,313.535,54.106,312.494z"/>
	<path fill="#FFFFFF" d="M69.117,306.542c0.296,1.454,0.357,2.941,0.182,4.459c-0.239,2.153-0.983,3.357-2.229,3.611
		c-0.912,0.186-1.789-0.122-2.631-0.923c-0.336-0.41-0.672-0.828-1.011-1.253l-0.102,0.069c-0.136,0.666-0.281,1.333-0.435,2.002
		c-0.247,0.784-0.762,1.256-1.544,1.415c-2.364,0.482-4.021-1.611-4.973-6.28c-0.218-1.071-0.353-1.921-0.403-2.549
		c0.099-0.179,0.251-0.29,0.456-0.332s0.46-0.026,0.766,0.047s0.476,0.194,0.51,0.362c0.041,0.199,0.043,0.522,0.008,0.967
		c-0.036,0.446-0.028,0.791,0.022,1.036c0.811,3.98,1.839,5.843,3.087,5.588c0.8-0.163,1.29-1.043,1.468-2.642
		c0.157-1.228,0.133-2.299-0.073-3.213l-0.449-2.204c-0.066-0.322,0.125-0.528,0.572-0.619c0.54-0.11,0.873,0.142,0.997,0.754
		c0.016,0.077,0.025,0.194,0.028,0.353s0.012,0.276,0.028,0.353l0.575,2.824c0.134,0.659,0.417,1.334,0.85,2.027
		c0.556,0.923,1.132,1.323,1.727,1.202c0.801-0.163,1.301-1.134,1.501-2.912c0.147-1.369,0.123-2.536-0.074-3.501
		c-0.196-0.964-0.39-1.538-0.583-1.722c-0.003-0.015-0.083-0.071-0.238-0.167c-0.156-0.096-0.238-0.166-0.247-0.213
		c-0.034-0.168,0.021-0.347,0.167-0.536c0.146-0.189,0.321-0.304,0.526-0.346C68.263,304.062,68.771,304.843,69.117,306.542z"/>
	<path fill="#FFFFFF" d="M81.325,311.803c-0.071,0.19-0.203,0.304-0.396,0.344c-0.194,0.04-0.531-0.003-1.014-0.128l-0.037-0.184
		c-0.028-0.138-0.07-0.345-0.126-0.62s-0.097-0.474-0.122-0.597c-1.035-5.082-2.322-7.466-3.859-7.153
		c-0.482,0.098-0.942,0.495-1.379,1.189c-1.114,1.726-1.448,3.683-1.002,5.872c0.059,0.291,0.196,0.705,0.413,1.243
		c0.216,0.538,0.354,0.952,0.413,1.243c0.047,0.229-0.119,0.383-0.497,0.46c-0.721,0.147-1.179-0.262-1.375-1.226l-1.062-5.212
		c-0.028-0.138-0.059-0.338-0.094-0.603c-0.034-0.264-0.066-0.465-0.094-0.603c-0.04-0.199-0.132-0.483-0.276-0.853
		c-0.143-0.369-0.233-0.646-0.27-0.83c-0.025-0.122,0.062-0.288,0.262-0.496c0.199-0.208,0.365-0.325,0.495-0.352
		c0.241-0.049,0.487,0.012,0.735,0.185c0.147,1.006,0.238,1.594,0.272,1.761c0.047,0.23,0.101,0.45,0.163,0.661
		c0.158-0.08,0.33-0.378,0.516-0.895c0.234-0.654,0.452-1.112,0.649-1.376c0.36-0.519,0.828-0.838,1.405-0.956
		c0.223-0.045,0.572-0.045,1.047,0.002c1.067,0.102,1.887,0.461,2.459,1.078c0.972,1.062,1.661,2.587,2.066,4.577L81.325,311.803z"
		/>
	<path fill="#FFFFFF" d="M32.831,349.292c0.141,0.691-0.376,1.402-1.547,2.133c-0.977,0.589-1.955,0.984-2.936,1.184
		c-0.647,0.132-1.414,0.153-2.304,0.066c-0.487-0.066-1.302-0.333-2.444-0.803c-1.251-0.508-1.904-0.903-1.96-1.181
		c-0.125-0.614,0.261-0.981,1.158-1.103l0.215-0.044c0.17,0.587,1.066,1.077,2.693,1.47c1.469,0.364,2.611,0.462,3.425,0.296
		c1.052-0.214,1.519-0.618,1.398-1.21c-0.072-0.355-0.819-0.717-2.239-1.084c-1.944-0.487-3.291-0.922-4.041-1.303
		c-1.529-0.777-2.433-1.846-2.71-3.208c-0.209-1.026-0.085-2.068,0.373-3.127c0.516-1.255,1.337-1.999,2.462-2.228
		c0.813-0.166,1.858-0.056,3.132,0.331c1.275,0.386,2.072,0.874,2.392,1.465c0.299,0.493,0.522,1.093,0.666,1.801
		c0.156,0.767,0.159,1.638,0.008,2.612c-0.187,0.182-0.425,0.301-0.711,0.36c-0.168,0.034-0.442,0.034-0.823-0.001
		c-0.381-0.034-0.583-0.112-0.607-0.23c0.016,0.079,0.103-0.164,0.263-0.73c0.123-0.373,0.094-1.003-0.086-1.889
		c-0.429-2.105-1.445-2.995-3.048-2.668c-0.838,0.171-1.413,0.77-1.727,1.8c-0.277,0.837-0.338,1.64-0.182,2.41
		c0.197,0.967,1.07,1.765,2.619,2.394c0.518,0.223,1.914,0.648,4.185,1.275C31.957,348.494,32.75,348.898,32.831,349.292z"/>
	<path fill="#FFFFFF" d="M45.62,345.284c0.097,0.475-0.264,1.214-1.081,2.216c-0.818,1.002-1.524,1.636-2.118,1.901
		c-0.793,0.388-1.465,0.639-2.015,0.751c-1.747,0.356-3.193,0.106-4.34-0.749c-1.05-0.751-1.726-1.867-2.028-3.346
		c-0.309-1.518-0.26-3.295,0.148-5.33c0.507-2.527,1.49-3.939,2.95-4.237c0.693-0.141,1.672-0.048,2.935,0.279
		c1.263,0.326,2.018,0.731,2.266,1.214c0.292,0.576,0.498,1.159,0.619,1.75c0.441,2.165,0.267,3.328-0.523,3.489
		c-0.192,0.039-0.431,0.026-0.718-0.039c-0.288-0.064-0.447-0.175-0.479-0.333c-0.016-0.078,0.01-0.192,0.08-0.339
		c0.07-0.147,0.113-0.243,0.129-0.287c0.043-0.275-0.029-0.875-0.218-1.801c-0.445-2.185-1.266-3.155-2.462-2.911
		c-1.316,0.268-2.19,1.484-2.621,3.647c-0.309,1.666-0.322,3.19-0.041,4.57c0.217,1.065,0.601,1.912,1.153,2.54
		c0.739,0.816,1.683,1.106,2.832,0.872c0.693-0.141,1.447-0.605,2.258-1.39c0.728-0.706,1.235-1.399,1.521-2.077
		c0.055-0.218,0.142-0.525,0.261-0.921c0.092-0.163,0.245-0.267,0.46-0.311c0.144-0.029,0.344,0.069,0.602,0.295
		C45.449,344.964,45.592,345.146,45.62,345.284z"/>
	<path fill="#FFFFFF" d="M58.232,339.848c0.345,1.693,0.191,3.262-0.462,4.706c-0.768,1.734-2.109,2.797-4.023,3.187
		c-1.938,0.395-3.512,0.07-4.721-0.975c-0.998-0.862-1.67-2.139-2.015-3.832c-0.341-1.672-0.222-3.409,0.359-5.208
		c0.744-2.222,2-3.513,3.772-3.874c0.454-0.092,1.144-0.008,2.07,0.255C55.933,334.864,57.606,336.778,58.232,339.848z
		 M56.504,340.17c-0.257-1.259-0.691-2.349-1.302-3.27c-0.883-1.275-1.947-1.787-3.191-1.533c-1.436,0.293-2.403,1.3-2.899,3.02
		c-0.378,1.327-0.426,2.68-0.145,4.057c0.253,1.24,0.681,2.239,1.284,2.998c0.858,1.035,1.945,1.417,3.262,1.149
		c1.436-0.293,2.388-1.183,2.858-2.673C56.732,342.757,56.777,341.508,56.504,340.17z"/>
	<path fill="#FFFFFF" d="M67.039,333.165c0.016,0.079,0.038,0.249,0.066,0.509c-0.231,0.457-0.49,0.714-0.777,0.773
		c-0.192,0.039-0.379-0.025-0.562-0.192c-0.325-1.226-1.074-1.718-2.246-1.479c-0.766,0.156-1.283,1.471-1.551,3.944
		c-0.114,0.905-0.028,2.065,0.261,3.483c0.369,1.811,0.655,2.91,0.86,3.299c0.035,0.054,0.121,0.166,0.254,0.333
		c0.134,0.168,0.211,0.301,0.231,0.399c0.088,0.434-0.227,0.723-0.945,0.869c-0.814,0.166-1.291-0.095-1.431-0.785
		c-0.02-0.098-0.019-0.246,0.003-0.446c0.021-0.198,0.022-0.348,0.002-0.446c-0.22-1.082-0.611-2.693-1.172-4.834
		c-0.561-2.14-0.951-3.752-1.172-4.834c-0.08-0.393-0.046-0.652,0.104-0.775c0.149-0.122,0.463-0.233,0.942-0.331
		c0.597-0.122,0.981-0.015,1.149,0.32c0.104,0.389,0.206,0.768,0.306,1.137c0.462-0.914,0.73-1.43,0.807-1.548
		c0.426-0.599,0.926-0.957,1.5-1.074c0.431-0.088,0.884-0.067,1.358,0.061c0.263,0.07,0.655,0.308,1.173,0.714
		C66.718,332.667,66.999,332.969,67.039,333.165z"/>
	<path fill="#FFFFFF" d="M79.746,338.478c0.176,0.866-0.371,1.787-1.642,2.763c-1.141,0.888-2.273,1.447-3.397,1.676
		c-3.207,0.653-5.151-0.693-5.832-4.039c-0.301-1.476-0.3-3.126,0.001-4.95c0.412-2.379,1.289-3.706,2.629-3.979
		c1.148-0.234,2.502-0.013,4.06,0.663c1.559,0.677,2.434,1.488,2.626,2.432c0.249,1.22-0.133,2.405-1.145,3.554
		s-2.271,1.877-3.779,2.184c-0.143,0.029-0.469-0.007-0.975-0.108c-0.507-0.102-0.844-0.136-1.011-0.102
		c-0.311,0.063-0.451,0.174-0.419,0.331c0.461,2.264,1.601,3.21,3.42,2.84c0.933-0.19,1.743-0.621,2.428-1.294
		c0.418-0.393,0.85-0.963,1.297-1.71c0.354-0.585,0.603-0.892,0.747-0.921C79.303,337.707,79.634,337.927,79.746,338.478z
		 M76.163,333.55c-0.14-0.689-0.511-1.284-1.112-1.787s-1.296-0.673-2.086-0.513c-0.957,0.195-1.635,0.846-2.032,1.951
		c-0.334,0.929-0.411,1.836-0.231,2.722c0.116,0.571,0.435,1.002,0.956,1.296c0.521,0.294,1.127,0.369,1.822,0.228
		c0.981-0.2,1.725-0.71,2.231-1.531C76.18,335.166,76.332,334.377,76.163,333.55z"/>
</g>
<path fill="#FFFFFF" d="M118.173,119.06"/>
<g>
	<path fill="#FFFFFF" d="M35.518,217.059c2.745-18.13,12.052-30.417,28.137-37.561c5.163-2.294,10.473-3.07,15.869-1.229
		c1.175,0.401,1.923,2.055,2.867,3.132c-1.226,0.529-2.485,1.584-3.672,1.509c-17.302-1.097-33.157,11.272-37.09,28.937
		c-1.682,7.553-2.601,14.997-0.063,22.594c0.458,1.371-0.685,3.276-1.088,4.935c-1.217-1.327-3.088-2.466-3.536-4.015
		C35.147,229.147,33.408,222.831,35.518,217.059z"/>
	<path fill="#FFFFFF" d="M50.87,238.307c-0.11,0.474-0.336,2.246-0.935,3.881c-2.586,7.057-7.252,8.73-13.36,4.827
		c-3.947-2.523-7.942-4.995-11.682-7.801c-1.085-0.814-1.362-2.704-2.01-4.101c1.59,0.026,3.487-0.499,4.713,0.182
		c3.701,2.054,7.123,4.606,10.688,6.911c4.066,2.629,6.14,1.802,7.344-3.013c0.567-2.269,0.622-4.689,1.377-6.878
		c0.44-1.276,1.807-2.233,2.757-3.333c0.679,1.394,1.662,2.731,1.942,4.201C51.936,234.392,51.331,235.759,50.87,238.307z"/>
</g>
<path fill="#FFFFFF" d="M132.755,173.159c-1.432-2.797-3.857-9.56-5.104-12.476c-7.945-18.57-13.968-37.743-17.984-57.497
	c-2.517-12.385-4.186-24.942-6.204-37.427c-0.622-3.846-0.427-4.073,3.403-5.156c1.86-0.526,3.717-1.06,5.576-1.59
	c-0.066-0.275-0.131-0.549-0.197-0.824c-3.01,0.775-6.019,1.55-8.982,2.313c-0.977-1.997-0.037-2.948,1.63-3.478
	c1.026-0.327,2.082-0.566,3.129-0.825c1.685-0.417,3.374-0.817,5.061-1.224c-0.068-0.276-0.135-0.553-0.203-0.829
	c-3.288,0.761-6.576,1.521-10.085,2.333c-0.334-3.446-0.489-6.766-1.036-10.02c-0.301-1.789,0.342-2.515,1.838-2.851
	c2.515-0.566,5.023-1.313,7.574-1.548c6.839-0.631,14.743-1.23,21.584-1.883v-3.52c-9.976,0.998-21.009,2.305-30.963,4.004
	c-0.638-1.798-1.354-3.673-2.056-6.132c-0.006-0.029-0.012-0.058-0.017-0.087c-1.183-5.827-4.433-11.019-8.958-14.875
	c-16.065-13.689-28.273-4.652-37.511,0.559c-4.567,2.576-6.661,5.701-9.386,9.057c-7.844,9.661-9.924,20.878-8.749,32.888
	c1.55,15.834,9.021,29.241,17.725,42.083c11.538,17.023,24.95,32.465,40.407,46.179c1.347,1.195,2.526,2.573,3.445,4.122
	c4.634,7.816,12.134,24.384,12.18,32.702c0.013,2.372-4.032-1.579-5.909-1.998c-7.366-1.645-11.716,7.691-10.584,12.616
	c1.397,6.079,4.778,10.271,11.038,11.445c6.51,1.221,11.818-1.272,15.823-6.359c5.499-6.986,5.302-15.118,4.247-23.346
	c-0.158-1.234-0.522-2.441-0.776-3.664c-0.034-0.157,0.023-0.329,0.048-0.574c1.55-0.173,2.936-0.48,4.304-0.413
	c0.636,0.031,1.427,0.662,1.821,1.242c0.957,1.412,2.95,4.689,3.873,6.126 M111.989,202.081c-3.81,3.101-7.838,3.653-10.422,0.586
	c-1.445-1.716-2.407-3.961-3.14-6.119c-0.655-1.928,1.251-4.538,3.489-5.468c2.038-0.847,3.712-0.131,4.719,1.587l0.128,1.022
	c0.184,1.471,1.574,2.48,3.03,2.2c0.852-0.164,1.567-0.75,1.899-1.552c1.827-4.418,1.18-8.357-0.191-13.006
	c-2.678-9.075,1.041-7.289-13.02-31.57c-2.628-4.537-7.047-7.766-10.612-11.61c-10.071-10.859-20.516-21.39-28.788-33.788
	c-6.908-10.353-13.2-20.987-16.208-33.24c-3.792-15.449-7.13-30.828,8.407-44.969C74.846,5.38,89.511,20.045,94.878,36.29
	c1.092,2.434,1.393,3.946,1.614,5.972c0.556,5.096-3.079,10.38-7.591,11.19c-2.873,0.515-5.229-0.717-7.031-2.879
	c-1.37-1.644-1.862-3.662-0.742-5.573c0.541-0.924,1.724-1.854,2.725-1.992c0.407-0.056,1.053,0.348,1.539,0.851
	c0.575,0.595,1.464,0.766,2.252,0.511c1.033-0.335,1.675-1.397,1.435-2.457c-0.982-4.331-3.315-7.901-7.835-9.787
	c-7.25-3.025-15.605-0.544-20.707,6.021c-7.466,9.607-8.397,20.604-6.584,32.044c1.74,10.978,6.816,20.606,12.802,29.829
	c7.898,12.169,18.287,22.201,27.928,32.877c8.419,9.322,15.805,19.314,20.235,31.228l3.52,8.621
	c0.136,2.813,0.869,5.596,1.014,8.409C119.864,189.13,118.76,196.572,111.989,202.081z M118.844,161.994
	c-0.335-0.573-0.739-1.103-0.981-1.699c-4.018-9.9-9.948-18.623-16.856-26.661c-7.862-9.149-16.1-17.976-23.982-27.109
	c-8.907-10.322-16.078-21.632-18.507-35.368c-1.716-9.702-1.071-19.084,4.177-27.737c3.743-6.171,8.822-8.691,15.246-7.436
	c0.937,0.183,1.836,0.56,2.728,0.972c1.106,0.511,1.159,2.06,0.081,2.628c-0.006,0.003-0.013,0.007-0.019,0.01
	c-4.262,2.247-5.693,8.106-2.956,12.086c4.548,6.614,13.623,7.147,18.895,1.089c0.306-0.351,0.418-0.871,0.62-1.312
	c0.227,0.147,0.454,0.293,0.681,0.44c0.076,0.369,0.196,0.735,0.22,1.107c0.735,11.366,0.908,22.803,2.341,34.08
	c1.485,11.678,3.829,23.283,6.46,34.768c2.955,12.901,7.489,25.339,13.072,37.362C120.723,160.631,120.692,161.56,118.844,161.994z"
	/>
<path fill="none" d="M187.835,307.932c5.255,1.659,6.349,2.119,3.589,8.684c-0.032,0.077-0.042,0.163-0.078,0.237
	c-2.359,4.839-5.42,8.51-11.576,8.144c-2.711-0.161-5.473,0.36-8.2,0.68c-3.032,0.356-4.188,1.595-4.94,4.674
	c-0.54,2.21-0.883,4.451-3.437,5.671c-1.305,0.623-2.393,2.142-3.087,3.507c-1.231,2.422-3.214,3.629-5.669,4.008
	c-3.19,0.493-5.552,1.982-7.318,4.666c-0.966,1.469-2.178,2.628-4.294,2.448c-0.868-0.074-1.81,0.729-2.718,1.132
	c0.026,0.274,0.051,0.547,0.077,0.821c3.211,0.818,6.422,1.636,9.633,2.455c-0.023,0.112-0.046,0.224-0.069,0.337
	c-3.523-0.47-7.047-0.94-10.867-1.449c0.433,1.253,0.674,1.948,0.997,2.881c-2.622,0.03-5.332-1.939-7.376,1.279
	c4.217,2.853,9.362,2.707,13.761,4.696c-5.344,0.106-10.327-1.26-14.981-3.698c-1.998,3.483-1.637,5.199,1.149,5.801
	c11.309,2.444,22.606,5.17,34.232,5.399c17.564,0.347,35.135,0.369,52.703,0.507c0.552,0.004,1.106-0.235,1.934-0.424
	c-3.28-2.595-10.904-4.559-13.353-3.553c0.669,0.584,1.295,1.131,1.921,1.677c-3.469-0.944-6.646-3.318-10.415-1.164
	c-0.206,0.118-0.624-0.162-0.949-0.22c-1.219-0.217-2.436-0.557-3.664-0.606c-10.9-0.439-21.803-0.795-32.701-1.251
	c-2.365-0.097-4.718-0.497-7.077-0.758c0.034-0.323,0.068-0.647,0.102-0.97c0.691,0,1.382-0.021,2.072,0.003
	c14.809,0.512,29.614,1.233,44.427,1.49c15.173,0.263,30.299-0.777,45.305-3.131c3.436-0.539,6.821-1.464,10.182-2.382
	c0.716-0.195,1.23-1.132,1.837-1.727c-0.783-0.647-1.517-1.743-2.36-1.836c-1.24-0.136-2.551,0.491-3.846,0.708
	c-1.319,0.221-2.656,0.34-3.984,0.503c-0.022-0.215-0.043-0.43-0.065-0.645c1.185-0.55,2.37-1.101,3.556-1.651
	c-6.642,0.406-13.058,1.455-19.518,2.018c-6.548,0.571-13.136,0.763-19.711,0.933c-6.579,0.17-13.164,0.175-19.745,0.128
	c-6.464-0.046-12.927-0.248-19.39-0.381c1.097-0.613,2.177-0.687,3.258-0.706c16.324-0.294,32.657-0.338,48.967-0.973
	c7.784-0.303,15.531-1.672,23.275-2.713c0.828-0.111,1.516-1.26,2.27-1.927c-1.046-0.082-2.122-0.359-3.134-0.209
	c-2.53,0.375-5.019,1.04-7.553,1.381c-0.814,0.109-1.715-0.43-2.576-0.673c0.036-0.187,0.073-0.375,0.109-0.562
	c3.238-0.673,6.475-1.347,9.713-2.02c0.096-0.546,0.101-0.577,0.197-1.123c-2.032-1.248-4.069-2.487-6.095-3.745
	c-2.238-1.39-4.689-2.542-6.644-4.257c-2.862-2.51-5.303-5.495-8.073-8.121c-0.609-0.577-1.884-0.79-2.782-0.664
	c-3.611,0.507-7.187,1.701-10.789,1.752c-9.723,0.139-19.454-0.133-29.18-0.353c-1.867-0.042-4.079-0.161-3.927-3.199
	c1.519,0.755,2.891,1.437,4.362,2.169c0.128-0.593,0.217-1.006,0.236-1.095h0c0.006-0.029,0.005-0.025,0,0c2.506,0,4.683,0,6.861,0
	c-0.006-0.203-0.012-0.406-0.019-0.609c0.785,0.378,1.569,0.756,2.578,1.242c-0.218-1.066-0.369-1.8-0.632-3.084
	c2.658,1.682,4.887,3.093,7.117,4.503c0.097-0.174,0.193-0.348,0.29-0.522c-0.228-0.598-0.456-1.197-0.648-1.701
	c2.638,0.194,4.998,0.385,7.36,0.533c1.296,0.081,2.607,0.207,3.892,0.096c1.081-0.093,2.129-0.666,3.204-0.709
	c0.75-0.03,1.522,0.476,2.574,0.843c-0.318-0.855-0.517-1.388-0.937-2.518c1.66,0.697,2.793,1.173,4.006,1.682v-2.202
	c0.799,0.268,1.403,0.471,2.009,0.669c0.079-0.515,0.158-1.03,0.267-1.748c1.085,0.484,1.954,0.872,2.957,1.32
	c0.399-1.964-0.686-2.546-2.158-2.575c-6.302-0.122-12.605-0.184-18.908-0.25c-2.4-0.025-4.8-0.004-7.2-0.004
	c-0.005-0.223-0.01-0.447-0.015-0.67c1.532-0.174,3.106-0.188,4.584-0.571c1.199-0.311,2.284-1.064,3.42-1.622
	c-0.567-1.126-1.097-2.274-1.713-3.372c-0.678-1.209-1.783-2.289-2.091-3.573c-0.764-3.181,0.617-5.325,4.016-6.743
	c4.902-2.045,9.204-4.843,12.18-9.163h-40.844C180.113,303.694,183.494,306.562,187.835,307.932z"/>
<path fill="none" d="M240.2,365.997c-1.913,0.034-3.282-2.455-5.459-0.69c0.829,0.633,1.508,1.151,2.187,1.67
	c-0.097,0.218-0.195,0.437-0.292,0.655c-2.088-0.851-4.176-1.701-6.701-2.73c0.365,1.227,0.526,1.768,0.687,2.31
	c-2.784-2.534-5.752-1.737-8.949-1.111c0.475,0.752,0.819,1.297,1.164,1.842c-1.675-0.742-3.351-1.484-5.026-2.226
	c-0.149,0.34-0.298,0.679-0.447,1.019c2.631,0.77,3.942,4.186,8.083,3.544c-0.918-1.015-1.387-1.536-1.856-2.056
	c2.583,2.415,5.636,2.234,8.817,1.713c1.877-0.307,3.807-0.275,5.701-0.502c2.646-0.318,5.279-0.735,8.643-1.213
	c-2.298-1.761-3.949-3.026-5.825-4.464C240.584,364.814,240.376,365.454,240.2,365.997z"/>
<path fill="none" d="M253.724,362.659c1.428,1.151,2.855,2.302,4.283,3.454c0.233-0.324,0.465-0.647,0.698-0.971
	c-1.479-1.087-2.959-2.173-4.438-3.26C254.086,362.141,253.905,362.4,253.724,362.659z"/>
<path fill="none" d="M249.186,363.252c1.983,4.118,3.296,4.661,6.648,2.884C253.04,363.056,251.5,362.358,249.186,363.252z"/>
<path fill="none" d="M243.887,364.184c3.798,3.566,4.607,3.94,6.311,3.002C247.613,363.744,246.802,363.333,243.887,364.184z"/>
<path fill="none" d="M80.699,54.107c-6.201-3.653-7.01-12.131-1.664-15.953c2.258-1.615,2.188-2.918-0.419-4.045
	c-1.15-0.497-2.429-0.65-3.672-0.492c-3.723,0.473-6.605,2.593-8.999,5.327c-6.688,7.636-7.811,16.676-6.265,26.269
	c1.79,11.106,6.641,20.981,13.478,29.7c7.746,9.877,16.117,19.266,24.27,28.821c8.297,9.724,15.989,19.818,20.424,32.003
	c0.195,0.536,0.596,0.998,0.901,1.495c0.269-0.112,0.539-0.225,0.808-0.337c-7.273-16.24-12.579-33.089-16.059-50.485
	c-3.509-17.547-5.592-35.266-5.789-53.64c-1.115,0.615-1.799,1.01-2.499,1.376C90.37,56.683,85.452,56.907,80.699,54.107z"/>
<path fill="none" d="M114.119,39.42c-2.955,0.483-5.915,0.986-8.821,1.694c-3.921,0.955-3.886,1.041-3.541,4.985
	c0.221,2.527,0.396,5.058,0.597,7.663c2.531-0.487,4.657-0.896,6.783-1.306c0.037,0.242,0.075,0.484,0.112,0.726
	c-1.517,0.367-3.039,0.715-4.55,1.107c-1.774,0.46-2.844,1.324-1.758,3.424c3.679-0.77,7.341-1.532,11.004-2.294
	c0.07,0.251,0.139,0.503,0.209,0.754c-0.881,0.272-1.75,0.598-2.646,0.805c-2.26,0.522-4.521,1.064-6.805,1.454
	c-1.698,0.29-2.179,1.178-1.98,2.792c1.262,10.234,2.029,20.554,3.822,30.693c2.986,16.891,7.394,33.461,13.192,49.633
	c3.666,10.224,7.732,20.231,13.018,29.609V38.177L114.119,39.42z"/>
<path fill="none" d="M271.218,53.582c-13.15-1.251-26.313-2.097-39.513-2.621v110.396c0.503-0.989,1.01-1.977,1.495-2.971
	c9.058-18.537,14.812-38.041,17.147-58.578c1.331-11.705,1.758-23.4,0.97-35.147c-0.039-0.58-0.105-1.18-0.002-1.741
	c0.063-0.343,0.495-0.923,0.64-0.889c0.413,0.098,0.995,0.389,1.095,0.727c0.233,0.783,0.267,1.637,0.301,2.466
	c0.791,19.248-0.916,38.21-5.804,56.912c-3.773,14.435-9.007,28.216-15.842,41.331v4.505c2.658-4.799,5.083-9.73,7.381-14.731
	c6.313-13.734,10.969-28.006,14.167-42.776c2.631-12.151,4.299-24.411,4.679-36.843c0.022-0.713,0.204-1.421,0.494-2.097
	c0,4.524,0.346,9.08-0.062,13.567c-1.509,16.627-4.936,32.88-10.131,48.758c-4.247,12.981-9.831,25.341-16.528,37.196v34.111
	c3.341-2.379,6.654-4.875,9.322-7.886c9.71-10.955,17.483-23.209,23.27-36.734c7.945-18.57,13.968-37.743,17.984-57.497
	c2.517-12.385,4.186-24.942,6.204-37.427c0.622-3.846,0.427-4.073-3.403-5.156c-1.86-0.526-3.717-1.06-5.576-1.59
	c0.066-0.275,0.131-0.549,0.197-0.824c3.01,0.775,6.019,1.55,8.982,2.313c0.977-1.997,0.037-2.948-1.63-3.478
	c-1.026-0.327-2.082-0.566-3.129-0.825c-1.685-0.417-3.374-0.817-5.061-1.224c0.068-0.276,0.135-0.553,0.203-0.829
	c3.288,0.761,6.576,1.521,10.085,2.333c0.334-3.446,0.489-6.766,1.036-10.02c0.301-1.789-0.342-2.515-1.838-2.851
	c-2.515-0.566-5.023-1.313-7.574-1.548c-13.842-1.278-27.678-3.081-41.55-3.467c-2.507-0.07-5.015-0.124-7.522-0.174v11.872
	C251.117,50.933,268.237,52.196,271.218,53.582z M236.172,144.523c2.105-7.129,4.303-13.601,5.89-20.219
	c1.585-6.608,2.876-13.323,3.711-20.063c0.847-6.84,1.273-13.766,1.342-20.66c0.066-6.689-0.553-13.385-0.871-20.078
	C252.624,72.055,245.626,126.187,236.172,144.523z"/>
<path fill="none" d="M121.772,165.76c-1.257-0.009-2.514-0.002-3.772-0.002c-0.023-0.156-0.047-0.312-0.07-0.468
	c1.639-0.397,3.279-0.794,5.086-1.232c-0.33-0.683-0.677-1.401-1.006-2.082c-4.866,1.088-6.14,0.716-7.402-2.377
	c-4.302-10.544-10.81-19.658-18.259-28.143c-7.851-8.944-16.083-17.568-23.636-26.754c-9.512-11.57-16.067-24.694-17.932-39.761
	c-1.089-8.8-0.599-17.467,3.889-25.472c2.83-5.046,6.749-8.811,12.352-10.638c7.947-2.592,17.969,4.443,17.981,12.862
	c0.002,1.449-1.206,3.19-2.351,4.27c-1.241,1.172-2.572,0.508-3.293-1.22c0.366-0.121,0.579-0.255,0.791-0.252
	c1.861,0.028,2.893-0.761,2.579-2.724c-0.37-2.31-3.247-3.268-5.488-1.307c-1.58,1.383-1.962,3.698-1.126,5.623
	c1.085,2.5,3.07,4.173,5.789,4.766c2.991,0.653,5.587-0.442,7.554-2.822c2.747-3.324,3.575-7.11,2.353-11.233
	c-0.645-2.178-1.597-4.266-2.445-6.486c0.806-0.234,1.495-0.435,2.174-0.632c-0.942-4.766-2.892-7.371-6.865-9.625
	c-0.627-0.356-0.907-1.325-1.347-2.01c0.645-0.068,1.289-0.153,1.935-0.201c0.903-0.067,1.808-0.106,3.111-0.18
	c-1.681-3.164-3.834-4.797-6.767-5.406c-3.832-0.795-7.42,0.047-10.922,1.614c-1.044,0.467-2.21,0.661-3.85,1.132
	c0.477-1.953,0.959-3.202,1.031-4.473c0.049-0.877-0.228-2.062-0.821-2.581c-0.378-0.331-1.902,0.024-2.391,0.553
	c-1.838,1.987-3.444,4.188-5.179,6.274c-0.514,0.618-1.165,1.123-1.753,1.68c-0.079-0.832-0.193-1.662-0.218-2.496
	c-0.009-0.312,0.219-0.625,0.294-0.948c1.051-4.514-1.021-9.515-4.693-11.269c0.46,2.175,1.198,4.309,1.314,6.477
	c0.32,5.982-2.259,11.079-5.806,15.585c-12.374,15.72-14.406,33.031-8.13,51.594c4.757,14.07,13.375,25.792,23.246,36.636
	c7.958,8.743,16.138,17.283,24.176,25.954c2.032,2.193,3.974,4.481,5.82,6.833c3.799,4.842,5.02,10.367,4.249,16.442
	c-0.266,2.099-0.885,4.343,0.637,6.594c0.436-0.568,0.639-0.924,0.925-1.191c1.38-1.286,2.931-1.912,4.77-1.018
	c1.736,0.844,2.311,2.319,2.054,4.144c-0.15,1.065-0.142,2.305-0.701,3.13c-1.549,2.287-0.866,4.148,0.478,6.188
	c4.506,6.834,4.338,10.851-0.557,17.245c-1.659,2.167-5.057,3.278-7.102,2.051c-0.753-0.451-1.277-1.606-1.478-2.533
	c-0.122-0.562,0.575-1.302,0.721-1.593c0.813,1.262,1.376,3.036,2.12,3.116c2.027,0.218,3.031-1.437,3.394-3.288
	c0.384-1.964-1.466-4.33-3.584-4.749c-1.86-0.368-4.831,1.964-5.273,4.139c-0.582,2.863,1.252,7.249,3.981,8.922
	c2.71,1.661,5.667,1.255,8.013-0.502c3.335-2.496,6.145-5.612,7.68-9.636c2.245-5.884,2.129-11.919,0.87-17.945
	c-1.297-6.207-0.373-7.462,5.647-6.953C124.582,165.207,123.006,165.769,121.772,165.76z"/>
<path fill="none" d="M340.669,26.01c-23.568-20.775-38.232-6.11-43.599,10.135c-1.093,2.434-1.393,3.946-1.614,5.972
	c-0.556,5.096,3.079,10.38,7.591,11.19c2.873,0.515,5.229-0.717,7.031-2.879c1.37-1.644,1.862-3.662,0.742-5.573
	c-0.541-0.924-1.724-1.854-2.725-1.992c-0.407-0.056-1.053,0.348-1.539,0.852c-0.575,0.595-1.464,0.766-2.252,0.511
	c-1.033-0.335-1.675-1.397-1.435-2.457c0.982-4.331,3.315-7.901,7.835-9.787c7.25-3.025,15.605-0.544,20.707,6.021
	c7.466,9.607,8.397,20.604,6.584,32.044c-1.74,10.978-6.816,20.606-12.802,29.829c-7.898,12.169-18.287,22.201-27.928,32.877
	c-8.419,9.322-15.805,19.314-20.235,31.228l-3.52,8.621c-0.136,2.813-0.869,5.596-1.014,8.409
	c-0.412,7.974,0.692,15.416,7.463,20.925c3.81,3.101,7.838,3.653,10.422,0.586c1.445-1.716,2.407-3.961,3.14-6.119
	c0.655-1.928-1.251-4.538-3.489-5.468c-2.038-0.847-3.712-0.131-4.719,1.587l-0.128,1.022c-0.184,1.471-1.574,2.48-3.03,2.2
	c-0.852-0.164-1.567-0.75-1.899-1.552c-1.827-4.418-1.18-8.357,0.191-13.006c2.678-9.075-1.041-7.289,13.02-31.57
	c2.628-4.537,7.047-7.766,10.612-11.61c10.071-10.859,20.516-21.39,28.788-33.788c6.908-10.353,13.2-20.987,16.208-33.24
	C352.868,55.529,356.207,40.151,340.669,26.01z"/>
<path fill="none" d="M274.085,160.15c4.018-9.9,9.948-18.623,16.856-26.661c7.862-9.149,16.1-17.976,23.982-27.109
	c8.907-10.322,16.078-21.632,18.507-35.368c1.716-9.702,1.071-19.084-4.177-27.737c-3.743-6.171-8.822-8.691-15.246-7.436
	c-0.937,0.183-1.836,0.56-2.728,0.972c-1.106,0.511-1.159,2.06-0.081,2.628c0.006,0.003,0.013,0.007,0.019,0.01
	c4.262,2.247,5.693,8.106,2.956,12.086c-4.548,6.614-13.623,7.147-18.895,1.089c-0.306-0.351-0.418-0.871-0.62-1.312
	c-0.227,0.147-0.454,0.293-0.681,0.44c-0.076,0.369-0.196,0.735-0.22,1.107c-0.735,11.366-0.908,22.803-2.341,34.08
	c-1.485,11.678-3.829,23.283-6.46,34.768c-2.955,12.901-7.489,25.339-13.072,37.362c-0.659,1.418-0.628,2.347,1.22,2.781
	C273.439,161.276,273.843,160.746,274.085,160.15z"/>
<path fill="none" d="M259.629,364.162c0.399,0.364,1.377,0.719,1.596,0.523c0.464-0.414,0.961-1.296,0.814-1.806
	c-0.891-3.102-1.281-4.633-4.994-1.57C257.982,362.365,258.732,363.344,259.629,364.162z"/>
<path fill="#FFFFFF" d="M206.372,308.95c-3.399,1.418-4.78,3.562-4.016,6.743c0.308,1.284,1.413,2.364,2.091,3.573
	c0.616,1.098,1.146,2.246,1.713,3.372c-1.136,0.558-2.221,1.311-3.42,1.622c-1.478,0.383-3.052,0.397-4.584,0.571
	c0.005,0.223,0.01,0.447,0.015,0.67c2.4,0,4.8-0.021,7.2,0.004c6.303,0.066,12.606,0.128,18.908,0.25
	c1.472,0.029,2.557,0.611,2.158,2.575c-1.003-0.448-1.872-0.836-2.957-1.32c-0.109,0.718-0.188,1.233-0.267,1.748
	c-0.606-0.198-1.21-0.401-2.009-0.669v2.202c-1.213-0.509-2.346-0.985-4.006-1.682c0.42,1.13,0.619,1.663,0.937,2.518
	c-1.052-0.367-1.824-0.873-2.574-0.843c-1.075,0.043-2.123,0.616-3.204,0.709c-1.285,0.111-2.596-0.015-3.892-0.096
	c-2.362-0.148-4.722-0.339-7.36-0.533c0.192,0.504,0.42,1.103,0.648,1.701c-0.097,0.174-0.193,0.348-0.29,0.522
	c-2.23-1.41-4.459-2.821-7.117-4.503c0.263,1.284,0.414,2.018,0.632,3.084c-1.009-0.486-1.793-0.864-2.578-1.242
	c0.007,0.203,0.013,0.406,0.019,0.609c-2.178,0-4.355,0-6.861,0c-0.019,0.089-0.108,0.502-0.236,1.095
	c-1.471-0.732-2.843-1.414-4.362-2.169c-0.152,3.038,2.06,3.157,3.927,3.199c9.726,0.22,19.457,0.492,29.18,0.353
	c3.602-0.051,7.178-1.245,10.789-1.752c0.898-0.126,2.173,0.087,2.782,0.664c2.77,2.626,5.211,5.611,8.073,8.121
	c1.955,1.715,4.406,2.867,6.644,4.257c2.025,1.258,4.062,2.497,6.095,3.745c-0.096,0.546-0.101,0.577-0.197,1.123
	c-3.238,0.673-6.475,1.347-9.713,2.02c-0.036,0.187-0.073,0.375-0.109,0.562c0.861,0.243,1.762,0.782,2.576,0.673
	c2.534-0.341,5.023-1.006,7.553-1.381c1.012-0.15,2.088,0.127,3.134,0.209c-0.754,0.667-1.442,1.816-2.27,1.927
	c-7.744,1.041-15.491,2.41-23.275,2.713c-16.31,0.635-32.643,0.679-48.967,0.973c-1.081,0.019-2.161,0.093-3.258,0.706
	c6.463,0.133,12.926,0.335,19.39,0.381c6.581,0.047,13.166,0.042,19.745-0.128c6.575-0.17,13.163-0.362,19.711-0.933
	c6.46-0.563,12.876-1.612,19.518-2.018c-1.186,0.55-2.371,1.101-3.556,1.651c0.022,0.215,0.043,0.43,0.065,0.645
	c1.328-0.163,2.665-0.282,3.984-0.503c1.295-0.217,2.606-0.844,3.846-0.708c0.843,0.093,1.577,1.189,2.36,1.836
	c-0.607,0.595-1.121,1.532-1.837,1.727c-3.361,0.918-6.746,1.843-10.182,2.382c-15.006,2.354-30.132,3.394-45.305,3.131
	c-14.813-0.257-29.618-0.978-44.427-1.49c-0.69-0.024-1.381-0.003-2.072-0.003c-0.034,0.323-0.068,0.647-0.102,0.97
	c2.359,0.261,4.712,0.661,7.077,0.758c10.898,0.456,21.801,0.812,32.701,1.251c1.228,0.049,2.445,0.389,3.664,0.606
	c0.325,0.058,0.743,0.338,0.949,0.22c3.769-2.154,6.946,0.22,10.415,1.164c-0.626-0.546-1.252-1.093-1.921-1.677
	c2.449-1.006,10.073,0.958,13.353,3.553c-0.828,0.189-1.382,0.428-1.934,0.424c-17.568-0.138-35.139-0.16-52.703-0.507
	c-11.626-0.229-22.923-2.955-34.232-5.399c-2.786-0.602-3.147-2.318-1.149-5.801c4.654,2.438,9.637,3.804,14.981,3.698
	c-4.399-1.989-9.544-1.843-13.761-4.696c2.044-3.218,4.754-1.249,7.376-1.279c-0.323-0.933-0.564-1.628-0.997-2.881
	c3.82,0.509,7.344,0.979,10.867,1.449c0.023-0.113,0.046-0.225,0.069-0.337c-3.211-0.819-6.422-1.637-9.633-2.455
	c-0.026-0.274-0.051-0.547-0.077-0.821c0.908-0.403,1.85-1.206,2.718-1.132c2.116,0.18,3.328-0.979,4.294-2.448
	c1.766-2.684,4.128-4.173,7.318-4.666c2.455-0.379,4.438-1.586,5.669-4.008c0.694-1.365,1.782-2.884,3.087-3.507
	c2.554-1.22,2.897-3.461,3.437-5.671c0.752-3.079,1.908-4.318,4.94-4.674c2.727-0.32,5.489-0.841,8.2-0.68
	c6.156,0.366,9.217-3.305,11.576-8.144c0.036-0.074,0.046-0.16,0.078-0.237c2.76-6.565,1.666-7.025-3.589-8.684
	c-4.341-1.37-7.722-4.238-10.127-8.145h-5.317c2.557,5.841,8.293,11.861,13.422,13.297c2.489,0.697,3.367,2.355,1.79,4.389
	c-1.174,1.515-3.005,2.994-4.806,3.45c-3.525,0.893-7.227,1.113-10.867,1.514c-5.188,0.571-7.069,2.304-8.144,7.231
	c-0.223,1.021-1.188,1.953-1.977,2.765c-1.721,1.772-3.857,3.228-5.233,5.221c-1.089,1.578-2.146,2.569-4.004,2.924
	c-2.663,0.509-5.321,1.384-6.749,3.836c-1.137,1.953-2.239,2.832-4.687,2.942c-1.435,0.064-3.51,1.971-3.975,3.461
	c-0.597,1.913-1.581,2.478-3.161,2.834c-3.222,0.725-5.465,2.811-7.135,5.476c-2.387,3.809-1.623,6.91,2.309,8.989
	c2.404,1.271,4.968,2.392,7.592,3.066c4.1,1.054,8.301,1.738,12.479,2.461c22.003,3.805,44.162,5.38,66.441,3.657
	c11.69-0.904,23.342-2.45,34.954-4.103c4.213-0.6,8.719-1.596,12.287-3.746c6.616-3.987,6.935-8.428,2.307-13.434
	c-1.272-1.376-3.351-2.018-5.089-2.943c-0.65-0.346-1.826-0.369-2.001-0.829c-0.926-2.429-3.34-3.771-4.44-5.717
	c-1.91-3.38-4.576-4.901-7.931-5.819c-3.184-0.871-5.251-2.7-6.737-5.746c-0.947-1.942-3.077-3.287-4.583-4.983
	c-0.729-0.821-1.522-1.756-1.807-2.774c-1.151-4.119-2.798-5.5-7.013-5.711c-2.909-0.145-5.849-0.216-8.705-0.719
	c-2.162-0.38-4.395-1.081-6.268-2.194c-2.162-1.285-2.031-3.243,0.253-4.296c6.692-3.085,12.002-7.659,14.714-14.499h-7.075
	C215.576,304.107,211.274,306.906,206.372,308.95z M238.109,369.435c-1.894,0.227-3.824,0.195-5.701,0.502
	c-3.181,0.521-6.234,0.702-8.817-1.713c0.469,0.52,0.938,1.041,1.856,2.056c-4.141,0.642-5.452-2.774-8.083-3.544
	c0.149-0.34,0.298-0.679,0.447-1.019c1.675,0.742,3.351,1.484,5.026,2.226c-0.345-0.545-0.689-1.09-1.164-1.842
	c3.197-0.626,6.165-1.423,8.949,1.111c-0.161-0.542-0.322-1.083-0.687-2.31c2.525,1.029,4.613,1.879,6.701,2.73
	c0.097-0.218,0.195-0.437,0.292-0.655c-0.679-0.519-1.358-1.037-2.187-1.67c2.177-1.765,3.546,0.724,5.459,0.69
	c0.176-0.543,0.384-1.183,0.727-2.239c1.876,1.438,3.527,2.703,5.825,4.464C243.388,368.7,240.755,369.117,238.109,369.435z
	 M243.887,364.184c2.915-0.851,3.726-0.44,6.311,3.002C248.494,368.124,247.685,367.75,243.887,364.184z M249.186,363.252
	c2.314-0.894,3.854-0.196,6.648,2.884C252.482,367.913,251.169,367.37,249.186,363.252z M258.007,366.113
	c-1.428-1.152-2.855-2.303-4.283-3.454c0.181-0.259,0.362-0.518,0.543-0.777c1.479,1.087,2.959,2.173,4.438,3.26
	C258.472,365.466,258.24,365.789,258.007,366.113z M262.039,362.879c0.147,0.51-0.35,1.392-0.814,1.806
	c-0.219,0.196-1.197-0.159-1.596-0.523c-0.897-0.818-1.647-1.797-2.584-2.853C260.758,358.246,261.148,359.777,262.039,362.879z"/>
<path fill="#FFFFFF" d="M348.086,29.038c-2.725-3.356-4.82-6.481-9.386-9.057c-9.238-5.211-21.446-14.248-37.511-0.559
	c-4.526,3.857-7.776,9.048-8.958,14.875c-0.006,0.029-0.012,0.058-0.017,0.087c-0.703,2.459-1.418,4.334-2.056,6.132
	c-19.443-3.318-38.931-5.164-58.451-6.054v3.812c2.508,0.051,5.015,0.105,7.522,0.174c13.872,0.386,27.708,2.189,41.55,3.467
	c2.551,0.235,5.059,0.982,7.574,1.548c1.496,0.336,2.139,1.062,1.838,2.851c-0.547,3.254-0.702,6.574-1.036,10.02
	c-3.509-0.812-6.797-1.572-10.085-2.333c-0.068,0.276-0.135,0.553-0.203,0.829c1.687,0.407,3.376,0.807,5.061,1.224
	c1.047,0.259,2.103,0.498,3.129,0.825c1.667,0.53,2.607,1.481,1.63,3.478c-2.963-0.763-5.972-1.538-8.982-2.313
	c-0.066,0.275-0.131,0.549-0.197,0.824c1.859,0.53,3.716,1.064,5.576,1.59c3.83,1.083,4.025,1.31,3.403,5.156
	c-2.018,12.485-3.687,25.042-6.204,37.427c-4.016,19.754-10.039,38.927-17.984,57.497c-5.787,13.525-13.56,25.779-23.27,36.734
	c-2.669,3.011-5.981,5.507-9.322,7.886v6.213c8.643-6.257,16.273-13.74,22.785-22.536c3.065-4.139,5.683-8.606,8.576-12.874
	c0.394-0.58,1.185-1.211,1.821-1.242c1.368-0.067,2.754,0.24,4.304,0.413c0.025,0.245,0.082,0.417,0.048,0.574
	c-0.254,1.223-0.618,2.43-0.776,3.664c-1.055,8.228-1.252,16.36,4.247,23.346c4.005,5.087,9.313,7.58,15.823,6.359
	c6.26-1.174,9.641-5.366,11.038-11.445c1.132-4.925-3.218-14.261-10.584-12.616c-1.877,0.419-5.922,4.37-5.909,1.998
	c0.046-8.318,7.546-24.886,12.18-32.702c0.919-1.549,2.098-2.927,3.445-4.122c15.457-13.714,28.869-29.156,40.407-46.179
	c8.704-12.842,16.175-26.249,17.725-42.083C358.01,49.916,355.93,38.699,348.086,29.038z M271.884,159.068
	c5.583-12.023,10.117-24.461,13.072-37.362c2.631-11.485,4.975-23.09,6.46-34.768c1.433-11.277,1.606-22.714,2.341-34.08
	c0.024-0.372,0.144-0.738,0.22-1.107c0.227-0.147,0.454-0.293,0.681-0.44c0.202,0.441,0.314,0.961,0.62,1.312
	c5.272,6.058,14.347,5.525,18.895-1.089c2.737-3.98,1.306-9.839-2.956-12.086c-0.006-0.003-0.013-0.007-0.019-0.01
	c-1.078-0.567-1.026-2.117,0.081-2.628c0.892-0.412,1.791-0.789,2.728-0.972c6.424-1.255,11.503,1.265,15.246,7.436
	c5.248,8.653,5.893,18.035,4.177,27.737c-2.429,13.736-9.6,25.046-18.507,35.368c-7.882,9.133-16.12,17.96-23.982,27.109
	c-6.908,8.038-12.838,16.761-16.856,26.661c-0.242,0.596-0.646,1.126-0.981,1.699C271.256,161.415,271.225,160.486,271.884,159.068z
	 M349.076,70.978c-3.008,12.253-9.3,22.887-16.208,33.24c-8.272,12.398-18.717,22.929-28.788,33.788
	c-3.565,3.844-7.984,7.073-10.612,11.61c-14.062,24.281-10.343,22.496-13.02,31.57c-1.372,4.649-2.019,8.588-0.191,13.006
	c0.331,0.801,1.047,1.388,1.899,1.552c1.456,0.28,2.846-0.728,3.03-2.2l0.128-1.022c1.007-1.718,2.681-2.434,4.719-1.587
	c2.238,0.93,4.144,3.54,3.489,5.468c-0.733,2.158-1.695,4.403-3.14,6.119c-2.584,3.067-6.612,2.515-10.422-0.586
	c-6.771-5.509-7.875-12.951-7.463-20.925c0.145-2.813,0.878-5.596,1.014-8.409l3.52-8.621c4.43-11.914,11.816-21.906,20.235-31.228
	c9.641-10.676,20.03-20.708,27.928-32.877c5.986-9.223,11.062-18.851,12.802-29.829c1.813-11.44,0.882-22.437-6.584-32.044
	c-5.102-6.565-13.457-9.046-20.707-6.021c-4.52,1.886-6.853,5.456-7.835,9.787c-0.24,1.059,0.401,2.122,1.435,2.457
	c0.787,0.255,1.677,0.084,2.252-0.511c0.486-0.503,1.132-0.907,1.539-0.852c1.001,0.138,2.184,1.068,2.725,1.992
	c1.12,1.911,0.628,3.929-0.742,5.573c-1.802,2.162-4.158,3.394-7.031,2.879c-4.512-0.81-8.147-6.094-7.591-11.19
	c0.221-2.026,0.521-3.538,1.614-5.972c5.367-16.246,20.031-30.91,43.599-10.135C356.207,40.151,352.868,55.529,349.076,70.978z"/>
<path fill="#FFFFFF" d="M185.558,330.535L185.558,330.535C185.564,330.511,185.564,330.506,185.558,330.535z"/>
<path fill="#FFFFFF" d="M258.364,85.092c0.408-4.487,0.062-9.043,0.062-13.567c-0.29,0.676-0.472,1.384-0.494,2.097
	c-0.38,12.432-2.048,24.692-4.679,36.843c-3.198,14.77-7.854,29.042-14.167,42.776c-2.299,5.001-4.723,9.932-7.381,14.731v3.074
	c6.697-11.856,12.282-24.215,16.528-37.196C253.428,117.972,256.855,101.719,258.364,85.092z"/>
<path fill="#FFFFFF" d="M253.351,65.224c-0.034-0.829-0.068-1.683-0.301-2.466c-0.1-0.338-0.682-0.629-1.095-0.727
	c-0.145-0.034-0.577,0.546-0.64,0.889c-0.103,0.561-0.037,1.161,0.002,1.741c0.788,11.747,0.361,23.442-0.97,35.147
	c-2.335,20.537-8.089,40.041-17.147,58.578c-0.486,0.994-0.992,1.982-1.495,2.971v2.11c6.835-13.115,12.07-26.896,15.842-41.331
	C252.435,103.434,254.142,84.472,253.351,65.224z"/>
<path fill="#FFFFFF" d="M231.705,50.146v0.815c13.2,0.525,26.363,1.371,39.513,2.621C268.237,52.196,251.117,50.933,231.705,50.146z
	"/>
<path fill="#FFFFFF" d="M247.115,83.581c-0.069,6.894-0.495,13.82-1.342,20.66c-0.835,6.74-2.126,13.455-3.711,20.063
	c-1.587,6.618-3.785,13.09-5.89,20.219c9.454-18.336,16.452-72.468,10.072-81.02C246.562,70.196,247.181,76.892,247.115,83.581z"/>
<path fill="#FFFFFF" d="M167.512,37.858c21.397,0.184,42.803-0.016,64.193,0.416v-3.812c-20.326-0.927-40.686-0.818-61.068-0.23
	c-9.211,0.266-24.83,1.319-37.882,2.425v3.52L167.512,37.858z"/>
<path fill="#FFFFFF" d="M132.755,173.159v9.073c2.633,3.866,5.543,7.557,8.377,11.287c10.172,13.385,23.908,22.032,38.978,28.708
	c4.124,1.827,6.373,4.498,6.897,8.683c0.144,1.149-0.321,2.845-1.075,3.725c-3.368,3.931-2.906,6.605,1.827,9.133
	c1.586,0.847,2.015,2.647,0.939,4.088c-1.181,1.583-2.693,2.955-4.209,4.243c-3.346,2.841-5.251,6.271-4.451,10.735
	c0.7,3.903,3.626,6.236,6.556,8.475c4.732,3.614,4.129,9.775-1.342,12.316c-3.083,1.431-6.377,2.408-9.452,3.854
	c-3.056,1.437-5.041,3.735-4.745,7.463c0.121,1.527,0.606,3.18,1.336,4.846h5.317c-0.214-0.348-0.433-0.69-0.631-1.054
	c-2.762-5.071-1.315-8.483,4.486-9.644c5.171-1.035,8.934-3.812,11.655-8.204c2.61-4.214,2.692-9.841-2.799-12.872
	c-2.255-1.245-4.229-3.208-5.934-5.186c-1.747-2.027-1.292-4.381,0.409-6.379c0.969-1.139,2.029-2.216,3.146-3.21
	c2.815-2.506,4.666-5.368,4.173-9.373c-0.073-0.593,0.614-1.828,0.988-1.843c3.461-0.144,6.93-0.085,10.471,0.266
	c-1.842,3.213-5.216,1.417-7.834,2.017c0.017,0.219,0.033,0.438,0.049,0.657c1.777,0.138,3.552,0.318,5.332,0.402
	c1.575,0.074,2.889,0.626,3.176,2.25c0.442,2.505,2.142,3.8,4.107,5.009c5.721,3.522,6.17,7.326,1.364,12
	c-1.424,1.385-3.033,2.6-4.652,3.76c-5.983,4.285-5.113,10.878-1.116,14.835c3.432,3.398,7.744,5.126,12.214,6.51
	c4.857,1.503,5.885,3.586,3.429,8.119c-0.368,0.679-0.765,1.325-1.189,1.94h7.075c0.117-0.294,0.236-0.586,0.343-0.889
	c1.834-5.195,0.522-10.328-5.584-11.703c-1.793-0.404-3.589-0.835-5.301-1.501c-11.717-4.557-12.939-10.634-4.314-15.264
	c6.8-3.65,8.331-9.834,3.881-16.233c-1.271-1.828-2.923-3.394-4.419-5.063c-1.638-1.826-1.515-2.893,0.513-4.148
	c3.543-2.193,4.243-6.351,1.627-9.675c-3.543-4.502-1.746-11.777,3.343-14.304c5.658-2.809,10.992-6.019,15.989-9.636v-6.213
	c-0.74,0.527-1.482,1.051-2.219,1.57c-8.42,5.941-17.952,9.285-28.027,11.173c-0.736,0.138-1.521,0.128-2.208,0.386
	c-0.886,0.333-1.697,0.867-2.54,1.314c0.538,0.974,0.837,2.398,1.66,2.834c1.999,1.059,4.189,1.941,6.402,2.347
	c1.57,0.288,2.103,0.714,2.167,2.272c0.183,4.45-0.953,5.947-5.366,6.344c-2.485,0.223-4.993,0.245-7.49,0.245
	c-2.325,0-3.093-1.1-3.307-3.379c-0.213-2.267-0.906-4.487-1.357-6.734c-0.105-0.52-0.259-1.128-0.092-1.587
	c1.077-2.967,0.614-3.686-2.322-4.638c-5.368-1.741-10.837-3.311-15.969-5.61c-11.267-5.046-19.88-13.43-27.633-22.859
	C139.329,183.88,135.836,178.626,132.755,173.159 M203.736,238.683c-0.874,0.335-1.942,0.162-2.923,0.215
	c0.029,0.113,0.058,0.226,0.087,0.339c1.651,0.147,3.301,0.294,4.952,0.441c-0.009,0.396-0.017,0.791-0.026,1.186
	c-1.837,0-3.674,0.068-5.505-0.186c-2.457-0.341-4.951-0.539-7.403-0.166c-2.76,0.42-3.513-0.805-3.441-2.621
	c0.079-2.009,1.83-3.33,4.233-3.344c3.309-0.02,6.635-0.204,9.919,0.077c1.104,0.095,2.106,1.395,3.154,2.144
	C205.775,237.425,204.835,238.262,203.736,238.683z"/>
<path fill="#FFFFFF" d="M223.65,180.859c-2.934,4.118-5.66,8.423-8.942,12.247c-5.03,5.862-11.033,10.524-19.173,12.517
	c0.705,0.237,0.943,0.398,1.158,0.371c0.573-0.067,1.141-0.196,1.703-0.332c5.761-1.397,10.478-4.576,14.6-8.699
	c6.445-6.447,11.622-13.854,16.259-21.669c0.835-1.407,1.646-2.826,2.45-4.248v-3.074
	C229.253,172.399,226.603,176.714,223.65,180.859z"/>
<path fill="#FFFFFF" d="M224.064,175.846c0.604-0.487,0.809-0.613,0.963-0.786c0.221-0.246,0.428-0.512,0.6-0.794
	c2.155-3.547,4.175-7.148,6.078-10.799v-2.11C229.311,166.06,226.74,170.75,224.064,175.846z"/>
<path fill="#FFFFFF" d="M169.205,50.6c20.994-0.489,41.793-0.463,62.5,0.361v-0.815C204.556,49.045,172.924,48.875,169.205,50.6z"/>
</svg>
