<?xml version="1.0" encoding="utf-8"?>
<!-- Generator: Adobe Illustrator 24.1.3, SVG Export Plug-In . SVG Version: 6.00 Build 0)  -->
<svg version="1.1" id="Ebene_1" xmlns="http://www.w3.org/2000/svg" xmlns:xlink="http://www.w3.org/1999/xlink" x="0px" y="0px"
	 viewBox="0 0 105.1 107.2" style="enable-background:new 0 0 105.1 107.2;" xml:space="preserve">
<style type="text/css">
	.st0{fill:#FFFFFF;stroke:#FFFFFF;stroke-width:1.3051;stroke-miterlimit:10;}
	.st1{fill:#FCF506;}
	.st2{fill:#FFFFFF;}
	.st3{fill:#FFFFFF;stroke:#FFFFFF;stroke-width:1.1537;stroke-miterlimit:10;}
	.st4{fill:#FFFFFF;stroke:#FFFFFF;stroke-width:1.1577;stroke-miterlimit:10;}
</style>
<g>
	<path class="st0" d="M82.5,27.1c-0.1,16.3-6.5,26-19.8,30.3c-17.5,5.5-35.4-7.4-35.9-25.8c-0.1-3,0-6.1,0-9.1
		c0-2.7-0.3-5.6,3.9-5.7c0.9,0,1.7-1.7,2.5-2.7C44.8,0.1,64.9,0.2,76.4,14.3c0.4,0.5,0.7,1.1,1.2,1.5C82.6,20.6,82.6,20.6,82.5,27.1
		z M79.3,36.1c-5.2,0-9.9-0.2-14.7,0.1c-3.1,0.2-5-0.8-6.6-3.5c-2.6-4.2-4.2-4.2-6.8,0.1c-1.7,2.7-3.7,3.5-6.6,3.4
		C39.8,36,35,36.1,30,36.1c1.9,12,12.9,20.9,25,20.7C67.1,56.6,77.8,47.7,79.3,36.1z M34.3,16.6c13.8,0,27.2,0,40.8,0
		C65.7,1.5,42.3,2.7,34.3,16.6z M68.8,32.6c1.6,0,2.5-0.1,3.4,0c4.9,0.9,6.1-1.7,6-6c-0.1-5.7-0.7-6.4-6.1-6.5
		c-2.9,0-5.8-0.3-8.6,0.1c-1.4,0.2-3,1.4-3.9,2.6c-3,4.2,0.3,6.7,2,8.7c1.7-2,3.1-5.4,4.7-5.4C69.9,26.2,70,29.3,68.8,32.6z
		 M47.5,33c1.2-2.5,3.1-4.9,3.2-7.4c0.1-1.7-2.3-4.9-3.8-5C42,20.2,37,21,32,21.4c-0.1,0-0.1,0.3-0.2,0.4c-3,5.5,0,10.8,6.1,10.8
		c0.8,0,1.5-0.1,1.5-0.1c0.7-2.3,1-4.2,1.9-5.8c0.3-0.6,2.9-0.7,3.3-0.2C45.8,28.1,46.3,30.1,47.5,33z"/>
	<path d="M79.8,27.4C79.7,42,73.9,50.8,62,54.6c-15.7,5-31.8-6.6-32.2-23.2c-0.1-2.7,0-5.4,0-8.2c0-2.4-0.3-5,3.5-5.1
		c0.8,0,1.5-1.5,2.3-2.4C46,3.2,64,3.3,74.3,16c0.4,0.4,0.6,1,1.1,1.4C79.9,21.6,79.9,21.6,79.8,27.4z M76.9,35.5
		c-4.6,0-8.9-0.2-13.2,0.1c-2.8,0.2-4.5-0.7-5.9-3.1c-2.3-3.7-3.7-3.7-6.1,0.1c-1.5,2.5-3.3,3.1-6,3c-4.3-0.2-8.7-0.1-13.1-0.1
		c1.7,10.8,11.6,18.8,22.4,18.6C65.9,53.9,75.6,45.9,76.9,35.5z M36.5,18c12.3,0,24.4,0,36.6,0C64.7,4.5,43.7,5.6,36.5,18z
		 M67.5,32.4c1.4,0,2.3-0.1,3.1,0c4.4,0.8,5.5-1.6,5.4-5.4c-0.1-5.1-0.6-5.7-5.5-5.8c-2.6,0-5.2-0.3-7.7,0.1
		c-1.3,0.2-2.7,1.3-3.5,2.4c-2.7,3.8,0.3,6.1,1.8,7.8c1.5-1.8,2.8-4.9,4.2-4.9C68.5,26.6,68.6,29.4,67.5,32.4z M48.3,32.7
		c1.1-2.3,2.8-4.4,2.9-6.6c0-1.5-2.1-4.4-3.4-4.5c-4.4-0.3-8.9,0.4-13.3,0.7c-0.1,0-0.1,0.3-0.2,0.4c-2.7,5,0,9.7,5.5,9.7
		c0.7,0,1.4-0.1,1.4-0.1c0.6-2,0.9-3.8,1.7-5.2c0.3-0.5,2.6-0.6,3-0.2C46.8,28.4,47.3,30.2,48.3,32.7z"/>
	<path class="st1" d="M76.9,35.5c-1.4,10.4-11,18.4-21.8,18.6c-10.8,0.2-20.7-7.8-22.4-18.6c4.4,0,8.8-0.1,13.1,0.1
		c2.7,0.1,4.5-0.6,6-3c2.3-3.8,3.8-3.8,6.1-0.1c1.5,2.4,3.1,3.3,5.9,3.1C68,35.3,72.3,35.5,76.9,35.5z M68.2,37.9
		c-3,5.4-6.9,9.6-13.4,9.6c-6.6,0-10.3-4.4-13.7-10.7c0.5,7.4,6.8,12.5,13.9,12.5C61.8,49.2,68,44.1,68.2,37.9z"/>
	<path class="st1" d="M36.5,18c7.1-12.5,28.2-13.5,36.6,0C60.9,18,48.9,18,36.5,18z"/>
	<path class="st1" d="M67.5,32.4c1.1-3,1-5.8-2.3-5.7c-1.4,0-2.7,3-4.2,4.9c-1.5-1.8-4.4-4-1.8-7.8c0.8-1.1,2.2-2.2,3.5-2.4
		c2.5-0.4,5.1-0.1,7.7-0.1c4.9,0.1,5.4,0.7,5.5,5.8c0.1,3.8-1,6.1-5.4,5.4C69.8,32.3,68.9,32.4,67.5,32.4z"/>
	<path class="st1" d="M48.3,32.7c-1-2.6-1.5-4.3-2.5-5.7c-0.3-0.5-2.7-0.4-3,0.2c-0.8,1.4-1.1,3.2-1.7,5.2c0,0-0.7,0.1-1.4,0.1
		c-5.5,0-8.2-4.8-5.5-9.7c0.1-0.1,0.1-0.4,0.2-0.4c4.5-0.3,8.9-1,13.3-0.7c1.3,0.1,3.5,3,3.4,4.5C51.1,28.3,49.4,30.4,48.3,32.7z"/>
	<path d="M68.2,37.9C68,44.1,61.8,49.2,55,49.2c-7.1,0-13.4-5-13.9-12.5c3.4,6.4,7.1,10.7,13.7,10.7C61.3,47.5,65.2,43.3,68.2,37.9z
		"/>
</g>
<path class="st2" d="M68.9,74.9v29.3h25.9V73.4H84.6L84.5,92c-2.1-2.1-4.7-5-7.8-8.4C74.1,80.7,71.5,77.8,68.9,74.9z M83.8,101.2
	c1-0.1,2.3-0.2,3.9-0.2h4l0.3-9.7h0.3l0.1,10.3h-8.6L83.8,101.2L83.8,101.2z"/>
<path class="st2" d="M23.4,89.8c-2.5-2.5-5-5-7.5-7.6c-3-3-5.6-5.4-7.7-7.3V104h31.6V74.6L24.4,89.8H23.4z M29.1,101l7-0.1l0.3-8.8
	h0.2l0.2,9.2l-7.7,0.1L29.1,101L29.1,101z"/>
<path class="st2" d="M38.4,104.1l32.5-0.1L55.5,74.5L38.4,104.1z M61.4,102.1l5.7-0.2c-0.2-0.8-0.8-2-1.6-3.5
	c-0.9-1.6-1.5-2.8-1.7-3.6l0.4-0.2l4.1,7.8l-6.8,0.1L61.4,102.1L61.4,102.1z M56.3,92.4c0.1,0.5,0,1-0.3,1.4
	c-0.3,0.5-0.7,0.7-1.2,0.7c-0.7,0-1.2-0.4-1.5-1.1c-0.1-0.4,0-0.8,0.1-1.2c0.2-0.5,0.5-0.8,0.9-0.9c0.1,0,0.3,0,0.4,0
	C55.4,91.3,55.9,91.7,56.3,92.4z"/>
<polygon points="34.6,92 34.4,92 34.1,100.9 27.1,101 27.1,101.4 34.8,101.3 "/>
<path class="st3" d="M32.4,80.6c-3.3,3.3-6.1,6-8.5,8.2L7.3,72.4v32.5h33.6l-0.1-32.8C38,74.9,35.2,77.8,32.4,80.6z M39.8,104H8.2
	V74.9c2.1,1.9,4.7,4.4,7.7,7.3c2.5,2.5,5,5.1,7.5,7.6h1l15.4-15.2V104z"/>
<path d="M67.1,94.7l-0.4,0.2c0.3,0.8,0.8,2,1.7,3.6c0.8,1.5,1.4,2.7,1.6,3.5l-5.7,0.2v0.4l6.8-0.1L67.1,94.7z"/>
<path class="st4" d="M54,74l-15.9,28c-0.6,1.1-0.9,3,1.1,3h31c1.2,0,1.7-1.9,1.2-3l-7.3-14.2c-2.7-5.3-5.2-9.9-7.2-13.8
	C56.3,72.9,54.7,72.9,54,74z M39.9,100.9L54,76.2c0.6-1.1,2.3-1.1,2.9,0.1l12.8,24.7c0.6,1.1-0.2,2.4-1.5,2.4l-26.9,0.1
	C40,103.4,39.2,102,39.9,100.9z"/>
<path d="M57.3,91.3c-0.4,0.1-0.7,0.4-0.9,0.9c-0.1,0.4-0.2,0.8-0.1,1.2c0.4,0.7,0.9,1.1,1.5,1.1c0.5,0,0.9-0.2,1.2-0.7
	c0.2-0.4,0.3-0.9,0.3-1.4c-0.4-0.7-0.9-1.1-1.6-1.1C57.6,91.3,57.5,91.3,57.3,91.3z"/>
<path class="st3" d="M83.5,89.6L68.1,72.3v32.6h27.5V72.3H83.8L83.5,89.6z M84.6,73.4h10.1v30.9H68.9V74.9c2.6,2.9,5.2,5.8,7.8,8.7
	c3.1,3.5,5.7,6.3,7.8,8.4L84.6,73.4z"/>
<path class="st2" d="M21.3,42v29.3h25.9V40.5H37l-0.1,18.7c-2.1-2.1-4.7-5-7.8-8.4C26.4,47.8,23.9,44.9,21.3,42z M36.2,68.3
	c1-0.1,2.3-0.2,3.9-0.2h4l0.3-9.7h0.3l0.1,10.3h-8.6V68.3z"/>
<path class="st2" d="M14.5,53.1c0.7-0.9,1.6-2,2.9-3.2c2-1.9,3-3,3.2-3.1c-0.4-0.6-0.7-1.2-1.1-1.9c-0.4-0.7-0.9-1.3-1.5-1.7
	c-1.6-1.2-3.5-1.8-5.6-1.8c-1.7,0-3.3,0.4-4.7,1.3c-1.3,0.8-2.3,1.9-3,3.3c-0.8,1.4-1.1,2.9-1.1,4.4c0,1.7,0.8,3.5,2.3,5.3
	c1.4,1.5,2.9,2.9,4.3,4.4l-5.6,5.7c-0.2,0.3-0.2,0.5-0.2,0.8c0,0.5,0.2,1,0.6,1.7c0.4,0.5,0.8,1,1.2,1.5c1.8,1.6,3.9,2.4,6.4,2.4
	c1.4,0,2.7-0.3,3.9-0.9c1.5-0.6,2.6-1.7,3.5-3.3c0.9-1.5,1.3-3,1.3-4.7c0-1.9-0.8-3.7-2.3-5.6C18.5,57,17,55.4,14.5,53.1z M12,43.4
	c-0.6,0-1.2,0.1-1.8,0.3c0.2-0.5,0.8-0.8,1.7-0.8c3.3,0.2,5.5,1.3,6.5,3.5c-0.3,0.4-0.7,0.8-1,1.2c-0.5,0.5-0.9,0.7-1.3,0.6
	c0-0.3,0.3-0.6,0.8-1.1c0.5-0.4,0.8-0.8,0.8-1c0-0.3-0.2-0.5-0.6-0.8C15.2,44.1,13.4,43.4,12,43.4z M17.7,68.3
	c-0.5,0.5-1.1,0.9-1.9,1.3c-0.1,0-0.8,0.3-2.1,0.8c-0.1,0-0.1-0.1-0.2-0.1c0,0,0-0.1,0-0.2c0-0.1,0.1-0.2,0.1-0.2
	c1.4-0.2,2.6-0.9,3.6-2.1c1-1.1,1.6-2.3,1.8-3.8c0.1-0.2,0.1-0.4,0.1-0.6c0-0.3-0.1-0.7-0.3-1.2c-0.2-0.5-0.3-0.8-0.3-1
	c0-0.2,0.1-0.4,0.2-0.6c0.6,0.8,0.9,1.7,0.9,2.7C19.6,64.8,19,66.5,17.7,68.3z"/>
<path class="st2" d="M47.4,71.2L80,71.1L64.5,41.6L47.4,71.2z M70.5,69.2l5.7-0.2c-0.2-0.8-0.8-2-1.6-3.5C73.6,64,73,62.8,72.8,62
	l0.4-0.2l4.1,7.8l-6.8,0.1L70.5,69.2L70.5,69.2z M65.4,59.4c0.1,0.5,0,1-0.3,1.4c-0.3,0.5-0.7,0.7-1.2,0.7c-0.7,0-1.2-0.4-1.5-1.1
	c-0.1-0.4,0-0.8,0.1-1.2c0.2-0.5,0.5-0.8,0.9-0.9c0.1,0,0.3,0,0.4,0C64.5,58.4,65,58.7,65.4,59.4z"/>
<path class="st2" d="M96.2,52c3.4-2.1,5.6-3.5,6.7-4.2c-1-1.9-2.5-3.5-4.5-4.7c-1.8-1.1-3.8-1.9-6-2.4c-0.6,0-1.2-0.1-1.8-0.1
	c-2.9,0-5.6,0.6-7.9,1.9c-2.5,1.4-4.5,3.3-5.9,5.8C75.6,50.5,75,53,75,55.6c0,3.7,1,6.7,3.1,9.1c1.6,1.9,3.4,3.3,5.5,4.3
	c2.1,1,4.3,1.6,6.5,1.6c1.6,0,3.1-0.3,4.7-0.8c2-0.7,3.8-1.7,5.4-3.1c1.8-1.5,2.9-3.2,3.2-5c-5.1-1.9-9.8-3.9-14-5.8
	C91.1,55.1,93.4,53.7,96.2,52z M90.8,59.3l9.4,3.6c0,0.6-0.4,1.2-1.1,1.9c-0.6,0.5-1.2,1-2,1.4L96.9,66c0.5-0.4,0.9-0.8,1.4-1.2
	c0.6-0.5,1-1,1.2-1.5c-1-0.5-2.5-1.1-4.3-1.8c-2.2-0.8-3.6-1.4-4.3-1.7V59.3z"/>
<path class="st3" d="M15.8,53l5.9-6c-0.1-0.9-0.7-1.8-1.6-2.9c-2-2.5-4.6-3.8-7.6-3.8c-0.9,0-1.8,0.1-2.7,0.4
	C8,41.1,6.4,42.2,5,43.9c-1.4,1.7-2.1,3.5-2.3,5.4c-0.2,2,0.4,4,1.7,6c0.7,1.1,2.2,2.7,4.4,4.9l-5.7,5.7c0.2,2.1,1.4,3.9,3.3,5.3
	c1.9,1.3,3.9,2,6.1,2c0.9,0,1.9-0.1,2.8-0.3c1.5-0.4,2.9-1.3,4.2-2.6c1.2-1.3,2-2.7,2.5-4.3c0.2-0.8,0.3-1.6,0.3-2.4
	c0-1.9-0.7-3.8-2.1-5.7C19.4,56.5,17.9,54.9,15.8,53z M20,68c-0.9,1.6-2.1,2.7-3.5,3.3c-1.2,0.6-2.5,0.9-3.9,0.9
	c-2.4,0-4.5-0.8-6.4-2.4c-0.4-0.5-0.8-1-1.2-1.5c-0.4-0.6-0.6-1.2-0.6-1.7c0-0.3,0.1-0.5,0.2-0.8l5.6-5.7c-1.4-1.5-2.9-2.9-4.3-4.4
	c-1.5-1.8-2.3-3.6-2.3-5.3c0-1.5,0.4-3,1.1-4.4c0.8-1.4,1.8-2.5,3-3.3c1.4-0.9,2.9-1.3,4.7-1.3c2.1,0,4,0.6,5.6,1.8
	c0.6,0.4,1,1,1.5,1.7c0.4,0.6,0.7,1.2,1.1,1.9c-0.2,0.2-1.2,1.2-3.2,3.1c-1.3,1.3-2.2,2.4-2.9,3.2c2.5,2.4,4,3.9,4.6,4.6
	c1.5,1.9,2.3,3.8,2.3,5.6C21.4,65,20.9,66.5,20,68z"/>
<path class="st3" d="M35.9,56.7L20.4,39.4v32.9H48v-33H36.2L35.9,56.7z M37,40.5h10.1v30.9H21.3V42c2.6,2.9,5.2,5.8,7.8,8.7
	c3.1,3.5,5.7,6.3,7.8,8.4L37,40.5z"/>
<path d="M38.7,58.5h-0.3l-0.3,9.7h-4c-1.6,0-2.9,0.1-3.9,0.2v0.4h8.6L38.7,58.5z"/>
<path d="M60.4,58.4c-0.4,0.1-0.7,0.4-0.9,0.9c-0.1,0.4-0.2,0.8-0.1,1.2c0.4,0.7,0.9,1.1,1.5,1.1c0.5,0,0.9-0.2,1.2-0.7
	c0.2-0.4,0.3-0.9,0.3-1.4c-0.4-0.7-0.9-1.1-1.6-1.1C60.6,58.4,60.5,58.4,60.4,58.4z"/>
<path class="st3" d="M64.5,39.5L45.7,72.2l36-0.1l-8.5-16.4C69.8,49.1,66.9,43.8,64.5,39.5z M47.4,71.2l17.1-29.5L80,71.1L47.4,71.2
	z"/>
<path d="M70.2,61.7L69.8,62c0.3,0.8,0.8,2,1.7,3.6c0.8,1.5,1.4,2.7,1.6,3.5l-5.7,0.2v0.4l6.8-0.1L70.2,61.7z"/>
<path class="st3" d="M104.3,48.3c-1-2.2-2.6-4.1-4.8-5.7c-2.1-1.5-4.3-2.4-6.7-2.8c-0.9-0.1-1.8-0.2-2.6-0.2c-3.1,0-5.9,0.8-8.6,2.4
	s-4.6,3.8-6.1,6.7c-1,2-1.5,4.3-1.5,6.9c0,2.8,0.6,5.3,1.7,7.4c1.4,2.7,3.4,4.8,6,6.4c2.6,1.6,5.3,2.4,8.3,2.4
	c3.3,0,6.3-0.9,9.2-2.9c2.9-2,4.9-4.5,5.9-7.6c-4.1-1.4-8.6-3.2-13.4-5.4C97.3,52.5,101.5,50,104.3,48.3z M103.4,61.9
	c-0.4,1.8-1.5,3.4-3.2,5c-1.6,1.4-3.4,2.4-5.4,3.1c-1.5,0.5-3.1,0.8-4.7,0.8c-2.3,0-4.4-0.5-6.5-1.6c-2.1-1-3.9-2.5-5.5-4.4
	c-2.1-2.4-3.1-5.5-3.1-9.1c0-2.7,0.6-5.1,1.8-7.2c1.4-2.5,3.3-4.5,5.9-5.8c2.4-1.3,5-1.9,7.9-1.9c0.6,0,1.2,0,1.8,0.1
	c2.2,0.4,4.2,1.2,6,2.4c2,1.3,3.5,2.8,4.5,4.7c-1.1,0.7-3.3,2-6.7,4.2c-2.8,1.7-5.1,3.1-6.8,4.1C93.6,58,98.3,59.9,103.4,61.9z"/>
<path d="M99.4,63.4c-0.2,0.5-0.6,1-1.2,1.5c-0.5,0.4-0.9,0.8-1.4,1.2l0.3,0.2c0.8-0.4,1.4-0.8,2-1.4c0.7-0.7,1.1-1.3,1.1-1.9
	l-9.4-3.6v0.5c0.7,0.3,2.2,0.9,4.3,1.7C97,62.2,98.4,62.8,99.4,63.4z"/>
<path class="st1" d="M23.8,44.9v25.4h22.4V43.6h-8.8l-0.1,16.2c-1.8-1.9-4.1-4.3-6.8-7.3C28.3,49.9,26,47.4,23.8,44.9z M36.7,67.7
	c0.9-0.1,2-0.1,3.4-0.1h3.5l0.2-8.4h0.3l0.1,8.9h-7.5C36.7,68.1,36.7,67.7,36.7,67.7z"/>
<path class="st1" d="M14.4,53.7c0.6-0.8,1.4-1.7,2.5-2.8c1.7-1.7,2.6-2.6,2.8-2.7c-0.3-0.5-0.6-1.1-0.9-1.6
	c-0.4-0.6-0.8-1.1-1.3-1.5c-1.4-1.1-3-1.6-4.8-1.6c-1.5,0-2.9,0.4-4,1.1c-1.1,0.7-2,1.6-2.6,2.9c-0.7,1.2-1,2.5-1,3.8
	c0,1.5,0.7,3,2,4.6c1.2,1.3,2.5,2.5,3.7,3.8l-4.8,4.9c-0.1,0.2-0.2,0.5-0.2,0.7c0,0.4,0.2,0.9,0.5,1.4c0.3,0.4,0.7,0.9,1,1.3
	c1.6,1.4,3.4,2.1,5.5,2.1c1.2,0,2.3-0.2,3.4-0.7c1.3-0.6,2.3-1.5,3.1-2.9c0.8-1.3,1.1-2.6,1.1-4c0-1.6-0.7-3.2-2-4.9
	C17.8,57,16.5,55.7,14.4,53.7z M12.2,45.3c-0.5,0-1,0.1-1.5,0.3c0.2-0.4,0.7-0.7,1.5-0.7c2.9,0.1,4.8,1.2,5.6,3.1
	c-0.3,0.3-0.6,0.7-0.9,1c-0.4,0.4-0.8,0.6-1.1,0.5c0-0.2,0.2-0.5,0.7-0.9c0.5-0.4,0.7-0.7,0.7-0.9c0-0.2-0.2-0.4-0.5-0.7
	C15,45.9,13.4,45.3,12.2,45.3z M17.2,66.9c-0.4,0.4-1,0.8-1.6,1.1c-0.1,0-0.7,0.3-1.8,0.7c-0.1,0-0.1-0.1-0.1-0.1c0,0,0-0.1,0-0.2
	c0-0.1,0.1-0.1,0.1-0.2c1.2-0.2,2.2-0.8,3.1-1.8c0.8-0.9,1.4-2,1.6-3.3c0.1-0.2,0.1-0.3,0.1-0.5c0-0.2-0.1-0.6-0.3-1
	s-0.3-0.7-0.3-0.9c0-0.2,0.1-0.4,0.2-0.5c0.5,0.7,0.8,1.4,0.8,2.3C18.8,63.8,18.3,65.3,17.2,66.9z"/>
<path class="st1" d="M49,70.2l28.2-0.1L63.8,44.6L49,70.2z M69,68.5l4.9-0.1c-0.2-0.7-0.7-1.7-1.4-3c-0.8-1.4-1.3-2.4-1.5-3.1
	l0.3-0.2l3.5,6.7L69,68.9C69,68.9,69,68.5,69,68.5z M64.6,60.1c0.1,0.5,0,0.9-0.2,1.2c-0.2,0.4-0.6,0.6-1.1,0.6
	c-0.6,0-1-0.3-1.3-0.9c-0.1-0.4,0-0.7,0.1-1.1c0.2-0.4,0.4-0.7,0.8-0.8c0.1,0,0.2,0,0.3,0C63.8,59.1,64.3,59.4,64.6,60.1z"/>
<path class="st1" d="M93.9,53.6c2.9-1.8,4.8-3,5.8-3.6c-0.9-1.6-2.2-3-3.9-4.1c-1.5-1-3.3-1.7-5.2-2c-0.5,0-1-0.1-1.5-0.1
	c-2.5,0-4.8,0.6-6.9,1.7c-2.2,1.2-3.9,2.9-5.1,5c-1,1.9-1.5,3.9-1.5,6.3c0,3.2,0.9,5.8,2.7,7.9c1.4,1.6,2.9,2.9,4.7,3.8
	c1.8,0.9,3.7,1.4,5.7,1.4c1.4,0,2.7-0.2,4-0.7c1.7-0.6,3.3-1.5,4.6-2.7c1.5-1.3,2.5-2.8,2.8-4.3c-4.4-1.7-8.5-3.3-12.1-5
	C89.5,56.3,91.5,55.1,93.9,53.6z M89.3,59.9l8.2,3.2c0,0.5-0.3,1-0.9,1.6c-0.5,0.5-1.1,0.9-1.7,1.2l-0.3-0.2c0.4-0.3,0.8-0.7,1.2-1
	c0.5-0.4,0.8-0.8,1-1.3c-0.9-0.4-2.1-1-3.7-1.5c-1.9-0.7-3.1-1.2-3.8-1.5C89.3,60.4,89.3,59.9,89.3,59.9z"/>
<path d="M15.5,53.6l5.1-5.2c-0.1-0.7-0.6-1.6-1.3-2.6c-1.8-2.2-4-3.3-6.6-3.3c-0.8,0-1.6,0.1-2.4,0.3c-1.6,0.4-3,1.4-4.2,2.8
	s-1.8,3-2,4.7c-0.2,1.8,0.3,3.5,1.5,5.2c0.6,0.9,1.9,2.3,3.8,4.2l-4.9,4.9c0.2,1.8,1.2,3.4,2.9,4.6c1.6,1.1,3.4,1.7,5.3,1.7
	c0.8,0,1.6-0.1,2.4-0.3c1.3-0.3,2.5-1.1,3.6-2.3c1-1.1,1.8-2.4,2.2-3.8c0.2-0.7,0.3-1.4,0.3-2.1c0-1.6-0.6-3.3-1.8-5
	C18.6,56.6,17.3,55.3,15.5,53.6z M19.2,66.6c-0.8,1.4-1.8,2.3-3.1,2.9c-1.1,0.5-2.2,0.7-3.4,0.7c-2.1,0-3.9-0.7-5.5-2.1
	c-0.3-0.4-0.7-0.9-1-1.3c-0.4-0.5-0.5-1-0.5-1.4c0-0.2,0.1-0.5,0.2-0.7l4.8-4.9c-1.2-1.3-2.5-2.5-3.7-3.8c-1.3-1.6-2-3.1-2-4.6
	c0-1.3,0.3-2.6,1-3.8c0.7-1.2,1.5-2.2,2.6-2.9c1.2-0.7,2.5-1.1,4-1.1c1.9,0,3.5,0.5,4.8,1.6c0.5,0.4,0.9,0.9,1.3,1.5
	c0.3,0.5,0.6,1.1,0.9,1.6c-0.1,0.1-1.1,1-2.8,2.7c-1.1,1.1-1.9,2-2.5,2.8c2.1,2,3.5,3.4,4,4c1.3,1.6,2,3.2,2,4.9
	C20.3,64,19.9,65.3,19.2,66.6z"/>
<path d="M17.2,47.7c0,0.2-0.2,0.5-0.7,0.9c-0.5,0.4-0.7,0.7-0.7,0.9c0.3,0.1,0.7-0.1,1.1-0.5c0.3-0.3,0.6-0.7,0.9-1
	C16.9,46,15,45,12.2,44.9c-0.8,0.1-1.3,0.3-1.5,0.7c0.5-0.2,1-0.3,1.5-0.3c1.3,0,2.8,0.6,4.5,1.8C17,47.3,17.2,47.5,17.2,47.7z"/>
<path d="M17.9,60.7c0,0.2,0.1,0.5,0.3,0.9s0.3,0.8,0.3,1c0,0.2,0,0.3-0.1,0.5c-0.2,1.2-0.8,2.3-1.6,3.3c-0.9,1-1.9,1.6-3.1,1.8
	c0,0,0,0.1-0.1,0.2c0,0.1,0,0.1,0,0.2c0,0.1,0.1,0.1,0.1,0.1c1.1-0.4,1.7-0.6,1.8-0.7c0.7-0.3,1.2-0.7,1.6-1.1
	c1.1-1.6,1.6-3,1.6-4.3c0-0.9-0.3-1.7-0.8-2.3C17.9,60.4,17.9,60.6,17.9,60.7z"/>
<path d="M36.4,57.6l-13.4-15v28.5h23.9V42.6H36.7L36.4,57.6z M37.4,43.6h8.8v26.8H23.8V44.9c2.2,2.5,4.5,5,6.7,7.5
	c2.7,3,5,5.5,6.8,7.3L37.4,43.6z"/>
<path d="M44.1,59.2h-0.3l-0.2,8.4h-3.5c-1.4,0-2.5,0-3.4,0.1v0.4h7.5L44.1,59.2z"/>
<path d="M62.9,59.2c-0.4,0.1-0.6,0.4-0.8,0.8C62,60.3,61.9,60.6,62,61c0.3,0.6,0.7,0.9,1.3,0.9c0.5,0,0.8-0.2,1.1-0.6
	c0.2-0.4,0.3-0.8,0.2-1.2c-0.3-0.6-0.8-0.9-1.4-0.9C63.1,59.1,63,59.1,62.9,59.2z"/>
<path d="M63.8,42.8L47.5,71.1L78.7,71l-7.4-14.2C68.4,51.1,65.9,46.5,63.8,42.8z M49,70.2l14.8-25.6l13.4,25.5L49,70.2z"/>
<path d="M71.4,62L71,62.2c0.2,0.7,0.7,1.7,1.5,3.1c0.7,1.3,1.2,2.3,1.4,3L69,68.5v0.4l5.9-0.1L71.4,62z"/>
<path d="M100.9,50.4c-0.9-1.9-2.3-3.5-4.2-4.9C95,44.2,93,43.3,91,43c-0.8-0.1-1.5-0.2-2.3-0.2c-2.7,0-5.1,0.7-7.4,2.1
	c-2.3,1.4-4,3.3-5.3,5.8c-0.9,1.7-1.3,3.7-1.3,6c0,2.4,0.5,4.6,1.5,6.4c1.2,2.3,3,4.2,5.2,5.5c2.2,1.4,4.6,2.1,7.2,2.1
	c2.8,0,5.5-0.8,8-2.5c2.5-1.7,4.2-3.9,5.1-6.6c-3.6-1.2-7.4-2.8-11.6-4.6C94.8,54,98.5,51.8,100.9,50.4z M100.1,62.1
	c-0.3,1.5-1.3,3-2.8,4.3c-1.4,1.2-2.9,2.1-4.6,2.7c-1.3,0.5-2.7,0.7-4,0.7c-2,0-3.9-0.5-5.7-1.4c-1.8-0.9-3.4-2.2-4.7-3.8
	c-1.8-2.1-2.7-4.7-2.7-7.9c0-2.3,0.5-4.4,1.5-6.3c1.2-2.2,2.9-3.9,5.1-5c2.1-1.1,4.4-1.7,6.9-1.7c0.5,0,1,0,1.5,0.1
	c1.9,0.4,3.6,1,5.2,2c1.7,1.1,3,2.5,3.9,4.1c-0.9,0.6-2.9,1.8-5.8,3.6c-2.4,1.5-4.4,2.7-5.9,3.6C91.7,58.8,95.7,60.5,100.1,62.1z"/>
<path d="M96.7,63.4c-0.2,0.4-0.5,0.8-1,1.3c-0.4,0.3-0.8,0.7-1.2,1l0.3,0.2c0.7-0.3,1.2-0.7,1.7-1.2c0.6-0.6,0.9-1.1,0.9-1.6
	l-8.2-3.2v0.5c0.6,0.3,1.9,0.8,3.8,1.5C94.6,62.5,95.8,63,96.7,63.4z"/>
<path class="st1" d="M71.1,77.6V103h22.4V76.2h-8.8l-0.1,16.2c-1.8-1.9-4.1-4.3-6.8-7.3C75.6,82.6,73.4,80,71.1,77.6z M84,100.4
	c0.9-0.1,2-0.1,3.4-0.1h3.5l0.2-8.4h0.3l0.1,8.9H84V100.4z"/>
<path class="st1" d="M23.1,90.4c-2.2-2.2-4.4-4.4-6.5-6.6c-2.6-2.6-4.8-4.7-6.7-6.4v25.2h27.4V77.2L23.9,90.4H23.1z M28,100.1
	L34,100l0.3-7.7h0.2l0.1,8l-6.7,0.1L28,100.1L28,100.1z"/>
<path class="st1" d="M40.3,102.8l28.2-0.1L55.1,77.2L40.3,102.8z M60.3,101.1l4.9-0.1c-0.2-0.7-0.7-1.7-1.4-3
	c-0.8-1.4-1.3-2.4-1.5-3.1l0.3-0.2l3.5,6.7l-5.9,0.1V101.1z M55.9,92.7c0.1,0.5,0,0.9-0.2,1.2c-0.2,0.4-0.6,0.6-1.1,0.6
	c-0.6,0-1-0.3-1.3-0.9c-0.1-0.4,0-0.7,0.1-1.1c0.2-0.4,0.4-0.7,0.8-0.8c0.1,0,0.2,0,0.3,0C55.1,91.7,55.6,92.1,55.9,92.7z"/>
<polygon points="34.5,92.4 34.3,92.4 34,100 28,100.1 28,100.5 34.6,100.4 "/>
<path d="M30.8,82.4c-2.9,2.9-5.3,5.2-7.4,7.1L9.1,75.4v28.2h29.1l-0.1-28.4C35.6,77.6,33.2,80,30.8,82.4z M37.2,102.7H9.9V77.5
	c1.8,1.7,4.1,3.8,6.7,6.4c2.2,2.2,4.4,4.4,6.5,6.6h0.9l13.3-13.2L37.2,102.7L37.2,102.7z"/>
<path d="M62.7,94.6l-0.3,0.2c0.2,0.7,0.7,1.7,1.5,3.1c0.7,1.3,1.2,2.3,1.4,3l-4.9,0.1v0.4l5.9-0.1L62.7,94.6z"/>
<path d="M55.1,75.4l-16.3,28.3l31.2-0.1l-7.4-14.2C59.7,83.7,57.2,79.1,55.1,75.4z M40.3,102.8l14.8-25.6l13.4,25.5L40.3,102.8z"/>
<path d="M54.2,91.8c-0.4,0.1-0.6,0.4-0.8,0.8c-0.1,0.3-0.1,0.7-0.1,1.1c0.3,0.6,0.7,0.9,1.3,0.9c0.5,0,0.8-0.2,1.1-0.6
	c0.2-0.4,0.3-0.8,0.2-1.2c-0.3-0.6-0.8-0.9-1.4-0.9C54.4,91.7,54.3,91.8,54.2,91.8z"/>
<path d="M83.8,90.3l-13.4-15v28.5h23.9V75.2H84L83.8,90.3z M84.8,76.2h8.8V103H71.1V77.6c2.2,2.5,4.5,5,6.7,7.5c2.7,3,5,5.5,6.8,7.3
	L84.8,76.2z"/>
<path d="M91.4,91.8h-0.3l-0.2,8.4h-3.5c-1.4,0-2.5,0-3.4,0.1v0.4h7.5L91.4,91.8z"/>
</svg>
