<?xml version="1.0" encoding="utf-8"?>
<!-- Generator: Adobe Illustrator 24.0.2, SVG Export Plug-In . SVG Version: 6.00 Build 0)  -->
<svg version="1.1" id="Ebene_1" xmlns="http://www.w3.org/2000/svg" xmlns:xlink="http://www.w3.org/1999/xlink" x="0px" y="0px"
	 viewBox="0 0 325.109 271.976" enable-background="new 0 0 325.109 271.976" xml:space="preserve">
<path fill="#FFFFFF" d="M291.016,24.412c-5.715-3.041-11.332-6.271-16.802-9.784c-2.703-0.154-5.366-0.496-7.932-1.205
	c-0.547-0.151-1.031-0.37-1.46-0.638c-6.202-1.053-9.971-1.694-14.49-2.462c0.127-0.087,0.249-0.172,0.375-0.258
	c-0.215-0.013-0.425-0.011-0.646-0.044c-0.686-0.105-1.334-0.38-2.018-0.496c-0.84-0.142-1.568-0.493-2.187-0.966
	c-2.662-0.244-5.33-0.506-7.869-0.835c-41.118,17.272-80.705,33.967-120.364,50.528C88.011,70.616,58.229,82.74,28.664,95.165
	c-3.591,1.509-7.607,4.481-9.161,6.319c-3.325,3.933-5.476,7.648-7.54,11.303c-2.771,4.907-6.572,10.197-7.042,14.357
	c-0.495,4.378,1.826,7.86,3.94,11.314c8.924,14.583,18.714,28.811,27.041,43.635c1.986,3.536-0.943,9.048-0.523,13.259
	c0.117,1.171,4.133,0.936,6.36,1.346c2.92-2.139,6.96-4.515,8.429-6.346c1.326-1.653-0.704-2.542-0.253-4.078
	c0.468-1.591,1.068-3.485,3.481-5.365c7.775-6.059,16.244-12.171,24.808-18.266c2.931-2.086,6.934-4.182,13.793-8.265
	c-10.986,12.138-30.64,23.781-33.157,32.661c8.422-7.032,15.715-13.889,23.402-20.796c9.702-8.717,20.474-16.554,41.686-23.76
	c20.845-7.082,41.824-15.859,62.725-23.947c14.298-5.533,28.563-11.162,44.053-17.221c-15.515,15.192-30.317,29.686-45.119,44.18
	l6.036-2.361c14.947-14.172,27.83-28.184,45.805-42.589c7.743-6.206,25.744-13.503,39.723-19.69
	c3.768-1.668,9.871-1.091,14.438-1.503c-17.085,14.765-32.961,28.485-49.728,42.975c9.062-3.545,16.559-6.095,23.347-9.201
	c17.224-7.88,34.347-15.84,51.464-23.804C306.69,68.355,299.39,46.022,291.016,24.412z M57.894,175.853
	c-1.147,0.303-2.293,0.606-3.44,0.909c0.932-2.776,1.865-5.552,2.826-8.414c6.43-2.222,11.166-3.86,18.634-6.441
	C68.959,167.29,63.426,171.572,57.894,175.853z M262.936,46.551c3.599,10.172,7.778,20.119,11.867,30.571
	c-46.946,20.447-94.218,42.082-144.826,59.271c-20.042,6.807-40.305,15.368-60.309,23.433c-10.439,4.209-13.016,3.542-14.528,0.911
	c-5.193-9.038-12.386-17.28-16.269-26.827c-3.354-8.247-3.267-17.845-4.636-26.87c-0.457-3.013-3.516-5.61,0.017-9.342
	c2.031-2.146,15.056-6.012,22.845-9.408c27.664-12.06,54.986-24.545,82.862-36.302c23.228-9.797,47.047-18.806,70.612-28.146
	c7.459-2.956,14.945-5.852,24.616-9.635c6.379,2.468,16.521,3.85,19.642,8.178C259.917,29.439,260.101,38.54,262.936,46.551z
	 M264.21,106.544c9.327-8.389,18.654-16.778,27.981-25.167l5.215-0.824c-9.571,8.466-19.142,16.932-28.713,25.397
	C267.199,106.149,265.705,106.346,264.21,106.544z M305.769,86.13c-6.282,7.16-17.23,13.885-34.666,20.365
	c7.993-6.775,14.779-12.814,22.551-18.92c2.059-1.617,7.153-3.439,10.854-5.167C305.022,83.631,307.166,84.538,305.769,86.13z"/>
<path fill="#FFFFFF" d="M155.841,155.09c4.821-2.912,5.265-8.311,7.105-12.842c2.147-5.286,3.798-10.773,6.22-15.989
	c-1.64,10.55-5.958,20.21-10.541,29.782c-0.621,0.243-1.242,0.486-1.863,0.729C156.456,156.21,156.148,155.65,155.841,155.09z"/>
<path fill="#FFFFFF" d="M155.841,155.09c0.307,0.56,0.615,1.12,0.922,1.679c-0.931,0.364-1.863,0.729-2.794,1.093
	c0.904-4.17,1.164-8.627,2.86-12.445c2.696-6.069,6.351-11.713,9.6-17.537c-0.408-0.189-0.816-0.377-1.225-0.566
	C162.083,136.573,158.962,145.832,155.841,155.09z"/>
<path fill="#FFFFFF" d="M131.618,166.606c1.518-4.821,3.243-9.59,4.479-14.482c0.789-3.123,0.783-6.439,1.284-9.645
	c0.171-1.096,0.803-2.119,1.656-3.004c0.483,8.21-1.596,15.798-4.677,23.188c-0.424,1.017-0.594,2.14-0.881,3.214
	C132.86,166.12,132.239,166.363,131.618,166.606z"/>
<path fill="#FFFFFF" d="M118.58,171.706c1.96-8.294,3.919-16.588,5.879-24.882c0.594,0.116,1.187,0.232,1.781,0.349
	c-0.22,1.273-0.358,2.566-0.674,3.815c-1.683,6.669-3.411,13.327-5.123,19.989C119.822,171.22,119.201,171.463,118.58,171.706z"/>
<path fill="#FFFFFF" d="M143.725,161.87c1.637-9.034,3.273-18.068,4.91-27.102c0.565,0.113,1.13,0.226,1.695,0.339
	c-1.891,8.8-3.783,17.599-5.674,26.399C144.346,161.627,144.035,161.748,143.725,161.87z"/>
<path fill="#FFFFFF" d="M133.217,142.656c-2.961,7.992-5.921,15.984-8.882,23.975c-0.503-8.882,6.248-15.803,7.004-24.386
	C131.965,142.383,132.591,142.519,133.217,142.656z"/>
<path fill="#FFFFFF" d="M112.899,166.986c2.83-6.7,5.66-13.399,8.095-19.163C121.453,149.907,114.943,164.737,112.899,166.986z"/>
<g>
	<path fill="#FFFFFF" d="M119.812,103.436c0.192,0.49-0.126,1.091-0.952,1.801c-0.691,0.577-1.406,1.01-2.146,1.3
		c-0.488,0.191-1.084,0.318-1.787,0.382c-0.387,0.022-1.054-0.058-2-0.24c-1.035-0.195-1.59-0.392-1.668-0.589
		c-0.17-0.436,0.087-0.763,0.771-0.983l0.162-0.063c0.202,0.409,0.959,0.642,2.273,0.698c1.188,0.056,2.089-0.036,2.703-0.276
		c0.794-0.311,1.11-0.676,0.945-1.096c-0.099-0.252-0.723-0.411-1.874-0.478c-1.573-0.079-2.673-0.205-3.303-0.379
		c-1.284-0.353-2.115-1.013-2.493-1.98c-0.285-0.728-0.312-1.516-0.081-2.365c0.252-1.003,0.804-1.671,1.653-2.003
		c0.614-0.24,1.441-0.31,2.48-0.209c1.039,0.101,1.719,0.346,2.038,0.737c0.292,0.321,0.537,0.732,0.733,1.235
		c0.213,0.545,0.318,1.188,0.317,1.93c-0.124,0.161-0.295,0.284-0.511,0.369c-0.127,0.05-0.34,0.089-0.641,0.118
		c-0.301,0.03-0.468,0.002-0.501-0.082c0.022,0.056,0.061-0.136,0.118-0.578c0.051-0.294-0.046-0.755-0.292-1.384
		c-0.585-1.494-1.482-2.005-2.692-1.532c-0.633,0.247-1.009,0.774-1.131,1.581c-0.116,0.659-0.069,1.262,0.145,1.808
		c0.269,0.687,1.044,1.15,2.325,1.391c0.43,0.09,1.568,0.202,3.412,0.337C119.036,102.972,119.702,103.156,119.812,103.436z"/>
	<path fill="#FFFFFF" d="M127.762,95.812c0.541,1.383,0.732,2.645,0.575,3.786c-0.196,1.575-1.053,2.659-2.57,3.252
		c-0.994,0.389-2,0.372-3.019-0.051c-0.11,0.091-0.003,0.549,0.319,1.373c0.71,1.816,1.33,3.055,1.86,3.718
		c0.045,0.063,0.196,0.197,0.454,0.402c0.257,0.205,0.397,0.335,0.419,0.391c0.088,0.224-0.049,0.406-0.411,0.548
		c-0.433,0.17-0.755,0.239-0.965,0.208c-0.211-0.03-0.485-0.293-0.824-0.789c-0.289-0.419-0.485-0.761-0.589-1.027l-2.082-5.322
		c-0.191-0.489-0.416-1.158-0.674-2.007c-0.313-0.989-0.53-1.661-0.65-2.017c-0.13-0.384-0.321-0.873-0.574-1.467
		c-0.3-0.768-0.495-1.264-0.582-1.487c-0.377-0.964-0.241-1.573,0.41-1.828c0.325-0.127,0.523-0.1,0.594,0.082
		c0.137,0.349,0.3,0.874,0.49,1.572c0.19,0.699,0.35,1.216,0.481,1.551l0.109-0.043c0.246-0.595,0.489-1.198,0.73-1.807
		c0.297-0.68,0.806-1.161,1.529-1.444c1.209-0.473,2.286-0.411,3.228,0.187C126.788,94.068,127.369,94.807,127.762,95.812z
		 M126.441,96.426c-0.29-0.74-0.638-1.337-1.044-1.791c-0.613-0.662-1.263-0.859-1.949-0.59c-0.506,0.198-0.986,0.781-1.441,1.748
		c-0.397,0.848-0.599,1.636-0.606,2.363c-0.013,0.553,0.097,1.315,0.332,2.286c0.19,0.699,0.28,1.035,0.269,1.006
		c0.016,0.042,0.124,0.08,0.324,0.114c0.13,0.014,0.262,0.035,0.397,0.062c0.414,0.209,0.833,0.419,1.258,0.632
		c0.425,0.212,0.933,0.203,1.527-0.03c0.988-0.387,1.488-1.307,1.5-2.761C127.018,98.432,126.829,97.418,126.441,96.426z"/>
	<path fill="#FFFFFF" d="M139.167,97.971c0.076,0.196-0.085,0.371-0.481,0.527c-0.433,0.17-0.75,0.132-0.949-0.112
		c-0.035-0.035-0.15-0.304-0.347-0.807c-0.055-0.14-0.125-0.241-0.213-0.304c-0.787,0.969-1.768,1.683-2.942,2.142
		c-0.813,0.318-1.667,0.45-2.562,0.398c-1.02-0.052-1.645-0.372-1.874-0.958c-0.224-0.573,0.072-1.333,0.889-2.28
		c0.742-0.87,1.511-1.461,2.305-1.772l2.682-1.049c0.075-0.126,0.073-0.294-0.009-0.504c-0.366-0.936-0.742-1.602-1.126-2
		c-0.637-0.669-1.434-0.816-2.391-0.442c-0.687,0.269-1.188,0.851-1.503,1.747c-0.283,0.82-0.315,1.509-0.097,2.068
		c0.011,0.028,0.027,0.07,0.049,0.126s0.036,0.091,0.041,0.105c0.044,0.112-0.007,0.196-0.151,0.252
		c-0.181,0.071-0.413,0.064-0.695-0.018c-0.283-0.083-0.448-0.187-0.497-0.313c-0.153-0.391-0.193-0.943-0.118-1.657
		c0.075-0.713,0.232-1.295,0.474-1.744c0.304-0.554,0.79-0.961,1.459-1.223c1.03-0.403,2.076-0.522,3.14-0.358
		c1.134,0.184,1.861,0.657,2.18,1.418L139.167,97.971z M136.428,95.202c-0.219-0.559-0.888-0.619-2.008-0.181
		c-0.885,0.346-1.616,0.769-2.191,1.268c-0.729,0.64-0.973,1.267-0.733,1.881c0.147,0.377,0.488,0.582,1.022,0.615
		c0.45,0.034,0.937-0.053,1.461-0.258c0.777-0.304,1.437-0.787,1.979-1.45C136.5,96.414,136.657,95.788,136.428,95.202z"/>
	<path fill="#FFFFFF" d="M148.211,91.226c0.132,0.337-0.061,0.936-0.579,1.795c-0.518,0.859-0.993,1.43-1.424,1.712
		c-0.572,0.402-1.065,0.684-1.48,0.846c-1.319,0.516-2.475,0.54-3.47,0.074c-0.908-0.404-1.567-1.13-1.978-2.18
		c-0.422-1.078-0.595-2.398-0.519-3.962c0.094-1.941,0.692-3.128,1.794-3.559c0.523-0.205,1.297-0.278,2.32-0.219
		c1.023,0.059,1.659,0.249,1.91,0.57c0.296,0.384,0.526,0.785,0.69,1.204c0.601,1.537,0.604,2.422,0.007,2.655
		c-0.145,0.057-0.333,0.081-0.564,0.075c-0.232-0.006-0.369-0.065-0.413-0.177c-0.022-0.055-0.015-0.143,0.022-0.262
		c0.037-0.119,0.059-0.196,0.066-0.231c0.001-0.209-0.127-0.643-0.384-1.3c-0.607-1.551-1.361-2.149-2.265-1.796
		c-0.994,0.389-1.529,1.414-1.608,3.076c-0.043,1.277,0.128,2.405,0.512,3.385c0.296,0.756,0.695,1.327,1.2,1.711
		c0.673,0.496,1.443,0.574,2.31,0.235c0.523-0.205,1.055-0.657,1.594-1.354c0.483-0.627,0.795-1.212,0.938-1.755
		c0.017-0.169,0.048-0.408,0.094-0.719c0.052-0.134,0.159-0.233,0.321-0.296c0.109-0.043,0.276,0.001,0.504,0.131
		C148.039,91.013,148.172,91.127,148.211,91.226z"/>
	<path fill="#FFFFFF" d="M157.543,87.69c0.24,0.615-0.076,1.375-0.951,2.28c-0.783,0.822-1.599,1.399-2.447,1.731
		c-2.421,0.947-4.095,0.233-5.024-2.142c-0.41-1.048-0.606-2.267-0.588-3.66c0.038-1.819,0.563-2.926,1.575-3.322
		c0.867-0.339,1.948-0.371,3.242-0.097c1.295,0.275,2.073,0.748,2.335,1.418c0.339,0.866,0.182,1.797-0.469,2.793
		s-1.546,1.716-2.685,2.161c-0.108,0.042-0.366,0.063-0.773,0.061s-0.673,0.022-0.8,0.071c-0.235,0.092-0.33,0.194-0.287,0.305
		c0.629,1.607,1.629,2.142,3.002,1.605c0.704-0.276,1.284-0.711,1.738-1.308c0.279-0.351,0.548-0.835,0.807-1.451
		c0.206-0.483,0.364-0.746,0.472-0.789C157.106,87.185,157.39,87.299,157.543,87.69z M154.165,84.566
		c-0.191-0.489-0.551-0.875-1.079-1.16c-0.528-0.285-1.09-0.31-1.686-0.077c-0.723,0.283-1.173,0.862-1.351,1.737
		c-0.15,0.735-0.102,1.417,0.144,2.046c0.158,0.405,0.458,0.678,0.899,0.82c0.441,0.142,0.922,0.11,1.446-0.095
		c0.741-0.29,1.259-0.774,1.556-1.454C154.371,85.758,154.395,85.153,154.165,84.566z"/>
	<path fill="#FFFFFF" d="M171.381,79.305c0.475,1.215,0.658,2.32,0.546,3.314c-0.148,1.378-0.899,2.333-2.254,2.862
		c-0.343,0.134-0.834,0.238-1.472,0.31c-0.501,0.051-1.002,0.102-1.502,0.152c-0.004,0.098,0.014,0.196,0.052,0.294
		c0.027,0.07,0.076,0.168,0.146,0.293c0.07,0.126,0.118,0.223,0.146,0.294c0.082,0.209-0.031,0.374-0.338,0.495
		c-0.307,0.12-0.598,0.121-0.873,0.003c-0.165-0.049-0.425-0.421-0.782-1.12c-0.278-0.551-0.48-0.988-0.606-1.309l-0.049-0.126
		l-4.059-11.893l0.379-0.148c0.252-0.099,0.531-0.091,0.837,0.023c0.305,0.114,0.498,0.276,0.58,0.485
		c0.202,0.517,0.417,1.319,0.644,2.406c0.227,1.087,0.442,1.889,0.644,2.406c0.022,0.056,0.126,0.321,0.311,0.796
		c0.128-0.098,0.246-0.33,0.354-0.694c0.134-0.455,0.274-0.791,0.417-1.009c0.263-0.393,0.656-0.691,1.18-0.896
		c0.885-0.346,1.798-0.381,2.739-0.105c0.847,0.249,1.518,0.687,2.014,1.314C170.749,77.878,171.064,78.495,171.381,79.305z
		 M169.99,79.982c-0.34-0.868-0.75-1.572-1.232-2.11c-0.727-0.846-1.497-1.111-2.309-0.793c-0.994,0.389-1.557,1.263-1.691,2.624
		c-0.101,1.073,0.027,2.065,0.383,2.976c0.318,0.813,0.769,1.435,1.356,1.868c0.752,0.594,1.59,0.711,2.511,0.35
		c0.921-0.36,1.41-1.133,1.467-2.318C170.503,81.744,170.341,80.878,169.99,79.982z"/>
	<path fill="#FFFFFF" d="M182.813,80.898c0.076,0.196-0.085,0.371-0.481,0.527c-0.433,0.17-0.75,0.132-0.949-0.112
		c-0.035-0.035-0.15-0.304-0.347-0.807c-0.055-0.14-0.125-0.241-0.213-0.304c-0.787,0.969-1.768,1.683-2.942,2.142
		c-0.813,0.318-1.667,0.45-2.562,0.398c-1.02-0.052-1.645-0.372-1.874-0.958c-0.224-0.573,0.072-1.333,0.889-2.28
		c0.742-0.87,1.511-1.461,2.305-1.772l2.682-1.049c0.075-0.126,0.073-0.294-0.009-0.504c-0.366-0.936-0.742-1.602-1.126-2
		c-0.637-0.669-1.434-0.816-2.391-0.442c-0.687,0.269-1.188,0.851-1.503,1.747c-0.283,0.82-0.315,1.509-0.097,2.068
		c0.011,0.028,0.027,0.07,0.049,0.126s0.036,0.091,0.041,0.105c0.044,0.112-0.007,0.196-0.151,0.252
		c-0.181,0.071-0.413,0.064-0.695-0.018c-0.283-0.083-0.448-0.187-0.497-0.313c-0.153-0.391-0.193-0.943-0.118-1.658
		c0.075-0.713,0.232-1.295,0.474-1.744c0.304-0.554,0.79-0.961,1.459-1.223c1.03-0.403,2.076-0.522,3.14-0.358
		c1.134,0.184,1.861,0.657,2.18,1.418L182.813,80.898z M180.074,78.128c-0.219-0.559-0.888-0.619-2.008-0.181
		c-0.885,0.346-1.616,0.769-2.191,1.268c-0.729,0.64-0.973,1.267-0.733,1.881c0.147,0.377,0.488,0.582,1.022,0.615
		c0.45,0.034,0.937-0.053,1.461-0.258c0.777-0.304,1.437-0.787,1.979-1.45C180.147,79.34,180.303,78.715,180.074,78.128z"/>
	<path fill="#FFFFFF" d="M187.596,69.725c0.022,0.056,0.059,0.178,0.112,0.367c-0.126,0.372-0.297,0.599-0.514,0.684
		c-0.145,0.057-0.298,0.036-0.461-0.061c-0.399-0.859-1.041-1.115-1.926-0.769c-0.578,0.226-0.825,1.273-0.74,3.14
		c0.019,0.685,0.224,1.531,0.617,2.537c0.503,1.286,0.857,2.057,1.062,2.315c0.034,0.035,0.114,0.105,0.238,0.209
		c0.124,0.105,0.2,0.192,0.228,0.261c0.12,0.308-0.091,0.567-0.633,0.779c-0.614,0.24-1.017,0.116-1.208-0.373
		c-0.027-0.07-0.044-0.179-0.051-0.33c-0.007-0.15-0.024-0.26-0.051-0.33c-0.3-0.768-0.796-1.903-1.488-3.404
		c-0.692-1.501-1.187-2.636-1.488-3.404c-0.109-0.279-0.113-0.475-0.011-0.588c0.101-0.112,0.333-0.239,0.694-0.381
		c0.451-0.176,0.762-0.153,0.933,0.07c0.127,0.273,0.252,0.538,0.374,0.796c0.251-0.742,0.399-1.163,0.444-1.261
		c0.26-0.504,0.608-0.842,1.041-1.011c0.325-0.127,0.681-0.177,1.066-0.151c0.213,0.014,0.547,0.133,0.999,0.358
		C187.287,69.403,187.541,69.586,187.596,69.725z"/>
</g>
<path fill="#FFFFFF" d="M113.564,253.93c-20.762,0.596-36.333-7.302-47.54-23.79c-3.597-5.293-5.534-11.054-4.569-17.44
	c0.21-1.391,1.903-2.557,2.914-3.827c0.837,1.26,2.267,2.45,2.423,3.789c2.266,19.507,19.249,34.685,39.731,35.508
	c8.758,0.352,17.241-0.125,25.197-4.485c1.436-0.787,3.79,0.103,5.72,0.218c-1.234,1.624-2.126,3.94-3.763,4.751
	C127.112,251.906,120.422,255.118,113.564,253.93z"/>
<path fill="#FFFFFF" d="M134.151,232.534c0.55,0.027,2.571-0.079,4.515,0.259c8.387,1.459,11.193,6.324,8.074,13.918
	c-2.016,4.908-3.967,9.86-6.341,14.594c-0.689,1.373-2.739,2.064-4.165,3.067c-0.291-1.778-1.259-3.786-0.747-5.29
	c1.544-4.539,3.698-8.868,5.548-13.306c2.111-5.063,0.77-7.207-4.839-7.578c-2.643-0.175-5.351,0.252-7.945-0.149
	c-1.511-0.233-2.853-1.564-4.271-2.401c1.417-1.038,2.709-2.403,4.291-3.012C129.573,232.135,131.219,232.534,134.151,232.534z"/>
<g>
	<path fill="#FFFFFF" d="M183.152,200.238c-0.377,1.437-0.939,2.577-1.683,3.42c-1.013,1.176-2.228,1.579-3.646,1.206
		c-0.929-0.244-1.642-0.827-2.14-1.748c-0.13,0.012-0.306,0.447-0.531,1.302c-0.495,1.886-0.736,3.25-0.722,4.09
		c-0.003,0.077,0.032,0.272,0.103,0.585c0.071,0.313,0.099,0.5,0.084,0.557c-0.061,0.232-0.26,0.304-0.598,0.215
		c-0.405-0.106-0.675-0.232-0.808-0.375c-0.134-0.144-0.186-0.514-0.155-1.111c0.025-0.505,0.073-0.897,0.145-1.171l1.452-5.527
		c0.133-0.508,0.343-1.182,0.627-2.022c0.323-0.985,0.539-1.658,0.65-2.016c0.119-0.388,0.253-0.895,0.4-1.524
		c0.209-0.797,0.345-1.313,0.406-1.545c0.263-1,0.698-1.421,1.306-1.261c0.303,0.08,0.431,0.214,0.381,0.402
		c-0.095,0.363-0.268,0.884-0.518,1.562c-0.25,0.678-0.422,1.192-0.513,1.54l0.102,0.027c0.506-0.348,1.014-0.703,1.525-1.066
		c0.589-0.387,1.221-0.493,1.897-0.316c1.13,0.297,1.869,0.956,2.215,1.977C183.418,198.262,183.427,199.194,183.152,200.238z
		 M181.863,199.993c0.202-0.769,0.282-1.453,0.241-2.053c-0.074-0.888-0.431-1.417-1.072-1.585c-0.473-0.124-1.14,0.081-2.002,0.614
		c-0.755,0.469-1.336,0.999-1.744,1.59c-0.315,0.444-0.658,1.13-1.027,2.057c-0.25,0.678-0.372,1.004-0.364,0.975
		c-0.011,0.043,0.045,0.136,0.169,0.277c0.085,0.085,0.169,0.177,0.251,0.276c0.182,0.404,0.366,0.813,0.554,1.227
		s0.558,0.693,1.113,0.839c0.924,0.243,1.792-0.227,2.606-1.409C181.167,201.959,181.593,201.023,181.863,199.993z"/>
	<path fill="#FFFFFF" d="M190.674,199.632c-0.015,0.058-0.056,0.179-0.122,0.363c-0.296,0.233-0.545,0.322-0.747,0.269
		c-0.136-0.036-0.234-0.138-0.297-0.31c0.189-0.928-0.13-1.5-0.957-1.717c-0.54-0.142-1.297,0.575-2.27,2.149
		c-0.366,0.571-0.687,1.379-0.961,2.423c-0.35,1.335-0.523,2.166-0.519,2.492c0.005,0.048,0.024,0.15,0.055,0.305
		s0.038,0.27,0.019,0.342c-0.084,0.319-0.379,0.412-0.886,0.279c-0.574-0.151-0.795-0.479-0.661-0.987
		c0.019-0.073,0.068-0.172,0.147-0.299c0.078-0.127,0.127-0.226,0.146-0.299c0.21-0.798,0.482-2.006,0.816-3.624
		c0.335-1.618,0.607-2.826,0.817-3.624c0.076-0.29,0.182-0.452,0.317-0.486c0.135-0.034,0.371-0.007,0.709,0.081
		c0.421,0.111,0.632,0.305,0.631,0.585c-0.06,0.294-0.117,0.582-0.172,0.861c0.591-0.465,0.93-0.724,1.017-0.779
		c0.466-0.265,0.902-0.345,1.307-0.238c0.304,0.08,0.587,0.239,0.849,0.478c0.146,0.131,0.319,0.418,0.519,0.857
		C190.631,199.193,190.712,199.486,190.674,199.632z"/>
	<path fill="#FFFFFF" d="M197.08,207.292c-0.168,0.639-0.816,1.081-1.945,1.327c-1.017,0.23-1.922,0.239-2.715,0.031
		c-2.262-0.594-3.07-2.124-2.422-4.59c0.286-1.088,0.821-2.197,1.604-3.325c1.034-1.465,2.024-2.073,2.97-1.825
		c0.81,0.213,1.604,0.797,2.381,1.753s1.074,1.783,0.891,2.48c-0.236,0.899-0.864,1.572-1.883,2.018
		c-1.019,0.446-2.06,0.529-3.124,0.25c-0.101-0.027-0.297-0.156-0.588-0.388c-0.291-0.231-0.496-0.362-0.614-0.393
		c-0.219-0.058-0.344-0.029-0.375,0.087c-0.438,1.669-0.016,2.671,1.267,3.008c0.658,0.173,1.316,0.144,1.972-0.087
		c0.395-0.13,0.855-0.372,1.383-0.73c0.416-0.279,0.674-0.405,0.776-0.378C197.046,206.632,197.186,206.886,197.08,207.292z
		 M196.384,202.83c0.133-0.508,0.089-1.028-0.132-1.558c-0.222-0.532-0.61-0.87-1.168-1.016c-0.675-0.177-1.32,0.041-1.931,0.656
		c-0.514,0.516-0.858,1.1-1.029,1.753c-0.111,0.421-0.047,0.814,0.191,1.179c0.238,0.364,0.601,0.611,1.091,0.74
		c0.692,0.182,1.333,0.078,1.922-0.309C195.872,203.92,196.224,203.439,196.384,202.83z"/>
	<path fill="#FFFFFF" d="M205.355,210.414c-0.134,0.509-0.694,0.821-1.68,0.935c-0.815,0.081-1.569,0.031-2.261-0.15
		c-0.456-0.12-0.954-0.353-1.495-0.698c-0.29-0.201-0.725-0.643-1.303-1.327c-0.635-0.744-0.925-1.219-0.871-1.424
		c0.119-0.452,0.485-0.575,1.098-0.368l0.152,0.04c-0.082,0.449,0.333,1.068,1.246,1.855c0.822,0.718,1.52,1.151,2.094,1.302
		c0.742,0.195,1.171,0.075,1.286-0.362c0.069-0.262-0.292-0.744-1.081-1.449c-1.085-0.953-1.806-1.679-2.162-2.177
		c-0.727-1.014-0.958-2.023-0.694-3.027c0.199-0.757,0.616-1.416,1.251-1.981c0.736-0.676,1.502-0.911,2.296-0.703
		c0.574,0.151,1.206,0.561,1.896,1.231c0.69,0.67,1.042,1.255,1.055,1.754c0.032,0.427-0.02,0.902-0.157,1.425
		c-0.149,0.566-0.429,1.151-0.841,1.756c-0.178,0.062-0.369,0.066-0.571,0.013c-0.119-0.031-0.293-0.119-0.526-0.265
		c-0.232-0.147-0.337-0.263-0.314-0.35c-0.015,0.058,0.119-0.078,0.404-0.406c0.199-0.211,0.385-0.644,0.557-1.297
		c0.408-1.552,0.046-2.477-1.085-2.774c-0.591-0.155-1.153,0.063-1.687,0.652c-0.449,0.474-0.748,0.993-0.897,1.561
		c-0.187,0.712,0.113,1.529,0.899,2.451c0.259,0.316,1.014,1.052,2.263,2.203C205.055,209.597,205.431,210.124,205.355,210.414z"/>
	<path fill="#FFFFFF" d="M213.584,212.575c-0.134,0.509-0.694,0.821-1.68,0.935c-0.815,0.081-1.569,0.031-2.261-0.15
		c-0.456-0.12-0.954-0.353-1.495-0.698c-0.29-0.201-0.725-0.643-1.303-1.327c-0.635-0.744-0.925-1.219-0.871-1.424
		c0.119-0.452,0.485-0.575,1.098-0.368l0.152,0.04c-0.082,0.449,0.333,1.068,1.246,1.855c0.822,0.718,1.52,1.151,2.094,1.302
		c0.742,0.195,1.171,0.075,1.286-0.362c0.069-0.262-0.292-0.744-1.081-1.449c-1.085-0.953-1.806-1.679-2.162-2.177
		c-0.727-1.014-0.958-2.023-0.694-3.027c0.199-0.757,0.616-1.416,1.251-1.98c0.736-0.676,1.502-0.911,2.296-0.703
		c0.574,0.151,1.206,0.561,1.896,1.231c0.69,0.67,1.042,1.255,1.055,1.754c0.032,0.427-0.02,0.902-0.157,1.425
		c-0.149,0.566-0.429,1.151-0.841,1.756c-0.178,0.062-0.369,0.066-0.571,0.013c-0.119-0.031-0.293-0.119-0.526-0.265
		c-0.232-0.147-0.337-0.263-0.314-0.35c-0.015,0.058,0.119-0.078,0.404-0.406c0.199-0.211,0.385-0.644,0.557-1.297
		c0.408-1.552,0.046-2.477-1.085-2.774c-0.591-0.155-1.153,0.063-1.687,0.652c-0.449,0.474-0.748,0.993-0.897,1.561
		c-0.187,0.712,0.113,1.529,0.899,2.451c0.259,0.316,1.014,1.052,2.263,2.203C213.284,211.758,213.661,212.285,213.584,212.575z"/>
	<path fill="#FFFFFF" d="M231.443,218.781c-0.404,0.096-0.699,0.119-0.885,0.071c-0.118-0.031-0.274-0.126-0.466-0.286
		c0.061-0.232,0.164-0.625,0.309-1.178c0.134-0.509,0.237-0.902,0.309-1.178c1.176-4.479,1.231-6.859,0.165-7.139
		c-0.633-0.166-1.365,0.386-2.198,1.656c-0.66,1.021-1.09,1.916-1.292,2.685l-0.571,2.176c-0.031,0.116-0.035,0.29-0.015,0.519
		c0.021,0.231,0.018,0.396-0.009,0.498c-0.031,0.116-0.154,0.208-0.37,0.274c-0.216,0.067-0.392,0.084-0.527,0.048
		c-0.152-0.04-0.297-0.175-0.435-0.405c-0.138-0.23-0.19-0.411-0.156-0.542l1.149-4.374c0.122-0.464,0.183-1.076,0.185-1.836
		c-0.001-0.961-0.169-1.487-0.507-1.576c-0.186-0.049-0.518,0.082-0.996,0.391c-1.632,1.06-2.714,2.606-3.248,4.637
		c-0.065,0.247-0.127,0.622-0.188,1.126c-0.06,0.503-0.12,0.872-0.181,1.103c-0.114,0.435-0.383,0.597-0.804,0.486
		c-0.203-0.053-0.361-0.172-0.475-0.357c-0.048-0.09-0.039-0.436,0.029-1.039c0.053-0.545,0.104-0.911,0.154-1.1l1.349-5.135
		c0.389-1.48,0.786-2.166,1.191-2.06c0.169,0.044,0.324,0.159,0.465,0.342c0.14,0.185,0.192,0.349,0.154,0.495
		c-0.08,0.304-0.235,0.69-0.466,1.157c-0.269,0.612-0.433,0.995-0.492,1.15l0.098,0.142c0.484-0.539,0.969-1.079,1.454-1.618
		c0.665-0.679,1.31-0.935,1.935-0.771c0.878,0.23,1.424,1.242,1.639,3.035c0.214-0.13,0.521-0.437,0.919-0.922
		c0.398-0.484,0.729-0.816,0.992-0.995c0.412-0.264,0.855-0.334,1.327-0.21c0.456,0.12,0.893,0.514,1.313,1.184
		c0.781,1.216,0.848,3.06,0.199,5.531L231.443,218.781z"/>
	<path fill="#FFFFFF" d="M241.062,218.842c-0.168,0.639-0.816,1.081-1.945,1.327c-1.017,0.23-1.922,0.239-2.715,0.031
		c-2.262-0.594-3.069-2.124-2.422-4.59c0.286-1.088,0.821-2.197,1.604-3.325c1.034-1.465,2.024-2.073,2.97-1.825
		c0.81,0.213,1.604,0.797,2.381,1.753c0.777,0.956,1.074,1.783,0.891,2.48c-0.236,0.899-0.864,1.572-1.883,2.018
		c-1.019,0.446-2.06,0.529-3.124,0.25c-0.101-0.027-0.297-0.156-0.588-0.388c-0.291-0.231-0.496-0.362-0.614-0.393
		c-0.219-0.058-0.344-0.029-0.375,0.087c-0.438,1.669-0.016,2.671,1.267,3.008c0.658,0.173,1.316,0.144,1.972-0.087
		c0.395-0.13,0.855-0.372,1.383-0.73c0.416-0.279,0.674-0.405,0.776-0.378C241.028,218.182,241.169,218.436,241.062,218.842z
		 M240.367,214.379c0.133-0.508,0.089-1.028-0.132-1.558c-0.222-0.532-0.61-0.87-1.168-1.016c-0.675-0.177-1.32,0.041-1.932,0.656
		c-0.514,0.516-0.858,1.1-1.029,1.753c-0.111,0.421-0.047,0.814,0.191,1.179c0.238,0.364,0.601,0.611,1.091,0.74
		c0.692,0.182,1.333,0.078,1.922-0.309C239.854,215.469,240.207,214.988,240.367,214.379z"/>
	<path fill="#FFFFFF" d="M203.028,222.827c-0.123,0.04-0.388,0.031-0.793-0.027c-0.445-0.069-0.705-0.094-0.78-0.078
		c-0.046,0.12-0.217,0.745-0.513,1.873c-0.231,0.88-0.374,1.476-0.427,1.788c-0.032,0.124-0.052,0.33-0.057,0.618
		c-0.006,0.287-0.028,0.506-0.066,0.652c-0.024,0.091-0.113,0.163-0.268,0.219c-0.155,0.055-0.285,0.069-0.39,0.042
		c-0.263-0.069-0.412-0.356-0.447-0.86c-0.017-0.366,0.016-0.702,0.096-1.006c0.418-1.592,0.726-2.765,0.925-3.521
		c-0.062-0.076-0.357-0.153-0.883-0.232c-0.421-0.062-0.592-0.245-0.512-0.55c0.113-0.429,0.696-0.487,1.751-0.173l1.061-2.997
		c0.009-0.033,0.006-0.091-0.007-0.174c-0.014-0.081-0.016-0.139-0.007-0.173c0.018-0.068,0.087-0.119,0.208-0.153
		c0.121-0.035,0.253-0.027,0.394,0.022c0.451,0.155,0.629,0.413,0.534,0.773c-0.074,0.282-0.231,0.693-0.471,1.233
		c-0.24,0.541-0.396,0.946-0.467,1.217c-0.035,0.135-0.056,0.268-0.063,0.4l1.096,0.233c0.368,0.097,0.518,0.269,0.453,0.517
		C203.347,222.651,203.225,222.771,203.028,222.827z"/>
	<path fill="#FFFFFF" d="M209.357,226.624c-0.255,0.97-0.726,1.751-1.415,2.342c-0.819,0.714-1.753,0.933-2.804,0.657
		c-1.063-0.279-1.764-0.844-2.103-1.692c-0.28-0.7-0.291-1.536-0.037-2.507c0.252-0.96,0.749-1.836,1.491-2.63
		c0.929-0.974,1.88-1.334,2.851-1.079c0.249,0.066,0.571,0.283,0.966,0.652C209.468,223.445,209.819,224.864,209.357,226.624z
		 M208.416,226.359c0.19-0.723,0.249-1.401,0.177-2.035c-0.118-0.887-0.519-1.421-1.201-1.6c-0.788-0.207-1.522,0.077-2.202,0.85
		c-0.523,0.599-0.887,1.294-1.095,2.083c-0.187,0.711-0.226,1.34-0.117,1.887c0.166,0.756,0.611,1.229,1.333,1.418
		c0.788,0.207,1.486-0.02,2.095-0.681C207.877,227.768,208.214,227.126,208.416,226.359z"/>
	<path fill="#FFFFFF" d="M180.832,236.75c-0.015,0.058-0.056,0.179-0.122,0.363c-0.296,0.233-0.545,0.322-0.747,0.269
		c-0.136-0.036-0.234-0.138-0.297-0.31c0.189-0.928-0.13-1.5-0.957-1.717c-0.54-0.142-1.297,0.575-2.27,2.149
		c-0.366,0.571-0.687,1.379-0.961,2.423c-0.35,1.335-0.523,2.166-0.519,2.492c0.005,0.048,0.024,0.15,0.055,0.305
		c0.031,0.156,0.038,0.27,0.019,0.342c-0.084,0.319-0.379,0.412-0.886,0.279c-0.574-0.151-0.795-0.479-0.661-0.987
		c0.019-0.073,0.068-0.172,0.147-0.299c0.078-0.127,0.127-0.226,0.146-0.299c0.21-0.798,0.482-2.006,0.816-3.624
		c0.335-1.618,0.607-2.826,0.817-3.624c0.076-0.29,0.182-0.452,0.317-0.486c0.135-0.034,0.371-0.007,0.709,0.081
		c0.421,0.111,0.632,0.305,0.631,0.585c-0.06,0.294-0.117,0.582-0.172,0.861c0.591-0.465,0.93-0.724,1.017-0.779
		c0.466-0.265,0.902-0.345,1.307-0.238c0.304,0.08,0.587,0.239,0.849,0.478c0.146,0.131,0.319,0.418,0.519,0.857
		C180.788,236.311,180.87,236.604,180.832,236.75z"/>
	<path fill="#FFFFFF" d="M187.238,244.41c-0.168,0.639-0.816,1.081-1.945,1.327c-1.017,0.23-1.922,0.239-2.715,0.031
		c-2.262-0.594-3.07-2.124-2.422-4.59c0.286-1.088,0.821-2.197,1.604-3.325c1.034-1.465,2.024-2.073,2.97-1.825
		c0.81,0.213,1.604,0.797,2.381,1.753c0.777,0.956,1.074,1.783,0.891,2.48c-0.236,0.899-0.864,1.572-1.883,2.018
		c-1.019,0.446-2.06,0.529-3.124,0.25c-0.101-0.027-0.297-0.156-0.588-0.388c-0.291-0.231-0.496-0.362-0.614-0.393
		c-0.219-0.058-0.344-0.029-0.375,0.087c-0.438,1.669-0.016,2.671,1.267,3.008c0.658,0.173,1.316,0.144,1.972-0.087
		c0.395-0.13,0.855-0.372,1.383-0.73c0.416-0.279,0.674-0.405,0.776-0.378C187.204,243.75,187.344,244.004,187.238,244.41z
		 M186.542,239.947c0.133-0.508,0.089-1.028-0.132-1.558c-0.222-0.532-0.61-0.87-1.168-1.016c-0.675-0.177-1.32,0.041-1.931,0.656
		c-0.514,0.516-0.858,1.1-1.029,1.753c-0.111,0.421-0.047,0.814,0.191,1.179c0.238,0.364,0.601,0.611,1.091,0.74
		c0.692,0.182,1.333,0.078,1.922-0.309C186.03,241.037,186.382,240.557,186.542,239.947z"/>
	<path fill="#FFFFFF" d="M195.513,247.532c-0.134,0.509-0.694,0.821-1.68,0.935c-0.815,0.081-1.569,0.031-2.261-0.15
		c-0.456-0.12-0.954-0.353-1.495-0.698c-0.29-0.201-0.725-0.643-1.303-1.327c-0.635-0.744-0.925-1.219-0.871-1.424
		c0.119-0.452,0.485-0.575,1.098-0.368l0.152,0.04c-0.082,0.449,0.333,1.068,1.246,1.855c0.822,0.718,1.52,1.151,2.094,1.302
		c0.742,0.195,1.171,0.075,1.286-0.362c0.069-0.262-0.292-0.744-1.081-1.449c-1.085-0.953-1.806-1.679-2.162-2.177
		c-0.727-1.014-0.958-2.023-0.694-3.027c0.199-0.757,0.616-1.416,1.251-1.981c0.736-0.676,1.502-0.911,2.296-0.703
		c0.574,0.151,1.206,0.561,1.896,1.231c0.69,0.67,1.042,1.255,1.055,1.754c0.032,0.427-0.02,0.902-0.157,1.425
		c-0.149,0.566-0.429,1.151-0.841,1.756c-0.178,0.062-0.369,0.066-0.571,0.013c-0.119-0.031-0.293-0.119-0.526-0.265
		c-0.232-0.147-0.337-0.263-0.314-0.35c-0.015,0.058,0.119-0.078,0.404-0.406c0.199-0.211,0.385-0.644,0.557-1.297
		c0.408-1.552,0.046-2.477-1.085-2.774c-0.591-0.155-1.153,0.063-1.687,0.652c-0.449,0.474-0.748,0.993-0.897,1.561
		c-0.187,0.712,0.113,1.529,0.899,2.451c0.259,0.316,1.014,1.052,2.263,2.203C195.213,246.715,195.589,247.242,195.513,247.532z"/>
	<path fill="#FFFFFF" d="M202.45,243.379c-0.159,0.052-0.498,0.041-1.019-0.034c-0.572-0.089-0.907-0.122-1.002-0.101
		c-0.059,0.155-0.279,0.959-0.66,2.41c-0.297,1.132-0.481,1.897-0.549,2.298c-0.042,0.16-0.067,0.424-0.074,0.794
		c-0.007,0.371-0.035,0.65-0.085,0.839c-0.031,0.116-0.146,0.209-0.345,0.281c-0.2,0.072-0.367,0.09-0.502,0.055
		c-0.338-0.089-0.53-0.457-0.576-1.105c-0.021-0.471,0.02-0.902,0.123-1.293c0.537-2.046,0.933-3.554,1.189-4.527
		c-0.08-0.098-0.458-0.197-1.135-0.298c-0.541-0.08-0.761-0.316-0.658-0.708c0.145-0.551,0.895-0.625,2.251-0.223l1.364-3.852
		c0.011-0.043,0.008-0.118-0.009-0.224c-0.018-0.106-0.02-0.18-0.009-0.223c0.023-0.087,0.112-0.152,0.268-0.197
		c0.155-0.044,0.325-0.035,0.507,0.028c0.579,0.199,0.808,0.53,0.686,0.995c-0.095,0.363-0.297,0.891-0.606,1.586
		c-0.309,0.694-0.509,1.215-0.6,1.564c-0.046,0.174-0.073,0.345-0.081,0.514l1.41,0.301c0.472,0.124,0.667,0.346,0.583,0.664
		C202.861,243.154,202.703,243.307,202.45,243.379z"/>
	<path fill="#FFFFFF" d="M208.587,252.994c-0.053,0.203-0.266,0.256-0.637,0.159c-0.405-0.106-0.612-0.316-0.62-0.628
		c-0.006-0.048,0.061-0.333,0.198-0.856c0.038-0.145,0.043-0.267,0.015-0.368c-1.101,0.347-2.201,0.375-3.298,0.087
		c-0.76-0.2-1.446-0.574-2.06-1.123c-0.704-0.618-0.976-1.233-0.816-1.842c0.156-0.595,0.79-1.05,1.901-1.363
		c1.015-0.292,1.893-0.34,2.636-0.145l2.507,0.658c0.124-0.06,0.215-0.2,0.272-0.417c0.255-0.972,0.354-1.729,0.299-2.271
		c-0.087-0.906-0.578-1.477-1.472-1.712c-0.642-0.169-1.324,0.024-2.047,0.579c-0.657,0.51-1.062,1.055-1.214,1.635
		c-0.008,0.029-0.019,0.073-0.034,0.13c-0.015,0.059-0.025,0.094-0.029,0.109c-0.031,0.117-0.113,0.157-0.248,0.122
		c-0.169-0.044-0.332-0.18-0.488-0.408c-0.157-0.227-0.218-0.406-0.184-0.537c0.106-0.405,0.384-0.88,0.833-1.421
		c0.449-0.541,0.884-0.927,1.305-1.158c0.525-0.281,1.099-0.339,1.724-0.175c0.962,0.253,1.78,0.746,2.453,1.481
		c0.713,0.792,0.972,1.59,0.78,2.392L208.587,252.994z M208.153,249.182c0.152-0.58-0.295-1.008-1.341-1.283
		c-0.828-0.217-1.586-0.284-2.275-0.202c-0.878,0.111-1.4,0.486-1.567,1.124c-0.103,0.391,0.028,0.752,0.393,1.08
		c0.305,0.282,0.702,0.487,1.192,0.616c0.726,0.191,1.467,0.168,2.224-0.067C207.535,250.213,207.993,249.791,208.153,249.182z"/>
	<path fill="#FFFFFF" d="M218.206,246.564c-0.015,0.058-0.056,0.179-0.122,0.363c-0.296,0.233-0.545,0.322-0.747,0.269
		c-0.136-0.036-0.234-0.138-0.297-0.31c0.189-0.928-0.13-1.5-0.957-1.717c-0.54-0.142-1.297,0.575-2.27,2.149
		c-0.366,0.571-0.687,1.379-0.961,2.423c-0.35,1.335-0.523,2.166-0.519,2.492c0.005,0.048,0.024,0.15,0.055,0.305
		c0.031,0.156,0.038,0.27,0.019,0.342c-0.084,0.319-0.379,0.412-0.886,0.279c-0.574-0.151-0.795-0.479-0.661-0.987
		c0.019-0.073,0.068-0.172,0.147-0.299c0.078-0.127,0.127-0.226,0.146-0.299c0.21-0.798,0.482-2.006,0.816-3.624
		c0.335-1.618,0.607-2.826,0.817-3.624c0.076-0.29,0.182-0.452,0.317-0.486c0.135-0.034,0.371-0.007,0.709,0.081
		c0.421,0.111,0.632,0.305,0.631,0.585c-0.06,0.294-0.117,0.582-0.172,0.861c0.591-0.465,0.93-0.724,1.017-0.779
		c0.466-0.265,0.902-0.345,1.307-0.238c0.304,0.08,0.587,0.239,0.849,0.478c0.146,0.131,0.319,0.418,0.519,0.857
		C218.162,246.125,218.244,246.418,218.206,246.564z"/>
	<path fill="#FFFFFF" d="M223.314,248.859c-0.159,0.052-0.498,0.041-1.019-0.034c-0.572-0.089-0.907-0.122-1.002-0.101
		c-0.059,0.155-0.279,0.959-0.66,2.409c-0.297,1.132-0.481,1.897-0.549,2.298c-0.042,0.16-0.067,0.424-0.074,0.794
		c-0.007,0.371-0.035,0.65-0.085,0.839c-0.031,0.116-0.146,0.209-0.345,0.281c-0.2,0.072-0.367,0.09-0.502,0.055
		c-0.338-0.089-0.53-0.457-0.576-1.105c-0.021-0.471,0.02-0.902,0.123-1.293c0.537-2.046,0.933-3.554,1.189-4.527
		c-0.08-0.098-0.458-0.197-1.135-0.298c-0.541-0.08-0.761-0.316-0.658-0.708c0.145-0.551,0.895-0.625,2.251-0.223l1.364-3.852
		c0.011-0.043,0.008-0.118-0.009-0.224c-0.018-0.106-0.02-0.18-0.009-0.223c0.023-0.087,0.112-0.152,0.268-0.197
		c0.155-0.044,0.325-0.035,0.507,0.028c0.579,0.199,0.808,0.53,0.686,0.995c-0.095,0.363-0.297,0.891-0.606,1.586
		c-0.309,0.694-0.509,1.215-0.6,1.564c-0.046,0.174-0.073,0.345-0.081,0.514l1.41,0.301c0.472,0.124,0.667,0.346,0.583,0.664
		C223.725,248.633,223.568,248.786,223.314,248.859z"/>
</g>
</svg>
