<?xml version="1.0" encoding="utf-8"?>
<!-- Generator: Adobe Illustrator 24.1.3, SVG Export Plug-In . SVG Version: 6.00 Build 0)  -->
<svg version="1.1" id="Ebene_1" xmlns="http://www.w3.org/2000/svg" xmlns:xlink="http://www.w3.org/1999/xlink" x="0px" y="0px"
	 viewBox="0 0 1094 457" style="enable-background:new 0 0 1094 457;" xml:space="preserve">
<style type="text/css">
	.st0{fill:#FFFFFF;stroke:#000000;stroke-width:0.9368;stroke-miterlimit:10;}
	.st1{fill:#FFFFFF;}
	.st2{fill:#262626;stroke:#000000;stroke-width:1.8736;stroke-miterlimit:10;}
</style>
<path class="st0" d="M215.8,148.8c0.6,19.1,0,23.8,0,33.4c-27.2,42.2-58.8,26-63.5,0.2C150,168,173.1,158.3,215.8,148.8z"/>
<path class="st0" d="M227.7,148.8c-0.6,19.1,0,23.8,0,33.4c27.2,42.2,58.8,26,63.5,0.2C293.3,168,270.4,158.3,227.7,148.8z"/>
<rect x="163.7" y="221.7" class="st0" width="115.8" height="111"/>
<rect x="115.9" y="340.8" class="st0" width="38.9" height="11.7"/>
<rect x="115.9" y="295.5" class="st0" width="38.9" height="5.9"/>
<rect x="115.9" y="304.5" class="st0" width="38.9" height="5.9"/>
<rect x="115.7" y="313.6" class="st0" width="38.9" height="5.9"/>
<rect x="115.7" y="323.2" class="st0" width="38.9" height="5.9"/>
<rect x="115.7" y="332" class="st0" width="38.9" height="5.9"/>
<rect x="288.5" y="340.8" class="st0" width="38.9" height="11.7"/>
<rect x="288.5" y="295.5" class="st0" width="38.9" height="5.9"/>
<rect x="288.5" y="304.5" class="st0" width="38.9" height="5.9"/>
<rect x="288.3" y="313.6" class="st0" width="38.9" height="5.9"/>
<rect x="288.3" y="323.2" class="st0" width="38.9" height="5.9"/>
<rect x="288.3" y="332" class="st0" width="38.9" height="5.9"/>
<rect x="215.8" y="207.3" class="st0" width="11.7" height="14.5"/>
<rect x="215.8" y="155.9" class="st0" width="11.7" height="40.7"/>
<rect x="214.1" y="196.6" class="st0" width="15.3" height="7.3"/>
<rect x="168.3" y="225.8" width="107.2" height="36.5"/>
<rect x="183.3" y="230.9" class="st1" width="38.5" height="19.1"/>
<rect x="231.3" y="230.9" class="st1" width="38.5" height="26"/>
<rect x="206.4" y="233.3" width="9.2" height="3.7"/>
<rect x="206.4" y="238.6" width="9.2" height="3.7"/>
<rect x="206.4" y="244.1" width="9.2" height="3.7"/>
<rect x="187.7" y="233.3" width="9.2" height="3.7"/>
<rect x="187.7" y="238.6" width="9.2" height="3.7"/>
<rect x="187.7" y="244.1" width="9.2" height="3.7"/>
<rect x="248.7" y="233.3" width="21.2" height="1.8"/>
<rect x="248.7" y="237" width="21.2" height="1.8"/>
<rect x="248.7" y="242.7" width="21.2" height="1.8"/>
<rect x="248.7" y="246.1" width="21.2" height="1.8"/>
<rect x="248.7" y="253.5" width="21.2" height="1.8"/>
<ellipse cx="236.7" cy="236.6" rx="3.1" ry="2.9"/>
<ellipse class="st2" cx="190.9" cy="176.3" rx="16.3" ry="15.6"/>
<ellipse class="st2" cx="252.6" cy="176.3" rx="16.3" ry="15.6"/>
<rect x="135.2" y="230.9" class="st0" width="39" height="15.6"/>
<rect x="135.2" y="249.3" class="st0" width="39" height="15.6"/>
<rect x="268.8" y="230.9" class="st0" width="39" height="15.6"/>
<rect x="268.8" y="249.3" class="st0" width="39" height="15.6"/>
</svg>
