<?xml version="1.0" encoding="utf-8"?>
<!-- Generator: Adobe Illustrator 24.1.3, SVG Export Plug-In . SVG Version: 6.00 Build 0)  -->
<svg version="1.1" id="Ebene_1" xmlns="http://www.w3.org/2000/svg" xmlns:xlink="http://www.w3.org/1999/xlink" x="0px" y="0px"
	 viewBox="0 0 230 250" style="enable-background:new 0 0 230 250;" xml:space="preserve">
<style type="text/css">
	.st0{fill:#FDFDFD;}
	.st1{fill:#646464;}
</style>
<path class="st0" d="M155.2,103.9c-4.8-2.5-10.1-2.7-15.3-4.1c0.5,0,0.9-0.1,1.4-0.1c9.9,0,19.7,0.1,29.6,0c1.7,0,2.4,0.4,2.4,2.1
	c0,1.6,0.4,3.3,0.3,4.9c-0.1,2,0.5,2.7,2.6,2.6c7.7-0.1,15.5,0,23.2-0.1c1.7,0,2.3,0.3,2.2,2.2c-0.2,4-0.1,8,0,12
	c0,1.6-0.4,2.1-2,2.1c-8-0.1-16-0.1-23.9,0c-0.7,0-2-0.7-2.1,1c-0.1,1.8,1.2,1.2,2.1,1.2c8.1,0,16.1,0.1,24.2,0c1.5,0,2,0.3,2,1.9
	c0,3.3,0.2,6.6-0.1,9.8c-0.2,2.9-1.1,4.1-4,4.5c-2.1,0.2-4.2,0.2-6.3,0.2c-5.2,0-10.5,0.1-15.7,0c-1.8,0-2.2,0.4-2.2,2.2
	c0.1,21.7,0,43.3,0.1,65c0,1.9-0.3,2.6-2.5,2.6c-36.4-0.1-72.7-0.1-109.1,0c-2,0-2.6-0.4-2.6-2.5c0.1-21.6,0-43.2,0.1-64.7
	c0-1.8-0.4-2.3-2.3-2.3c-8.1,0.1-16.1,0-24.2,0.1c-1.5,0-2-0.4-2-1.9c0.1-4.1,0.1-8.1,0-12.2c-0.1-1.7,0.6-2,2.1-2
	c8,0.1,16,0,23.9,0c0.9,0,1.9,0.4,2.2-1.1c0.2-1.4-1-1.2-1.6-1.5c-1.2-0.6-2.5-0.7-3.9-0.7c-6.9,0-13.8,0-20.6,0c-1.6,0-2-0.4-2-2
	c0.1-3.8,0.1-7.7,0-11.5c0-1.6,0.4-2,2-1.9c7.9,0.1,15.8,0,23.7,0.1c1.5,0,2.3-0.1,2.2-1.9c-0.1-1.9,0.4-3.7,0.3-5.6
	c0-1.8,0.6-2.2,2.3-2.2c10,0.1,20,0,30,0c0.3,0.2,0.7,0.4,1,0.6c-4.8,0.6-9.6,1-13.8,3.7c-2.3,0-4.6,0.1-6.9,0.1
	c-2.2,0-4.5,0-6.7-0.1c-0.8,0-1.3,0.3-1.7,1c-0.3,0.7,0.2,1,0.6,1.4c1,1.2,2.1,2.3,3.1,3.4c0.1,4.7,0.3,9.4,0.4,14.2
	c-1.1,0.7-2.4,1.2-3.4,2.4c0.7,0.5,1.2,1,1.9,1.3c2.1,1,2.8,2.6,2.5,4.9c-0.2,2.2,0,4.5-0.1,6.8c-0.1,1.4,0.3,2,1.8,1.9
	c1.9-0.1,3.9,0,5.8,0c0.6,14.1,6.7,25,19.2,31.9c11.1,6.2,23.2,5.7,34.9,3.3c16.7-3.4,27.2-17.3,28.1-35.2c4.8,0,4.7,0,4.8-3.7
	c0-1.7-0.6-2-2-1.8c-0.9,0.1-1.9,0-2.8,0c-0.1-1.8-0.1-3.5,1.9-4.6c4.8-2.7,6.9-7.1,7-12.5c0-3.3,0-6.6,0-9.8c1.5-1,1.2-2.4,0.7-3.8
	c-0.5-1.5-1.8-0.7-2.8-0.8c-0.8-0.1-1.7,0-2.5,0C160.3,104.1,157.7,104.5,155.2,103.9z"/>
<path class="st1" d="M72.1,104.4c2.3,0,4.6-0.1,6.9-0.1c12.7,0.1,25.4,0.2,38.1,0.4c1.5,0,3-0.3,4.5,0.6c1,0.5,2.1-0.7,3.4-0.7
	c7.3,0.1,14.5,0.2,21.8-0.1c2.8-0.1,5.7,0.6,8.5-0.6c2.5,0.6,5.1,0.3,7.6,0.6c2.2,0.8,3.7,2.4,4.6,4.6c0,3.3,0.1,6.6,0,9.8
	c-0.1,5.4-2.2,9.7-7,12.5c-2,1.1-2,2.8-1.9,4.6c0,1.8,0,3.7,0,5.5c-0.9,17.9-11.4,31.8-28.1,35.2c-11.7,2.4-23.8,2.9-34.9-3.3
	c-12.5-6.9-18.5-17.8-19.2-31.9c0-1.6,0-3.3,0-4.9c0-2.1-0.4-4.2-2.2-5.4c-2.6-1.9-4.8-4.1-6.4-6.8c-0.1-4.7-0.3-9.4-0.4-14.2
	C68,107.4,69.5,105.5,72.1,104.4z"/>
<path class="st0" d="M116.1,80.9c-2,0-3.9-0.1-5.9,0c-1.3,0.1-1.7-0.3-1.5-1.7c0.8-5.5,1.4-11,2.1-16.5c0.1-0.7,0.5-1.4-0.3-1.9
	c-1.1-0.6-1.4,0.5-1.8,1c-4,4.5-7.4,9.5-12.1,13.4c-7.4,6.1-15.8,9.5-25.3,9.8c-6.7,0.2-12-2.6-15.6-8.2c-3.9-5.9-6.7-12.4-8.4-19.2
	c-1.9-7.7,0.8-13.1,8.2-16.6c9.1-4.3,18.8-7.3,28.5-10c8.1-2.3,16.3-4.4,24.4-6.6c1.5-0.4,2-0.3,2.2,1.4c0.6,5.1,0.7,5.1,5.9,5.1
	c4.7,0,4.8,0,5.7-4.6c0.3-1.6,1-1.9,2.4-1.4c17.1,5.1,34.4,9.8,51.3,15.7c1,0.4,2.1,0.8,3,1.2c5.8,2.8,8,7.1,6.8,13.4
	c-1.2,6.5-4.1,12.4-7.4,18.1c-0.8,1.4-1.8,2.8-2.5,4.2c-3.5,6.7-9.4,8-16.3,7.5c-13.5-1.1-23.5-8.1-31.7-18.3
	c-1.2-1.5-2.5-3-3.7-4.5c-0.4-0.5-0.8-1.3-1.7-0.9c-0.9,0.4-0.5,1.2-0.4,1.9c0.6,5.3,1.1,10.6,1.8,15.8c0.2,1.6-0.1,2.3-1.9,2.1
	C120,80.8,118.1,80.9,116.1,80.9z M86.1,33.5c-10.4,0-18.9,8.4-18.9,18.9c0,10.5,8.4,18.9,18.9,18.9c10.3,0,18.9-8.5,19-18.7
	C105.1,42.4,96.3,33.6,86.1,33.5z M128,52.3c-0.1,10.8,7.9,19,18.6,19c10.4,0,18.9-8.3,19-18.6c0.1-10.5-8.3-19.1-18.6-19.2
	C136.4,33.4,128.1,41.7,128,52.3z"/>
<path class="st0" d="M30.7,224.1c5.6,0,11.3,0.1,16.9-0.1c1.8,0,2.4,0.6,2.5,2.2c0.1,1.9,0.2,3.9,0.2,5.8c0,2.1-1.2,3.1-3.2,3.2
	c-4.8,0.1-9.7,0.1-14.5,0.1c-6.3,0-12.5,0-18.8,0c-1.4,0-1.9-0.4-1.8-1.8c0.1-2.5,0.1-5,0-7.5c-0.1-1.8,0.7-2,2.2-2
	C19.6,224.1,25.1,224.1,30.7,224.1z"/>
<path class="st0" d="M201.7,234.8c-5.6,0-11.3,0-16.9,0c-1.4,0-1.9-0.3-1.8-1.8c0.1-2.5,0.1-5,0-7.5c0-1.2,0.3-1.6,1.6-1.6
	c11.5,0,23,0,34.5,0c1.1,0,1.5,0.3,1.5,1.5c-0.1,2.5-0.1,5,0,7.5c0.1,1.5-0.3,2-1.9,2C212.9,234.8,207.3,234.8,201.7,234.8z"/>
<path class="st0" d="M30.2,201.1c-5.2,0-10.5-0.1-15.7,0.1c-2,0.1-2.4-0.8-2.6-2.4c-0.2-1.6,0-3,1.8-3.5c1-0.2,2-0.3,3-0.3
	c9.5,0.1,19,0.2,28.6,0.2c2.1,0,3.1,1.2,4.3,2.3c0.3,0.3,0.6,0.6,0.2,1c-1,1-1.7,2.5-3.5,2.5c-2.7,0-5.3,0-8,0.1
	C35.6,201.1,32.9,201,30.2,201.1C30.2,201.1,30.2,201.1,30.2,201.1z"/>
<path class="st0" d="M30.7,219.5c-5.4,0-10.8,0-16.2,0c-1.2,0-2.6,0.4-2.7-1.6c-0.1-1.7,0-3.2,1.9-3.8c0.6-0.2,1.2-0.3,1.8-0.3
	c10.3,0,20.6,0,30.9,0c1.3,0,2.5,0.2,3.3,1.4c0.7,1.2,0.5,2.4,0,3.6c-0.4,1.2-1.5,0.6-2.2,0.7C41.9,219.5,36.3,219.5,30.7,219.5z"/>
<path class="st0" d="M30.8,191.1c-5.5,0-10.9-0.1-16.4,0.1c-2,0.1-2.4-1-2.6-2.4c-0.2-1.6,0.3-2.8,1.9-3.2c1-0.2,2.2-0.3,3.2-0.3
	c9.3,0.2,18.6,0.3,27.8,0c1.1,0,2.2,0.1,3.2,0.3c1.9,0.5,2.1,2,2,3.7c-0.1,1.8-1.2,2-2.7,2C41.9,191.1,36.3,191.1,30.8,191.1z"/>
<path class="st0" d="M201.6,191.1c-5.5,0-10.9-0.1-16.4,0.1c-2,0.1-2.4-0.8-2.6-2.4c-0.2-1.6,0.2-2.9,1.8-3.3c1-0.3,2.2-0.4,3.2-0.3
	c9.3,0.3,18.6,0.3,27.8,0c1,0,2,0.1,3,0.3c2,0.4,2.1,1.9,2,3.6c-0.1,1.7-0.9,2.1-2.5,2.1C212.5,191.1,207.1,191.1,201.6,191.1z"/>
<path class="st0" d="M201.5,219.6c-5.5,0-10.9-0.1-16.4,0c-1.7,0-2.1-0.5-2.1-2.1c0.1-3.7,0-3.8,3.7-3.7c9.8,0.1,19.7-0.1,29.5,0.1
	c2.8,0.1,4,1.9,4.7,3.8c0.6,1.4-1,1.9-2.3,1.9C212.9,219.6,207.2,219.6,201.5,219.6z"/>
<path class="st0" d="M30.8,181.5c-5.7,0-11.4,0-17.1,0c-1.2,0-2.4,0-1.9-1.6c0.4-1.3-1.2-3.7,2-3.7c11.4,0,22.8,0,34.2,0
	c3.2,0,1.6,2.5,2,3.9c0.5,1.9-1.1,1.4-2.1,1.4C42.3,181.6,36.6,181.5,30.8,181.5z"/>
<path class="st0" d="M201.5,195.5c5.6,0,11.1,0,16.7,0c1.3,0,2.2,0.1,2.3,1.8c0.1,1.6,0.2,3.1-1.6,3.6c-0.9,0.3-2,0.3-3,0.3
	c-10.2,0-20.3-0.1-30.5,0c-1.9,0-2.5-0.5-2.6-2.4c-0.2-3.3-0.3-3.3,3-3.3C191.1,195.5,196.3,195.5,201.5,195.5z"/>
<path class="st0" d="M201.6,181.6c-5.6,0-11.3,0-16.9,0c-1.4,0-2.1-0.2-2-1.9c0.2-4.1-0.5-3.4,3.3-3.4c10.7,0,21.4,0,32.1,0
	c0.8,0,1.9-0.5,2.1,0.8c0.2,1.4,0.3,2.8,0.2,4.2c-0.1,0.6-1.1,0.3-1.7,0.3C213,181.6,207.3,181.6,201.6,181.6z"/>
<path class="st0" d="M31,210c-5.6,0-11.2-0.1-16.9,0c-1.6,0-2.1-0.4-2.1-2c0.1-3.3,0-3.3,3.2-3.3c10.8,0,21.7,0.1,32.5-0.1
	c2,0,2.4,0.7,2.2,2.4c-0.1,1.4,0.6,3.1-2.1,3C42.2,209.9,36.6,210,31,210z"/>
<path class="st0" d="M201.8,210c-5.6,0-11.2-0.1-16.9,0.1c-2.5,0.1-1.8-1.5-1.8-2.8c-0.1-1.3-0.5-2.6,1.8-2.5
	c11.2,0.1,22.5,0.1,33.7,0c1.4,0,1.9,0.3,1.9,1.8c0,3.4,0.1,3.4-3.3,3.4C212.1,210,206.9,210,201.8,210z"/>
<path class="st0" d="M122.3,92.3c0,1.5-0.3,3,0.1,4.4c0.5,2-1.7,2.7-1.7,4.4c0,0.4-0.8,0.2-1.2,0.1c-1.1-0.1-2.2-0.3-3.3-0.1
	c-1.3,0.2-2.2,0.6-2.3-1.4c0-1.2-1.3-0.7-1.9-0.6c-1.3,0.1-1.8-0.3-1.7-1.7c0.1-3.7,0.1-7.3,0-11c0-1.1,0.3-1.5,1.5-1.5
	c3,0.1,6.1,0.1,9.1,0c1.1,0,1.5,0.3,1.5,1.4C122.2,88.4,122.3,90.4,122.3,92.3C122.3,92.3,122.3,92.3,122.3,92.3z"/>
<path class="st1" d="M92.8,100.6c-0.3-0.2-0.7-0.4-1-0.6c1.6-0.7,3.2-0.1,4.8-0.1C95.4,100.5,94.2,100.9,92.8,100.6z"/>
<path d="M67.8,124.3c1.6,2.8,3.9,4.9,6.4,6.8c1.7,1.3,2.1,3.4,2.2,5.4c0,1.6,0,3.3,0,4.9c-1.9,0-3.9-0.1-5.8,0
	c-1.5,0.1-1.8-0.5-1.8-1.9c0.1-2.3-0.1-4.5,0.1-6.8c0.2-2.3-0.4-3.9-2.5-4.9c-0.6-0.3-1.2-0.8-1.9-1.3
	C65.4,125.5,66.7,125,67.8,124.3z"/>
<path d="M158.6,141.4c0-1.8,0-3.7,0-5.5c0.9,0,1.9,0.1,2.8,0c1.4-0.1,2,0.2,2,1.8C163.3,141.4,163.4,141.4,158.6,141.4z"/>
<path d="M72.1,104.4c-2.6,1-4.1,3-4.7,5.7c-1-1.1-2.1-2.3-3.1-3.4c-0.3-0.4-0.9-0.7-0.6-1.4c0.3-0.7,0.9-1,1.7-1
	C67.6,104.4,69.9,104.4,72.1,104.4z"/>
<path d="M167.4,109c-0.8-2.2-2.4-3.7-4.6-4.6c0.8,0,1.7-0.1,2.5,0c1,0.1,2.3-0.7,2.8,0.8C168.6,106.6,168.9,108,167.4,109z"/>
<path d="M86.1,33.5c10.3,0,19,8.9,19,19c-0.1,10.3-8.6,18.7-19,18.7c-10.6,0-19-8.3-18.9-18.9C67.2,42,75.6,33.5,86.1,33.5z"/>
<path d="M128,52.3c0.1-10.6,8.5-18.9,19-18.8c10.3,0.1,18.7,8.7,18.6,19.2c-0.1,10.3-8.6,18.6-19,18.6
	C135.9,71.3,127.9,63.1,128,52.3z"/>
</svg>
