<?xml version="1.0" encoding="utf-8"?>
<!-- Generator: Adobe Illustrator 24.1.3, SVG Export Plug-In . SVG Version: 6.00 Build 0)  -->
<svg version="1.1" id="Ebene_1" xmlns="http://www.w3.org/2000/svg" xmlns:xlink="http://www.w3.org/1999/xlink" x="0px" y="0px"
	 viewBox="0 0 118 117.4" style="enable-background:new 0 0 118 117.4;" xml:space="preserve">
<style type="text/css">
	.st0{fill:#FFFFFF;stroke:#000000;stroke-width:0.5;stroke-miterlimit:10;}
	.st1{fill:#FFFFFF;}
	.st2{fill:#262626;stroke:#000000;stroke-miterlimit:10;}
</style>
<path class="st0" d="M55.1,3.3c0.3,10.4,0,13,0,18.2c-14.2,23-30.7,14.2-33.2,0.1C20.7,13.8,32.8,8.5,55.1,3.3z"/>
<path class="st0" d="M61.3,3.3c-0.3,10.4,0,13,0,18.2c14.2,23,30.7,14.2,33.2,0.1C95.6,13.8,83.6,8.5,61.3,3.3z"/>
<rect x="27.9" y="43.1" class="st0" width="60.5" height="60.5"/>
<rect x="2.9" y="108" class="st0" width="20.3" height="6.4"/>
<rect x="2.9" y="83.3" class="st0" width="20.3" height="3.2"/>
<rect x="2.9" y="88.2" class="st0" width="20.3" height="3.2"/>
<rect x="2.8" y="93.2" class="st0" width="20.3" height="3.2"/>
<rect x="2.8" y="98.4" class="st0" width="20.3" height="3.2"/>
<rect x="2.8" y="103.2" class="st0" width="20.3" height="3.2"/>
<rect x="93.1" y="108" class="st0" width="20.3" height="6.4"/>
<rect x="93.1" y="83.3" class="st0" width="20.3" height="3.2"/>
<rect x="93.1" y="88.2" class="st0" width="20.3" height="3.2"/>
<rect x="93" y="93.2" class="st0" width="20.3" height="3.2"/>
<rect x="93" y="98.4" class="st0" width="20.3" height="3.2"/>
<rect x="93" y="103.2" class="st0" width="20.3" height="3.2"/>
<rect x="55.1" y="35.2" class="st0" width="6.1" height="7.9"/>
<rect x="55.1" y="7.2" class="st0" width="6.1" height="22.2"/>
<rect x="54.2" y="29.4" class="st0" width="8" height="4"/>
<rect x="30.3" y="45.3" width="56" height="19.9"/>
<rect x="38.1" y="48.1" class="st1" width="20.1" height="10.4"/>
<rect x="63.2" y="48.1" class="st1" width="20.1" height="14.2"/>
<rect x="50.2" y="49.4" width="4.8" height="2"/>
<rect x="50.2" y="52.3" width="4.8" height="2"/>
<rect x="50.2" y="55.3" width="4.8" height="2"/>
<rect x="40.4" y="49.4" width="4.8" height="2"/>
<rect x="40.4" y="52.3" width="4.8" height="2"/>
<rect x="40.4" y="55.3" width="4.8" height="2"/>
<rect x="72.3" y="49.4" width="11.1" height="1"/>
<rect x="72.3" y="51.4" width="11.1" height="1"/>
<rect x="72.3" y="54.5" width="11.1" height="1"/>
<rect x="72.3" y="56.4" width="11.1" height="1"/>
<rect x="72.3" y="60.4" width="11.1" height="1"/>
<circle cx="66" cy="51.2" r="1.6"/>
<circle class="st2" cx="42.1" cy="18.3" r="8.5"/>
<circle class="st2" cx="74.3" cy="18.3" r="8.5"/>
<rect x="13" y="48.1" class="st0" width="20.4" height="8.5"/>
<rect x="13" y="58.1" class="st0" width="20.4" height="8.5"/>
<rect x="82.8" y="48.1" class="st0" width="20.4" height="8.5"/>
<rect x="82.8" y="58.1" class="st0" width="20.4" height="8.5"/>
</svg>
