<?xml version="1.0" encoding="utf-8"?>
<!-- Generator: Adobe Illustrator 24.1.3, SVG Export Plug-In . SVG Version: 6.00 Build 0)  -->
<svg version="1.1" id="Ebene_1" xmlns="http://www.w3.org/2000/svg" xmlns:xlink="http://www.w3.org/1999/xlink" x="0px" y="0px"
	 viewBox="0 0 1094 457" style="enable-background:new 0 0 1094 457;" xml:space="preserve">
<style type="text/css">
	.st0{fill:#FFFFFF;stroke:#000000;stroke-width:0.9368;stroke-miterlimit:10;}
	.st1{fill:#FFFFFF;}
	.st2{fill:#262626;stroke:#000000;stroke-width:1.8736;stroke-miterlimit:10;}
</style>
<path class="st0" d="M215.8,168.8c0.6,19.1,0,23.8,0,33.4c-27.2,42.2-58.8,26-63.5,0.2C150,188,173.1,178.3,215.8,168.8z"/>
<path class="st0" d="M227.7,168.8c-0.6,19.1,0,23.8,0,33.4c27.2,42.2,58.8,26,63.5,0.2C293.3,188,270.4,178.3,227.7,168.8z"/>
<rect x="163.7" y="241.7" class="st0" width="115.8" height="111"/>
<rect x="115.9" y="360.8" class="st0" width="38.9" height="11.7"/>
<rect x="115.9" y="315.5" class="st0" width="38.9" height="5.9"/>
<rect x="115.9" y="324.5" class="st0" width="38.9" height="5.9"/>
<rect x="115.7" y="333.6" class="st0" width="38.9" height="5.9"/>
<rect x="115.7" y="343.2" class="st0" width="38.9" height="5.9"/>
<rect x="115.7" y="352" class="st0" width="38.9" height="5.9"/>
<rect x="288.5" y="360.8" class="st0" width="38.9" height="11.7"/>
<rect x="288.5" y="315.5" class="st0" width="38.9" height="5.9"/>
<rect x="288.5" y="324.5" class="st0" width="38.9" height="5.9"/>
<rect x="288.3" y="333.6" class="st0" width="38.9" height="5.9"/>
<rect x="288.3" y="343.2" class="st0" width="38.9" height="5.9"/>
<rect x="288.3" y="352" class="st0" width="38.9" height="5.9"/>
<rect x="215.8" y="227.3" class="st0" width="11.7" height="14.5"/>
<rect x="215.8" y="175.9" class="st0" width="11.7" height="40.7"/>
<rect x="214.1" y="216.6" class="st0" width="15.3" height="7.3"/>
<rect x="168.3" y="245.8" width="107.2" height="36.5"/>
<rect x="183.3" y="250.9" class="st1" width="38.5" height="19.1"/>
<rect x="231.3" y="250.9" class="st1" width="38.5" height="26"/>
<rect x="206.4" y="253.3" width="9.2" height="3.7"/>
<rect x="206.4" y="258.6" width="9.2" height="3.7"/>
<rect x="206.4" y="264.1" width="9.2" height="3.7"/>
<rect x="187.7" y="253.3" width="9.2" height="3.7"/>
<rect x="187.7" y="258.6" width="9.2" height="3.7"/>
<rect x="187.7" y="264.1" width="9.2" height="3.7"/>
<rect x="248.7" y="253.3" width="21.2" height="1.8"/>
<rect x="248.7" y="257" width="21.2" height="1.8"/>
<rect x="248.7" y="262.7" width="21.2" height="1.8"/>
<rect x="248.7" y="266.1" width="21.2" height="1.8"/>
<rect x="248.7" y="273.5" width="21.2" height="1.8"/>
<ellipse cx="236.7" cy="256.6" rx="3.1" ry="2.9"/>
<ellipse class="st2" cx="190.9" cy="196.3" rx="16.3" ry="15.6"/>
<ellipse class="st2" cx="252.6" cy="196.3" rx="16.3" ry="15.6"/>
<rect x="135.2" y="250.9" class="st0" width="39" height="15.6"/>
<rect x="135.2" y="269.3" class="st0" width="39" height="15.6"/>
<rect x="268.8" y="250.9" class="st0" width="39" height="15.6"/>
<rect x="268.8" y="269.3" class="st0" width="39" height="15.6"/>
</svg>
